<?xml version="1.0" encoding="us-ascii" standalone="no"?><svg xmlns="http://www.w3.org/2000/svg" xmlns:xlink="http://www.w3.org/1999/xlink" contentStyleType="text/css" height="400px" preserveAspectRatio="none" style="width:638px;height:400px;background:#FFFFFF;" version="1.1" viewBox="0 0 638 400" width="638px" zoomAndPan="magnify"><defs/><g><!--class apci.APCI--><g id="elem_apci.APCI"><rect codeLine="6" fill="#F1F1F1" height="85.2422" id="apci.APCI" rx="2.5" ry="2.5" style="stroke:#181818;stroke-width:0.5;" width="217" x="7" y="7"/><ellipse cx="95.75" cy="23" fill="#ADD1B2" rx="11" ry="11" style="stroke:#181818;stroke-width:1.0;"/><path d="M98.5156,18.875 Q98.6719,18.6563 98.8594,18.5469 Q99.0469,18.4375 99.2656,18.4375 Q99.6406,18.4375 99.875,18.7031 Q100.1094,18.9531 100.1094,19.5625 L100.1094,21.0156 Q100.1094,21.625 99.875,21.8906 Q99.6406,22.1563 99.2656,22.1563 Q98.9219,22.1563 98.7188,21.9531 Q98.5156,21.7656 98.4063,21.25 Q98.3594,20.8906 98.1719,20.7031 Q97.8438,20.3281 97.2344,20.1094 Q96.625,19.8906 96,19.8906 Q95.2344,19.8906 94.5938,20.2188 Q93.9688,20.5469 93.4688,21.2969 Q92.9844,22.0469 92.9844,23.0781 L92.9844,24.1719 Q92.9844,25.4063 93.875,26.2344 Q94.7656,27.0469 96.3594,27.0469 Q97.2969,27.0469 97.9531,26.7969 Q98.3438,26.6406 98.7656,26.2031 Q99.0313,25.9375 99.1719,25.8594 Q99.3281,25.7813 99.5313,25.7813 Q99.8594,25.7813 100.1094,26.0469 Q100.375,26.2969 100.375,26.6406 Q100.375,26.9844 100.0313,27.3906 Q99.5313,27.9688 98.7344,28.2969 Q97.6563,28.75 96.3594,28.75 Q94.8438,28.75 93.6406,28.125 Q92.6563,27.625 91.9688,26.5625 Q91.2813,25.4844 91.2813,24.2031 L91.2813,23.0469 Q91.2813,21.7188 91.8906,20.5781 Q92.5156,19.4219 93.6094,18.8125 Q94.7031,18.1875 95.9375,18.1875 Q96.6719,18.1875 97.3125,18.3594 Q97.9688,18.5156 98.5156,18.875 Z " fill="#000000"/><text fill="#000000" font-family="sans-serif" font-size="14" lengthAdjust="spacing" textLength="31" x="116.25" y="28.7969">APCI</text><line style="stroke:#181818;stroke-width:0.5;" x1="8" x2="223" y1="39" y2="39"/><text fill="#000000" font-family="sans-serif" font-size="14" lengthAdjust="spacing" textLength="205" x="13" y="58.1074">ACPI_HEADER_LENGTH: int = 4</text><text fill="#000000" font-family="sans-serif" font-size="14" lengthAdjust="spacing" textLength="159" x="13" y="76.7285">START_BYTE: int = 0x68</text><line style="stroke:#181818;stroke-width:0.5;" x1="8" x2="223" y1="84.2422" y2="84.2422"/></g><!--class Frame.Frame--><g id="elem_Frame.Frame"><rect codeLine="12" fill="#F1F1F1" height="178.3477" id="Frame.Frame" rx="2.5" ry="2.5" style="stroke:#181818;stroke-width:0.5;" width="177" x="293" y="20.5"/><ellipse cx="356.75" cy="36.5" fill="#ADD1B2" rx="11" ry="11" style="stroke:#181818;stroke-width:1.0;"/><path d="M359.5156,32.375 Q359.6719,32.1563 359.8594,32.0469 Q360.0469,31.9375 360.2656,31.9375 Q360.6406,31.9375 360.875,32.2031 Q361.1094,32.4531 361.1094,33.0625 L361.1094,34.5156 Q361.1094,35.125 360.875,35.3906 Q360.6406,35.6563 360.2656,35.6563 Q359.9219,35.6563 359.7188,35.4531 Q359.5156,35.2656 359.4063,34.75 Q359.3594,34.3906 359.1719,34.2031 Q358.8438,33.8281 358.2344,33.6094 Q357.625,33.3906 357,33.3906 Q356.2344,33.3906 355.5938,33.7188 Q354.9688,34.0469 354.4688,34.7969 Q353.9844,35.5469 353.9844,36.5781 L353.9844,37.6719 Q353.9844,38.9063 354.875,39.7344 Q355.7656,40.5469 357.3594,40.5469 Q358.2969,40.5469 358.9531,40.2969 Q359.3438,40.1406 359.7656,39.7031 Q360.0313,39.4375 360.1719,39.3594 Q360.3281,39.2813 360.5313,39.2813 Q360.8594,39.2813 361.1094,39.5469 Q361.375,39.7969 361.375,40.1406 Q361.375,40.4844 361.0313,40.8906 Q360.5313,41.4688 359.7344,41.7969 Q358.6563,42.25 357.3594,42.25 Q355.8438,42.25 354.6406,41.625 Q353.6563,41.125 352.9688,40.0625 Q352.2813,38.9844 352.2813,37.7031 L352.2813,36.5469 Q352.2813,35.2188 352.8906,34.0781 Q353.5156,32.9219 354.6094,32.3125 Q355.7031,31.6875 356.9375,31.6875 Q357.6719,31.6875 358.3125,31.8594 Q358.9688,32.0156 359.5156,32.375 Z " fill="#000000"/><text fill="#000000" font-family="sans-serif" font-size="14" lengthAdjust="spacing" textLength="41" x="377.25" y="42.2969">Frame</text><line style="stroke:#181818;stroke-width:0.5;" x1="294" x2="469" y1="52.5" y2="52.5"/><rect fill="none" height="6" style="stroke:#C82930;stroke-width:1.0;" width="6" x="301" y="64.3105"/><text fill="#000000" font-family="sans-serif" font-size="14" lengthAdjust="spacing" textLength="11" x="313" y="71.6074">id</text><rect fill="none" height="6" style="stroke:#C82930;stroke-width:1.0;" width="6" x="301" y="82.9316"/><text fill="#000000" font-family="sans-serif" font-size="14" lengthAdjust="spacing" textLength="39" x="313" y="90.2285">length</text><rect fill="none" height="6" style="stroke:#C82930;stroke-width:1.0;" width="6" x="301" y="101.5527"/><text fill="#000000" font-family="sans-serif" font-size="14" lengthAdjust="spacing" textLength="84" x="313" y="108.8496">type_in_word</text><line style="stroke:#181818;stroke-width:0.5;" x1="294" x2="469" y1="116.3633" y2="116.3633"/><ellipse cx="304" cy="131.1738" fill="#84BE84" rx="3" ry="3" style="stroke:#038048;stroke-width:1.0;"/><text fill="#000000" font-family="sans-serif" font-size="14" lengthAdjust="spacing" textLength="57" x="313" y="135.4707">id() -&gt; int</text><ellipse cx="304" cy="149.7949" fill="#84BE84" rx="3" ry="3" style="stroke:#038048;stroke-width:1.0;"/><text fill="#000000" font-family="sans-serif" font-size="14" lengthAdjust="spacing" textLength="151" x="313" y="154.0918">serialize() -&gt; bytes | Any</text><ellipse cx="304" cy="168.416" fill="#84BE84" rx="3" ry="3" style="stroke:#038048;stroke-width:1.0;"/><text fill="#000000" font-family="sans-serif" font-size="14" lengthAdjust="spacing" textLength="109" x="313" y="172.7129">start_byte() -&gt; int</text><ellipse cx="304" cy="187.0371" fill="#84BE84" rx="3" ry="3" style="stroke:#038048;stroke-width:1.0;"/><text fill="#000000" font-family="sans-serif" font-size="14" lengthAdjust="spacing" textLength="85" x="313" y="191.334">length() -&gt; int</text></g><!--class IFormat.IFormat--><g id="elem_IFormat.IFormat"><rect codeLine="21" fill="#F1F1F1" height="159.7266" id="IFormat.IFormat" rx="2.5" ry="2.5" style="stroke:#181818;stroke-width:0.5;" width="195" x="284" y="233.5"/><ellipse cx="353.25" cy="249.5" fill="#ADD1B2" rx="11" ry="11" style="stroke:#181818;stroke-width:1.0;"/><path d="M356.0156,245.375 Q356.1719,245.1563 356.3594,245.0469 Q356.5469,244.9375 356.7656,244.9375 Q357.1406,244.9375 357.375,245.2031 Q357.6094,245.4531 357.6094,246.0625 L357.6094,247.5156 Q357.6094,248.125 357.375,248.3906 Q357.1406,248.6563 356.7656,248.6563 Q356.4219,248.6563 356.2188,248.4531 Q356.0156,248.2656 355.9063,247.75 Q355.8594,247.3906 355.6719,247.2031 Q355.3438,246.8281 354.7344,246.6094 Q354.125,246.3906 353.5,246.3906 Q352.7344,246.3906 352.0938,246.7188 Q351.4688,247.0469 350.9688,247.7969 Q350.4844,248.5469 350.4844,249.5781 L350.4844,250.6719 Q350.4844,251.9063 351.375,252.7344 Q352.2656,253.5469 353.8594,253.5469 Q354.7969,253.5469 355.4531,253.2969 Q355.8438,253.1406 356.2656,252.7031 Q356.5313,252.4375 356.6719,252.3594 Q356.8281,252.2813 357.0313,252.2813 Q357.3594,252.2813 357.6094,252.5469 Q357.875,252.7969 357.875,253.1406 Q357.875,253.4844 357.5313,253.8906 Q357.0313,254.4688 356.2344,254.7969 Q355.1563,255.25 353.8594,255.25 Q352.3438,255.25 351.1406,254.625 Q350.1563,254.125 349.4688,253.0625 Q348.7813,251.9844 348.7813,250.7031 L348.7813,249.5469 Q348.7813,248.2188 349.3906,247.0781 Q350.0156,245.9219 351.1094,245.3125 Q352.2031,244.6875 353.4375,244.6875 Q354.1719,244.6875 354.8125,244.8594 Q355.4688,245.0156 356.0156,245.375 Z " fill="#000000"/><text fill="#000000" font-family="sans-serif" font-size="14" lengthAdjust="spacing" textLength="48" x="373.75" y="255.2969">IFormat</text><line style="stroke:#181818;stroke-width:0.5;" x1="285" x2="478" y1="265.5" y2="265.5"/><rect fill="none" height="6" style="stroke:#C82930;stroke-width:1.0;" width="6" x="292" y="277.3105"/><text fill="#000000" font-family="sans-serif" font-size="14" lengthAdjust="spacing" textLength="28" x="304" y="284.6074">data</text><rect fill="none" height="6" style="stroke:#C82930;stroke-width:1.0;" width="6" x="292" y="295.9316"/><text fill="#000000" font-family="sans-serif" font-size="14" lengthAdjust="spacing" textLength="20" x="304" y="303.2285">rsn</text><rect fill="none" height="6" style="stroke:#C82930;stroke-width:1.0;" width="6" x="292" y="314.5527"/><text fill="#000000" font-family="sans-serif" font-size="14" lengthAdjust="spacing" textLength="22" x="304" y="321.8496">ssn</text><line style="stroke:#181818;stroke-width:0.5;" x1="285" x2="478" y1="329.3633" y2="329.3633"/><ellipse cx="295" cy="344.1738" fill="#84BE84" rx="3" ry="3" style="stroke:#038048;stroke-width:1.0;"/><text fill="#000000" font-family="sans-serif" font-size="14" lengthAdjust="spacing" textLength="169" x="304" y="348.4707">get_length_of_data() -&gt; int</text><ellipse cx="295" cy="362.7949" fill="#84BE84" rx="3" ry="3" style="stroke:#038048;stroke-width:1.0;"/><text fill="#000000" font-family="sans-serif" font-size="14" lengthAdjust="spacing" textLength="66" x="304" y="367.0918">rsn() -&gt; int</text><ellipse cx="295" cy="381.416" fill="#84BE84" rx="3" ry="3" style="stroke:#038048;stroke-width:1.0;"/><text fill="#000000" font-family="sans-serif" font-size="14" lengthAdjust="spacing" textLength="68" x="304" y="385.7129">ssn() -&gt; int</text></g><!--class SFormat.SFormat--><g id="elem_SFormat.SFormat"><rect codeLine="29" fill="#F1F1F1" height="85.2422" id="SFormat.SFormat" rx="2.5" ry="2.5" style="stroke:#181818;stroke-width:0.5;" width="92" x="539" y="67"/><ellipse cx="556.7" cy="83" fill="#ADD1B2" rx="11" ry="11" style="stroke:#181818;stroke-width:1.0;"/><path d="M559.4656,78.875 Q559.6219,78.6563 559.8094,78.5469 Q559.9969,78.4375 560.2156,78.4375 Q560.5906,78.4375 560.825,78.7031 Q561.0594,78.9531 561.0594,79.5625 L561.0594,81.0156 Q561.0594,81.625 560.825,81.8906 Q560.5906,82.1563 560.2156,82.1563 Q559.8719,82.1563 559.6688,81.9531 Q559.4656,81.7656 559.3563,81.25 Q559.3094,80.8906 559.1219,80.7031 Q558.7938,80.3281 558.1844,80.1094 Q557.575,79.8906 556.95,79.8906 Q556.1844,79.8906 555.5438,80.2188 Q554.9188,80.5469 554.4188,81.2969 Q553.9344,82.0469 553.9344,83.0781 L553.9344,84.1719 Q553.9344,85.4063 554.825,86.2344 Q555.7156,87.0469 557.3094,87.0469 Q558.2469,87.0469 558.9031,86.7969 Q559.2938,86.6406 559.7156,86.2031 Q559.9813,85.9375 560.1219,85.8594 Q560.2781,85.7813 560.4813,85.7813 Q560.8094,85.7813 561.0594,86.0469 Q561.325,86.2969 561.325,86.6406 Q561.325,86.9844 560.9813,87.3906 Q560.4813,87.9688 559.6844,88.2969 Q558.6063,88.75 557.3094,88.75 Q555.7938,88.75 554.5906,88.125 Q553.6063,87.625 552.9188,86.5625 Q552.2313,85.4844 552.2313,84.2031 L552.2313,83.0469 Q552.2313,81.7188 552.8406,80.5781 Q553.4656,79.4219 554.5594,78.8125 Q555.6531,78.1875 556.8875,78.1875 Q557.6219,78.1875 558.2625,78.3594 Q558.9188,78.5156 559.4656,78.875 Z " fill="#000000"/><text fill="#000000" font-family="sans-serif" font-size="14" lengthAdjust="spacing" textLength="54" x="571.3" y="88.7969">SFormat</text><line style="stroke:#181818;stroke-width:0.5;" x1="540" x2="630" y1="99" y2="99"/><rect fill="none" height="6" style="stroke:#C82930;stroke-width:1.0;" width="6" x="547" y="110.8105"/><text fill="#000000" font-family="sans-serif" font-size="14" lengthAdjust="spacing" textLength="20" x="559" y="118.1074">rsn</text><line style="stroke:#181818;stroke-width:0.5;" x1="540" x2="630" y1="125.6211" y2="125.6211"/><ellipse cx="550" cy="140.4316" fill="#84BE84" rx="3" ry="3" style="stroke:#038048;stroke-width:1.0;"/><text fill="#000000" font-family="sans-serif" font-size="14" lengthAdjust="spacing" textLength="66" x="559" y="144.7285">rsn() -&gt; int</text></g><!--class UFormat.UFormat--><g id="elem_UFormat.UFormat"><rect codeLine="33" fill="#F1F1F1" height="85.2422" id="UFormat.UFormat" rx="2.5" ry="2.5" style="stroke:#181818;stroke-width:0.5;" width="124" x="53.5" y="127"/><ellipse cx="85.6" cy="143" fill="#ADD1B2" rx="11" ry="11" style="stroke:#181818;stroke-width:1.0;"/><path d="M88.3656,138.875 Q88.5219,138.6563 88.7094,138.5469 Q88.8969,138.4375 89.1156,138.4375 Q89.4906,138.4375 89.725,138.7031 Q89.9594,138.9531 89.9594,139.5625 L89.9594,141.0156 Q89.9594,141.625 89.725,141.8906 Q89.4906,142.1563 89.1156,142.1563 Q88.7719,142.1563 88.5688,141.9531 Q88.3656,141.7656 88.2563,141.25 Q88.2094,140.8906 88.0219,140.7031 Q87.6938,140.3281 87.0844,140.1094 Q86.475,139.8906 85.85,139.8906 Q85.0844,139.8906 84.4438,140.2188 Q83.8188,140.5469 83.3188,141.2969 Q82.8344,142.0469 82.8344,143.0781 L82.8344,144.1719 Q82.8344,145.4063 83.725,146.2344 Q84.6156,147.0469 86.2094,147.0469 Q87.1469,147.0469 87.8031,146.7969 Q88.1938,146.6406 88.6156,146.2031 Q88.8813,145.9375 89.0219,145.8594 Q89.1781,145.7813 89.3813,145.7813 Q89.7094,145.7813 89.9594,146.0469 Q90.225,146.2969 90.225,146.6406 Q90.225,146.9844 89.8813,147.3906 Q89.3813,147.9688 88.5844,148.2969 Q87.5063,148.75 86.2094,148.75 Q84.6938,148.75 83.4906,148.125 Q82.5063,147.625 81.8188,146.5625 Q81.1313,145.4844 81.1313,144.2031 L81.1313,143.0469 Q81.1313,141.7188 81.7406,140.5781 Q82.3656,139.4219 83.4594,138.8125 Q84.5531,138.1875 85.7875,138.1875 Q86.5219,138.1875 87.1625,138.3594 Q87.8188,138.5156 88.3656,138.875 Z " fill="#000000"/><text fill="#000000" font-family="sans-serif" font-size="14" lengthAdjust="spacing" textLength="54" x="103.4" y="148.7969">UFormat</text><line style="stroke:#181818;stroke-width:0.5;" x1="54.5" x2="176.5" y1="159" y2="159"/><rect fill="none" height="6" style="stroke:#C82930;stroke-width:1.0;" width="6" x="61.5" y="170.8105"/><text fill="#000000" font-family="sans-serif" font-size="14" lengthAdjust="spacing" textLength="98" x="73.5" y="178.1074">type_frame : int</text><line style="stroke:#181818;stroke-width:0.5;" x1="54.5" x2="176.5" y1="185.6211" y2="185.6211"/><ellipse cx="64.5" cy="200.4316" fill="#84BE84" rx="3" ry="3" style="stroke:#038048;stroke-width:1.0;"/><text fill="#000000" font-family="sans-serif" font-size="14" lengthAdjust="spacing" textLength="73" x="73.5" y="204.7285">type() -&gt; int</text></g><!--link apci.APCI to Frame.Frame--><g id="link_apci.APCI_Frame.Frame"><path codeLine="38" d="M224.08,56.25 C246.92,56.25 258.75,56.25 280.76,56.25 " fill="none" id="apci.APCI-to-Frame.Frame" style="stroke:#181818;stroke-width:1.0;"/><polygon fill="#181818" points="292.76,56.25,286.76,52.25,280.76,56.25,286.76,60.25,292.76,56.25" style="stroke:#181818;stroke-width:1.0;"/></g><!--reverse link Frame.Frame to IFormat.IFormat--><g id="link_Frame.Frame_IFormat.IFormat"><path codeLine="39" d="M382,216.68 C382,228.26 382,222.06 382,233.48 " fill="none" id="Frame.Frame-backto-IFormat.IFormat" style="stroke:#181818;stroke-width:1.0;"/><polygon fill="none" points="382,198.68,376,216.68,388,216.68,382,198.68" style="stroke:#181818;stroke-width:1.0;"/></g><!--reverse link Frame.Frame to SFormat.SFormat--><g id="link_Frame.Frame_SFormat.SFormat"><path codeLine="40" d="M488.17,109.5 C511.84,109.5 518.47,109.5 538.82,109.5 " fill="none" id="Frame.Frame-backto-SFormat.SFormat" style="stroke:#181818;stroke-width:1.0;"/><polygon fill="none" points="470.17,109.5,488.17,115.5,488.17,103.5,470.17,109.5" style="stroke:#181818;stroke-width:1.0;"/></g><!--link UFormat.UFormat to Frame.Frame--><g id="link_UFormat.UFormat_Frame.Frame"><path codeLine="41" d="M177.53,162.75 C211.84,162.75 237.06,162.75 274.88,162.75 " fill="none" id="UFormat.UFormat-to-Frame.Frame" style="stroke:#181818;stroke-width:1.0;"/><polygon fill="none" points="292.88,162.75,274.88,156.75,274.88,168.75,292.88,162.75" style="stroke:#181818;stroke-width:1.0;"/></g><!--SRC=[RL9TQy8m57tFhxZuiWz9aR6D8Kped4vX3B7rOKyXQwE6rQGaTpWt_UzhqgfjsKlloScvvnvkQWM2uXjXSvw8IEJSSDG6b5Q2P6A9W1gCNAqHKcb4Wb8hSc4JdWcukUl1LgQu9lPJAjUvWKmg4Uzo0ThWMXEIPDnQw8IpuRG3t0BF4ncu4_oIS3YRiiaeV1xDsUlexIMUz44gX4Uu9L4SpcFsz1wFZbpl-_w17CZ9SboC4zxJey1_2rS02ZBr9HDgLQHp48jCJ2gsrSRTTGl9vHNGWJFtPokCv9dy4INziKDXOG-XsfNNo0qonpRRoX5dxd2CDnrhi-7e0rOug6eLCkN8FJ1M-MfzxS9A82jzcLuo9slEBFIjx7NYb22g9QXm43KIc6gW-RT_KUklSB1ezFkbBltU-wSmZgoxaVEJKtfTVopItWjrFnpT3ngYTdJwbRSbxNGqrLlL4lq1]--></g></svg>