<?xml version="1.0" encoding="us-ascii" standalone="no"?><svg xmlns="http://www.w3.org/2000/svg" xmlns:xlink="http://www.w3.org/1999/xlink" contentStyleType="text/css" height="1361px" preserveAspectRatio="none" style="width:1087px;height:1361px;background:#FFFFFF;" version="1.1" viewBox="0 0 1087 1361" width="1087px" zoomAndPan="magnify"><defs/><g><rect fill="none" height="23.9414" style="stroke:none;stroke-width:1.0;" width="1054.75" x="15" y="13.0176"/><rect fill="#808080" height="1336.5723" style="stroke:#808080;stroke-width:1.0;" width="532.5" x="15" y="13.0176"/><ellipse cx="273.25" cy="51.959" fill="#222222" rx="10" ry="10" style="stroke:#222222;stroke-width:1.0;"/><polygon fill="#F1F1F1" points="233.25,156.8008,313.25,156.8008,325.25,168.8008,313.25,180.8008,233.25,180.8008,221.25,168.8008,233.25,156.8008" style="stroke:#181818;stroke-width:0.5;"/><text fill="#000000" font-family="sans-serif" font-size="18" lengthAdjust="spacing" textLength="70" x="238.25" y="176.2539">read(2B)</text><text fill="#000000" font-family="sans-serif" font-size="18" lengthAdjust="spacing" textLength="20" x="201.25" y="164.2832">ne</text><text fill="#000000" font-family="sans-serif" font-size="18" lengthAdjust="spacing" textLength="30" x="325.25" y="164.2832">ano</text><rect fill="#F1F1F1" height="43.9414" rx="12.5" ry="12.5" style="stroke:#181818;stroke-width:0.5;" width="204" x="48" y="200.8008"/><text fill="#000000" font-family="sans-serif" font-size="18" lengthAdjust="spacing" textLength="184" x="58" y="230.2246">TCP spojen&#237; ukon&#269;eno</text><ellipse cx="150" cy="290.7422" fill="none" rx="11" ry="11" style="stroke:#222222;stroke-width:1.0;"/><ellipse cx="150" cy="290.7422" fill="#222222" rx="6" ry="6" style="stroke:#222222;stroke-width:1.0;"/><rect fill="#F1F1F1" height="67.8828" rx="12.5" ry="12.5" style="stroke:#181818;stroke-width:0.5;" width="236" x="278.5" y="200.8008"/><text fill="#000000" font-family="sans-serif" font-size="18" lengthAdjust="spacing" textLength="216" x="288.5" y="230.2246">&#269;ti p&#345;&#237;choz&#237; r&#225;mec z bufferu</text><text fill="#000000" font-family="sans-serif" font-size="18" lengthAdjust="spacing" textLength="131" x="338.5" y="254.166">apdu = read(2B)</text><rect fill="#F1F1F1" height="43.9414" rx="12.5" ry="12.5" style="stroke:#181818;stroke-width:0.5;" width="138" x="327.5" y="357.6543"/><text fill="#000000" font-family="sans-serif" font-size="18" lengthAdjust="spacing" textLength="118" x="337.5" y="387.0781">delka = 2. byte</text><rect fill="#F1F1F1" height="67.8828" rx="12.5" ry="12.5" style="stroke:#181818;stroke-width:0.5;" width="224" x="284.5" y="421.5957"/><text fill="#000000" font-family="sans-serif" font-size="18" lengthAdjust="spacing" textLength="204" x="294.5" y="451.0195">&#269;ti zbytek r&#225;mce dle d&#233;lky</text><text fill="#000000" font-family="sans-serif" font-size="18" lengthAdjust="spacing" textLength="152" x="329.5" y="474.9609">apdu = read(delka)</text><rect fill="#F1F1F1" height="67.8828" rx="12.5" ry="12.5" style="stroke:#181818;stroke-width:0.5;" width="229" x="282" y="509.4785"/><text fill="#000000" font-family="sans-serif" font-size="18" lengthAdjust="spacing" textLength="196" x="292" y="538.9023">ziskani objektu na r&#225;mec</text><text fill="#000000" font-family="sans-serif" font-size="18" lengthAdjust="spacing" textLength="209" x="292" y="562.8438">new_apdu = Parser(apdu)</text><rect fill="#F1F1F1" height="67.8828" rx="12.5" ry="12.5" style="stroke:#181818;stroke-width:0.5;" width="190" x="301.5" y="597.3613"/><text fill="#000000" font-family="sans-serif" font-size="18" lengthAdjust="spacing" textLength="170" x="311.5" y="626.7852">aktualizace &#269;asova&#269;&#367;</text><text fill="#000000" font-family="sans-serif" font-size="18" lengthAdjust="spacing" textLength="90" x="361.5" y="650.7266">t0, t1, t2, t3</text><polygon fill="#F1F1F1" points="339,303.6836,454,303.6836,466,315.6836,454,327.6836,339,327.6836,327,315.6836,339,303.6836" style="stroke:#181818;stroke-width:0.5;"/><text fill="#000000" font-family="sans-serif" font-size="18" lengthAdjust="spacing" textLength="30" x="400.5" y="347.1074">ano</text><text fill="#000000" font-family="sans-serif" font-size="18" lengthAdjust="spacing" textLength="115" x="339" y="323.1367">1. Byte = 0x68</text><text fill="#000000" font-family="sans-serif" font-size="18" lengthAdjust="spacing" textLength="20" x="307" y="311.166">ne</text><polygon fill="#F1F1F1" points="396.5,1152.6895,408.5,1164.6895,396.5,1176.6895,384.5,1164.6895,396.5,1152.6895" style="stroke:#181818;stroke-width:0.5;"/><polygon fill="#F1F1F1" points="206.25,86.918,340.25,86.918,352.25,98.918,340.25,110.918,206.25,110.918,194.25,98.918,206.25,86.918" style="stroke:#181818;stroke-width:0.5;"/><text fill="#000000" font-family="sans-serif" font-size="18" lengthAdjust="spacing" textLength="20" x="277.25" y="130.3418">ne</text><text fill="#000000" font-family="sans-serif" font-size="18" lengthAdjust="spacing" textLength="134" x="206.25" y="106.3711">P&#345;&#237;znak timeout?</text><text fill="#000000" font-family="sans-serif" font-size="18" lengthAdjust="spacing" textLength="30" x="164.25" y="94.4004">ano</text><line style="stroke:#000000;stroke-width:1.5;" x1="15" x2="15" y1="13.0176" y2="1349.5898"/><rect fill="#D3D3D3" height="1336.5723" style="stroke:#D3D3D3;stroke-width:1.0;" width="314.75" x="547.5" y="13.0176"/><ellipse cx="747.75" cy="707.582" fill="#F1F1F1" rx="10" ry="10" style="stroke:#181818;stroke-width:0.5;"/><path d="M742.2188,713.082 L747.1719,700.1914 L749.0156,700.1914 L754.2813,713.082 L752.3438,713.082 L750.8438,709.1758 L745.4531,709.1758 L744.0313,713.082 L742.2188,713.082 Z M745.9375,707.7852 L750.3125,707.7852 L748.9688,704.2227 Q748.3438,702.5977 748.0469,701.5508 Q747.8125,702.7852 747.3594,704.0039 L745.9375,707.7852 Z " fill="#000000"/><rect fill="#F1F1F1" height="67.8828" rx="12.5" ry="12.5" style="stroke:#181818;stroke-width:0.5;" width="170" x="662.75" y="740.582"/><text fill="#000000" font-family="sans-serif" font-size="18" lengthAdjust="spacing" textLength="150" x="672.75" y="770.0059">callback pro r&#225;mec</text><text fill="#000000" font-family="sans-serif" font-size="18" lengthAdjust="spacing" textLength="103" x="697.75" y="793.9473">nebo timeout</text><rect fill="#F1F1F1" height="67.8828" rx="12.5" ry="12.5" style="stroke:#181818;stroke-width:0.5;" width="200" x="647.75" y="887.3945"/><text fill="#000000" font-family="sans-serif" font-size="18" lengthAdjust="spacing" textLength="111" x="687.75" y="916.8184">zpracuj r&#225;mec</text><text fill="#000000" font-family="sans-serif" font-size="18" lengthAdjust="spacing" textLength="175" x="662.75" y="940.7598">a ulo&#382; ho do datab&#225;ze</text><polygon fill="#F1F1F1" points="718.25,833.4238,777.25,833.4238,789.25,845.4238,777.25,857.4238,718.25,857.4238,706.25,845.4238,718.25,833.4238" style="stroke:#181818;stroke-width:0.5;"/><text fill="#000000" font-family="sans-serif" font-size="18" lengthAdjust="spacing" textLength="30" x="751.75" y="876.8477">ano</text><text fill="#000000" font-family="sans-serif" font-size="18" lengthAdjust="spacing" textLength="59" x="718.25" y="852.877">r&#225;mec?</text><text fill="#000000" font-family="sans-serif" font-size="18" lengthAdjust="spacing" textLength="20" x="686.25" y="840.9063">ne</text><polygon fill="#F1F1F1" points="747.75,1044.748,759.75,1056.748,747.75,1068.748,735.75,1056.748,747.75,1044.748" style="stroke:#181818;stroke-width:0.5;"/><rect fill="#F1F1F1" height="43.9414" rx="12.5" ry="12.5" style="stroke:#181818;stroke-width:0.5;" width="221" x="637.25" y="1088.748"/><text fill="#000000" font-family="sans-serif" font-size="18" lengthAdjust="spacing" textLength="201" x="647.25" y="1118.1719">aktualizace stavu spojen&#237;</text><rect fill="#F1F1F1" height="43.9414" rx="12.5" ry="12.5" style="stroke:#181818;stroke-width:0.5;" width="142" x="553.5" y="1218.6895"/><text fill="#000000" font-family="sans-serif" font-size="18" lengthAdjust="spacing" textLength="122" x="563.5" y="1248.1133">handle_timeout</text><polygon fill="#F1F1F1" points="612,1287.5898,637,1287.5898,649,1299.5898,637,1311.5898,612,1311.5898,600,1299.5898,612,1287.5898" style="stroke:#181818;stroke-width:0.5;"/><text fill="#000000" font-family="sans-serif" font-size="18" lengthAdjust="spacing" textLength="25" x="612" y="1307.043">t1?</text><text fill="#000000" font-family="sans-serif" font-size="18" lengthAdjust="spacing" textLength="30" x="570" y="1295.0723">ano</text><text fill="#000000" font-family="sans-serif" font-size="18" lengthAdjust="spacing" textLength="20" x="649" y="1295.0723">ne</text><ellipse cx="590" cy="1332.5898" fill="none" rx="11" ry="11" style="stroke:#222222;stroke-width:1.0;"/><ellipse cx="590" cy="1332.5898" fill="#222222" rx="6" ry="6" style="stroke:#222222;stroke-width:1.0;"/><ellipse cx="659" cy="1331.5898" fill="#F1F1F1" rx="10" ry="10" style="stroke:#181818;stroke-width:0.5;"/><path d="M653.4688,1337.0898 L658.4219,1324.1992 L660.2656,1324.1992 L665.5313,1337.0898 L663.5938,1337.0898 L662.0938,1333.1836 L656.7031,1333.1836 L655.2813,1337.0898 L653.4688,1337.0898 Z M657.1875,1331.793 L661.5625,1331.793 L660.2188,1328.2305 Q659.5938,1326.6055 659.2969,1325.5586 Q659.0625,1326.793 658.6094,1328.0117 L657.1875,1331.793 Z " fill="#000000"/><line style="stroke:#000000;stroke-width:1.5;" x1="547.5" x2="547.5" y1="13.0176" y2="1349.5898"/><rect fill="#F1F1F1" height="43.9414" rx="12.5" ry="12.5" style="stroke:#181818;stroke-width:0.5;" width="196" x="868.25" y="980.8066"/><text fill="#000000" font-family="sans-serif" font-size="18" lengthAdjust="spacing" textLength="176" x="878.25" y="1010.2305">data do MQTT Broker</text><line style="stroke:#000000;stroke-width:1.5;" x1="862.25" x2="862.25" y1="13.0176" y2="1349.5898"/><line style="stroke:#000000;stroke-width:1.5;" x1="1068.25" x2="1068.25" y1="13.0176" y2="1349.5898"/><line style="stroke:#181818;stroke-width:1.0;" x1="150" x2="150" y1="244.7422" y2="279.7422"/><polygon fill="#181818" points="146,269.7422,150,279.7422,154,269.7422,150,273.7422" style="stroke:#181818;stroke-width:1.0;"/><line style="stroke:#181818;stroke-width:1.0;" x1="396.5" x2="396.5" y1="401.5957" y2="421.5957"/><polygon fill="#181818" points="392.5,411.5957,396.5,421.5957,400.5,411.5957,396.5,415.5957" style="stroke:#181818;stroke-width:1.0;"/><line style="stroke:#181818;stroke-width:1.0;" x1="396.5" x2="396.5" y1="489.4785" y2="509.4785"/><polygon fill="#181818" points="392.5,499.4785,396.5,509.4785,400.5,499.4785,396.5,503.4785" style="stroke:#181818;stroke-width:1.0;"/><line style="stroke:#181818;stroke-width:1.0;" x1="396.5" x2="396.5" y1="577.3613" y2="597.3613"/><polygon fill="#181818" points="392.5,587.3613,396.5,597.3613,400.5,587.3613,396.5,591.3613" style="stroke:#181818;stroke-width:1.0;"/><line style="stroke:#181818;stroke-width:1.0;" x1="396.5" x2="396.5" y1="327.6836" y2="357.6543"/><polygon fill="#181818" points="392.5,347.6543,396.5,357.6543,400.5,347.6543,396.5,351.6543" style="stroke:#181818;stroke-width:1.0;"/><line style="stroke:#181818;stroke-width:1.0;" x1="327" x2="272" y1="315.6836" y2="315.6836"/><polygon fill="#181818" points="268,727.582,272,737.582,276,727.582,272,731.582" style="stroke:#181818;stroke-width:1.0;"/><line style="stroke:#181818;stroke-width:1.0;" x1="272" x2="272" y1="315.6836" y2="1164.6895"/><line style="stroke:#181818;stroke-width:1.0;" x1="272" x2="384.5" y1="1164.6895" y2="1164.6895"/><polygon fill="#181818" points="374.5,1160.6895,384.5,1164.6895,374.5,1168.6895,378.5,1164.6895" style="stroke:#181818;stroke-width:1.0;"/><line style="stroke:#181818;stroke-width:1.0;" x1="396.5" x2="396.5" y1="268.6836" y2="303.6836"/><polygon fill="#181818" points="392.5,293.6836,396.5,303.6836,400.5,293.6836,396.5,297.6836" style="stroke:#181818;stroke-width:1.0;"/><line style="stroke:#181818;stroke-width:1.0;" x1="221.25" x2="150" y1="168.8008" y2="168.8008"/><line style="stroke:#181818;stroke-width:1.0;" x1="150" x2="150" y1="168.8008" y2="200.8008"/><polygon fill="#181818" points="146,190.8008,150,200.8008,154,190.8008,150,194.8008" style="stroke:#181818;stroke-width:1.0;"/><line style="stroke:#181818;stroke-width:1.0;" x1="325.25" x2="396.5" y1="168.8008" y2="168.8008"/><line style="stroke:#181818;stroke-width:1.0;" x1="396.5" x2="396.5" y1="168.8008" y2="200.8008"/><polygon fill="#181818" points="392.5,190.8008,396.5,200.8008,400.5,190.8008,396.5,194.8008" style="stroke:#181818;stroke-width:1.0;"/><line style="stroke:#181818;stroke-width:1.0;" x1="396.5" x2="396.5" y1="1176.6895" y2="1186.6895"/><line style="stroke:#181818;stroke-width:1.0;" x1="396.5" x2="528.5" y1="1186.6895" y2="1186.6895"/><polygon fill="#181818" points="524.5,672.832,528.5,662.832,532.5,672.832,528.5,668.832" style="stroke:#181818;stroke-width:1.0;"/><line style="stroke:#181818;stroke-width:1.0;" x1="528.5" x2="528.5" y1="98.918" y2="1186.6895"/><line style="stroke:#181818;stroke-width:1.0;" x1="528.5" x2="352.25" y1="98.918" y2="98.918"/><polygon fill="#181818" points="362.25,94.918,352.25,98.918,362.25,102.918,358.25,98.918" style="stroke:#181818;stroke-width:1.0;"/><line style="stroke:#181818;stroke-width:1.0;" x1="273.25" x2="273.25" y1="110.918" y2="156.8008"/><polygon fill="#181818" points="269.25,146.8008,273.25,156.8008,277.25,146.8008,273.25,150.8008" style="stroke:#181818;stroke-width:1.0;"/><line style="stroke:#181818;stroke-width:1.0;" x1="194.25" x2="34" y1="98.918" y2="98.918"/><polygon fill="#181818" points="30,667.582,34,677.582,38,667.582,34,671.582" style="stroke:#181818;stroke-width:1.0;"/><line style="stroke:#181818;stroke-width:1.0;" x1="34" x2="34" y1="98.918" y2="1203.6895"/><line style="stroke:#181818;stroke-width:1.0;" x1="34" x2="624.5" y1="1203.6895" y2="1203.6895"/><line style="stroke:#181818;stroke-width:1.0;" x1="624.5" x2="624.5" y1="1203.6895" y2="1218.6895"/><polygon fill="#181818" points="620.5,1208.6895,624.5,1218.6895,628.5,1208.6895,624.5,1212.6895" style="stroke:#181818;stroke-width:1.0;"/><line style="stroke:#181818;stroke-width:1.0;" x1="273.25" x2="273.25" y1="61.959" y2="86.918"/><polygon fill="#181818" points="269.25,76.918,273.25,86.918,277.25,76.918,273.25,80.918" style="stroke:#181818;stroke-width:1.0;"/><line style="stroke:#181818;stroke-width:1.0;" x1="747.75" x2="747.75" y1="717.582" y2="740.582"/><polygon fill="#181818" points="743.75,730.582,747.75,740.582,751.75,730.582,747.75,734.582" style="stroke:#181818;stroke-width:1.0;"/><line style="stroke:#181818;stroke-width:1.0;" x1="747.75" x2="747.75" y1="857.4238" y2="887.3945"/><polygon fill="#181818" points="743.75,877.3945,747.75,887.3945,751.75,877.3945,747.75,881.3945" style="stroke:#181818;stroke-width:1.0;"/><line style="stroke:#181818;stroke-width:1.0;" x1="706.25" x2="637.75" y1="845.4238" y2="845.4238"/><polygon fill="#181818" points="633.75,950.8066,637.75,960.8066,641.75,950.8066,637.75,954.8066" style="stroke:#181818;stroke-width:1.0;"/><line style="stroke:#181818;stroke-width:1.0;" x1="637.75" x2="637.75" y1="845.4238" y2="1056.748"/><line style="stroke:#181818;stroke-width:1.0;" x1="637.75" x2="735.75" y1="1056.748" y2="1056.748"/><polygon fill="#181818" points="725.75,1052.748,735.75,1056.748,725.75,1060.748,729.75,1056.748" style="stroke:#181818;stroke-width:1.0;"/><line style="stroke:#181818;stroke-width:1.0;" x1="747.75" x2="747.75" y1="808.4648" y2="833.4238"/><polygon fill="#181818" points="743.75,823.4238,747.75,833.4238,751.75,823.4238,747.75,827.4238" style="stroke:#181818;stroke-width:1.0;"/><line style="stroke:#181818;stroke-width:1.0;" x1="747.75" x2="747.75" y1="1068.748" y2="1088.748"/><polygon fill="#181818" points="743.75,1078.748,747.75,1088.748,751.75,1078.748,747.75,1082.748" style="stroke:#181818;stroke-width:1.0;"/><line style="stroke:#181818;stroke-width:1.0;" x1="600" x2="590" y1="1299.5898" y2="1299.5898"/><line style="stroke:#181818;stroke-width:1.0;" x1="590" x2="590" y1="1299.5898" y2="1321.5898"/><polygon fill="#181818" points="586,1311.5898,590,1321.5898,594,1311.5898,590,1315.5898" style="stroke:#181818;stroke-width:1.0;"/><line style="stroke:#181818;stroke-width:1.0;" x1="649" x2="659" y1="1299.5898" y2="1299.5898"/><line style="stroke:#181818;stroke-width:1.0;" x1="659" x2="659" y1="1299.5898" y2="1321.5898"/><polygon fill="#181818" points="655,1311.5898,659,1321.5898,663,1311.5898,659,1315.5898" style="stroke:#181818;stroke-width:1.0;"/><line style="stroke:#181818;stroke-width:1.0;" x1="624.5" x2="624.5" y1="1262.6309" y2="1287.5898"/><polygon fill="#181818" points="620.5,1277.5898,624.5,1287.5898,628.5,1277.5898,624.5,1281.5898" style="stroke:#181818;stroke-width:1.0;"/><line style="stroke:#181818;stroke-width:1.0;" x1="396.5" x2="396.5" y1="665.2441" y2="682.582"/><line style="stroke:#181818;stroke-width:1.0;" x1="396.5" x2="747.75" y1="682.582" y2="682.582"/><line style="stroke:#181818;stroke-width:1.0;" x1="747.75" x2="747.75" y1="682.582" y2="697.582"/><polygon fill="#181818" points="743.75,687.582,747.75,697.582,751.75,687.582,747.75,691.582" style="stroke:#181818;stroke-width:1.0;"/><line style="stroke:#181818;stroke-width:1.0;" x1="747.75" x2="747.75" y1="955.2773" y2="965.8066"/><line style="stroke:#181818;stroke-width:1.0;" x1="747.75" x2="966.25" y1="965.8066" y2="965.8066"/><line style="stroke:#181818;stroke-width:1.0;" x1="966.25" x2="966.25" y1="965.8066" y2="980.8066"/><polygon fill="#181818" points="962.25,970.8066,966.25,980.8066,970.25,970.8066,966.25,974.8066" style="stroke:#181818;stroke-width:1.0;"/><line style="stroke:#181818;stroke-width:1.0;" x1="966.25" x2="966.25" y1="1024.748" y2="1029.7627"/><line style="stroke:#181818;stroke-width:1.0;" x1="966.25" x2="747.75" y1="1029.7627" y2="1029.7627"/><line style="stroke:#181818;stroke-width:1.0;" x1="747.75" x2="747.75" y1="1029.7627" y2="1044.748"/><polygon fill="#181818" points="743.75,1034.748,747.75,1044.748,751.75,1034.748,747.75,1038.748" style="stroke:#181818;stroke-width:1.0;"/><line style="stroke:#181818;stroke-width:1.0;" x1="747.75" x2="747.75" y1="1132.6895" y2="1137.7041"/><line style="stroke:#181818;stroke-width:1.0;" x1="747.75" x2="396.5" y1="1137.7041" y2="1137.7041"/><line style="stroke:#181818;stroke-width:1.0;" x1="396.5" x2="396.5" y1="1137.7041" y2="1152.6895"/><polygon fill="#181818" points="392.5,1142.6895,396.5,1152.6895,400.5,1142.6895,396.5,1146.6895" style="stroke:#181818;stroke-width:1.0;"/><text fill="#000000" font-family="sans-serif" font-size="18" lengthAdjust="spacing" textLength="64" x="249.25" y="32.4414">Session</text><text fill="#000000" font-family="sans-serif" font-size="18" lengthAdjust="spacing" textLength="117" x="646.375" y="32.4414">ClientManager</text><text fill="#000000" font-family="sans-serif" font-size="18" lengthAdjust="spacing" textLength="119" x="905.75" y="32.4414">MQTTProtocol</text><!--SRC=[ZLFDQjj04BxhAGPoaQ24s8KIOagf4teBkCJ7G1X98skjzQxONIMrq2lu0NhCiOVGD-Z5zdjrLxRNaPn05gt-PlQRRxwPqGKJ9IfSm0rbM77pGmfpnsg2mMKGD6SpHSlcZhHcKZI1DgXCy9GpJX1Ejh_NBxN00WnRaApCjmYOXb1G581TB8CG564Q3iSHH70mWib9j1vkNKsl9w1BEIUnVe6ga6Ap8Y57ta4RMROVnBMDYa96tjRdvq4tAyEWT0IJNDOMMAsV5vH03N6LPQIgUm5-OPbMyDLJ7GKUnwKmE8Vnqf1rkFZrvJ9wEuitkBKyKk85sgF3SuWjoAXhRLdMpb2q11E2r2gRhl_mOkaPlgRNuaKzc9hf0WK36S-fC1K8tATxBmGzFUpFJr1fKg7xwWEWFOMSrMW9R5QevIDkLjk_hpKo5v_03EmUsltPIjH1QCuuc-Lcfd3PN7D6mjoYm1cffkCMVk_9ao3dCIO5b4fwpgr9K2mFVTLbwsgoSzttcrEzMmsFltlKfSAacXy385HSRlz1BY6r5ngCryzrhpfjNhS_fzE9aaOcaZUd-EweWt1kC5Qo8DK5sVN5OIByNv6ox3JOnqGygPWToiVAZz0n_Z7AxitUzvFRzkbLZi9ssuCNsGbh1k-BwWVnlSmwvKt9O99toVm7]--></g></svg>