<?xml version="1.0" encoding="us-ascii" standalone="no"?><svg xmlns="http://www.w3.org/2000/svg" xmlns:xlink="http://www.w3.org/1999/xlink" contentStyleType="text/css" height="831px" preserveAspectRatio="none" style="width:859px;height:831px;background:#FFFFFF;" version="1.1" viewBox="0 0 859 831" width="859px" zoomAndPan="magnify"><defs/><g><rect fill="#FFBBBB" height="735.9844" style="stroke:#181818;stroke-width:1.0;" width="10" x="152" y="48.6211"/><rect fill="#DADBBB" height="71.873" style="stroke:#181818;stroke-width:1.0;" width="10" x="388" y="100.8486"/><rect fill="#00AAAA" height="34.291" style="stroke:#181818;stroke-width:1.0;" width="10" x="388" y="256.2402"/><rect fill="#FFFFFF" height="30" style="stroke:#181818;stroke-width:1.0;" width="10" x="388" y="367.7588"/><rect fill="#FFFFFF" height="30" style="stroke:#181818;stroke-width:1.0;" width="10" x="388" y="440.6953"/><rect fill="#FFFFFF" height="30" style="stroke:#181818;stroke-width:1.0;" width="10" x="388" y="501.9863"/><rect fill="#888888" height="514.0107" style="stroke:#181818;stroke-width:1.0;" width="10" x="666" y="172.7217"/><rect fill="#00FF00" height="34.291" style="stroke:#181818;stroke-width:1.0;" width="10" x="671" y="290.5313"/><rect fill="#00FF00" height="31.291" style="stroke:#181818;stroke-width:1.0;" width="10" x="671" y="603.8594"/><line style="stroke:#181818;stroke-width:0.5;stroke-dasharray:5.0,5.0;" x1="157" x2="157" y1="38.6211" y2="793.6055"/><line style="stroke:#181818;stroke-width:0.5;stroke-dasharray:5.0,5.0;" x1="393" x2="393" y1="38.6211" y2="793.6055"/><line style="stroke:#181818;stroke-width:0.5;stroke-dasharray:5.0,5.0;" x1="671" x2="671" y1="38.6211" y2="793.6055"/><rect fill="#E2E2F0" height="32.6211" rx="2.5" ry="2.5" style="stroke:#181818;stroke-width:0.5;" width="102" x="106" y="5"/><text fill="#000000" font-family="sans-serif" font-size="14" lengthAdjust="spacing" textLength="88" x="113" y="27.1074">ServerIEC104</text><rect fill="#E2E2F0" height="32.6211" rx="2.5" ry="2.5" style="stroke:#181818;stroke-width:0.5;" width="102" x="106" y="792.6055"/><text fill="#000000" font-family="sans-serif" font-size="14" lengthAdjust="spacing" textLength="88" x="113" y="814.7129">ServerIEC104</text><rect fill="#E2E2F0" height="32.6211" rx="2.5" ry="2.5" style="stroke:#181818;stroke-width:0.5;" width="106" x="340" y="5"/><text fill="#000000" font-family="sans-serif" font-size="14" lengthAdjust="spacing" textLength="92" x="347" y="27.1074">ClientManager</text><rect fill="#E2E2F0" height="32.6211" rx="2.5" ry="2.5" style="stroke:#181818;stroke-width:0.5;" width="106" x="340" y="792.6055"/><text fill="#000000" font-family="sans-serif" font-size="14" lengthAdjust="spacing" textLength="92" x="347" y="814.7129">ClientManager</text><rect fill="#E2E2F0" height="32.6211" rx="2.5" ry="2.5" style="stroke:#181818;stroke-width:0.5;" width="64" x="639" y="5"/><text fill="#000000" font-family="sans-serif" font-size="14" lengthAdjust="spacing" textLength="50" x="646" y="27.1074">Session</text><rect fill="#E2E2F0" height="32.6211" rx="2.5" ry="2.5" style="stroke:#181818;stroke-width:0.5;" width="64" x="639" y="792.6055"/><text fill="#000000" font-family="sans-serif" font-size="14" lengthAdjust="spacing" textLength="50" x="646" y="814.7129">Session</text><rect fill="#FFBBBB" height="735.9844" style="stroke:#181818;stroke-width:1.0;" width="10" x="152" y="48.6211"/><rect fill="#DADBBB" height="71.873" style="stroke:#181818;stroke-width:1.0;" width="10" x="388" y="100.8486"/><rect fill="#00AAAA" height="34.291" style="stroke:#181818;stroke-width:1.0;" width="10" x="388" y="256.2402"/><rect fill="#FFFFFF" height="30" style="stroke:#181818;stroke-width:1.0;" width="10" x="388" y="367.7588"/><rect fill="#FFFFFF" height="30" style="stroke:#181818;stroke-width:1.0;" width="10" x="388" y="440.6953"/><rect fill="#FFFFFF" height="30" style="stroke:#181818;stroke-width:1.0;" width="10" x="388" y="501.9863"/><rect fill="#888888" height="514.0107" style="stroke:#181818;stroke-width:1.0;" width="10" x="666" y="172.7217"/><rect fill="#00FF00" height="34.291" style="stroke:#181818;stroke-width:1.0;" width="10" x="671" y="290.5313"/><rect fill="#00FF00" height="31.291" style="stroke:#181818;stroke-width:1.0;" width="10" x="671" y="603.8594"/><polygon fill="#181818" points="376,96.8486,386,100.8486,376,104.8486,380,100.8486" style="stroke:#181818;stroke-width:1.0;"/><line style="stroke:#181818;stroke-width:1.0;" x1="162" x2="382" y1="100.8486" y2="100.8486"/><text fill="#000000" font-family="sans-serif" font-size="13" font-weight="bold" lengthAdjust="spacing" textLength="7" x="169" y="86.9404">1</text><text fill="#000000" font-family="sans-serif" font-size="13" lengthAdjust="spacing" textLength="156" x="180" y="78.2949">P&#345;&#237;choz&#237; spojen&#237; od klienta,</text><text fill="#000000" font-family="sans-serif" font-size="13" lengthAdjust="spacing" textLength="189" x="184" y="95.5859">vytvo&#345;en&#237; instance ClientManager</text><path d="M5,53.6211 L5,114.6211 L147,114.6211 L147,63.6211 L137,53.6211 L5,53.6211 " fill="#FEFFDD" style="stroke:#181818;stroke-width:0.5;"/><path d="M137,53.6211 L137,63.6211 L147,63.6211 L137,53.6211 " fill="#FEFFDD" style="stroke:#181818;stroke-width:0.5;"/><text fill="#000000" font-family="sans-serif" font-size="13" lengthAdjust="spacing" textLength="99" x="11" y="72.6494">Server naslouch&#225;</text><text fill="#000000" font-family="sans-serif" font-size="13" lengthAdjust="spacing" textLength="75" x="35" y="89.9404">na TCP 2404</text><text fill="#000000" font-family="sans-serif" font-size="13" lengthAdjust="spacing" textLength="121" x="11" y="107.2314">&#269;ek&#225; na nov&#233; spojen&#237;</text><polygon fill="#181818" points="654,168.7217,664,172.7217,654,176.7217,658,172.7217" style="stroke:#181818;stroke-width:1.0;"/><line style="stroke:#181818;stroke-width:1.0;" x1="393" x2="660" y1="172.7217" y2="172.7217"/><text fill="#000000" font-family="sans-serif" font-size="13" font-weight="bold" lengthAdjust="spacing" textLength="7" x="400" y="167.459">2</text><text fill="#000000" font-family="sans-serif" font-size="13" lengthAdjust="spacing" textLength="151" x="411" y="167.459">Vytvo&#345;en&#237; instance spojen&#237;</text><path d="M681,125.4941 L681,204.4941 L824,204.4941 L824,135.4941 L814,125.4941 L681,125.4941 " fill="#FEFFDD" style="stroke:#181818;stroke-width:0.5;"/><path d="M814,125.4941 L814,135.4941 L824,135.4941 L814,125.4941 " fill="#FEFFDD" style="stroke:#181818;stroke-width:0.5;"/><text fill="#000000" font-family="sans-serif" font-size="13" lengthAdjust="spacing" textLength="113" x="687" y="144.5225">handle_messages()</text><text fill="#000000" font-family="sans-serif" font-size="13" lengthAdjust="spacing" textLength="82" x="687" y="161.8135">s funkc&#237; read()</text><text fill="#000000" font-family="sans-serif" font-size="13" lengthAdjust="spacing" textLength="71" x="687" y="179.1045">metoda b&#283;&#382;&#237;</text><text fill="#000000" font-family="sans-serif" font-size="13" lengthAdjust="spacing" textLength="122" x="687" y="196.3955">v nekone&#269;n&#233; smy&#269;ce</text><polygon fill="#181818" points="409,252.2402,399,256.2402,409,260.2402,405,256.2402" style="stroke:#181818;stroke-width:1.0;"/><line style="stroke:#181818;stroke-width:1.0;" x1="403" x2="665" y1="256.2402" y2="256.2402"/><text fill="#000000" font-family="sans-serif" font-size="13" font-weight="bold" lengthAdjust="spacing" textLength="7" x="415" y="250.9775">3</text><text fill="#000000" font-family="sans-serif" font-size="13" lengthAdjust="spacing" textLength="210" x="426" y="250.9775">callback p&#345;ijat r&#225;mec STARTDT ACT</text><path d="M681,223.3037 L681,250.3037 L828,250.3037 L828,233.3037 L818,223.3037 L681,223.3037 " fill="#FEFFDD" style="stroke:#181818;stroke-width:0.5;"/><path d="M818,223.3037 L818,233.3037 L828,233.3037 L818,223.3037 " fill="#FEFFDD" style="stroke:#181818;stroke-width:0.5;"/><text fill="#000000" font-family="sans-serif" font-size="13" lengthAdjust="spacing" textLength="126" x="687" y="242.332">Aktualizace &#269;asova&#269;&#367;</text><path d="M30,214.6582 L30,258.6582 L383,258.6582 L383,224.6582 L373,214.6582 L30,214.6582 " fill="#FEFFDD" style="stroke:#181818;stroke-width:0.5;"/><path d="M373,214.6582 L373,224.6582 L383,224.6582 L373,214.6582 " fill="#FEFFDD" style="stroke:#181818;stroke-width:0.5;"/><text fill="#000000" font-family="sans-serif" font-size="13" lengthAdjust="spacing" textLength="332" x="36" y="233.6865">Zpracov&#225;n&#237; r&#225;mce, aktualizace stavu spojen&#237; na p&#345;ipojeno,</text><text fill="#000000" font-family="sans-serif" font-size="13" lengthAdjust="spacing" textLength="107" x="36" y="250.9775">generace odpov&#283;di</text><polygon fill="#181818" points="659,286.5313,669,290.5313,659,294.5313,663,290.5313" style="stroke:#181818;stroke-width:1.0;"/><line style="stroke:#181818;stroke-width:1.0;" x1="393" x2="665" y1="290.5313" y2="290.5313"/><text fill="#000000" font-family="sans-serif" font-size="13" font-weight="bold" lengthAdjust="spacing" textLength="7" x="400" y="285.2686">4</text><text fill="#000000" font-family="sans-serif" font-size="13" lengthAdjust="spacing" textLength="144" x="411" y="285.2686">Odpov&#283;&#271; STARTDT CON</text><path d="M686,269.2402 L686,296.2402 L852,296.2402 L852,279.2402 L842,269.2402 L686,269.2402 " fill="#FEFFDD" style="stroke:#181818;stroke-width:0.5;"/><path d="M842,269.2402 L842,279.2402 L852,279.2402 L842,269.2402 " fill="#FEFFDD" style="stroke:#181818;stroke-width:0.5;"/><text fill="#000000" font-family="sans-serif" font-size="13" lengthAdjust="spacing" textLength="145" x="692" y="288.2686">Odesl&#225;n&#237; metodou send()</text><polygon fill="#181818" points="404,320.8223,394,324.8223,404,328.8223,400,324.8223" style="stroke:#181818;stroke-width:1.0;"/><line style="stroke:#181818;stroke-width:1.0;stroke-dasharray:2.0,2.0;" x1="398" x2="665" y1="324.8223" y2="324.8223"/><text fill="#000000" font-family="sans-serif" font-size="13" font-weight="bold" lengthAdjust="spacing" textLength="7" x="410" y="319.5596">5</text><text fill="#000000" font-family="sans-serif" font-size="13" lengthAdjust="spacing" textLength="52" x="421" y="319.5596">odesl&#225;no</text><polygon fill="#181818" points="409,363.7588,399,367.7588,409,371.7588,405,367.7588" style="stroke:#181818;stroke-width:1.0;"/><line style="stroke:#181818;stroke-width:1.0;" x1="403" x2="665" y1="367.7588" y2="367.7588"/><text fill="#000000" font-family="sans-serif" font-size="13" font-weight="bold" lengthAdjust="spacing" textLength="7" x="415" y="362.4961">6</text><text fill="#000000" font-family="sans-serif" font-size="13" lengthAdjust="spacing" textLength="193" x="426" y="362.4961">callback p&#345;ijat r&#225;mec s daty I(0,0)</text><path d="M47,337.8223 L47,381.8223 L383,381.8223 L383,347.8223 L373,337.8223 L47,337.8223 " fill="#FEFFDD" style="stroke:#181818;stroke-width:0.5;"/><path d="M373,337.8223 L373,347.8223 L383,347.8223 L373,337.8223 " fill="#FEFFDD" style="stroke:#181818;stroke-width:0.5;"/><text fill="#000000" font-family="sans-serif" font-size="13" lengthAdjust="spacing" textLength="315" x="53" y="356.8506">Zpracov&#225;n&#237; r&#225;mce, u&#382;ite&#269;n&#225; data ulo&#382;ena do datab&#225;ze,</text><text fill="#000000" font-family="sans-serif" font-size="13" lengthAdjust="spacing" textLength="4" x="53" y="374.1416">&#160;</text><polygon fill="#181818" points="409,436.6953,399,440.6953,409,444.6953,405,440.6953" style="stroke:#181818;stroke-width:1.0;"/><line style="stroke:#181818;stroke-width:1.0;" x1="403" x2="665" y1="440.6953" y2="440.6953"/><text fill="#000000" font-family="sans-serif" font-size="13" font-weight="bold" lengthAdjust="spacing" textLength="7" x="415" y="435.4326">7</text><text fill="#000000" font-family="sans-serif" font-size="13" lengthAdjust="spacing" textLength="193" x="426" y="435.4326">callback p&#345;ijat r&#225;mec s daty I(1,0)</text><polygon fill="#181818" points="409,497.9863,399,501.9863,409,505.9863,405,501.9863" style="stroke:#181818;stroke-width:1.0;"/><line style="stroke:#181818;stroke-width:1.0;" x1="403" x2="665" y1="501.9863" y2="501.9863"/><text fill="#000000" font-family="sans-serif" font-size="13" font-weight="bold" lengthAdjust="spacing" textLength="7" x="415" y="496.7236">8</text><text fill="#000000" font-family="sans-serif" font-size="13" lengthAdjust="spacing" textLength="193" x="426" y="496.7236">callback p&#345;ijat r&#225;mec s daty I(2,0)</text><polygon fill="#181818" points="659,599.8594,669,603.8594,659,607.8594,663,603.8594" style="stroke:#181818;stroke-width:1.0;"/><line style="stroke:#181818;stroke-width:1.0;" x1="393" x2="665" y1="603.8594" y2="603.8594"/><text fill="#000000" font-family="sans-serif" font-size="13" font-weight="bold" lengthAdjust="spacing" textLength="7" x="400" y="598.5967">9</text><text fill="#000000" font-family="sans-serif" font-size="13" lengthAdjust="spacing" textLength="238" x="411" y="598.5967">Vypr&#353;el timeout t2, zasl&#225;n&#237; potvrzen&#237; S(2)</text><path d="M681,562.2773 L681,589.2773 L847,589.2773 L847,572.2773 L837,562.2773 L681,562.2773 " fill="#FEFFDD" style="stroke:#181818;stroke-width:0.5;"/><path d="M837,562.2773 L837,572.2773 L847,572.2773 L837,562.2773 " fill="#FEFFDD" style="stroke:#181818;stroke-width:0.5;"/><text fill="#000000" font-family="sans-serif" font-size="13" lengthAdjust="spacing" textLength="145" x="687" y="581.3057">Odesl&#225;n&#237; metodou send()</text><path d="M219,544.9863 L219,605.9863 L388,605.9863 L388,554.9863 L378,544.9863 L219,544.9863 " fill="#FEFFDD" style="stroke:#181818;stroke-width:0.5;"/><path d="M378,544.9863 L378,554.9863 L388,554.9863 L378,544.9863 " fill="#FEFFDD" style="stroke:#181818;stroke-width:0.5;"/><text fill="#000000" font-family="sans-serif" font-size="13" lengthAdjust="spacing" textLength="4" x="225" y="564.0146">&#160;</text><text fill="#000000" font-family="sans-serif" font-size="13" lengthAdjust="spacing" textLength="140" x="229" y="581.3057">nepos&#237;laj&#237; se &#382;&#225;dn&#225; data</text><text fill="#000000" font-family="sans-serif" font-size="13" lengthAdjust="spacing" textLength="4" x="225" y="598.5967">&#160;</text><polygon fill="#181818" points="404,631.1504,394,635.1504,404,639.1504,400,635.1504" style="stroke:#181818;stroke-width:1.0;"/><line style="stroke:#181818;stroke-width:1.0;stroke-dasharray:2.0,2.0;" x1="398" x2="665" y1="635.1504" y2="635.1504"/><text fill="#000000" font-family="sans-serif" font-size="13" font-weight="bold" lengthAdjust="spacing" textLength="14" x="410" y="629.8877">10</text><text fill="#000000" font-family="sans-serif" font-size="13" lengthAdjust="spacing" textLength="52" x="428" y="629.8877">odesl&#225;no</text><polygon fill="#181818" points="659,682.7324,669,686.7324,659,690.7324,663,686.7324" style="stroke:#181818;stroke-width:1.0;"/><line style="stroke:#181818;stroke-width:1.0;" x1="393" x2="665" y1="686.7324" y2="686.7324"/><text fill="#000000" font-family="sans-serif" font-size="13" font-weight="bold" lengthAdjust="spacing" textLength="14" x="400" y="681.4697">11</text><text fill="#000000" font-family="sans-serif" font-size="13" lengthAdjust="spacing" textLength="211" x="418" y="681.4697">Vypr&#353;el timeout t1, ukon&#269;en&#237; spojen&#237;</text><path d="M219,648.1504 L219,709.1504 L388,709.1504 L388,658.1504 L378,648.1504 L219,648.1504 " fill="#FEFFDD" style="stroke:#181818;stroke-width:0.5;"/><path d="M378,648.1504 L378,658.1504 L388,658.1504 L378,648.1504 " fill="#FEFFDD" style="stroke:#181818;stroke-width:0.5;"/><text fill="#000000" font-family="sans-serif" font-size="13" lengthAdjust="spacing" textLength="4" x="225" y="667.1787">&#160;</text><text fill="#000000" font-family="sans-serif" font-size="13" lengthAdjust="spacing" textLength="140" x="229" y="684.4697">nepos&#237;laj&#237; se &#382;&#225;dn&#225; data</text><text fill="#000000" font-family="sans-serif" font-size="13" lengthAdjust="spacing" textLength="4" x="225" y="701.7607">&#160;</text><polygon fill="#181818" points="404,734.3145,394,738.3145,404,742.3145,400,738.3145" style="stroke:#181818;stroke-width:1.0;"/><line style="stroke:#181818;stroke-width:1.0;stroke-dasharray:2.0,2.0;" x1="398" x2="670" y1="738.3145" y2="738.3145"/><text fill="#000000" font-family="sans-serif" font-size="13" font-weight="bold" lengthAdjust="spacing" textLength="14" x="410" y="733.0518">12</text><text fill="#000000" font-family="sans-serif" font-size="13" lengthAdjust="spacing" textLength="147" x="428" y="733.0518">smaz&#225;n&#237; instance spojen&#237;</text><line style="stroke:#A80036;stroke-width:2.0;" x1="662" x2="680" y1="729.3145" y2="747.3145"/><line style="stroke:#A80036;stroke-width:2.0;" x1="662" x2="680" y1="747.3145" y2="729.3145"/><polygon fill="#181818" points="173,768.6055,163,772.6055,173,776.6055,169,772.6055" style="stroke:#181818;stroke-width:1.0;"/><line style="stroke:#181818;stroke-width:1.0;stroke-dasharray:2.0,2.0;" x1="167" x2="392" y1="772.6055" y2="772.6055"/><text fill="#000000" font-family="sans-serif" font-size="13" font-weight="bold" lengthAdjust="spacing" textLength="14" x="179" y="767.3428">13</text><text fill="#000000" font-family="sans-serif" font-size="13" lengthAdjust="spacing" textLength="189" x="197" y="767.3428">smaz&#225;n&#237; instance ClientManager</text><path d="M5,751.3145 L5,778.3145 L147,778.3145 L147,761.3145 L137,751.3145 L5,751.3145 " fill="#FEFFDD" style="stroke:#181818;stroke-width:0.5;"/><path d="M137,751.3145 L137,761.3145 L147,761.3145 L137,751.3145 " fill="#FEFFDD" style="stroke:#181818;stroke-width:0.5;"/><text fill="#000000" font-family="sans-serif" font-size="13" lengthAdjust="spacing" textLength="121" x="11" y="770.3428">&#269;ek&#225; na nov&#233; spojen&#237;</text><line style="stroke:#A80036;stroke-width:2.0;" x1="384" x2="402" y1="763.6055" y2="781.6055"/><line style="stroke:#A80036;stroke-width:2.0;" x1="384" x2="402" y1="781.6055" y2="763.6055"/><!--SRC=[fLN1Qjj04BthAmPog0qks2Q5uaF0jHi8j4seJG-jInbBarYnj2jsLwBMFvYUJKuwzX3w1xb8-g-E9CUn4ojjaZrfPsTdthmtciNGI17wKrAMdhiYG8K-3EaSGy-CwQSPkJ51vurbyObnRJT0OM14AY9rydxGQHy2Qj3bViTbuBaap4SKU46gyB5BWryPxaNJsfMY2bH-MfQ5jd4ZDBIE3GV7n-zuMTPw__feDs8Fpl9LUctFP9nUWmxa9Gd-a0xCIpTiJGH42nF9V5MUk48R53Rj8hM4v9mUdHlehSi4WTgJeJrB4mvHBe4m7fn1zx1zE17PakPfKjY4ZDBVcznt9Um0XODXVrXMiclcWjRLz-3BFfoRk0xjZxpDMSNemTkg7kLUp8g2PYWSZtxuVCmNTACv4HhEGp6tEP4YT1fDc0YVZ7GGfjbLViFsYOX0q5mAofQYgCzVP4kR2YMgB0-biD7pfcZF8SXNxYKQK6dYamsZSV_pU3Y6_c1SoqwxtUUrYxi_Do5wRenCGxP4BIFCblcV7R6-1Wfj5Y0fI2losTG2tBh8D4RXNMUmNWMwSYkvEIv8a2hyf1F8ABjoNEinYKuhh-pNfgZ1wQUdIFF1zPd3kpABaAIz2dyfWMIq95WJIv49bM1abODy3lSQ73GBE6cqM-rc3Vl_9ZJCRrnJDa9In4C8FPdV49FfoD8mJPEOcCvwAbu4llC8-DgCByZNVKw-nt_jGEK9UM1OVnaQCDqMn7WhV21DfEAoGKUDRlC_-sDRDfvHWWAfqsiFBujHIC2_SU9i56DjQhhnOPizfOuETmTF2Hw7Oci2FndR5gkthy4Qb_OnhihVDnErKNAnkN8F-3T76aFEzwFrSzBR5wp-8QWTyRTfx-jllThpVWtAgL_RDdy1]--></g></svg>