<?xml version="1.0" encoding="us-ascii" standalone="no"?><svg xmlns="http://www.w3.org/2000/svg" xmlns:xlink="http://www.w3.org/1999/xlink" contentStyleType="text/css" height="1244px" preserveAspectRatio="none" style="width:849px;height:1244px;background:#FFFFFF;" version="1.1" viewBox="0 0 849 1244" width="849.6px" zoomAndPan="magnify"><defs/><g><rect fill="none" height="38.3063" style="stroke:none;stroke-width:0.8000000000000002;" width="823.4" x="12" y="10.4141"/><rect fill="#F5F5F5" height="1224.3297" style="stroke:#F5F5F5;stroke-width:0.8000000000000002;" width="426" x="12" y="10.4141"/><ellipse cx="218.6" cy="60.7203" fill="#222222" rx="8" ry="8" style="stroke:#222222;stroke-width:0.8000000000000002;"/><polygon fill="#F1F1F1" points="186.6,144.5938,250.6,144.5938,260.2,154.1938,250.6,163.7938,186.6,163.7938,177,154.1938,186.6,144.5938" style="stroke:#181818;stroke-width:0.4000000000000001;"/><text fill="#000000" font-family="sans-serif" font-size="14.4" lengthAdjust="spacing" textLength="56" x="190.6" y="160.1563">read(2B)</text><text fill="#000000" font-family="sans-serif" font-size="14.4" lengthAdjust="spacing" textLength="16" x="161" y="150.5797">ne</text><text fill="#000000" font-family="sans-serif" font-size="14.4" lengthAdjust="spacing" textLength="24" x="260.2" y="150.5797">ano</text><rect fill="#F1F1F1" height="35.1531" rx="10" ry="10" style="stroke:#181818;stroke-width:0.4000000000000001;" width="163.2" x="38.4" y="179.7938"/><text fill="#000000" font-family="sans-serif" font-size="14.4" lengthAdjust="spacing" textLength="147.2" x="46.4" y="203.3328">TCP spojen&#237; ukon&#269;eno</text><ellipse cx="120" cy="251.7469" fill="none" rx="8.8" ry="8.8" style="stroke:#222222;stroke-width:0.8000000000000002;"/><ellipse cx="120" cy="251.7469" fill="#222222" rx="4.8" ry="4.8" style="stroke:#222222;stroke-width:0.8000000000000002;"/><rect fill="#F1F1F1" height="54.3063" rx="10" ry="10" style="stroke:#181818;stroke-width:0.4000000000000001;" width="188.8" x="222.8" y="179.7938"/><text fill="#000000" font-family="sans-serif" font-size="14.4" lengthAdjust="spacing" textLength="172.8" x="230.8" y="203.3328">&#269;ti p&#345;&#237;choz&#237; r&#225;mec z bufferu</text><text fill="#000000" font-family="sans-serif" font-size="14.4" lengthAdjust="spacing" textLength="104.8" x="270.8" y="222.4859">apdu = read(2B)</text><rect fill="#F1F1F1" height="35.1531" rx="10" ry="10" style="stroke:#181818;stroke-width:0.4000000000000001;" width="110.4" x="262" y="305.2766"/><text fill="#000000" font-family="sans-serif" font-size="14.4" lengthAdjust="spacing" textLength="94.4" x="270" y="328.8156">delka = 2. byte</text><rect fill="#F1F1F1" height="54.3063" rx="10" ry="10" style="stroke:#181818;stroke-width:0.4000000000000001;" width="179.2" x="227.6" y="356.4297"/><text fill="#000000" font-family="sans-serif" font-size="14.4" lengthAdjust="spacing" textLength="163.2" x="235.6" y="379.9688">&#269;ti zbytek r&#225;mce dle d&#233;lky</text><text fill="#000000" font-family="sans-serif" font-size="14.4" lengthAdjust="spacing" textLength="121.6" x="263.6" y="399.1219">apdu = read(delka)</text><rect fill="#F1F1F1" height="54.3063" rx="10" ry="10" style="stroke:#181818;stroke-width:0.4000000000000001;" width="183.2" x="225.6" y="426.7359"/><text fill="#000000" font-family="sans-serif" font-size="14.4" lengthAdjust="spacing" textLength="156.8" x="233.6" y="450.275">ziskani objektu na r&#225;mec</text><text fill="#000000" font-family="sans-serif" font-size="14.4" lengthAdjust="spacing" textLength="167.2" x="233.6" y="469.4281">new_apdu = Parser(apdu)</text><rect fill="#F1F1F1" height="54.3063" rx="10" ry="10" style="stroke:#181818;stroke-width:0.4000000000000001;" width="152" x="241.2" y="497.0422"/><text fill="#000000" font-family="sans-serif" font-size="14.4" lengthAdjust="spacing" textLength="136" x="249.2" y="520.5813">aktualizace &#269;asova&#269;&#367;</text><text fill="#000000" font-family="sans-serif" font-size="14.4" lengthAdjust="spacing" textLength="72" x="289.2" y="539.7344">t0, t1, t2, t3</text><polygon fill="#F1F1F1" points="271.2,262.1,363.2,262.1,372.8,271.7,363.2,281.3,271.2,281.3,261.6,271.7,271.2,262.1" style="stroke:#181818;stroke-width:0.4000000000000001;"/><text fill="#000000" font-family="sans-serif" font-size="14.4" lengthAdjust="spacing" textLength="24" x="320.4" y="296.8391">ano</text><text fill="#000000" font-family="sans-serif" font-size="14.4" lengthAdjust="spacing" textLength="92" x="271.2" y="277.6625">1. Byte = 0x68</text><text fill="#000000" font-family="sans-serif" font-size="14.4" lengthAdjust="spacing" textLength="16" x="245.6" y="268.0859">ne</text><polygon fill="#F1F1F1" points="317.2,1077.2234,326.8,1086.8234,317.2,1096.4234,307.6,1086.8234,317.2,1077.2234" style="stroke:#181818;stroke-width:0.4000000000000001;"/><polygon fill="#F1F1F1" points="165,88.6875,272.2,88.6875,281.8,98.2875,272.2,107.8875,165,107.8875,155.4,98.2875,165,88.6875" style="stroke:#181818;stroke-width:0.4000000000000001;"/><text fill="#000000" font-family="sans-serif" font-size="14.4" lengthAdjust="spacing" textLength="16" x="221.8" y="123.4266">ne</text><text fill="#000000" font-family="sans-serif" font-size="14.4" lengthAdjust="spacing" textLength="107.2" x="165" y="104.25">P&#345;&#237;znak timeout?</text><text fill="#000000" font-family="sans-serif" font-size="14.4" lengthAdjust="spacing" textLength="24" x="131.4" y="94.6734">ano</text><line style="stroke:#000000;stroke-width:1.2000000000000002;" x1="12" x2="12" y1="10.4141" y2="1234.7438"/><rect fill="#D3D3D3" height="1224.3297" style="stroke:#D3D3D3;stroke-width:0.8000000000000002;" width="231.4" x="438" y="10.4141"/><ellipse cx="598.2" cy="575.3484" fill="#F1F1F1" rx="8" ry="8" style="stroke:#181818;stroke-width:0.4000000000000001;"/><path d="M593.775,579.7484 L597.7375,569.4359 L599.2125,569.4359 L603.425,579.7484 L601.875,579.7484 L600.675,576.6234 L596.3625,576.6234 L595.225,579.7484 L593.775,579.7484 Z M596.75,575.5109 L600.25,575.5109 L599.175,572.6609 Q598.675,571.3609 598.4375,570.5234 Q598.25,571.5109 597.8875,572.4859 L596.75,575.5109 Z " fill="#000000"/><rect fill="#F1F1F1" height="54.3063" rx="10" ry="10" style="stroke:#181818;stroke-width:0.4000000000000001;" width="136" x="530.2" y="599.3484"/><text fill="#000000" font-family="sans-serif" font-size="14.4" lengthAdjust="spacing" textLength="120" x="538.2" y="622.8875">callback pro r&#225;mec</text><text fill="#000000" font-family="sans-serif" font-size="14.4" lengthAdjust="spacing" textLength="82.4" x="558.2" y="642.0406">nebo timeout</text><rect fill="#F1F1F1" height="35.1531" rx="10" ry="10" style="stroke:#181818;stroke-width:0.4000000000000001;" width="108.8" x="543.8" y="716.7984"/><text fill="#000000" font-family="sans-serif" font-size="14.4" lengthAdjust="spacing" textLength="88.8" x="555.8" y="740.3375">zpracuj r&#225;mec</text><rect fill="#F1F1F1" height="54.3063" rx="10" ry="10" style="stroke:#181818;stroke-width:0.4000000000000001;" width="94.4" x="551" y="850.2578"/><text fill="#000000" font-family="sans-serif" font-size="14.4" lengthAdjust="spacing" textLength="68.8" x="563" y="873.7969">ulo&#382; r&#225;mec</text><text fill="#000000" font-family="sans-serif" font-size="14.4" lengthAdjust="spacing" textLength="78.4" x="559" y="892.95">do datab&#225;ze</text><polygon fill="#F1F1F1" points="574.6,673.6219,621.8,673.6219,631.4,683.2219,621.8,692.8219,574.6,692.8219,565,683.2219,574.6,673.6219" style="stroke:#181818;stroke-width:0.4000000000000001;"/><text fill="#000000" font-family="sans-serif" font-size="14.4" lengthAdjust="spacing" textLength="24" x="601.4" y="708.3609">ano</text><text fill="#000000" font-family="sans-serif" font-size="14.4" lengthAdjust="spacing" textLength="47.2" x="574.6" y="689.1844">r&#225;mec?</text><text fill="#000000" font-family="sans-serif" font-size="14.4" lengthAdjust="spacing" textLength="16" x="549" y="679.6078">ne</text><polygon fill="#F1F1F1" points="598.2,971.7172,607.8,981.3172,598.2,990.9172,588.6,981.3172,598.2,971.7172" style="stroke:#181818;stroke-width:0.4000000000000001;"/><rect fill="#F1F1F1" height="54.3063" rx="10" ry="10" style="stroke:#181818;stroke-width:0.4000000000000001;" width="101.6" x="547.4" y="1006.9172"/><text fill="#000000" font-family="sans-serif" font-size="14.4" lengthAdjust="spacing" textLength="71.2" x="563.4" y="1030.4563">aktualizace</text><text fill="#000000" font-family="sans-serif" font-size="14.4" lengthAdjust="spacing" textLength="85.6" x="555.4" y="1049.6094">stavu spojen&#237;</text><rect fill="#F1F1F1" height="35.1531" rx="10" ry="10" style="stroke:#181818;stroke-width:0.4000000000000001;" width="113.6" x="442.8" y="1130.0234"/><text fill="#000000" font-family="sans-serif" font-size="14.4" lengthAdjust="spacing" textLength="97.6" x="450.8" y="1153.5625">handle_timeout</text><polygon fill="#F1F1F1" points="489.6,1185.1438,509.6,1185.1438,519.2,1194.7438,509.6,1204.3438,489.6,1204.3438,480,1194.7438,489.6,1185.1438" style="stroke:#181818;stroke-width:0.4000000000000001;"/><text fill="#000000" font-family="sans-serif" font-size="14.4" lengthAdjust="spacing" textLength="20" x="489.6" y="1200.7063">t1?</text><text fill="#000000" font-family="sans-serif" font-size="14.4" lengthAdjust="spacing" textLength="24" x="456" y="1191.1297">ano</text><text fill="#000000" font-family="sans-serif" font-size="14.4" lengthAdjust="spacing" textLength="16" x="519.2" y="1191.1297">ne</text><ellipse cx="472" cy="1221.1438" fill="none" rx="8.8" ry="8.8" style="stroke:#222222;stroke-width:0.8000000000000002;"/><ellipse cx="472" cy="1221.1438" fill="#222222" rx="4.8" ry="4.8" style="stroke:#222222;stroke-width:0.8000000000000002;"/><ellipse cx="527.2" cy="1220.3438" fill="#F1F1F1" rx="8" ry="8" style="stroke:#181818;stroke-width:0.4000000000000001;"/><path d="M522.775,1224.7438 L526.7375,1214.4313 L528.2125,1214.4313 L532.425,1224.7438 L530.875,1224.7438 L529.675,1221.6188 L525.3625,1221.6188 L524.225,1224.7438 L522.775,1224.7438 Z M525.75,1220.5063 L529.25,1220.5063 L528.175,1217.6563 Q527.675,1216.3563 527.4375,1215.5188 Q527.25,1216.5063 526.8875,1217.4813 L525.75,1220.5063 Z " fill="#000000"/><line style="stroke:#000000;stroke-width:1.2000000000000002;" x1="438" x2="438" y1="10.4141" y2="1234.7438"/><rect fill="#9ACD32" height="54.3063" rx="10" ry="10" style="stroke:#181818;stroke-width:0.4000000000000001;" width="140.8" x="682.2" y="767.9516"/><text fill="#000000" font-family="sans-serif" font-size="14.4" lengthAdjust="spacing" textLength="93.6" x="694.2" y="791.4906">p&#345;ed&#225;n&#237; dat do</text><text fill="#000000" font-family="sans-serif" font-size="14.4" lengthAdjust="spacing" textLength="120.8" x="694.2" y="810.6438">modulu zpracov&#225;n&#237;</text><rect fill="#D2B48C" height="35.1531" rx="10" ry="10" style="stroke:#181818;stroke-width:0.4000000000000001;" width="156.8" x="674.2" y="920.5641"/><text fill="#000000" font-family="sans-serif" font-size="14.4" lengthAdjust="spacing" textLength="140.8" x="682.2" y="944.1031">data do MQTT Broker</text><line style="stroke:#000000;stroke-width:1.2000000000000002;" x1="669.4" x2="669.4" y1="10.4141" y2="1234.7438"/><line style="stroke:#000000;stroke-width:1.2000000000000002;" x1="834.2" x2="834.2" y1="10.4141" y2="1234.7438"/><line style="stroke:#181818;stroke-width:0.8000000000000002;" x1="120" x2="120" y1="214.9469" y2="242.9469"/><polygon fill="#181818" points="116.8,234.9469,120,242.9469,123.2,234.9469,120,238.1469" style="stroke:#181818;stroke-width:0.8000000000000002;"/><line style="stroke:#181818;stroke-width:0.8000000000000002;" x1="317.2" x2="317.2" y1="340.4297" y2="356.4297"/><polygon fill="#181818" points="314,348.4297,317.2,356.4297,320.4,348.4297,317.2,351.6297" style="stroke:#181818;stroke-width:0.8000000000000002;"/><line style="stroke:#181818;stroke-width:0.8000000000000002;" x1="317.2" x2="317.2" y1="410.7359" y2="426.7359"/><polygon fill="#181818" points="314,418.7359,317.2,426.7359,320.4,418.7359,317.2,421.9359" style="stroke:#181818;stroke-width:0.8000000000000002;"/><line style="stroke:#181818;stroke-width:0.8000000000000002;" x1="317.2" x2="317.2" y1="481.0422" y2="497.0422"/><polygon fill="#181818" points="314,489.0422,317.2,497.0422,320.4,489.0422,317.2,492.2422" style="stroke:#181818;stroke-width:0.8000000000000002;"/><line style="stroke:#181818;stroke-width:0.8000000000000002;" x1="317.2" x2="317.2" y1="281.3" y2="305.2766"/><polygon fill="#181818" points="314,297.2766,317.2,305.2766,320.4,297.2766,317.2,300.4766" style="stroke:#181818;stroke-width:0.8000000000000002;"/><line style="stroke:#181818;stroke-width:0.8000000000000002;" x1="261.6" x2="217.6" y1="271.7" y2="271.7"/><polygon fill="#181818" points="214.4,663.2219,217.6,671.2219,220.8,663.2219,217.6,666.4219" style="stroke:#181818;stroke-width:0.8000000000000002;"/><line style="stroke:#181818;stroke-width:0.8000000000000002;" x1="217.6" x2="217.6" y1="271.7" y2="1086.8234"/><line style="stroke:#181818;stroke-width:0.8000000000000002;" x1="217.6" x2="307.6" y1="1086.8234" y2="1086.8234"/><polygon fill="#181818" points="299.6,1083.6234,307.6,1086.8234,299.6,1090.0234,302.8,1086.8234" style="stroke:#181818;stroke-width:0.8000000000000002;"/><line style="stroke:#181818;stroke-width:0.8000000000000002;" x1="317.2" x2="317.2" y1="234.1" y2="262.1"/><polygon fill="#181818" points="314,254.1,317.2,262.1,320.4,254.1,317.2,257.3" style="stroke:#181818;stroke-width:0.8000000000000002;"/><line style="stroke:#181818;stroke-width:0.8000000000000002;" x1="177" x2="120" y1="154.1938" y2="154.1938"/><line style="stroke:#181818;stroke-width:0.8000000000000002;" x1="120" x2="120" y1="154.1938" y2="179.7938"/><polygon fill="#181818" points="116.8,171.7938,120,179.7938,123.2,171.7938,120,174.9938" style="stroke:#181818;stroke-width:0.8000000000000002;"/><line style="stroke:#181818;stroke-width:0.8000000000000002;" x1="260.2" x2="317.2" y1="154.1938" y2="154.1938"/><line style="stroke:#181818;stroke-width:0.8000000000000002;" x1="317.2" x2="317.2" y1="154.1938" y2="179.7938"/><polygon fill="#181818" points="314,171.7938,317.2,179.7938,320.4,171.7938,317.2,174.9938" style="stroke:#181818;stroke-width:0.8000000000000002;"/><line style="stroke:#181818;stroke-width:0.8000000000000002;" x1="317.2" x2="317.2" y1="1096.4234" y2="1104.4234"/><line style="stroke:#181818;stroke-width:0.8000000000000002;" x1="317.2" x2="422.8" y1="1104.4234" y2="1104.4234"/><polygon fill="#181818" points="419.6,615.725,422.8,607.725,426,615.725,422.8,612.525" style="stroke:#181818;stroke-width:0.8000000000000002;"/><line style="stroke:#181818;stroke-width:0.8000000000000002;" x1="422.8" x2="422.8" y1="98.2875" y2="1104.4234"/><line style="stroke:#181818;stroke-width:0.8000000000000002;" x1="422.8" x2="281.8" y1="98.2875" y2="98.2875"/><polygon fill="#181818" points="289.8,95.0875,281.8,98.2875,289.8,101.4875,286.6,98.2875" style="stroke:#181818;stroke-width:0.8000000000000002;"/><line style="stroke:#181818;stroke-width:0.8000000000000002;" x1="218.6" x2="218.6" y1="107.8875" y2="144.5938"/><polygon fill="#181818" points="215.4,136.5938,218.6,144.5938,221.8,136.5938,218.6,139.7938" style="stroke:#181818;stroke-width:0.8000000000000002;"/><line style="stroke:#181818;stroke-width:0.8000000000000002;" x1="155.4" x2="27.2" y1="98.2875" y2="98.2875"/><polygon fill="#181818" points="24,611.525,27.2,619.525,30.4,611.525,27.2,614.725" style="stroke:#181818;stroke-width:0.8000000000000002;"/><line style="stroke:#181818;stroke-width:0.8000000000000002;" x1="27.2" x2="27.2" y1="98.2875" y2="1118.0234"/><line style="stroke:#181818;stroke-width:0.8000000000000002;" x1="27.2" x2="499.6" y1="1118.0234" y2="1118.0234"/><line style="stroke:#181818;stroke-width:0.8000000000000002;" x1="499.6" x2="499.6" y1="1118.0234" y2="1130.0234"/><polygon fill="#181818" points="496.4,1122.0234,499.6,1130.0234,502.8,1122.0234,499.6,1125.2234" style="stroke:#181818;stroke-width:0.8000000000000002;"/><line style="stroke:#181818;stroke-width:0.8000000000000002;" x1="218.6" x2="218.6" y1="68.7203" y2="88.6875"/><polygon fill="#181818" points="215.4,80.6875,218.6,88.6875,221.8,80.6875,218.6,83.8875" style="stroke:#181818;stroke-width:0.8000000000000002;"/><line style="stroke:#181818;stroke-width:0.8000000000000002;" x1="598.2" x2="598.2" y1="583.3484" y2="599.3484"/><polygon fill="#181818" points="595,591.3484,598.2,599.3484,601.4,591.3484,598.2,594.5484" style="stroke:#181818;stroke-width:0.8000000000000002;"/><line style="stroke:#181818;stroke-width:0.8000000000000002;" x1="598.2" x2="598.2" y1="692.8219" y2="716.7984"/><polygon fill="#181818" points="595,708.7984,598.2,716.7984,601.4,708.7984,598.2,711.9984" style="stroke:#181818;stroke-width:0.8000000000000002;"/><line style="stroke:#181818;stroke-width:0.8000000000000002;" x1="565" x2="511.8" y1="683.2219" y2="683.2219"/><polygon fill="#181818" points="508.6,828.2578,511.8,836.2578,515,828.2578,511.8,831.4578" style="stroke:#181818;stroke-width:0.8000000000000002;"/><line style="stroke:#181818;stroke-width:0.8000000000000002;" x1="511.8" x2="511.8" y1="683.2219" y2="981.3172"/><line style="stroke:#181818;stroke-width:0.8000000000000002;" x1="511.8" x2="588.6" y1="981.3172" y2="981.3172"/><polygon fill="#181818" points="580.6,978.1172,588.6,981.3172,580.6,984.5172,583.8,981.3172" style="stroke:#181818;stroke-width:0.8000000000000002;"/><line style="stroke:#181818;stroke-width:0.8000000000000002;" x1="598.2" x2="598.2" y1="653.6547" y2="673.6219"/><polygon fill="#181818" points="595,665.6219,598.2,673.6219,601.4,665.6219,598.2,668.8219" style="stroke:#181818;stroke-width:0.8000000000000002;"/><line style="stroke:#181818;stroke-width:0.8000000000000002;" x1="598.2" x2="598.2" y1="990.9172" y2="1006.9172"/><polygon fill="#181818" points="595,998.9172,598.2,1006.9172,601.4,998.9172,598.2,1002.1172" style="stroke:#181818;stroke-width:0.8000000000000002;"/><line style="stroke:#181818;stroke-width:0.8000000000000002;" x1="480" x2="472" y1="1194.7438" y2="1194.7438"/><line style="stroke:#181818;stroke-width:0.8000000000000002;" x1="472" x2="472" y1="1194.7438" y2="1212.3438"/><polygon fill="#181818" points="468.8,1204.3438,472,1212.3438,475.2,1204.3438,472,1207.5438" style="stroke:#181818;stroke-width:0.8000000000000002;"/><line style="stroke:#181818;stroke-width:0.8000000000000002;" x1="519.2" x2="527.2" y1="1194.7438" y2="1194.7438"/><line style="stroke:#181818;stroke-width:0.8000000000000002;" x1="527.2" x2="527.2" y1="1194.7438" y2="1212.3438"/><polygon fill="#181818" points="524,1204.3438,527.2,1212.3438,530.4,1204.3438,527.2,1207.5438" style="stroke:#181818;stroke-width:0.8000000000000002;"/><line style="stroke:#181818;stroke-width:0.8000000000000002;" x1="499.6" x2="499.6" y1="1165.1766" y2="1185.1438"/><polygon fill="#181818" points="496.4,1177.1438,499.6,1185.1438,502.8,1177.1438,499.6,1180.3438" style="stroke:#181818;stroke-width:0.8000000000000002;"/><line style="stroke:#181818;stroke-width:0.8000000000000002;" x1="317.2" x2="317.2" y1="551.3484" y2="555.3484"/><line style="stroke:#181818;stroke-width:0.8000000000000002;" x1="317.2" x2="598.2" y1="555.3484" y2="555.3484"/><line style="stroke:#181818;stroke-width:0.8000000000000002;" x1="598.2" x2="598.2" y1="555.3484" y2="567.3484"/><polygon fill="#181818" points="595,559.3484,598.2,567.3484,601.4,559.3484,598.2,562.5484" style="stroke:#181818;stroke-width:0.8000000000000002;"/><line style="stroke:#181818;stroke-width:0.8000000000000002;" x1="598.2" x2="598.2" y1="751.9516" y2="755.9516"/><line style="stroke:#181818;stroke-width:0.8000000000000002;" x1="598.2" x2="752.6" y1="755.9516" y2="755.9516"/><line style="stroke:#181818;stroke-width:0.8000000000000002;" x1="752.6" x2="752.6" y1="755.9516" y2="767.9516"/><polygon fill="#181818" points="749.4,759.9516,752.6,767.9516,755.8,759.9516,752.6,763.1516" style="stroke:#181818;stroke-width:0.8000000000000002;"/><line style="stroke:#181818;stroke-width:0.8000000000000002;" x1="752.6" x2="752.6" y1="822.2578" y2="836.2578"/><line style="stroke:#181818;stroke-width:0.8000000000000002;" x1="752.6" x2="598.2" y1="836.2578" y2="836.2578"/><line style="stroke:#181818;stroke-width:0.8000000000000002;" x1="598.2" x2="598.2" y1="836.2578" y2="850.2578"/><polygon fill="#181818" points="595,842.2578,598.2,850.2578,601.4,842.2578,598.2,845.4578" style="stroke:#181818;stroke-width:0.8000000000000002;"/><line style="stroke:#181818;stroke-width:0.8000000000000002;" x1="598.2" x2="598.2" y1="904.5641" y2="908.5641"/><line style="stroke:#181818;stroke-width:0.8000000000000002;" x1="598.2" x2="752.6" y1="908.5641" y2="908.5641"/><line style="stroke:#181818;stroke-width:0.8000000000000002;" x1="752.6" x2="752.6" y1="908.5641" y2="920.5641"/><polygon fill="#181818" points="749.4,912.5641,752.6,920.5641,755.8,912.5641,752.6,915.7641" style="stroke:#181818;stroke-width:0.8000000000000002;"/><line style="stroke:#181818;stroke-width:0.8000000000000002;" x1="752.6" x2="752.6" y1="955.7172" y2="959.7289"/><line style="stroke:#181818;stroke-width:0.8000000000000002;" x1="752.6" x2="598.2" y1="959.7289" y2="959.7289"/><line style="stroke:#181818;stroke-width:0.8000000000000002;" x1="598.2" x2="598.2" y1="959.7289" y2="971.7172"/><polygon fill="#181818" points="595,963.7172,598.2,971.7172,601.4,963.7172,598.2,966.9172" style="stroke:#181818;stroke-width:0.8000000000000002;"/><line style="stroke:#181818;stroke-width:0.8000000000000002;" x1="598.2" x2="598.2" y1="1061.2234" y2="1065.2352"/><line style="stroke:#181818;stroke-width:0.8000000000000002;" x1="598.2" x2="317.2" y1="1065.2352" y2="1065.2352"/><line style="stroke:#181818;stroke-width:0.8000000000000002;" x1="317.2" x2="317.2" y1="1065.2352" y2="1077.2234"/><polygon fill="#181818" points="314,1069.2234,317.2,1077.2234,320.4,1069.2234,317.2,1072.4234" style="stroke:#181818;stroke-width:0.8000000000000002;"/><text fill="#000000" font-family="sans-serif" font-size="14.4" lengthAdjust="spacing" textLength="51.2" x="199.4" y="25.9531">Session</text><text fill="#000000" font-family="sans-serif" font-size="14.4" lengthAdjust="spacing" textLength="93.6" x="506.9" y="25.9531">ClientManager</text><text fill="#000000" font-family="sans-serif" font-size="14.4" lengthAdjust="spacing" textLength="103.2" x="695" y="25.9531">MQTTProtocol /</text><text fill="#000000" font-family="sans-serif" font-size="14.4" lengthAdjust="spacing" textLength="113.6" x="695" y="45.1063">Modul zpracov&#225;n&#237;</text><!--SRC=[hLJ1Yjim4BtxAmRs4aFPRb8eIq8fpPRU0YcROs2Ps9D4iJ8oihpR6Fz2Fg3777jO-WUz9FclbPn46oTPABG26Sipy_JU-4bP8ZX5ZNFuIcFCfVccsDoBWg1v6mJbrTDK6ChcAg7odh9CA2w3pA0sWOr8WaP_-tFzN30cOCISL6u-Xo0oQ3250TWXnj00JHWtMjqGGZW4mKo9gmmtseExFcIfcX6ldo5F56-MnAhZ4pAZqcf1ChEx8glGnowpzD2RfH6GEfhHL1KMNgzNSugWW54-7fFEXmn-O1hdyCaJxWGUnmbfNaDtOSWctFpuU1jUrdA1OSKZ9fcWBMrTmyY2TEhHYcNX0ab5C2A8RN_ZzI-PB3p3OteLNdW2KuWiGHQWHZDAJ0wCUxb3PdfwsDVtKMUa6svr2e2s2gKeq1BOB35JZxXPRdyVzyZSl0FJjBDbvmVReXf2UIN5P6ec6XVbdHJ4feUC4z9bBQtnvQGz4KevmYY1L2lFkGenZTJ1NNMsxf_iKlUkSrsl_msF3qMgCSfdU-nES9PIzhuF1dsjZ8gKXFT3xgaubxiwzRXUMMkMPqLN2v9IFKqq4RUTpIYkCY560x6o4kOE9Q_1TCxt_hkkxPJaKct_76myv5YvpN2qNXNK-K-g37BRWLe9u02Wg-tfqdNudTCF9zr_vLYC_qqW7BbmoFQ-USpzxV1AuNMZtPjzxY-bwl2rfyZs23ruvpYtcERRJl5tp5lYQfwDoM0qhPDv0G00]--></g></svg>