<?xml version="1.0" encoding="us-ascii" standalone="no"?><svg xmlns="http://www.w3.org/2000/svg" xmlns:xlink="http://www.w3.org/1999/xlink" contentStyleType="text/css" height="818px" preserveAspectRatio="none" style="width:419px;height:818px;background:#FFFFFF;" version="1.1" viewBox="0 0 419 818" width="419px" zoomAndPan="magnify"><defs/><g><ellipse cx="206.25" cy="20" fill="#222222" rx="10" ry="10" style="stroke:#222222;stroke-width:1.0;"/><polygon fill="#F1F1F1" points="159.75,50,252.75,50,264.75,62,252.75,74,159.75,74,147.75,62,159.75,50" style="stroke:#181818;stroke-width:0.5;"/><text fill="#000000" font-family="sans-serif" font-size="11" lengthAdjust="spacing" textLength="93" x="159.75" y="66.5547">p&#345;&#237;znak timeout_t1?</text><text fill="#000000" font-family="sans-serif" font-size="11" lengthAdjust="spacing" textLength="18" x="129.75" y="59.2393">ano</text><text fill="#000000" font-family="sans-serif" font-size="11" lengthAdjust="spacing" textLength="12" x="264.75" y="59.2393">ne</text><rect fill="#F1F1F1" height="35.9609" rx="12.5" ry="12.5" style="stroke:#181818;stroke-width:0.5;" width="195" x="11" y="84"/><text fill="#000000" font-family="sans-serif" font-size="12" lengthAdjust="spacing" textLength="175" x="21" y="106.9492">nastav p&#345;&#237;znak ukon&#269;en&#237; spojen&#237;</text><rect fill="#F1F1F1" height="35.9609" rx="12.5" ry="12.5" style="stroke:#181818;stroke-width:0.5;" width="136" x="236" y="133.3154"/><text fill="#000000" font-family="sans-serif" font-size="12" lengthAdjust="spacing" textLength="116" x="246" y="156.2646">T&#283;lo stavu Zastavene</text><polygon fill="#F1F1F1" points="239,84,369,84,381,96,369,108,239,108,227,96,239,84" style="stroke:#181818;stroke-width:0.5;"/><text fill="#000000" font-family="sans-serif" font-size="11" lengthAdjust="spacing" textLength="18" x="308" y="119.8701">ano</text><text fill="#000000" font-family="sans-serif" font-size="11" lengthAdjust="spacing" textLength="130" x="239" y="100.5547">aktu&#225;ln&#237; stav = Zastavene?</text><text fill="#000000" font-family="sans-serif" font-size="11" lengthAdjust="spacing" textLength="12" x="381" y="93.2393">ne</text><polygon fill="#F1F1F1" points="304,189.2764,316,201.2764,304,213.2764,292,201.2764,304,189.2764" style="stroke:#181818;stroke-width:0.5;"/><rect fill="#F1F1F1" height="35.9609" rx="12.5" ry="12.5" style="stroke:#181818;stroke-width:0.5;" width="132" x="238" y="282.5918"/><text fill="#000000" font-family="sans-serif" font-size="12" lengthAdjust="spacing" textLength="112" x="248" y="305.541">T&#283;lo stavu Spustene</text><polygon fill="#F1F1F1" points="242,233.2764,366,233.2764,378,245.2764,366,257.2764,242,257.2764,230,245.2764,242,233.2764" style="stroke:#181818;stroke-width:0.5;"/><text fill="#000000" font-family="sans-serif" font-size="11" lengthAdjust="spacing" textLength="18" x="308" y="269.1465">ano</text><text fill="#000000" font-family="sans-serif" font-size="11" lengthAdjust="spacing" textLength="124" x="242" y="249.8311">aktu&#225;ln&#237; stav = Spustene?</text><text fill="#000000" font-family="sans-serif" font-size="11" lengthAdjust="spacing" textLength="12" x="378" y="242.5156">ne</text><polygon fill="#F1F1F1" points="304,338.5527,316,350.5527,304,362.5527,292,350.5527,304,338.5527" style="stroke:#181818;stroke-width:0.5;"/><rect fill="#F1F1F1" height="35.9609" rx="12.5" ry="12.5" style="stroke:#181818;stroke-width:0.5;" width="120" x="244" y="431.8682"/><text fill="#000000" font-family="sans-serif" font-size="12" lengthAdjust="spacing" textLength="100" x="254" y="454.8174">T&#283;lo stavu &#269;ekaj&#237;c&#237;</text><polygon fill="#F1F1F1" points="247.5,382.5527,360.5,382.5527,372.5,394.5527,360.5,406.5527,247.5,406.5527,235.5,394.5527,247.5,382.5527" style="stroke:#181818;stroke-width:0.5;"/><text fill="#000000" font-family="sans-serif" font-size="11" lengthAdjust="spacing" textLength="18" x="308" y="418.4229">ano</text><text fill="#000000" font-family="sans-serif" font-size="11" lengthAdjust="spacing" textLength="113" x="247.5" y="399.1074">aktu&#225;ln&#237; stav = &#269;ekaj&#237;c&#237;?</text><text fill="#000000" font-family="sans-serif" font-size="11" lengthAdjust="spacing" textLength="12" x="372.5" y="391.792">ne</text><polygon fill="#F1F1F1" points="304,487.8291,316,499.8291,304,511.8291,292,499.8291,304,487.8291" style="stroke:#181818;stroke-width:0.5;"/><polygon fill="#F1F1F1" points="206.25,517.8291,218.25,529.8291,206.25,541.8291,194.25,529.8291,206.25,517.8291" style="stroke:#181818;stroke-width:0.5;"/><rect fill="#F1F1F1" height="35.9609" rx="12.5" ry="12.5" style="stroke:#181818;stroke-width:0.5;" width="210" x="101.25" y="611.1445"/><text fill="#000000" font-family="sans-serif" font-size="12" lengthAdjust="spacing" textLength="190" x="111.25" y="634.0938">Ukon&#269;it v&#353;echny asynchronn&#237; &#250;lohy</text><rect fill="#F1F1F1" height="35.9609" rx="12.5" ry="12.5" style="stroke:#181818;stroke-width:0.5;" width="150" x="131.25" y="667.1055"/><text fill="#000000" font-family="sans-serif" font-size="12" lengthAdjust="spacing" textLength="130" x="141.25" y="690.0547">smazat instanci spojen&#237;</text><ellipse cx="206.25" cy="733.0664" fill="none" rx="10" ry="10" style="stroke:#222222;stroke-width:1.5;"/><line style="stroke:#222222;stroke-width:2.5;" x1="200.0628" x2="212.4372" y1="726.8792" y2="739.2536"/><line style="stroke:#222222;stroke-width:2.5;" x1="212.4372" x2="200.0628" y1="726.8792" y2="739.2536"/><polygon fill="#F1F1F1" points="145.25,561.8291,267.25,561.8291,279.25,573.8291,267.25,585.8291,145.25,585.8291,133.25,573.8291,145.25,561.8291" style="stroke:#181818;stroke-width:0.5;"/><text fill="#000000" font-family="sans-serif" font-size="11" lengthAdjust="spacing" textLength="18" x="210.25" y="597.6992">ano</text><text fill="#000000" font-family="sans-serif" font-size="11" lengthAdjust="spacing" textLength="122" x="145.25" y="578.3838">p&#345;&#237;znak uko&#269;en&#233; spojen&#237;?</text><text fill="#000000" font-family="sans-serif" font-size="11" lengthAdjust="spacing" textLength="12" x="279.25" y="571.0684">ne</text><ellipse cx="206.25" cy="796.0664" fill="none" rx="11" ry="11" style="stroke:#222222;stroke-width:1.0;"/><ellipse cx="206.25" cy="796.0664" fill="#222222" rx="6" ry="6" style="stroke:#222222;stroke-width:1.0;"/><line style="stroke:#181818;stroke-width:1.0;" x1="304" x2="304" y1="108" y2="133.3154"/><polygon fill="#181818" points="300,123.3154,304,133.3154,308,123.3154,304,127.3154" style="stroke:#181818;stroke-width:1.0;"/><line style="stroke:#181818;stroke-width:1.0;" x1="381" x2="393" y1="96" y2="96"/><polygon fill="#181818" points="389,141.2959,393,151.2959,397,141.2959,393,145.2959" style="stroke:#181818;stroke-width:1.0;"/><line style="stroke:#181818;stroke-width:1.0;" x1="393" x2="393" y1="96" y2="201.2764"/><line style="stroke:#181818;stroke-width:1.0;" x1="393" x2="316" y1="201.2764" y2="201.2764"/><polygon fill="#181818" points="326,197.2764,316,201.2764,326,205.2764,322,201.2764" style="stroke:#181818;stroke-width:1.0;"/><line style="stroke:#181818;stroke-width:1.0;" x1="304" x2="304" y1="169.2764" y2="189.2764"/><polygon fill="#181818" points="300,179.2764,304,189.2764,308,179.2764,304,183.2764" style="stroke:#181818;stroke-width:1.0;"/><line style="stroke:#181818;stroke-width:1.0;" x1="304" x2="304" y1="257.2764" y2="282.5918"/><polygon fill="#181818" points="300,272.5918,304,282.5918,308,272.5918,304,276.5918" style="stroke:#181818;stroke-width:1.0;"/><line style="stroke:#181818;stroke-width:1.0;" x1="378" x2="390" y1="245.2764" y2="245.2764"/><polygon fill="#181818" points="386,290.5723,390,300.5723,394,290.5723,390,294.5723" style="stroke:#181818;stroke-width:1.0;"/><line style="stroke:#181818;stroke-width:1.0;" x1="390" x2="390" y1="245.2764" y2="350.5527"/><line style="stroke:#181818;stroke-width:1.0;" x1="390" x2="316" y1="350.5527" y2="350.5527"/><polygon fill="#181818" points="326,346.5527,316,350.5527,326,354.5527,322,350.5527" style="stroke:#181818;stroke-width:1.0;"/><line style="stroke:#181818;stroke-width:1.0;" x1="304" x2="304" y1="318.5527" y2="338.5527"/><polygon fill="#181818" points="300,328.5527,304,338.5527,308,328.5527,304,332.5527" style="stroke:#181818;stroke-width:1.0;"/><line style="stroke:#181818;stroke-width:1.0;" x1="304" x2="304" y1="213.2764" y2="233.2764"/><polygon fill="#181818" points="300,223.2764,304,233.2764,308,223.2764,304,227.2764" style="stroke:#181818;stroke-width:1.0;"/><line style="stroke:#181818;stroke-width:1.0;" x1="304" x2="304" y1="406.5527" y2="431.8682"/><polygon fill="#181818" points="300,421.8682,304,431.8682,308,421.8682,304,425.8682" style="stroke:#181818;stroke-width:1.0;"/><line style="stroke:#181818;stroke-width:1.0;" x1="372.5" x2="384.5" y1="394.5527" y2="394.5527"/><polygon fill="#181818" points="380.5,439.8486,384.5,449.8486,388.5,439.8486,384.5,443.8486" style="stroke:#181818;stroke-width:1.0;"/><line style="stroke:#181818;stroke-width:1.0;" x1="384.5" x2="384.5" y1="394.5527" y2="499.8291"/><line style="stroke:#181818;stroke-width:1.0;" x1="384.5" x2="316" y1="499.8291" y2="499.8291"/><polygon fill="#181818" points="326,495.8291,316,499.8291,326,503.8291,322,499.8291" style="stroke:#181818;stroke-width:1.0;"/><line style="stroke:#181818;stroke-width:1.0;" x1="304" x2="304" y1="467.8291" y2="487.8291"/><polygon fill="#181818" points="300,477.8291,304,487.8291,308,477.8291,304,481.8291" style="stroke:#181818;stroke-width:1.0;"/><line style="stroke:#181818;stroke-width:1.0;" x1="304" x2="304" y1="362.5527" y2="382.5527"/><polygon fill="#181818" points="300,372.5527,304,382.5527,308,372.5527,304,376.5527" style="stroke:#181818;stroke-width:1.0;"/><line style="stroke:#181818;stroke-width:1.0;" x1="147.75" x2="108.5" y1="62" y2="62"/><line style="stroke:#181818;stroke-width:1.0;" x1="108.5" x2="108.5" y1="62" y2="84"/><polygon fill="#181818" points="104.5,74,108.5,84,112.5,74,108.5,78" style="stroke:#181818;stroke-width:1.0;"/><line style="stroke:#181818;stroke-width:1.0;" x1="264.75" x2="304" y1="62" y2="62"/><line style="stroke:#181818;stroke-width:1.0;" x1="304" x2="304" y1="62" y2="84"/><polygon fill="#181818" points="300,74,304,84,308,74,304,78" style="stroke:#181818;stroke-width:1.0;"/><line style="stroke:#181818;stroke-width:1.0;" x1="108.5" x2="108.5" y1="119.9609" y2="529.8291"/><line style="stroke:#181818;stroke-width:1.0;" x1="108.5" x2="194.25" y1="529.8291" y2="529.8291"/><polygon fill="#181818" points="184.25,525.8291,194.25,529.8291,184.25,533.8291,188.25,529.8291" style="stroke:#181818;stroke-width:1.0;"/><line style="stroke:#181818;stroke-width:1.0;" x1="304" x2="304" y1="511.8291" y2="529.8291"/><line style="stroke:#181818;stroke-width:1.0;" x1="304" x2="218.25" y1="529.8291" y2="529.8291"/><polygon fill="#181818" points="228.25,525.8291,218.25,529.8291,228.25,533.8291,224.25,529.8291" style="stroke:#181818;stroke-width:1.0;"/><line style="stroke:#181818;stroke-width:1.0;" x1="206.25" x2="206.25" y1="30" y2="50"/><polygon fill="#181818" points="202.25,40,206.25,50,210.25,40,206.25,44" style="stroke:#181818;stroke-width:1.0;"/><line style="stroke:#181818;stroke-width:1.0;" x1="206.25" x2="206.25" y1="647.1055" y2="667.1055"/><polygon fill="#181818" points="202.25,657.1055,206.25,667.1055,210.25,657.1055,206.25,661.1055" style="stroke:#181818;stroke-width:1.0;"/><line style="stroke:#181818;stroke-width:1.0;" x1="206.25" x2="206.25" y1="703.0664" y2="723.0664"/><polygon fill="#181818" points="202.25,713.0664,206.25,723.0664,210.25,713.0664,206.25,717.0664" style="stroke:#181818;stroke-width:1.0;"/><line style="stroke:#181818;stroke-width:1.0;" x1="206.25" x2="206.25" y1="585.8291" y2="611.1445"/><polygon fill="#181818" points="202.25,601.1445,206.25,611.1445,210.25,601.1445,206.25,605.1445" style="stroke:#181818;stroke-width:1.0;"/><line style="stroke:#181818;stroke-width:1.0;" x1="279.25" x2="321.25" y1="573.8291" y2="573.8291"/><polygon fill="#181818" points="317.25,664.1055,321.25,674.1055,325.25,664.1055,321.25,668.1055" style="stroke:#181818;stroke-width:1.0;"/><line style="stroke:#181818;stroke-width:1.0;" x1="321.25" x2="321.25" y1="573.8291" y2="765.0664"/><line style="stroke:#181818;stroke-width:1.0;" x1="321.25" x2="206.25" y1="765.0664" y2="765.0664"/><line style="stroke:#181818;stroke-width:1.0;" x1="206.25" x2="206.25" y1="765.0664" y2="785.0664"/><polygon fill="#181818" points="202.25,775.0664,206.25,785.0664,210.25,775.0664,206.25,779.0664" style="stroke:#181818;stroke-width:1.0;"/><line style="stroke:#181818;stroke-width:1.0;" x1="206.25" x2="206.25" y1="541.8291" y2="561.8291"/><polygon fill="#181818" points="202.25,551.8291,206.25,561.8291,210.25,551.8291,206.25,555.8291" style="stroke:#181818;stroke-width:1.0;"/><!--SRC=[ZP6nReCm48PtdkAsmjWrKTI7e5swL2Tw20Sue_WSYRn37g3Ab343Bv3LvBrgNBKGqQ9wikJlFl_-_P0A2fd82EuaKZd4pUt3TGV64aJLfAsyoUDJ0b8GGuoiamZyMZ7waJsCj2qrzqTYru5fz7ROh2Eg347Cb0GrbcBTkGh8CBo1rs0XfliRLi_zgT81iYCprH6_g_mFQTfO8ylER-I_Il-m4hUkorotO9rGS_6el-iiL7RvgUoNfbz2iKfWVpjJLd0BQ5hEYftc8Q6xLhferr-igV600efz8CxKv2U6OnzX5ik8RZu1]--></g></svg>