<?xml version="1.0" encoding="us-ascii" standalone="no"?><svg xmlns="http://www.w3.org/2000/svg" xmlns:xlink="http://www.w3.org/1999/xlink" contentStyleType="text/css" height="901px" preserveAspectRatio="none" style="width:468px;height:901px;background:#FFFFFF;" version="1.1" viewBox="0 0 468 901" width="468px" zoomAndPan="magnify"><defs/><g><path d="M53.5,10 L53.5,41.2813 A0,0 0 0 0 53.5,41.2813 L173.5,41.2813 A0,0 0 0 0 173.5,41.2813 L173.5,29.6406 L193.5,25.6406 L173.5,21.6406 L173.5,20 L163.5,10 L53.5,10 A0,0 0 0 0 53.5,10 " fill="#FEFFDD" style="stroke:#181818;stroke-width:0.5;"/><path d="M163.5,10 L163.5,20 L173.5,20 L163.5,10 " fill="#FEFFDD" style="stroke:#181818;stroke-width:0.5;"/><text fill="#000000" font-family="sans-serif" font-size="16" lengthAdjust="spacing" textLength="99" x="59.5" y="32.2656">vstup do bloku</text><ellipse cx="203.5" cy="25.6406" fill="#222222" rx="10" ry="10" style="stroke:#222222;stroke-width:1.0;"/><polygon fill="#F1F1F1" points="152,168.3594,255,168.3594,267,180.3594,255,192.3594,152,192.3594,140,180.3594,152,168.3594" style="stroke:#181818;stroke-width:0.5;"/><text fill="#000000" font-family="sans-serif" font-size="16" lengthAdjust="spacing" textLength="103" x="152" y="186.9844">SSN - VR &gt; 1?</text><text fill="#000000" font-family="sans-serif" font-size="16" lengthAdjust="spacing" textLength="26" x="114" y="176.3438">ano</text><text fill="#000000" font-family="sans-serif" font-size="16" lengthAdjust="spacing" textLength="17" x="267" y="176.3438">ne</text><rect fill="#F1F1F1" height="62.5625" rx="12.5" ry="12.5" style="stroke:#181818;stroke-width:0.5;" width="118" x="39.5" y="202.3594"/><text fill="#000000" font-family="sans-serif" font-size="16" lengthAdjust="spacing" textLength="98" x="49.5" y="229.625">Nastala chyba</text><text fill="#000000" font-family="sans-serif" font-size="16" lengthAdjust="spacing" textLength="66" x="61.5" y="250.9063">sekvence</text><rect fill="#F1F1F1" height="41.2813" rx="12.5" ry="12.5" style="stroke:#181818;stroke-width:0.5;" width="173" x="12" y="299.9219"/><text fill="#000000" font-family="sans-serif" font-size="16" lengthAdjust="spacing" textLength="153" x="22" y="327.1875">po&#353;li posledn&#237; stav VR</text><rect fill="#F1F1F1" height="62.5625" rx="12.5" ry="12.5" style="stroke:#181818;stroke-width:0.5;" width="126" x="35.5" y="376.2031"/><text fill="#000000" font-family="sans-serif" font-size="16" lengthAdjust="spacing" textLength="106" x="45.5" y="403.4688">ode&#353;li S-form&#225;t</text><text fill="#000000" font-family="sans-serif" font-size="16" lengthAdjust="spacing" textLength="93" x="53.5" y="424.75">send_frame()</text><rect fill="#F1F1F1" height="41.2813" rx="12.5" ry="12.5" style="stroke:#181818;stroke-width:0.5;" width="175" x="11" y="473.7656"/><text fill="#000000" font-family="sans-serif" font-size="16" lengthAdjust="spacing" textLength="155" x="21" y="501.0313">p&#345;&#237;znak ukon&#269;it spojen&#237;</text><rect fill="#F1F1F1" height="41.2813" rx="12.5" ry="12.5" style="stroke:#181818;stroke-width:0.5;" width="60" x="278.5" y="202.3594"/><text fill="#000000" font-family="sans-serif" font-size="16" lengthAdjust="spacing" textLength="40" x="288.5" y="229.625">VR++</text><rect fill="#F1F1F1" height="83.8438" rx="12.5" ry="12.5" style="stroke:#181818;stroke-width:0.5;" width="155" x="231" y="278.6406"/><text fill="#000000" font-family="sans-serif" font-size="16" lengthAdjust="spacing" textLength="111" x="253" y="305.9063">odstra&#328; v&#353;echny</text><text fill="#000000" font-family="sans-serif" font-size="16" lengthAdjust="spacing" textLength="115" x="253" y="327.1875">potvrzen&#233; r&#225;mce</text><text fill="#000000" font-family="sans-serif" font-size="16" lengthAdjust="spacing" textLength="135" x="241" y="348.4688">s hodnotou &lt;= RSN</text><rect fill="#F1F1F1" height="62.5625" rx="12.5" ry="12.5" style="stroke:#181818;stroke-width:0.5;" width="174" x="221.5" y="397.4844"/><text fill="#000000" font-family="sans-serif" font-size="16" lengthAdjust="spacing" textLength="136" x="231.5" y="424.75">ode&#353;li data z r&#225;mce</text><text fill="#000000" font-family="sans-serif" font-size="16" lengthAdjust="spacing" textLength="150" x="235.5" y="446.0313">do modulu zpracov&#225;n&#237;</text><rect fill="#F1F1F1" height="62.5625" rx="12.5" ry="12.5" style="stroke:#181818;stroke-width:0.5;" width="156" x="230.5" y="495.0469"/><text fill="#000000" font-family="sans-serif" font-size="16" lengthAdjust="spacing" textLength="136" x="240.5" y="522.3125">ode&#353;li data z r&#225;mce</text><text fill="#000000" font-family="sans-serif" font-size="16" lengthAdjust="spacing" textLength="122" x="244.5" y="543.5938">do MQTT brokeru</text><rect fill="#F1F1F1" height="62.5625" rx="12.5" ry="12.5" style="stroke:#181818;stroke-width:0.5;" width="126" x="245.5" y="648.8125"/><text fill="#000000" font-family="sans-serif" font-size="16" lengthAdjust="spacing" textLength="106" x="255.5" y="676.0781">ode&#353;li S-form&#225;t</text><text fill="#000000" font-family="sans-serif" font-size="16" lengthAdjust="spacing" textLength="93" x="263.5" y="697.3594">send_frame()</text><polygon fill="#F1F1F1" points="218,577.6094,399,577.6094,411,598.8906,399,620.1719,218,620.1719,206,598.8906,218,577.6094" style="stroke:#181818;stroke-width:0.5;"/><text fill="#000000" font-family="sans-serif" font-size="16" lengthAdjust="spacing" textLength="26" x="312.5" y="637.4375">ano</text><text fill="#000000" font-family="sans-serif" font-size="16" lengthAdjust="spacing" textLength="167" x="218" y="594.875">po&#269;et p&#345;ijat&#253;ch r&#225;mc&#367; ve</text><text fill="#000000" font-family="sans-serif" font-size="16" lengthAdjust="spacing" textLength="177" x="222" y="616.1563">vyrovn&#225;vac&#237; pam&#283;ti &gt;= w?</text><text fill="#000000" font-family="sans-serif" font-size="16" lengthAdjust="spacing" textLength="17" x="411" y="594.875">ne</text><polygon fill="#F1F1F1" points="308.5,731.375,320.5,743.375,308.5,755.375,296.5,743.375,308.5,731.375" style="stroke:#181818;stroke-width:0.5;"/><polygon fill="#F1F1F1" points="203.5,761.375,215.5,773.375,203.5,785.375,191.5,773.375,203.5,761.375" style="stroke:#181818;stroke-width:0.5;"/><polygon fill="#F1F1F1" points="147,115.7188,260,115.7188,272,127.7188,260,139.7188,147,139.7188,135,127.7188,147,115.7188" style="stroke:#181818;stroke-width:0.5;"/><text fill="#000000" font-family="sans-serif" font-size="16" lengthAdjust="spacing" textLength="26" x="207.5" y="156.9844">ano</text><text fill="#000000" font-family="sans-serif" font-size="16" lengthAdjust="spacing" textLength="113" x="147" y="134.3438">apdu = I-form&#225;t?</text><text fill="#000000" font-family="sans-serif" font-size="16" lengthAdjust="spacing" textLength="17" x="272" y="123.7031">ne</text><polygon fill="#F1F1F1" points="203.5,805.375,215.5,817.375,203.5,829.375,191.5,817.375,203.5,805.375" style="stroke:#181818;stroke-width:0.5;"/><ellipse cx="203.5" cy="859.375" fill="#F1F1F1" rx="10" ry="10" style="stroke:#181818;stroke-width:0.5;"/><path d="M197.9688,864.625 L202.375,853.1719 L204.0156,853.1719 L208.7031,864.625 L206.9688,864.625 L205.6406,861.1563 L200.8438,861.1563 L199.5938,864.625 L197.9688,864.625 Z M201.2813,859.9219 L205.1719,859.9219 L203.9688,856.75 Q203.4219,855.2969 203.1563,854.375 Q202.9375,855.4688 202.5469,856.5625 L201.2813,859.9219 Z " fill="#000000"/><polygon fill="#F1F1F1" points="116.5,63.0781,290.5,63.0781,302.5,75.0781,290.5,87.0781,116.5,87.0781,104.5,75.0781,116.5,63.0781" style="stroke:#181818;stroke-width:0.5;"/><text fill="#000000" font-family="sans-serif" font-size="16" lengthAdjust="spacing" textLength="26" x="207.5" y="104.3438">ano</text><text fill="#000000" font-family="sans-serif" font-size="16" lengthAdjust="spacing" textLength="174" x="116.5" y="81.7031">stav spojeni = Spustene?</text><text fill="#000000" font-family="sans-serif" font-size="16" lengthAdjust="spacing" textLength="17" x="302.5" y="71.0625">ne</text><ellipse cx="339.5" cy="75.0781" fill="#F1F1F1" rx="10" ry="10" style="stroke:#181818;stroke-width:0.5;"/><path d="M336.1719,81.0781 L336.1719,69.625 L340.4688,69.625 Q341.7813,69.625 342.5781,69.9688 Q343.375,70.3125 343.8125,71.0469 Q344.2656,71.7656 344.2656,72.5469 Q344.2656,73.2813 343.8594,73.9375 Q343.4688,74.5781 342.6719,74.9844 Q343.7031,75.2813 344.2656,76.0156 Q344.8281,76.75 344.8281,77.75 Q344.8281,78.5625 344.4844,79.25 Q344.1406,79.9375 343.6406,80.3125 Q343.1406,80.6875 342.3906,80.8906 Q341.6406,81.0781 340.5469,81.0781 L336.1719,81.0781 Z M337.6875,74.4375 L340.1719,74.4375 Q341.1719,74.4375 341.6094,74.2969 Q342.1875,74.125 342.4844,73.7344 Q342.7813,73.3281 342.7813,72.7344 Q342.7813,72.1563 342.5,71.7344 Q342.2344,71.2969 341.7188,71.1406 Q341.2188,70.9688 339.9844,70.9688 L337.6875,70.9688 L337.6875,74.4375 Z M337.6875,79.7188 L340.5469,79.7188 Q341.2813,79.7188 341.5781,79.6719 Q342.0938,79.5781 342.4375,79.3594 Q342.7969,79.1406 343.0156,78.7188 Q343.25,78.2969 343.25,77.75 Q343.25,77.1094 342.9219,76.6406 Q342.5938,76.1719 342.0156,75.9844 Q341.4375,75.7813 340.3438,75.7813 L337.6875,75.7813 L337.6875,79.7188 Z " fill="#000000"/><line style="stroke:#181818;stroke-width:1.0;" x1="98.5" x2="98.5" y1="264.9219" y2="299.9219"/><polygon fill="#181818" points="94.5,289.9219,98.5,299.9219,102.5,289.9219,98.5,293.9219" style="stroke:#181818;stroke-width:1.0;"/><line style="stroke:#181818;stroke-width:1.0;" x1="98.5" x2="98.5" y1="341.2031" y2="376.2031"/><polygon fill="#181818" points="94.5,366.2031,98.5,376.2031,102.5,366.2031,98.5,370.2031" style="stroke:#181818;stroke-width:1.0;"/><line style="stroke:#181818;stroke-width:1.0;" x1="98.5" x2="98.5" y1="438.7656" y2="473.7656"/><polygon fill="#181818" points="94.5,463.7656,98.5,473.7656,102.5,463.7656,98.5,467.7656" style="stroke:#181818;stroke-width:1.0;"/><line style="stroke:#181818;stroke-width:1.0;" x1="308.5" x2="308.5" y1="243.6406" y2="278.6406"/><polygon fill="#181818" points="304.5,268.6406,308.5,278.6406,312.5,268.6406,308.5,272.6406" style="stroke:#181818;stroke-width:1.0;"/><line style="stroke:#181818;stroke-width:1.0;" x1="308.5" x2="308.5" y1="362.4844" y2="397.4844"/><polygon fill="#181818" points="304.5,387.4844,308.5,397.4844,312.5,387.4844,308.5,391.4844" style="stroke:#181818;stroke-width:1.0;"/><line style="stroke:#181818;stroke-width:1.0;" x1="308.5" x2="308.5" y1="460.0469" y2="495.0469"/><polygon fill="#181818" points="304.5,485.0469,308.5,495.0469,312.5,485.0469,308.5,489.0469" style="stroke:#181818;stroke-width:1.0;"/><line style="stroke:#181818;stroke-width:1.0;" x1="308.5" x2="308.5" y1="620.1719" y2="648.8125"/><polygon fill="#181818" points="304.5,638.8125,308.5,648.8125,312.5,638.8125,308.5,642.8125" style="stroke:#181818;stroke-width:1.0;"/><line style="stroke:#181818;stroke-width:1.0;" x1="411" x2="423" y1="598.8906" y2="598.8906"/><polygon fill="#181818" points="419,665.4531,423,675.4531,427,665.4531,423,669.4531" style="stroke:#181818;stroke-width:1.0;"/><line style="stroke:#181818;stroke-width:1.0;" x1="423" x2="423" y1="598.8906" y2="743.375"/><line style="stroke:#181818;stroke-width:1.0;" x1="423" x2="320.5" y1="743.375" y2="743.375"/><polygon fill="#181818" points="330.5,739.375,320.5,743.375,330.5,747.375,326.5,743.375" style="stroke:#181818;stroke-width:1.0;"/><line style="stroke:#181818;stroke-width:1.0;" x1="308.5" x2="308.5" y1="711.375" y2="731.375"/><polygon fill="#181818" points="304.5,721.375,308.5,731.375,312.5,721.375,308.5,725.375" style="stroke:#181818;stroke-width:1.0;"/><line style="stroke:#181818;stroke-width:1.0;" x1="308.5" x2="308.5" y1="557.6094" y2="577.6094"/><polygon fill="#181818" points="304.5,567.6094,308.5,577.6094,312.5,567.6094,308.5,571.6094" style="stroke:#181818;stroke-width:1.0;"/><line style="stroke:#181818;stroke-width:1.0;" x1="140" x2="98.5" y1="180.3594" y2="180.3594"/><line style="stroke:#181818;stroke-width:1.0;" x1="98.5" x2="98.5" y1="180.3594" y2="202.3594"/><polygon fill="#181818" points="94.5,192.3594,98.5,202.3594,102.5,192.3594,98.5,196.3594" style="stroke:#181818;stroke-width:1.0;"/><line style="stroke:#181818;stroke-width:1.0;" x1="267" x2="308.5" y1="180.3594" y2="180.3594"/><line style="stroke:#181818;stroke-width:1.0;" x1="308.5" x2="308.5" y1="180.3594" y2="202.3594"/><polygon fill="#181818" points="304.5,192.3594,308.5,202.3594,312.5,192.3594,308.5,196.3594" style="stroke:#181818;stroke-width:1.0;"/><line style="stroke:#181818;stroke-width:1.0;" x1="98.5" x2="98.5" y1="515.0469" y2="773.375"/><line style="stroke:#181818;stroke-width:1.0;" x1="98.5" x2="191.5" y1="773.375" y2="773.375"/><polygon fill="#181818" points="181.5,769.375,191.5,773.375,181.5,777.375,185.5,773.375" style="stroke:#181818;stroke-width:1.0;"/><line style="stroke:#181818;stroke-width:1.0;" x1="308.5" x2="308.5" y1="755.375" y2="773.375"/><line style="stroke:#181818;stroke-width:1.0;" x1="308.5" x2="215.5" y1="773.375" y2="773.375"/><polygon fill="#181818" points="225.5,769.375,215.5,773.375,225.5,777.375,221.5,773.375" style="stroke:#181818;stroke-width:1.0;"/><line style="stroke:#181818;stroke-width:1.0;" x1="203.5" x2="203.5" y1="139.7188" y2="168.3594"/><polygon fill="#181818" points="199.5,158.3594,203.5,168.3594,207.5,158.3594,203.5,162.3594" style="stroke:#181818;stroke-width:1.0;"/><line style="stroke:#181818;stroke-width:1.0;" x1="272" x2="442" y1="127.7188" y2="127.7188"/><polygon fill="#181818" points="438,478.6875,442,488.6875,446,478.6875,442,482.6875" style="stroke:#181818;stroke-width:1.0;"/><line style="stroke:#181818;stroke-width:1.0;" x1="442" x2="442" y1="127.7188" y2="817.375"/><line style="stroke:#181818;stroke-width:1.0;" x1="442" x2="215.5" y1="817.375" y2="817.375"/><polygon fill="#181818" points="225.5,813.375,215.5,817.375,225.5,821.375,221.5,817.375" style="stroke:#181818;stroke-width:1.0;"/><line style="stroke:#181818;stroke-width:1.0;" x1="203.5" x2="203.5" y1="785.375" y2="805.375"/><polygon fill="#181818" points="199.5,795.375,203.5,805.375,207.5,795.375,203.5,799.375" style="stroke:#181818;stroke-width:1.0;"/><line style="stroke:#181818;stroke-width:1.0;" x1="203.5" x2="203.5" y1="829.375" y2="849.375"/><polygon fill="#181818" points="199.5,839.375,203.5,849.375,207.5,839.375,203.5,843.375" style="stroke:#181818;stroke-width:1.0;"/><line style="stroke:#181818;stroke-width:1.0;" x1="203.5" x2="203.5" y1="87.0781" y2="115.7188"/><polygon fill="#181818" points="199.5,105.7188,203.5,115.7188,207.5,105.7188,203.5,109.7188" style="stroke:#181818;stroke-width:1.0;"/><line style="stroke:#181818;stroke-width:1.0;" x1="302.5" x2="329.5" y1="75.0781" y2="75.0781"/><polygon fill="#181818" points="319.5,71.0781,329.5,75.0781,319.5,79.0781,323.5,75.0781" style="stroke:#181818;stroke-width:1.0;"/><line style="stroke:#181818;stroke-width:1.0;" x1="203.5" x2="203.5" y1="869.375" y2="889.375"/><polygon fill="#181818" points="199.5,879.375,203.5,889.375,207.5,879.375,203.5,883.375" style="stroke:#181818;stroke-width:1.0;"/><line style="stroke:#181818;stroke-width:1.0;" x1="203.5" x2="203.5" y1="35.6406" y2="63.0781"/><polygon fill="#181818" points="199.5,53.0781,203.5,63.0781,207.5,53.0781,203.5,57.0781" style="stroke:#181818;stroke-width:1.0;"/><!--SRC=[dP7FQjj04CRlUegvLIQau1vwI6kNbbBeeOPQmQT26Mj7Q2DfPzb_nNg2Nl80fISTUp1zWfnalLTNJeAnan3eWWwQ-Ssttyxt8dFe25wzd2QsaagZmGO-Ke6-TfzOkKos1DFNYNLeNABOqGK4wxm6mR2kkVA9B22DxG1MynKf2JF8jBUE5BsRW2j9GOgA9md4CyAeXO_Gv_E2JTDtxY5rJsRP0ivXjOGvJ1-dndEnm7X_ZP2NcpL-Kx5agGgaSdfp36eUkbg2PbkJKFqMzhvNonEC1UsvxDxXg6b9YUz5N0-barFPuLU_RHLMu2jMkslfxdRHRmyarPOWLNJYVRKyEpkHYnyBwmmEFo4C7UMbsi3-MPfTC6tK_GEcxvgSOjb2oI86mnxUpc2PBPvuZ427qDxDHRMONyF2rnvQRJ3dq7T7VfyR_lBryXBMXYio_dXgJ4xpxfeSnCt8AtJzJLxU3Wz_8Ook8MmC1zLt0VEOWyPczzj9cC_WnzD1_qyuZwyzuh987luTwEIuaRwFfUJGJZzCajlkFm00]--></g></svg>