<?xml version="1.0" encoding="us-ascii" standalone="no"?><svg xmlns="http://www.w3.org/2000/svg" xmlns:xlink="http://www.w3.org/1999/xlink" contentStyleType="text/css" height="702px" preserveAspectRatio="none" style="width:215px;height:702px;background:#FFFFFF;" version="1.1" viewBox="0 0 215 702" width="215px" zoomAndPan="magnify"><defs/><g><ellipse cx="87.5" cy="20" fill="#222222" rx="10" ry="10" style="stroke:#222222;stroke-width:1.0;"/><rect fill="#F1F1F1" height="67.8828" rx="12.5" ry="12.5" style="stroke:#181818;stroke-width:0.5;" width="128" x="23.5" y="148.6309"/><text fill="#000000" font-family="sans-serif" font-size="12" lengthAdjust="spacing" textLength="89" x="33.5" y="171.5801">odstra&#328; v&#353;echny</text><text fill="#000000" font-family="sans-serif" font-size="12" lengthAdjust="spacing" textLength="90" x="33.5" y="187.541">potvrzen&#233; r&#225;mce</text><text fill="#000000" font-family="sans-serif" font-size="12" lengthAdjust="spacing" textLength="108" x="33.5" y="203.502">s hodnotou &lt;= RSN</text><polygon fill="#F1F1F1" points="45.5,99.3154,129.5,99.3154,141.5,111.3154,129.5,123.3154,45.5,123.3154,33.5,111.3154,45.5,99.3154" style="stroke:#181818;stroke-width:0.5;"/><text fill="#000000" font-family="sans-serif" font-size="11" lengthAdjust="spacing" textLength="18" x="91.5" y="135.1855">ano</text><text fill="#000000" font-family="sans-serif" font-size="11" lengthAdjust="spacing" textLength="84" x="45.5" y="115.8701">apdu = S-form&#225;t?</text><text fill="#000000" font-family="sans-serif" font-size="11" lengthAdjust="spacing" textLength="12" x="141.5" y="108.5547">ne</text><polygon fill="#F1F1F1" points="87.5,236.5137,99.5,248.5137,87.5,260.5137,75.5,248.5137,87.5,236.5137" style="stroke:#181818;stroke-width:0.5;"/><rect fill="#F1F1F1" height="51.9219" rx="12.5" ry="12.5" style="stroke:#181818;stroke-width:0.5;" width="99" x="38" y="379.1445"/><text fill="#000000" font-family="sans-serif" font-size="12" lengthAdjust="spacing" textLength="79" x="48" y="402.0938">vytvo&#345; odpove&#271;</text><text fill="#000000" font-family="sans-serif" font-size="12" lengthAdjust="spacing" textLength="69" x="51" y="418.0547">TESTFR con</text><rect fill="#F1F1F1" height="51.9219" rx="12.5" ry="12.5" style="stroke:#181818;stroke-width:0.5;" width="104" x="35.5" y="466.0664"/><text fill="#000000" font-family="sans-serif" font-size="12" lengthAdjust="spacing" textLength="84" x="45.5" y="489.0156">ode&#353;li odpov&#283;&#271;</text><text fill="#000000" font-family="sans-serif" font-size="12" lengthAdjust="spacing" textLength="84" x="45.5" y="504.9766">session.send()</text><polygon fill="#F1F1F1" points="38.5,329.8291,136.5,329.8291,148.5,341.8291,136.5,353.8291,38.5,353.8291,26.5,341.8291,38.5,329.8291" style="stroke:#181818;stroke-width:0.5;"/><text fill="#000000" font-family="sans-serif" font-size="11" lengthAdjust="spacing" textLength="18" x="91.5" y="365.6992">ano</text><text fill="#000000" font-family="sans-serif" font-size="11" lengthAdjust="spacing" textLength="98" x="38.5" y="346.3838">apdu = TESTFR act?</text><text fill="#000000" font-family="sans-serif" font-size="11" lengthAdjust="spacing" textLength="12" x="148.5" y="339.0684">ne</text><polygon fill="#F1F1F1" points="87.5,537.9883,99.5,549.9883,87.5,561.9883,75.5,549.9883,87.5,537.9883" style="stroke:#181818;stroke-width:0.5;"/><polygon fill="#F1F1F1" points="45.5,280.5137,129.5,280.5137,141.5,292.5137,129.5,304.5137,45.5,304.5137,33.5,292.5137,45.5,280.5137" style="stroke:#181818;stroke-width:0.5;"/><text fill="#000000" font-family="sans-serif" font-size="11" lengthAdjust="spacing" textLength="18" x="91.5" y="316.3838">ano</text><text fill="#000000" font-family="sans-serif" font-size="11" lengthAdjust="spacing" textLength="84" x="45.5" y="297.0684">apdu = U-form&#225;t?</text><text fill="#000000" font-family="sans-serif" font-size="11" lengthAdjust="spacing" textLength="12" x="141.5" y="289.7529">ne</text><polygon fill="#F1F1F1" points="87.5,581.9883,99.5,593.9883,87.5,605.9883,75.5,593.9883,87.5,581.9883" style="stroke:#181818;stroke-width:0.5;"/><polygon fill="#F1F1F1" points="32,50,143,50,155,62,143,74,32,74,20,62,32,50" style="stroke:#181818;stroke-width:0.5;"/><text fill="#000000" font-family="sans-serif" font-size="11" lengthAdjust="spacing" textLength="18" x="91.5" y="85.8701">ano</text><text fill="#000000" font-family="sans-serif" font-size="11" lengthAdjust="spacing" textLength="111" x="32" y="66.5547">stav spojeni = &#269;ekaj&#237;c&#237;?</text><text fill="#000000" font-family="sans-serif" font-size="11" lengthAdjust="spacing" textLength="12" x="155" y="59.2393">ne</text><polygon fill="#F1F1F1" points="87.5,625.9883,99.5,637.9883,87.5,649.9883,75.5,637.9883,87.5,625.9883" style="stroke:#181818;stroke-width:0.5;"/><ellipse cx="87.5" cy="680.9883" fill="none" rx="11" ry="11" style="stroke:#222222;stroke-width:1.0;"/><ellipse cx="87.5" cy="680.9883" fill="#222222" rx="6" ry="6" style="stroke:#222222;stroke-width:1.0;"/><line style="stroke:#181818;stroke-width:1.0;" x1="87.5" x2="87.5" y1="123.3154" y2="148.6309"/><polygon fill="#181818" points="83.5,138.6309,87.5,148.6309,91.5,138.6309,87.5,142.6309" style="stroke:#181818;stroke-width:1.0;"/><line style="stroke:#181818;stroke-width:1.0;" x1="141.5" x2="161.5" y1="111.3154" y2="111.3154"/><polygon fill="#181818" points="157.5,172.5723,161.5,182.5723,165.5,172.5723,161.5,176.5723" style="stroke:#181818;stroke-width:1.0;"/><line style="stroke:#181818;stroke-width:1.0;" x1="161.5" x2="161.5" y1="111.3154" y2="248.5137"/><line style="stroke:#181818;stroke-width:1.0;" x1="161.5" x2="99.5" y1="248.5137" y2="248.5137"/><polygon fill="#181818" points="109.5,244.5137,99.5,248.5137,109.5,252.5137,105.5,248.5137" style="stroke:#181818;stroke-width:1.0;"/><line style="stroke:#181818;stroke-width:1.0;" x1="87.5" x2="87.5" y1="216.5137" y2="236.5137"/><polygon fill="#181818" points="83.5,226.5137,87.5,236.5137,91.5,226.5137,87.5,230.5137" style="stroke:#181818;stroke-width:1.0;"/><line style="stroke:#181818;stroke-width:1.0;" x1="87.5" x2="87.5" y1="431.0664" y2="466.0664"/><polygon fill="#181818" points="83.5,456.0664,87.5,466.0664,91.5,456.0664,87.5,460.0664" style="stroke:#181818;stroke-width:1.0;"/><line style="stroke:#181818;stroke-width:1.0;" x1="87.5" x2="87.5" y1="353.8291" y2="379.1445"/><polygon fill="#181818" points="83.5,369.1445,87.5,379.1445,91.5,369.1445,87.5,373.1445" style="stroke:#181818;stroke-width:1.0;"/><line style="stroke:#181818;stroke-width:1.0;" x1="148.5" x2="160.5" y1="341.8291" y2="341.8291"/><polygon fill="#181818" points="156.5,438.5664,160.5,448.5664,164.5,438.5664,160.5,442.5664" style="stroke:#181818;stroke-width:1.0;"/><line style="stroke:#181818;stroke-width:1.0;" x1="160.5" x2="160.5" y1="341.8291" y2="549.9883"/><line style="stroke:#181818;stroke-width:1.0;" x1="160.5" x2="99.5" y1="549.9883" y2="549.9883"/><polygon fill="#181818" points="109.5,545.9883,99.5,549.9883,109.5,553.9883,105.5,549.9883" style="stroke:#181818;stroke-width:1.0;"/><line style="stroke:#181818;stroke-width:1.0;" x1="87.5" x2="87.5" y1="517.9883" y2="537.9883"/><polygon fill="#181818" points="83.5,527.9883,87.5,537.9883,91.5,527.9883,87.5,531.9883" style="stroke:#181818;stroke-width:1.0;"/><line style="stroke:#181818;stroke-width:1.0;" x1="87.5" x2="87.5" y1="304.5137" y2="329.8291"/><polygon fill="#181818" points="83.5,319.8291,87.5,329.8291,91.5,319.8291,87.5,323.8291" style="stroke:#181818;stroke-width:1.0;"/><line style="stroke:#181818;stroke-width:1.0;" x1="141.5" x2="171.5" y1="292.5137" y2="292.5137"/><polygon fill="#181818" points="167.5,438.5664,171.5,448.5664,175.5,438.5664,171.5,442.5664" style="stroke:#181818;stroke-width:1.0;"/><line style="stroke:#181818;stroke-width:1.0;" x1="171.5" x2="171.5" y1="292.5137" y2="593.9883"/><line style="stroke:#181818;stroke-width:1.0;" x1="171.5" x2="99.5" y1="593.9883" y2="593.9883"/><polygon fill="#181818" points="109.5,589.9883,99.5,593.9883,109.5,597.9883,105.5,593.9883" style="stroke:#181818;stroke-width:1.0;"/><line style="stroke:#181818;stroke-width:1.0;" x1="87.5" x2="87.5" y1="561.9883" y2="581.9883"/><polygon fill="#181818" points="83.5,571.9883,87.5,581.9883,91.5,571.9883,87.5,575.9883" style="stroke:#181818;stroke-width:1.0;"/><line style="stroke:#181818;stroke-width:1.0;" x1="87.5" x2="87.5" y1="260.5137" y2="280.5137"/><polygon fill="#181818" points="83.5,270.5137,87.5,280.5137,91.5,270.5137,87.5,274.5137" style="stroke:#181818;stroke-width:1.0;"/><line style="stroke:#181818;stroke-width:1.0;" x1="87.5" x2="87.5" y1="74" y2="99.3154"/><polygon fill="#181818" points="83.5,89.3154,87.5,99.3154,91.5,89.3154,87.5,93.3154" style="stroke:#181818;stroke-width:1.0;"/><line style="stroke:#181818;stroke-width:1.0;" x1="155" x2="189.5" y1="62" y2="62"/><polygon fill="#181818" points="185.5,337.8096,189.5,347.8096,193.5,337.8096,189.5,341.8096" style="stroke:#181818;stroke-width:1.0;"/><line style="stroke:#181818;stroke-width:1.0;" x1="189.5" x2="189.5" y1="62" y2="637.9883"/><line style="stroke:#181818;stroke-width:1.0;" x1="189.5" x2="99.5" y1="637.9883" y2="637.9883"/><polygon fill="#181818" points="109.5,633.9883,99.5,637.9883,109.5,641.9883,105.5,637.9883" style="stroke:#181818;stroke-width:1.0;"/><line style="stroke:#181818;stroke-width:1.0;" x1="87.5" x2="87.5" y1="605.9883" y2="625.9883"/><polygon fill="#181818" points="83.5,615.9883,87.5,625.9883,91.5,615.9883,87.5,619.9883" style="stroke:#181818;stroke-width:1.0;"/><line style="stroke:#181818;stroke-width:1.0;" x1="87.5" x2="87.5" y1="30" y2="50"/><polygon fill="#181818" points="83.5,40,87.5,50,91.5,40,87.5,44" style="stroke:#181818;stroke-width:1.0;"/><line style="stroke:#181818;stroke-width:1.0;" x1="87.5" x2="87.5" y1="649.9883" y2="669.9883"/><polygon fill="#181818" points="83.5,659.9883,87.5,669.9883,91.5,659.9883,87.5,663.9883" style="stroke:#181818;stroke-width:1.0;"/><!--SRC=[XOyzJiD048Lxds8wx08QEa941IL57BeqA-zOTaXcLfx9Ik44D8WQKRcao2bitukDd81n14mrFzyRlNUMgb64oqZKL1gLESIXyo2EbqWbJA5zmKUpR7PPixj9G0iaY0rn4i4UDivk0fIUvrojcrf7oA2ks8fMfdi6tzMO5RI51JbMNpqXDHzGDVKwmx0JADWIAs_WUWgpz7vo-8ChGOW9Zt-HR9aV-e6NX_-z_E3dj-dyRWOc-rCG0lYjUkxUWArZZ-thWexQZ6boohF5hbwLFT- -xmM28YNJXGJlSJBMZ0D-xGT1V-DwvllIpwBiFW40]--></g></svg>