<?xml version="1.0" encoding="us-ascii" standalone="no"?><svg xmlns="http://www.w3.org/2000/svg" xmlns:xlink="http://www.w3.org/1999/xlink" contentStyleType="text/css" height="832px" preserveAspectRatio="none" style="width:391px;height:832px;background:#FFFFFF;" version="1.1" viewBox="0 0 391 832" width="391px" zoomAndPan="magnify"><defs/><g><path d="M34.5,10 L34.5,37.291 A0,0 0 0 0 34.5,37.291 L148.5,37.291 A0,0 0 0 0 148.5,37.291 L148.5,28 L168.5,23.6455 L148.5,20 L148.5,20 L138.5,10 L34.5,10 A0,0 0 0 0 34.5,10 " fill="#FEFFDD" style="stroke:#181818;stroke-width:0.5;"/><path d="M138.5,10 L138.5,20 L148.5,20 L138.5,10 " fill="#FEFFDD" style="stroke:#181818;stroke-width:0.5;"/><text fill="#000000" font-family="sans-serif" font-size="13" lengthAdjust="spacing" textLength="93" x="40.5" y="29.0283">za&#269;&#225;tek metody</text><ellipse cx="178.5" cy="23.6455" fill="#222222" rx="10" ry="10" style="stroke:#222222;stroke-width:1.0;"/><polygon fill="#F1F1F1" points="132,57.291,225,57.291,237,69.291,225,81.291,132,81.291,120,69.291,132,57.291" style="stroke:#181818;stroke-width:0.5;"/><text fill="#000000" font-family="sans-serif" font-size="11" lengthAdjust="spacing" textLength="93" x="132" y="73.8457">p&#345;&#237;znak timeout_t1?</text><text fill="#000000" font-family="sans-serif" font-size="11" lengthAdjust="spacing" textLength="18" x="102" y="66.5303">ano</text><text fill="#000000" font-family="sans-serif" font-size="11" lengthAdjust="spacing" textLength="12" x="237" y="66.5303">ne</text><rect fill="#F1F1F1" height="35.9609" rx="12.5" ry="12.5" style="stroke:#181818;stroke-width:0.5;" width="148" x="11" y="91.291"/><text fill="#000000" font-family="sans-serif" font-size="12" lengthAdjust="spacing" textLength="125" x="24" y="114.2402">p&#345;&#237;znak ukon&#269;it spojen&#237;</text><rect fill="#F1F1F1" height="35.9609" rx="12.5" ry="12.5" style="stroke:#181818;stroke-width:0.5;" width="166" x="189" y="140.6064"/><text fill="#000000" font-family="sans-serif" font-size="12" lengthAdjust="spacing" textLength="146" x="199" y="163.5557">Blok k&#243;du stavu Zastavene</text><polygon fill="#F1F1F1" points="207,91.291,337,91.291,349,103.291,337,115.291,207,115.291,195,103.291,207,91.291" style="stroke:#181818;stroke-width:0.5;"/><text fill="#000000" font-family="sans-serif" font-size="11" lengthAdjust="spacing" textLength="18" x="276" y="127.1611">ano</text><text fill="#000000" font-family="sans-serif" font-size="11" lengthAdjust="spacing" textLength="130" x="207" y="107.8457">aktu&#225;ln&#237; stav = Zastavene?</text><text fill="#000000" font-family="sans-serif" font-size="11" lengthAdjust="spacing" textLength="12" x="349" y="100.5303">ne</text><polygon fill="#F1F1F1" points="272,196.5674,284,208.5674,272,220.5674,260,208.5674,272,196.5674" style="stroke:#181818;stroke-width:0.5;"/><rect fill="#F1F1F1" height="35.9609" rx="12.5" ry="12.5" style="stroke:#181818;stroke-width:0.5;" width="162" x="191" y="289.8828"/><text fill="#000000" font-family="sans-serif" font-size="12" lengthAdjust="spacing" textLength="142" x="201" y="312.832">Blok k&#243;du stavu Spustene</text><polygon fill="#F1F1F1" points="210,240.5674,334,240.5674,346,252.5674,334,264.5674,210,264.5674,198,252.5674,210,240.5674" style="stroke:#181818;stroke-width:0.5;"/><text fill="#000000" font-family="sans-serif" font-size="11" lengthAdjust="spacing" textLength="18" x="276" y="276.4375">ano</text><text fill="#000000" font-family="sans-serif" font-size="11" lengthAdjust="spacing" textLength="124" x="210" y="257.1221">aktu&#225;ln&#237; stav = Spustene?</text><text fill="#000000" font-family="sans-serif" font-size="11" lengthAdjust="spacing" textLength="12" x="346" y="249.8066">ne</text><polygon fill="#F1F1F1" points="272,345.8438,284,357.8438,272,369.8438,260,357.8438,272,345.8438" style="stroke:#181818;stroke-width:0.5;"/><rect fill="#F1F1F1" height="35.9609" rx="12.5" ry="12.5" style="stroke:#181818;stroke-width:0.5;" width="150" x="197" y="439.1592"/><text fill="#000000" font-family="sans-serif" font-size="12" lengthAdjust="spacing" textLength="130" x="207" y="462.1084">Blok k&#243;du stavu &#269;ekaj&#237;c&#237;</text><polygon fill="#F1F1F1" points="215.5,389.8438,328.5,389.8438,340.5,401.8438,328.5,413.8438,215.5,413.8438,203.5,401.8438,215.5,389.8438" style="stroke:#181818;stroke-width:0.5;"/><text fill="#000000" font-family="sans-serif" font-size="11" lengthAdjust="spacing" textLength="18" x="276" y="425.7139">ano</text><text fill="#000000" font-family="sans-serif" font-size="11" lengthAdjust="spacing" textLength="113" x="215.5" y="406.3984">aktu&#225;ln&#237; stav = &#269;ekaj&#237;c&#237;?</text><text fill="#000000" font-family="sans-serif" font-size="11" lengthAdjust="spacing" textLength="12" x="340.5" y="399.083">ne</text><polygon fill="#F1F1F1" points="272,495.1201,284,507.1201,272,519.1201,260,507.1201,272,495.1201" style="stroke:#181818;stroke-width:0.5;"/><polygon fill="#F1F1F1" points="178.5,525.1201,190.5,537.1201,178.5,549.1201,166.5,537.1201,178.5,525.1201" style="stroke:#181818;stroke-width:0.5;"/><rect fill="#F1F1F1" height="35.9609" rx="12.5" ry="12.5" style="stroke:#181818;stroke-width:0.5;" width="210" x="73.5" y="618.4355"/><text fill="#000000" font-family="sans-serif" font-size="12" lengthAdjust="spacing" textLength="190" x="83.5" y="641.3848">Ukon&#269;it v&#353;echny asynchronn&#237; &#250;lohy</text><rect fill="#F1F1F1" height="35.9609" rx="12.5" ry="12.5" style="stroke:#181818;stroke-width:0.5;" width="150" x="103.5" y="674.3965"/><text fill="#000000" font-family="sans-serif" font-size="12" lengthAdjust="spacing" textLength="130" x="113.5" y="697.3457">smazat instanci spojen&#237;</text><path d="M25.5,726.7119 L25.5,754.0029 A0,0 0 0 0 25.5,754.0029 L148.5,754.0029 A0,0 0 0 0 148.5,754.0029 L148.5,744.7119 L168.5,740.3574 L148.5,736.7119 L148.5,736.7119 L138.5,726.7119 L25.5,726.7119 A0,0 0 0 0 25.5,726.7119 " fill="#FEFFDD" style="stroke:#181818;stroke-width:0.5;"/><path d="M138.5,726.7119 L138.5,736.7119 L148.5,736.7119 L138.5,726.7119 " fill="#FEFFDD" style="stroke:#181818;stroke-width:0.5;"/><text fill="#000000" font-family="sans-serif" font-size="13" lengthAdjust="spacing" textLength="102" x="31.5" y="745.7402">smaz&#225;n&#237; instance</text><ellipse cx="178.5" cy="740.3574" fill="none" rx="10" ry="10" style="stroke:#222222;stroke-width:1.5;"/><line style="stroke:#222222;stroke-width:2.5;" x1="172.3128" x2="184.6872" y1="734.1702" y2="746.5446"/><line style="stroke:#222222;stroke-width:2.5;" x1="184.6872" x2="172.3128" y1="734.1702" y2="746.5446"/><polygon fill="#F1F1F1" points="117.5,569.1201,239.5,569.1201,251.5,581.1201,239.5,593.1201,117.5,593.1201,105.5,581.1201,117.5,569.1201" style="stroke:#181818;stroke-width:0.5;"/><text fill="#000000" font-family="sans-serif" font-size="11" lengthAdjust="spacing" textLength="18" x="182.5" y="604.9902">ano</text><text fill="#000000" font-family="sans-serif" font-size="11" lengthAdjust="spacing" textLength="122" x="117.5" y="585.6748">p&#345;&#237;znak uko&#269;eno spojen&#237;?</text><text fill="#000000" font-family="sans-serif" font-size="11" lengthAdjust="spacing" textLength="12" x="251.5" y="578.3594">ne</text><path d="M44.5,793.3574 L44.5,820.6484 A0,0 0 0 0 44.5,820.6484 L147.5,820.6484 A0,0 0 0 0 147.5,820.6484 L147.5,811.3574 L167.5,807.0029 L147.5,803.3574 L147.5,803.3574 L137.5,793.3574 L44.5,793.3574 A0,0 0 0 0 44.5,793.3574 " fill="#FEFFDD" style="stroke:#181818;stroke-width:0.5;"/><path d="M137.5,793.3574 L137.5,803.3574 L147.5,803.3574 L137.5,793.3574 " fill="#FEFFDD" style="stroke:#181818;stroke-width:0.5;"/><text fill="#000000" font-family="sans-serif" font-size="13" lengthAdjust="spacing" textLength="82" x="50.5" y="812.3857">konec metody</text><ellipse cx="178.5" cy="807.0029" fill="none" rx="11" ry="11" style="stroke:#222222;stroke-width:1.0;"/><ellipse cx="178.5" cy="807.0029" fill="#222222" rx="6" ry="6" style="stroke:#222222;stroke-width:1.0;"/><line style="stroke:#181818;stroke-width:1.0;" x1="272" x2="272" y1="115.291" y2="140.6064"/><polygon fill="#181818" points="268,130.6064,272,140.6064,276,130.6064,272,134.6064" style="stroke:#181818;stroke-width:1.0;"/><line style="stroke:#181818;stroke-width:1.0;" x1="349" x2="365" y1="103.291" y2="103.291"/><polygon fill="#181818" points="361,148.5869,365,158.5869,369,148.5869,365,152.5869" style="stroke:#181818;stroke-width:1.0;"/><line style="stroke:#181818;stroke-width:1.0;" x1="365" x2="365" y1="103.291" y2="208.5674"/><line style="stroke:#181818;stroke-width:1.0;" x1="365" x2="284" y1="208.5674" y2="208.5674"/><polygon fill="#181818" points="294,204.5674,284,208.5674,294,212.5674,290,208.5674" style="stroke:#181818;stroke-width:1.0;"/><line style="stroke:#181818;stroke-width:1.0;" x1="272" x2="272" y1="176.5674" y2="196.5674"/><polygon fill="#181818" points="268,186.5674,272,196.5674,276,186.5674,272,190.5674" style="stroke:#181818;stroke-width:1.0;"/><line style="stroke:#181818;stroke-width:1.0;" x1="272" x2="272" y1="264.5674" y2="289.8828"/><polygon fill="#181818" points="268,279.8828,272,289.8828,276,279.8828,272,283.8828" style="stroke:#181818;stroke-width:1.0;"/><line style="stroke:#181818;stroke-width:1.0;" x1="346" x2="363" y1="252.5674" y2="252.5674"/><polygon fill="#181818" points="359,297.8633,363,307.8633,367,297.8633,363,301.8633" style="stroke:#181818;stroke-width:1.0;"/><line style="stroke:#181818;stroke-width:1.0;" x1="363" x2="363" y1="252.5674" y2="357.8438"/><line style="stroke:#181818;stroke-width:1.0;" x1="363" x2="284" y1="357.8438" y2="357.8438"/><polygon fill="#181818" points="294,353.8438,284,357.8438,294,361.8438,290,357.8438" style="stroke:#181818;stroke-width:1.0;"/><line style="stroke:#181818;stroke-width:1.0;" x1="272" x2="272" y1="325.8438" y2="345.8438"/><polygon fill="#181818" points="268,335.8438,272,345.8438,276,335.8438,272,339.8438" style="stroke:#181818;stroke-width:1.0;"/><line style="stroke:#181818;stroke-width:1.0;" x1="272" x2="272" y1="220.5674" y2="240.5674"/><polygon fill="#181818" points="268,230.5674,272,240.5674,276,230.5674,272,234.5674" style="stroke:#181818;stroke-width:1.0;"/><line style="stroke:#181818;stroke-width:1.0;" x1="272" x2="272" y1="413.8438" y2="439.1592"/><polygon fill="#181818" points="268,429.1592,272,439.1592,276,429.1592,272,433.1592" style="stroke:#181818;stroke-width:1.0;"/><line style="stroke:#181818;stroke-width:1.0;" x1="340.5" x2="357" y1="401.8438" y2="401.8438"/><polygon fill="#181818" points="353,447.1396,357,457.1396,361,447.1396,357,451.1396" style="stroke:#181818;stroke-width:1.0;"/><line style="stroke:#181818;stroke-width:1.0;" x1="357" x2="357" y1="401.8438" y2="507.1201"/><line style="stroke:#181818;stroke-width:1.0;" x1="357" x2="284" y1="507.1201" y2="507.1201"/><polygon fill="#181818" points="294,503.1201,284,507.1201,294,511.1201,290,507.1201" style="stroke:#181818;stroke-width:1.0;"/><line style="stroke:#181818;stroke-width:1.0;" x1="272" x2="272" y1="475.1201" y2="495.1201"/><polygon fill="#181818" points="268,485.1201,272,495.1201,276,485.1201,272,489.1201" style="stroke:#181818;stroke-width:1.0;"/><line style="stroke:#181818;stroke-width:1.0;" x1="272" x2="272" y1="369.8438" y2="389.8438"/><polygon fill="#181818" points="268,379.8438,272,389.8438,276,379.8438,272,383.8438" style="stroke:#181818;stroke-width:1.0;"/><line style="stroke:#181818;stroke-width:1.0;" x1="120" x2="85" y1="69.291" y2="69.291"/><line style="stroke:#181818;stroke-width:1.0;" x1="85" x2="85" y1="69.291" y2="91.291"/><polygon fill="#181818" points="81,81.291,85,91.291,89,81.291,85,85.291" style="stroke:#181818;stroke-width:1.0;"/><line style="stroke:#181818;stroke-width:1.0;" x1="237" x2="272" y1="69.291" y2="69.291"/><line style="stroke:#181818;stroke-width:1.0;" x1="272" x2="272" y1="69.291" y2="91.291"/><polygon fill="#181818" points="268,81.291,272,91.291,276,81.291,272,85.291" style="stroke:#181818;stroke-width:1.0;"/><line style="stroke:#181818;stroke-width:1.0;" x1="85" x2="85" y1="127.252" y2="537.1201"/><line style="stroke:#181818;stroke-width:1.0;" x1="85" x2="166.5" y1="537.1201" y2="537.1201"/><polygon fill="#181818" points="156.5,533.1201,166.5,537.1201,156.5,541.1201,160.5,537.1201" style="stroke:#181818;stroke-width:1.0;"/><line style="stroke:#181818;stroke-width:1.0;" x1="272" x2="272" y1="519.1201" y2="537.1201"/><line style="stroke:#181818;stroke-width:1.0;" x1="272" x2="190.5" y1="537.1201" y2="537.1201"/><polygon fill="#181818" points="200.5,533.1201,190.5,537.1201,200.5,541.1201,196.5,537.1201" style="stroke:#181818;stroke-width:1.0;"/><line style="stroke:#181818;stroke-width:1.0;" x1="178.5" x2="178.5" y1="33.6455" y2="57.291"/><polygon fill="#181818" points="174.5,47.291,178.5,57.291,182.5,47.291,178.5,51.291" style="stroke:#181818;stroke-width:1.0;"/><line style="stroke:#181818;stroke-width:1.0;" x1="178.5" x2="178.5" y1="654.3965" y2="674.3965"/><polygon fill="#181818" points="174.5,664.3965,178.5,674.3965,182.5,664.3965,178.5,668.3965" style="stroke:#181818;stroke-width:1.0;"/><line style="stroke:#181818;stroke-width:1.0;" x1="178.5" x2="178.5" y1="710.3574" y2="730.3574"/><polygon fill="#181818" points="174.5,720.3574,178.5,730.3574,182.5,720.3574,178.5,724.3574" style="stroke:#181818;stroke-width:1.0;"/><line style="stroke:#181818;stroke-width:1.0;" x1="178.5" x2="178.5" y1="593.1201" y2="618.4355"/><polygon fill="#181818" points="174.5,608.4355,178.5,618.4355,182.5,608.4355,178.5,612.4355" style="stroke:#181818;stroke-width:1.0;"/><line style="stroke:#181818;stroke-width:1.0;" x1="251.5" x2="293.5" y1="581.1201" y2="581.1201"/><polygon fill="#181818" points="289.5,675.042,293.5,685.042,297.5,675.042,293.5,679.042" style="stroke:#181818;stroke-width:1.0;"/><line style="stroke:#181818;stroke-width:1.0;" x1="293.5" x2="293.5" y1="581.1201" y2="776.0029"/><line style="stroke:#181818;stroke-width:1.0;" x1="293.5" x2="178.5" y1="776.0029" y2="776.0029"/><line style="stroke:#181818;stroke-width:1.0;" x1="178.5" x2="178.5" y1="776.0029" y2="796.0029"/><polygon fill="#181818" points="174.5,786.0029,178.5,796.0029,182.5,786.0029,178.5,790.0029" style="stroke:#181818;stroke-width:1.0;"/><line style="stroke:#181818;stroke-width:1.0;" x1="178.5" x2="178.5" y1="549.1201" y2="569.1201"/><polygon fill="#181818" points="174.5,559.1201,178.5,569.1201,182.5,559.1201,178.5,563.1201" style="stroke:#181818;stroke-width:1.0;"/><!--SRC=[ZPA_ReCm48TtdkAsmjYLgAhKLuYwTAaik0Z7S4RnEHAy0m_GaGTWofRLvBrg21JIFsgys98_V_VJ-HwsB1XDO5WSE23D237KeczSowYWGDPf5SWTXENbmtKr2GKi2zIMt_dnEGBEa20KfAC0_8fXuQpIr3UImPHwZ-IwJO2vGGW9er4f55lNvlu6VFqZFC6R60v8U6kENtAjGBbJQaVIBk3QYPJAtH_cRMaDto6UkNkzVODAx5sNkEu_zGhzQLzgt3JGlo7zrS1V-lqwD_buQJ79g09XAagoWwOXfJldEgisLzOKeXOCadmUIkJgNuPhds3Sfo4OODSEZed7A_Kjjs5TpdFZes0opSmd]--></g></svg>