<?xml version="1.0" encoding="us-ascii" standalone="no"?><svg xmlns="http://www.w3.org/2000/svg" xmlns:xlink="http://www.w3.org/1999/xlink" contentStyleType="text/css" height="713px" preserveAspectRatio="none" style="width:273px;height:713px;background:#FFFFFF;" version="1.1" viewBox="0 0 273 713" width="273px" zoomAndPan="magnify"><defs/><g><path d="M11,10 L11,37.291 A0,0 0 0 0 11,37.291 L115,37.291 A0,0 0 0 0 115,37.291 L115,28 L135,23.6455 L115,20 L115,20 L105,10 L11,10 A0,0 0 0 0 11,10 " fill="#FEFFDD" style="stroke:#181818;stroke-width:0.5;"/><path d="M105,10 L105,20 L115,20 L105,10 " fill="#FEFFDD" style="stroke:#181818;stroke-width:0.5;"/><text fill="#000000" font-family="sans-serif" font-size="13" lengthAdjust="spacing" textLength="83" x="17" y="29.0283">vstup do bloku</text><ellipse cx="145" cy="23.6455" fill="#222222" rx="10" ry="10" style="stroke:#222222;stroke-width:1.0;"/><rect fill="#F1F1F1" height="67.8828" rx="12.5" ry="12.5" style="stroke:#181818;stroke-width:0.5;" width="128" x="81" y="155.9219"/><text fill="#000000" font-family="sans-serif" font-size="12" lengthAdjust="spacing" textLength="89" x="91" y="178.8711">odstra&#328; v&#353;echny</text><text fill="#000000" font-family="sans-serif" font-size="12" lengthAdjust="spacing" textLength="90" x="91" y="194.832">potvrzen&#233; r&#225;mce</text><text fill="#000000" font-family="sans-serif" font-size="12" lengthAdjust="spacing" textLength="108" x="91" y="210.793">s hodnotou &lt;= RSN</text><polygon fill="#F1F1F1" points="103,106.6064,187,106.6064,199,118.6064,187,130.6064,103,130.6064,91,118.6064,103,106.6064" style="stroke:#181818;stroke-width:0.5;"/><text fill="#000000" font-family="sans-serif" font-size="11" lengthAdjust="spacing" textLength="18" x="149" y="142.4766">ano</text><text fill="#000000" font-family="sans-serif" font-size="11" lengthAdjust="spacing" textLength="84" x="103" y="123.1611">apdu = S-form&#225;t?</text><text fill="#000000" font-family="sans-serif" font-size="11" lengthAdjust="spacing" textLength="12" x="199" y="115.8457">ne</text><polygon fill="#F1F1F1" points="145,243.8047,157,255.8047,145,267.8047,133,255.8047,145,243.8047" style="stroke:#181818;stroke-width:0.5;"/><rect fill="#F1F1F1" height="51.9219" rx="12.5" ry="12.5" style="stroke:#181818;stroke-width:0.5;" width="99" x="95.5" y="386.4355"/><text fill="#000000" font-family="sans-serif" font-size="12" lengthAdjust="spacing" textLength="79" x="105.5" y="409.3848">vytvo&#345; odpove&#271;</text><text fill="#000000" font-family="sans-serif" font-size="12" lengthAdjust="spacing" textLength="69" x="108.5" y="425.3457">TESTFR con</text><rect fill="#F1F1F1" height="51.9219" rx="12.5" ry="12.5" style="stroke:#181818;stroke-width:0.5;" width="104" x="93" y="473.3574"/><text fill="#000000" font-family="sans-serif" font-size="12" lengthAdjust="spacing" textLength="84" x="103" y="496.3066">ode&#353;li odpov&#283;&#271;</text><text fill="#000000" font-family="sans-serif" font-size="12" lengthAdjust="spacing" textLength="75" x="109" y="512.2676">send_frame()</text><polygon fill="#F1F1F1" points="96,337.1201,194,337.1201,206,349.1201,194,361.1201,96,361.1201,84,349.1201,96,337.1201" style="stroke:#181818;stroke-width:0.5;"/><text fill="#000000" font-family="sans-serif" font-size="11" lengthAdjust="spacing" textLength="18" x="149" y="372.9902">ano</text><text fill="#000000" font-family="sans-serif" font-size="11" lengthAdjust="spacing" textLength="98" x="96" y="353.6748">apdu = TESTFR act?</text><text fill="#000000" font-family="sans-serif" font-size="11" lengthAdjust="spacing" textLength="12" x="206" y="346.3594">ne</text><polygon fill="#F1F1F1" points="145,545.2793,157,557.2793,145,569.2793,133,557.2793,145,545.2793" style="stroke:#181818;stroke-width:0.5;"/><polygon fill="#F1F1F1" points="103,287.8047,187,287.8047,199,299.8047,187,311.8047,103,311.8047,91,299.8047,103,287.8047" style="stroke:#181818;stroke-width:0.5;"/><text fill="#000000" font-family="sans-serif" font-size="11" lengthAdjust="spacing" textLength="18" x="149" y="323.6748">ano</text><text fill="#000000" font-family="sans-serif" font-size="11" lengthAdjust="spacing" textLength="84" x="103" y="304.3594">apdu = U-form&#225;t?</text><text fill="#000000" font-family="sans-serif" font-size="11" lengthAdjust="spacing" textLength="12" x="199" y="297.0439">ne</text><polygon fill="#F1F1F1" points="145,589.2793,157,601.2793,145,613.2793,133,601.2793,145,589.2793" style="stroke:#181818;stroke-width:0.5;"/><polygon fill="#F1F1F1" points="89.5,57.291,200.5,57.291,212.5,69.291,200.5,81.291,89.5,81.291,77.5,69.291,89.5,57.291" style="stroke:#181818;stroke-width:0.5;"/><text fill="#000000" font-family="sans-serif" font-size="11" lengthAdjust="spacing" textLength="18" x="149" y="93.1611">ano</text><text fill="#000000" font-family="sans-serif" font-size="11" lengthAdjust="spacing" textLength="111" x="89.5" y="73.8457">stav spojeni = &#269;ekaj&#237;c&#237;?</text><text fill="#000000" font-family="sans-serif" font-size="11" lengthAdjust="spacing" textLength="12" x="212.5" y="66.5303">ne</text><polygon fill="#F1F1F1" points="145,633.2793,157,645.2793,145,657.2793,133,645.2793,145,633.2793" style="stroke:#181818;stroke-width:0.5;"/><path d="M10,674.6338 L10,701.9248 A0,0 0 0 0 10,701.9248 L114,701.9248 A0,0 0 0 0 114,701.9248 L114,692.6338 L134,688.2793 L114,684.6338 L114,684.6338 L104,674.6338 L10,674.6338 A0,0 0 0 0 10,674.6338 " fill="#FEFFDD" style="stroke:#181818;stroke-width:0.5;"/><path d="M104,674.6338 L104,684.6338 L114,684.6338 L104,674.6338 " fill="#FEFFDD" style="stroke:#181818;stroke-width:0.5;"/><text fill="#000000" font-family="sans-serif" font-size="13" lengthAdjust="spacing" textLength="83" x="16" y="693.6621">v&#253;stup z bloku</text><ellipse cx="145" cy="688.2793" fill="none" rx="11" ry="11" style="stroke:#222222;stroke-width:1.0;"/><ellipse cx="145" cy="688.2793" fill="#222222" rx="6" ry="6" style="stroke:#222222;stroke-width:1.0;"/><line style="stroke:#181818;stroke-width:1.0;" x1="145" x2="145" y1="130.6064" y2="155.9219"/><polygon fill="#181818" points="141,145.9219,145,155.9219,149,145.9219,145,149.9219" style="stroke:#181818;stroke-width:1.0;"/><line style="stroke:#181818;stroke-width:1.0;" x1="199" x2="219" y1="118.6064" y2="118.6064"/><polygon fill="#181818" points="215,179.8633,219,189.8633,223,179.8633,219,183.8633" style="stroke:#181818;stroke-width:1.0;"/><line style="stroke:#181818;stroke-width:1.0;" x1="219" x2="219" y1="118.6064" y2="255.8047"/><line style="stroke:#181818;stroke-width:1.0;" x1="219" x2="157" y1="255.8047" y2="255.8047"/><polygon fill="#181818" points="167,251.8047,157,255.8047,167,259.8047,163,255.8047" style="stroke:#181818;stroke-width:1.0;"/><line style="stroke:#181818;stroke-width:1.0;" x1="145" x2="145" y1="223.8047" y2="243.8047"/><polygon fill="#181818" points="141,233.8047,145,243.8047,149,233.8047,145,237.8047" style="stroke:#181818;stroke-width:1.0;"/><line style="stroke:#181818;stroke-width:1.0;" x1="145" x2="145" y1="438.3574" y2="473.3574"/><polygon fill="#181818" points="141,463.3574,145,473.3574,149,463.3574,145,467.3574" style="stroke:#181818;stroke-width:1.0;"/><line style="stroke:#181818;stroke-width:1.0;" x1="145" x2="145" y1="361.1201" y2="386.4355"/><polygon fill="#181818" points="141,376.4355,145,386.4355,149,376.4355,145,380.4355" style="stroke:#181818;stroke-width:1.0;"/><line style="stroke:#181818;stroke-width:1.0;" x1="206" x2="218" y1="349.1201" y2="349.1201"/><polygon fill="#181818" points="214,445.8574,218,455.8574,222,445.8574,218,449.8574" style="stroke:#181818;stroke-width:1.0;"/><line style="stroke:#181818;stroke-width:1.0;" x1="218" x2="218" y1="349.1201" y2="557.2793"/><line style="stroke:#181818;stroke-width:1.0;" x1="218" x2="157" y1="557.2793" y2="557.2793"/><polygon fill="#181818" points="167,553.2793,157,557.2793,167,561.2793,163,557.2793" style="stroke:#181818;stroke-width:1.0;"/><line style="stroke:#181818;stroke-width:1.0;" x1="145" x2="145" y1="525.2793" y2="545.2793"/><polygon fill="#181818" points="141,535.2793,145,545.2793,149,535.2793,145,539.2793" style="stroke:#181818;stroke-width:1.0;"/><line style="stroke:#181818;stroke-width:1.0;" x1="145" x2="145" y1="311.8047" y2="337.1201"/><polygon fill="#181818" points="141,327.1201,145,337.1201,149,327.1201,145,331.1201" style="stroke:#181818;stroke-width:1.0;"/><line style="stroke:#181818;stroke-width:1.0;" x1="199" x2="229" y1="299.8047" y2="299.8047"/><polygon fill="#181818" points="225,445.8574,229,455.8574,233,445.8574,229,449.8574" style="stroke:#181818;stroke-width:1.0;"/><line style="stroke:#181818;stroke-width:1.0;" x1="229" x2="229" y1="299.8047" y2="601.2793"/><line style="stroke:#181818;stroke-width:1.0;" x1="229" x2="157" y1="601.2793" y2="601.2793"/><polygon fill="#181818" points="167,597.2793,157,601.2793,167,605.2793,163,601.2793" style="stroke:#181818;stroke-width:1.0;"/><line style="stroke:#181818;stroke-width:1.0;" x1="145" x2="145" y1="569.2793" y2="589.2793"/><polygon fill="#181818" points="141,579.2793,145,589.2793,149,579.2793,145,583.2793" style="stroke:#181818;stroke-width:1.0;"/><line style="stroke:#181818;stroke-width:1.0;" x1="145" x2="145" y1="267.8047" y2="287.8047"/><polygon fill="#181818" points="141,277.8047,145,287.8047,149,277.8047,145,281.8047" style="stroke:#181818;stroke-width:1.0;"/><line style="stroke:#181818;stroke-width:1.0;" x1="145" x2="145" y1="81.291" y2="106.6064"/><polygon fill="#181818" points="141,96.6064,145,106.6064,149,96.6064,145,100.6064" style="stroke:#181818;stroke-width:1.0;"/><line style="stroke:#181818;stroke-width:1.0;" x1="212.5" x2="247" y1="69.291" y2="69.291"/><polygon fill="#181818" points="243,345.1006,247,355.1006,251,345.1006,247,349.1006" style="stroke:#181818;stroke-width:1.0;"/><line style="stroke:#181818;stroke-width:1.0;" x1="247" x2="247" y1="69.291" y2="645.2793"/><line style="stroke:#181818;stroke-width:1.0;" x1="247" x2="157" y1="645.2793" y2="645.2793"/><polygon fill="#181818" points="167,641.2793,157,645.2793,167,649.2793,163,645.2793" style="stroke:#181818;stroke-width:1.0;"/><line style="stroke:#181818;stroke-width:1.0;" x1="145" x2="145" y1="613.2793" y2="633.2793"/><polygon fill="#181818" points="141,623.2793,145,633.2793,149,623.2793,145,627.2793" style="stroke:#181818;stroke-width:1.0;"/><line style="stroke:#181818;stroke-width:1.0;" x1="145" x2="145" y1="33.6455" y2="57.291"/><polygon fill="#181818" points="141,47.291,145,57.291,149,47.291,145,51.291" style="stroke:#181818;stroke-width:1.0;"/><line style="stroke:#181818;stroke-width:1.0;" x1="145" x2="145" y1="657.2793" y2="677.2793"/><polygon fill="#181818" points="141,667.2793,145,677.2793,149,667.2793,145,671.2793" style="stroke:#181818;stroke-width:1.0;"/><!--SRC=[XP6nJiCm48RtFCLj90CJMql512D3KxPAoCGNDMtYY-oBfVO9M10pOih8q4TWSl9UcAIb8GZmTBxx_jD_-izY5enm4HWMcWD5Z1EmXgiI9C53Jfigo588_TY2AMcDAeCPD4-u4MktJzp-AW9UeO9GA8e2-8H5AIiFnUSfwSBLF486RqBIi1Rj8zYsncIbjh1K9R7LErJk3RIhYmHzpy2Af7T75LpEO1xVJWzxC3S8eSBZNbGoIm_rmClT_rw-yOlhU74p1v7yAV07s2rRQb-0P4aMc-UbEceJKjEVF4biwpph-UQr4u3nhkzJBGeCex5cVE1NVt3eRrpFd2Rztp2LNTBWetRlNTYxFkiF]--></g></svg>