<?xml version="1.0" encoding="us-ascii" standalone="no"?><svg xmlns="http://www.w3.org/2000/svg" xmlns:xlink="http://www.w3.org/1999/xlink" contentStyleType="text/css" height="500px" preserveAspectRatio="none" style="width:254px;height:500px;background:#FFFFFF;" version="1.1" viewBox="0 0 254 500" width="254px" zoomAndPan="magnify"><defs/><g><ellipse cx="96.5" cy="20" fill="#222222" rx="10" ry="10" style="stroke:#222222;stroke-width:1.0;"/><rect fill="#F1F1F1" height="35.9609" rx="12.5" ry="12.5" style="stroke:#181818;stroke-width:0.5;" width="171" x="11" y="197.9463"/><text fill="#000000" font-family="sans-serif" font-size="12" lengthAdjust="spacing" textLength="151" x="21" y="220.8955">vytvo&#345; odpove&#271; TESTFR con</text><rect fill="#F1F1F1" height="51.9219" rx="12.5" ry="12.5" style="stroke:#181818;stroke-width:0.5;" width="104" x="44.5" y="263.4268"/><text fill="#000000" font-family="sans-serif" font-size="12" lengthAdjust="spacing" textLength="84" x="54.5" y="286.376">ode&#353;li odpov&#283;&#271;</text><text fill="#000000" font-family="sans-serif" font-size="12" lengthAdjust="spacing" textLength="84" x="54.5" y="302.3369">session.send()</text><polygon fill="#F1F1F1" points="47.5,148.6309,145.5,148.6309,157.5,160.6309,145.5,172.6309,47.5,172.6309,35.5,160.6309,47.5,148.6309" style="stroke:#181818;stroke-width:0.5;"/><text fill="#000000" font-family="sans-serif" font-size="11" lengthAdjust="spacing" textLength="18" x="100.5" y="184.501">ano</text><text fill="#000000" font-family="sans-serif" font-size="11" lengthAdjust="spacing" textLength="98" x="47.5" y="165.1855">apdu = TESTFR act?</text><text fill="#000000" font-family="sans-serif" font-size="11" lengthAdjust="spacing" textLength="12" x="157.5" y="157.8701">ne</text><polygon fill="#F1F1F1" points="96.5,335.3486,108.5,347.3486,96.5,359.3486,84.5,347.3486,96.5,335.3486" style="stroke:#181818;stroke-width:0.5;"/><polygon fill="#F1F1F1" points="54.5,99.3154,138.5,99.3154,150.5,111.3154,138.5,123.3154,54.5,123.3154,42.5,111.3154,54.5,99.3154" style="stroke:#181818;stroke-width:0.5;"/><text fill="#000000" font-family="sans-serif" font-size="11" lengthAdjust="spacing" textLength="18" x="100.5" y="135.1855">ano</text><text fill="#000000" font-family="sans-serif" font-size="11" lengthAdjust="spacing" textLength="84" x="54.5" y="115.8701">apdu = U-form&#225;t?</text><text fill="#000000" font-family="sans-serif" font-size="11" lengthAdjust="spacing" textLength="12" x="150.5" y="108.5547">ne</text><polygon fill="#F1F1F1" points="96.5,379.3486,108.5,391.3486,96.5,403.3486,84.5,391.3486,96.5,379.3486" style="stroke:#181818;stroke-width:0.5;"/><polygon fill="#F1F1F1" points="32.5,50,160.5,50,172.5,62,160.5,74,32.5,74,20.5,62,32.5,50" style="stroke:#181818;stroke-width:0.5;"/><text fill="#000000" font-family="sans-serif" font-size="11" lengthAdjust="spacing" textLength="18" x="100.5" y="85.8701">ano</text><text fill="#000000" font-family="sans-serif" font-size="11" lengthAdjust="spacing" textLength="128" x="32.5" y="66.5547">stav spojeni = Zastavene?</text><text fill="#000000" font-family="sans-serif" font-size="11" lengthAdjust="spacing" textLength="12" x="172.5" y="59.2393">ne</text><polygon fill="#F1F1F1" points="96.5,423.3486,108.5,435.3486,96.5,447.3486,84.5,435.3486,96.5,423.3486" style="stroke:#181818;stroke-width:0.5;"/><ellipse cx="96.5" cy="478.3486" fill="none" rx="11" ry="11" style="stroke:#222222;stroke-width:1.0;"/><ellipse cx="96.5" cy="478.3486" fill="#222222" rx="6" ry="6" style="stroke:#222222;stroke-width:1.0;"/><line style="stroke:#181818;stroke-width:1.0;" x1="96.5" x2="96.5" y1="233.9072" y2="263.4268"/><polygon fill="#181818" points="92.5,253.4268,96.5,263.4268,100.5,253.4268,96.5,257.4268" style="stroke:#181818;stroke-width:1.0;"/><line style="stroke:#181818;stroke-width:1.0;" x1="96.5" x2="96.5" y1="172.6309" y2="197.9463"/><polygon fill="#181818" points="92.5,187.9463,96.5,197.9463,100.5,187.9463,96.5,191.9463" style="stroke:#181818;stroke-width:1.0;"/><line style="stroke:#181818;stroke-width:1.0;" x1="157.5" x2="192" y1="160.6309" y2="160.6309"/><polygon fill="#181818" points="188,243.9072,192,253.9072,196,243.9072,192,247.9072" style="stroke:#181818;stroke-width:1.0;"/><line style="stroke:#181818;stroke-width:1.0;" x1="192" x2="192" y1="160.6309" y2="347.3486"/><line style="stroke:#181818;stroke-width:1.0;" x1="192" x2="108.5" y1="347.3486" y2="347.3486"/><polygon fill="#181818" points="118.5,343.3486,108.5,347.3486,118.5,351.3486,114.5,347.3486" style="stroke:#181818;stroke-width:1.0;"/><line style="stroke:#181818;stroke-width:1.0;" x1="96.5" x2="96.5" y1="315.3486" y2="335.3486"/><polygon fill="#181818" points="92.5,325.3486,96.5,335.3486,100.5,325.3486,96.5,329.3486" style="stroke:#181818;stroke-width:1.0;"/><line style="stroke:#181818;stroke-width:1.0;" x1="96.5" x2="96.5" y1="123.3154" y2="148.6309"/><polygon fill="#181818" points="92.5,138.6309,96.5,148.6309,100.5,138.6309,96.5,142.6309" style="stroke:#181818;stroke-width:1.0;"/><line style="stroke:#181818;stroke-width:1.0;" x1="150.5" x2="210" y1="111.3154" y2="111.3154"/><polygon fill="#181818" points="206,243.9072,210,253.9072,214,243.9072,210,247.9072" style="stroke:#181818;stroke-width:1.0;"/><line style="stroke:#181818;stroke-width:1.0;" x1="210" x2="210" y1="111.3154" y2="391.3486"/><line style="stroke:#181818;stroke-width:1.0;" x1="210" x2="108.5" y1="391.3486" y2="391.3486"/><polygon fill="#181818" points="118.5,387.3486,108.5,391.3486,118.5,395.3486,114.5,391.3486" style="stroke:#181818;stroke-width:1.0;"/><line style="stroke:#181818;stroke-width:1.0;" x1="96.5" x2="96.5" y1="359.3486" y2="379.3486"/><polygon fill="#181818" points="92.5,369.3486,96.5,379.3486,100.5,369.3486,96.5,373.3486" style="stroke:#181818;stroke-width:1.0;"/><line style="stroke:#181818;stroke-width:1.0;" x1="96.5" x2="96.5" y1="74" y2="99.3154"/><polygon fill="#181818" points="92.5,89.3154,96.5,99.3154,100.5,89.3154,96.5,93.3154" style="stroke:#181818;stroke-width:1.0;"/><line style="stroke:#181818;stroke-width:1.0;" x1="172.5" x2="228" y1="62" y2="62"/><polygon fill="#181818" points="224,243.9072,228,253.9072,232,243.9072,228,247.9072" style="stroke:#181818;stroke-width:1.0;"/><line style="stroke:#181818;stroke-width:1.0;" x1="228" x2="228" y1="62" y2="435.3486"/><line style="stroke:#181818;stroke-width:1.0;" x1="228" x2="108.5" y1="435.3486" y2="435.3486"/><polygon fill="#181818" points="118.5,431.3486,108.5,435.3486,118.5,439.3486,114.5,435.3486" style="stroke:#181818;stroke-width:1.0;"/><line style="stroke:#181818;stroke-width:1.0;" x1="96.5" x2="96.5" y1="403.3486" y2="423.3486"/><polygon fill="#181818" points="92.5,413.3486,96.5,423.3486,100.5,413.3486,96.5,417.3486" style="stroke:#181818;stroke-width:1.0;"/><line style="stroke:#181818;stroke-width:1.0;" x1="96.5" x2="96.5" y1="30" y2="50"/><polygon fill="#181818" points="92.5,40,96.5,50,100.5,40,96.5,44" style="stroke:#181818;stroke-width:1.0;"/><line style="stroke:#181818;stroke-width:1.0;" x1="96.5" x2="96.5" y1="447.3486" y2="467.3486"/><polygon fill="#181818" points="92.5,457.3486,96.5,467.3486,100.5,457.3486,96.5,461.3486" style="stroke:#181818;stroke-width:1.0;"/><!--SRC=[RSsn3e9030RW_PwYcyUWYQl6EEa322x6vSALU0RR2tTUubCm6oUUHNWlGK8an4xjtw_fBFRA8oo5ywhmmcGWsow0itn5Ch21a-e29Dn6u2z881Ln9A2ZokfxIuxpZ8lRk_8JygsHItPniZ-0Ilz2W5Lu-C3D4rXR3bYNmqNAjFufrjXKkUbL_QhBCpbqpZ0j79AMqM0nTmYISFZGBaqcndcVJ6VdsNu0]--></g></svg>