<?xml version="1.0" encoding="us-ascii" standalone="no"?><svg xmlns="http://www.w3.org/2000/svg" xmlns:xlink="http://www.w3.org/1999/xlink" contentStyleType="text/css" height="832px" preserveAspectRatio="none" style="width:372px;height:832px;background:#FFFFFF;" version="1.1" viewBox="0 0 372 832" width="372px" zoomAndPan="magnify"><defs/><g><path d="M27,10 L27,37.291 A0,0 0 0 0 27,37.291 L141,37.291 A0,0 0 0 0 141,37.291 L141,28 L161,23.6455 L141,20 L141,20 L131,10 L27,10 A0,0 0 0 0 27,10 " fill="#FEFFDD" style="stroke:#181818;stroke-width:0.5;"/><path d="M131,10 L131,20 L141,20 L131,10 " fill="#FEFFDD" style="stroke:#181818;stroke-width:0.5;"/><text fill="#000000" font-family="sans-serif" font-size="13" lengthAdjust="spacing" textLength="93" x="33" y="29.0283">za&#269;&#225;tek metody</text><ellipse cx="171" cy="23.6455" fill="#222222" rx="10" ry="10" style="stroke:#222222;stroke-width:1.0;"/><polygon fill="#F1F1F1" points="124.5,57.291,217.5,57.291,229.5,69.291,217.5,81.291,124.5,81.291,112.5,69.291,124.5,57.291" style="stroke:#181818;stroke-width:0.5;"/><text fill="#000000" font-family="sans-serif" font-size="11" lengthAdjust="spacing" textLength="93" x="124.5" y="73.8457">p&#345;&#237;znak timeout_t1?</text><text fill="#000000" font-family="sans-serif" font-size="11" lengthAdjust="spacing" textLength="18" x="94.5" y="66.5303">ano</text><text fill="#000000" font-family="sans-serif" font-size="11" lengthAdjust="spacing" textLength="12" x="229.5" y="66.5303">ne</text><rect fill="#F1F1F1" height="35.9609" rx="12.5" ry="12.5" style="stroke:#181818;stroke-width:0.5;" width="148" x="11" y="91.291"/><text fill="#000000" font-family="sans-serif" font-size="12" lengthAdjust="spacing" textLength="125" x="24" y="114.2402">p&#345;&#237;znak ukon&#269;it spojen&#237;</text><rect fill="#F1F1F1" height="35.9609" rx="12.5" ry="12.5" style="stroke:#181818;stroke-width:0.5;" width="136" x="189" y="140.6064"/><text fill="#000000" font-family="sans-serif" font-size="12" lengthAdjust="spacing" textLength="116" x="199" y="163.5557">Blok stavu Zastavene</text><polygon fill="#F1F1F1" points="192,91.291,322,91.291,334,103.291,322,115.291,192,115.291,180,103.291,192,91.291" style="stroke:#181818;stroke-width:0.5;"/><text fill="#000000" font-family="sans-serif" font-size="11" lengthAdjust="spacing" textLength="18" x="261" y="127.1611">ano</text><text fill="#000000" font-family="sans-serif" font-size="11" lengthAdjust="spacing" textLength="130" x="192" y="107.8457">aktu&#225;ln&#237; stav = Zastavene?</text><text fill="#000000" font-family="sans-serif" font-size="11" lengthAdjust="spacing" textLength="12" x="334" y="100.5303">ne</text><polygon fill="#F1F1F1" points="257,196.5674,269,208.5674,257,220.5674,245,208.5674,257,196.5674" style="stroke:#181818;stroke-width:0.5;"/><rect fill="#F1F1F1" height="35.9609" rx="12.5" ry="12.5" style="stroke:#181818;stroke-width:0.5;" width="132" x="191" y="289.8828"/><text fill="#000000" font-family="sans-serif" font-size="12" lengthAdjust="spacing" textLength="112" x="201" y="312.832">Blok stavu Spustene</text><polygon fill="#F1F1F1" points="195,240.5674,319,240.5674,331,252.5674,319,264.5674,195,264.5674,183,252.5674,195,240.5674" style="stroke:#181818;stroke-width:0.5;"/><text fill="#000000" font-family="sans-serif" font-size="11" lengthAdjust="spacing" textLength="18" x="261" y="276.4375">ano</text><text fill="#000000" font-family="sans-serif" font-size="11" lengthAdjust="spacing" textLength="124" x="195" y="257.1221">aktu&#225;ln&#237; stav = Spustene?</text><text fill="#000000" font-family="sans-serif" font-size="11" lengthAdjust="spacing" textLength="12" x="331" y="249.8066">ne</text><polygon fill="#F1F1F1" points="257,345.8438,269,357.8438,257,369.8438,245,357.8438,257,345.8438" style="stroke:#181818;stroke-width:0.5;"/><rect fill="#F1F1F1" height="35.9609" rx="12.5" ry="12.5" style="stroke:#181818;stroke-width:0.5;" width="120" x="197" y="439.1592"/><text fill="#000000" font-family="sans-serif" font-size="12" lengthAdjust="spacing" textLength="100" x="207" y="462.1084">Blok stavu &#269;ekaj&#237;c&#237;</text><polygon fill="#F1F1F1" points="200.5,389.8438,313.5,389.8438,325.5,401.8438,313.5,413.8438,200.5,413.8438,188.5,401.8438,200.5,389.8438" style="stroke:#181818;stroke-width:0.5;"/><text fill="#000000" font-family="sans-serif" font-size="11" lengthAdjust="spacing" textLength="18" x="261" y="425.7139">ano</text><text fill="#000000" font-family="sans-serif" font-size="11" lengthAdjust="spacing" textLength="113" x="200.5" y="406.3984">aktu&#225;ln&#237; stav = &#269;ekaj&#237;c&#237;?</text><text fill="#000000" font-family="sans-serif" font-size="11" lengthAdjust="spacing" textLength="12" x="325.5" y="399.083">ne</text><polygon fill="#F1F1F1" points="257,495.1201,269,507.1201,257,519.1201,245,507.1201,257,495.1201" style="stroke:#181818;stroke-width:0.5;"/><polygon fill="#F1F1F1" points="171,525.1201,183,537.1201,171,549.1201,159,537.1201,171,525.1201" style="stroke:#181818;stroke-width:0.5;"/><rect fill="#F1F1F1" height="35.9609" rx="12.5" ry="12.5" style="stroke:#181818;stroke-width:0.5;" width="210" x="66" y="618.4355"/><text fill="#000000" font-family="sans-serif" font-size="12" lengthAdjust="spacing" textLength="190" x="76" y="641.3848">Ukon&#269;it v&#353;echny asynchronn&#237; &#250;lohy</text><rect fill="#F1F1F1" height="35.9609" rx="12.5" ry="12.5" style="stroke:#181818;stroke-width:0.5;" width="150" x="96" y="674.3965"/><text fill="#000000" font-family="sans-serif" font-size="12" lengthAdjust="spacing" textLength="130" x="106" y="697.3457">smazat instanci spojen&#237;</text><path d="M18,726.7119 L18,754.0029 A0,0 0 0 0 18,754.0029 L141,754.0029 A0,0 0 0 0 141,754.0029 L141,744.7119 L161,740.3574 L141,736.7119 L141,736.7119 L131,726.7119 L18,726.7119 A0,0 0 0 0 18,726.7119 " fill="#FEFFDD" style="stroke:#181818;stroke-width:0.5;"/><path d="M131,726.7119 L131,736.7119 L141,736.7119 L131,726.7119 " fill="#FEFFDD" style="stroke:#181818;stroke-width:0.5;"/><text fill="#000000" font-family="sans-serif" font-size="13" lengthAdjust="spacing" textLength="102" x="24" y="745.7402">smaz&#225;n&#237; instance</text><ellipse cx="171" cy="740.3574" fill="none" rx="10" ry="10" style="stroke:#222222;stroke-width:1.5;"/><line style="stroke:#222222;stroke-width:2.5;" x1="164.8128" x2="177.1872" y1="734.1702" y2="746.5446"/><line style="stroke:#222222;stroke-width:2.5;" x1="177.1872" x2="164.8128" y1="734.1702" y2="746.5446"/><polygon fill="#F1F1F1" points="110,569.1201,232,569.1201,244,581.1201,232,593.1201,110,593.1201,98,581.1201,110,569.1201" style="stroke:#181818;stroke-width:0.5;"/><text fill="#000000" font-family="sans-serif" font-size="11" lengthAdjust="spacing" textLength="18" x="175" y="604.9902">ano</text><text fill="#000000" font-family="sans-serif" font-size="11" lengthAdjust="spacing" textLength="122" x="110" y="585.6748">p&#345;&#237;znak uko&#269;eno spojen&#237;?</text><text fill="#000000" font-family="sans-serif" font-size="11" lengthAdjust="spacing" textLength="12" x="244" y="578.3594">ne</text><path d="M37,793.3574 L37,820.6484 A0,0 0 0 0 37,820.6484 L140,820.6484 A0,0 0 0 0 140,820.6484 L140,811.3574 L160,807.0029 L140,803.3574 L140,803.3574 L130,793.3574 L37,793.3574 A0,0 0 0 0 37,793.3574 " fill="#FEFFDD" style="stroke:#181818;stroke-width:0.5;"/><path d="M130,793.3574 L130,803.3574 L140,803.3574 L130,793.3574 " fill="#FEFFDD" style="stroke:#181818;stroke-width:0.5;"/><text fill="#000000" font-family="sans-serif" font-size="13" lengthAdjust="spacing" textLength="82" x="43" y="812.3857">konec metody</text><ellipse cx="171" cy="807.0029" fill="none" rx="11" ry="11" style="stroke:#222222;stroke-width:1.0;"/><ellipse cx="171" cy="807.0029" fill="#222222" rx="6" ry="6" style="stroke:#222222;stroke-width:1.0;"/><line style="stroke:#181818;stroke-width:1.0;" x1="257" x2="257" y1="115.291" y2="140.6064"/><polygon fill="#181818" points="253,130.6064,257,140.6064,261,130.6064,257,134.6064" style="stroke:#181818;stroke-width:1.0;"/><line style="stroke:#181818;stroke-width:1.0;" x1="334" x2="346" y1="103.291" y2="103.291"/><polygon fill="#181818" points="342,148.5869,346,158.5869,350,148.5869,346,152.5869" style="stroke:#181818;stroke-width:1.0;"/><line style="stroke:#181818;stroke-width:1.0;" x1="346" x2="346" y1="103.291" y2="208.5674"/><line style="stroke:#181818;stroke-width:1.0;" x1="346" x2="269" y1="208.5674" y2="208.5674"/><polygon fill="#181818" points="279,204.5674,269,208.5674,279,212.5674,275,208.5674" style="stroke:#181818;stroke-width:1.0;"/><line style="stroke:#181818;stroke-width:1.0;" x1="257" x2="257" y1="176.5674" y2="196.5674"/><polygon fill="#181818" points="253,186.5674,257,196.5674,261,186.5674,257,190.5674" style="stroke:#181818;stroke-width:1.0;"/><line style="stroke:#181818;stroke-width:1.0;" x1="257" x2="257" y1="264.5674" y2="289.8828"/><polygon fill="#181818" points="253,279.8828,257,289.8828,261,279.8828,257,283.8828" style="stroke:#181818;stroke-width:1.0;"/><line style="stroke:#181818;stroke-width:1.0;" x1="331" x2="343" y1="252.5674" y2="252.5674"/><polygon fill="#181818" points="339,297.8633,343,307.8633,347,297.8633,343,301.8633" style="stroke:#181818;stroke-width:1.0;"/><line style="stroke:#181818;stroke-width:1.0;" x1="343" x2="343" y1="252.5674" y2="357.8438"/><line style="stroke:#181818;stroke-width:1.0;" x1="343" x2="269" y1="357.8438" y2="357.8438"/><polygon fill="#181818" points="279,353.8438,269,357.8438,279,361.8438,275,357.8438" style="stroke:#181818;stroke-width:1.0;"/><line style="stroke:#181818;stroke-width:1.0;" x1="257" x2="257" y1="325.8438" y2="345.8438"/><polygon fill="#181818" points="253,335.8438,257,345.8438,261,335.8438,257,339.8438" style="stroke:#181818;stroke-width:1.0;"/><line style="stroke:#181818;stroke-width:1.0;" x1="257" x2="257" y1="220.5674" y2="240.5674"/><polygon fill="#181818" points="253,230.5674,257,240.5674,261,230.5674,257,234.5674" style="stroke:#181818;stroke-width:1.0;"/><line style="stroke:#181818;stroke-width:1.0;" x1="257" x2="257" y1="413.8438" y2="439.1592"/><polygon fill="#181818" points="253,429.1592,257,439.1592,261,429.1592,257,433.1592" style="stroke:#181818;stroke-width:1.0;"/><line style="stroke:#181818;stroke-width:1.0;" x1="325.5" x2="337.5" y1="401.8438" y2="401.8438"/><polygon fill="#181818" points="333.5,447.1396,337.5,457.1396,341.5,447.1396,337.5,451.1396" style="stroke:#181818;stroke-width:1.0;"/><line style="stroke:#181818;stroke-width:1.0;" x1="337.5" x2="337.5" y1="401.8438" y2="507.1201"/><line style="stroke:#181818;stroke-width:1.0;" x1="337.5" x2="269" y1="507.1201" y2="507.1201"/><polygon fill="#181818" points="279,503.1201,269,507.1201,279,511.1201,275,507.1201" style="stroke:#181818;stroke-width:1.0;"/><line style="stroke:#181818;stroke-width:1.0;" x1="257" x2="257" y1="475.1201" y2="495.1201"/><polygon fill="#181818" points="253,485.1201,257,495.1201,261,485.1201,257,489.1201" style="stroke:#181818;stroke-width:1.0;"/><line style="stroke:#181818;stroke-width:1.0;" x1="257" x2="257" y1="369.8438" y2="389.8438"/><polygon fill="#181818" points="253,379.8438,257,389.8438,261,379.8438,257,383.8438" style="stroke:#181818;stroke-width:1.0;"/><line style="stroke:#181818;stroke-width:1.0;" x1="112.5" x2="85" y1="69.291" y2="69.291"/><line style="stroke:#181818;stroke-width:1.0;" x1="85" x2="85" y1="69.291" y2="91.291"/><polygon fill="#181818" points="81,81.291,85,91.291,89,81.291,85,85.291" style="stroke:#181818;stroke-width:1.0;"/><line style="stroke:#181818;stroke-width:1.0;" x1="229.5" x2="257" y1="69.291" y2="69.291"/><line style="stroke:#181818;stroke-width:1.0;" x1="257" x2="257" y1="69.291" y2="91.291"/><polygon fill="#181818" points="253,81.291,257,91.291,261,81.291,257,85.291" style="stroke:#181818;stroke-width:1.0;"/><line style="stroke:#181818;stroke-width:1.0;" x1="85" x2="85" y1="127.252" y2="537.1201"/><line style="stroke:#181818;stroke-width:1.0;" x1="85" x2="159" y1="537.1201" y2="537.1201"/><polygon fill="#181818" points="149,533.1201,159,537.1201,149,541.1201,153,537.1201" style="stroke:#181818;stroke-width:1.0;"/><line style="stroke:#181818;stroke-width:1.0;" x1="257" x2="257" y1="519.1201" y2="537.1201"/><line style="stroke:#181818;stroke-width:1.0;" x1="257" x2="183" y1="537.1201" y2="537.1201"/><polygon fill="#181818" points="193,533.1201,183,537.1201,193,541.1201,189,537.1201" style="stroke:#181818;stroke-width:1.0;"/><line style="stroke:#181818;stroke-width:1.0;" x1="171" x2="171" y1="33.6455" y2="57.291"/><polygon fill="#181818" points="167,47.291,171,57.291,175,47.291,171,51.291" style="stroke:#181818;stroke-width:1.0;"/><line style="stroke:#181818;stroke-width:1.0;" x1="171" x2="171" y1="654.3965" y2="674.3965"/><polygon fill="#181818" points="167,664.3965,171,674.3965,175,664.3965,171,668.3965" style="stroke:#181818;stroke-width:1.0;"/><line style="stroke:#181818;stroke-width:1.0;" x1="171" x2="171" y1="710.3574" y2="730.3574"/><polygon fill="#181818" points="167,720.3574,171,730.3574,175,720.3574,171,724.3574" style="stroke:#181818;stroke-width:1.0;"/><line style="stroke:#181818;stroke-width:1.0;" x1="171" x2="171" y1="593.1201" y2="618.4355"/><polygon fill="#181818" points="167,608.4355,171,618.4355,175,608.4355,171,612.4355" style="stroke:#181818;stroke-width:1.0;"/><line style="stroke:#181818;stroke-width:1.0;" x1="244" x2="286" y1="581.1201" y2="581.1201"/><polygon fill="#181818" points="282,675.042,286,685.042,290,675.042,286,679.042" style="stroke:#181818;stroke-width:1.0;"/><line style="stroke:#181818;stroke-width:1.0;" x1="286" x2="286" y1="581.1201" y2="776.0029"/><line style="stroke:#181818;stroke-width:1.0;" x1="286" x2="171" y1="776.0029" y2="776.0029"/><line style="stroke:#181818;stroke-width:1.0;" x1="171" x2="171" y1="776.0029" y2="796.0029"/><polygon fill="#181818" points="167,786.0029,171,796.0029,175,786.0029,171,790.0029" style="stroke:#181818;stroke-width:1.0;"/><line style="stroke:#181818;stroke-width:1.0;" x1="171" x2="171" y1="549.1201" y2="569.1201"/><polygon fill="#181818" points="167,559.1201,171,569.1201,175,559.1201,171,563.1201" style="stroke:#181818;stroke-width:1.0;"/><!--SRC=[ZP91ReCm44Ntd69sXMMtH5MbNY7gffjgH2R2COnHF4I2Et20B3a05-ZMv5ur10ffcwhUsD8yFt_D-64hA6G3AtYKW8qGn51ZtxXMI4DEOdPLeFOG5fUpwsf63Q9oCgMyo-Dp198IGuXieW3yYc7XIcsuRvI0BSo1s7MRW39B4395enArbAxDV0Ny-oTuWZSS3iHqQuvVCgD7fboGjOruf_PtdDkYjFAdSYR-Q-mRqdXmNUAw-z8LzDExs6_QvU-m-MhNBzrzdLjwkhIKf5m1segJz6XuoES-CfDMcojhSwnHGB7FmubQJM4e-mJZFeryW5qxE2QUhjItt5PCCVyI7uMIwOTy0W00]--></g></svg>