<?xml version="1.0" encoding="us-ascii" standalone="no"?><svg xmlns="http://www.w3.org/2000/svg" xmlns:xlink="http://www.w3.org/1999/xlink" contentStyleType="text/css" height="856px" preserveAspectRatio="none" style="width:843px;height:856px;background:#FFFFFF;" version="1.1" viewBox="0 0 843 856" width="843px" zoomAndPan="magnify"><defs/><g><rect fill="#FFBBBB" height="761.1484" style="stroke:#181818;stroke-width:1.0;" width="10" x="152" y="48.6211"/><rect fill="#DADBBB" height="80.5186" style="stroke:#181818;stroke-width:1.0;" width="10" x="388" y="109.4941"/><rect fill="#00AAAA" height="34.291" style="stroke:#181818;stroke-width:1.0;" width="10" x="388" y="273.5313"/><rect fill="#FFFFFF" height="42.9365" style="stroke:#181818;stroke-width:1.0;" width="10" x="388" y="413.9863"/><rect fill="#FFFFFF" height="42.9365" style="stroke:#181818;stroke-width:1.0;" width="10" x="388" y="554.4414"/><rect fill="#00AAAA" height="34.291" style="stroke:#181818;stroke-width:1.0;" width="10" x="388" y="694.8965"/><rect fill="#888888" height="573.4658" style="stroke:#181818;stroke-width:1.0;" width="10" x="650" y="190.0127"/><rect fill="#00FF00" height="34.291" style="stroke:#181818;stroke-width:1.0;" width="10" x="655" y="307.8223"/><rect fill="#00FF00" height="42.9365" style="stroke:#181818;stroke-width:1.0;" width="10" x="655" y="456.9229"/><rect fill="#00FF00" height="42.9365" style="stroke:#181818;stroke-width:1.0;" width="10" x="655" y="597.3779"/><rect fill="#00FF00" height="34.291" style="stroke:#181818;stroke-width:1.0;" width="10" x="655" y="729.1875"/><line style="stroke:#181818;stroke-width:0.5;stroke-dasharray:5.0,5.0;" x1="157" x2="157" y1="38.6211" y2="818.7695"/><line style="stroke:#181818;stroke-width:0.5;stroke-dasharray:5.0,5.0;" x1="393" x2="393" y1="38.6211" y2="818.7695"/><line style="stroke:#181818;stroke-width:0.5;stroke-dasharray:5.0,5.0;" x1="655" x2="655" y1="38.6211" y2="818.7695"/><rect fill="#E2E2F0" height="32.6211" rx="2.5" ry="2.5" style="stroke:#181818;stroke-width:0.5;" width="102" x="106" y="5"/><text fill="#000000" font-family="sans-serif" font-size="14" lengthAdjust="spacing" textLength="88" x="113" y="27.1074">ServerIEC104</text><rect fill="#E2E2F0" height="32.6211" rx="2.5" ry="2.5" style="stroke:#181818;stroke-width:0.5;" width="102" x="106" y="817.7695"/><text fill="#000000" font-family="sans-serif" font-size="14" lengthAdjust="spacing" textLength="88" x="113" y="839.877">ServerIEC104</text><rect fill="#E2E2F0" height="32.6211" rx="2.5" ry="2.5" style="stroke:#181818;stroke-width:0.5;" width="106" x="340" y="5"/><text fill="#000000" font-family="sans-serif" font-size="14" lengthAdjust="spacing" textLength="92" x="347" y="27.1074">ClientManager</text><rect fill="#E2E2F0" height="32.6211" rx="2.5" ry="2.5" style="stroke:#181818;stroke-width:0.5;" width="106" x="340" y="817.7695"/><text fill="#000000" font-family="sans-serif" font-size="14" lengthAdjust="spacing" textLength="92" x="347" y="839.877">ClientManager</text><rect fill="#E2E2F0" height="32.6211" rx="2.5" ry="2.5" style="stroke:#181818;stroke-width:0.5;" width="64" x="623" y="5"/><text fill="#000000" font-family="sans-serif" font-size="14" lengthAdjust="spacing" textLength="50" x="630" y="27.1074">Session</text><rect fill="#E2E2F0" height="32.6211" rx="2.5" ry="2.5" style="stroke:#181818;stroke-width:0.5;" width="64" x="623" y="817.7695"/><text fill="#000000" font-family="sans-serif" font-size="14" lengthAdjust="spacing" textLength="50" x="630" y="839.877">Session</text><rect fill="#FFBBBB" height="761.1484" style="stroke:#181818;stroke-width:1.0;" width="10" x="152" y="48.6211"/><rect fill="#DADBBB" height="80.5186" style="stroke:#181818;stroke-width:1.0;" width="10" x="388" y="109.4941"/><rect fill="#00AAAA" height="34.291" style="stroke:#181818;stroke-width:1.0;" width="10" x="388" y="273.5313"/><rect fill="#FFFFFF" height="42.9365" style="stroke:#181818;stroke-width:1.0;" width="10" x="388" y="413.9863"/><rect fill="#FFFFFF" height="42.9365" style="stroke:#181818;stroke-width:1.0;" width="10" x="388" y="554.4414"/><rect fill="#00AAAA" height="34.291" style="stroke:#181818;stroke-width:1.0;" width="10" x="388" y="694.8965"/><rect fill="#888888" height="573.4658" style="stroke:#181818;stroke-width:1.0;" width="10" x="650" y="190.0127"/><rect fill="#00FF00" height="34.291" style="stroke:#181818;stroke-width:1.0;" width="10" x="655" y="307.8223"/><rect fill="#00FF00" height="42.9365" style="stroke:#181818;stroke-width:1.0;" width="10" x="655" y="456.9229"/><rect fill="#00FF00" height="42.9365" style="stroke:#181818;stroke-width:1.0;" width="10" x="655" y="597.3779"/><rect fill="#00FF00" height="34.291" style="stroke:#181818;stroke-width:1.0;" width="10" x="655" y="729.1875"/><polygon fill="#181818" points="376,105.4941,386,109.4941,376,113.4941,380,109.4941" style="stroke:#181818;stroke-width:1.0;"/><line style="stroke:#181818;stroke-width:1.0;" x1="162" x2="382" y1="109.4941" y2="109.4941"/><text fill="#000000" font-family="sans-serif" font-size="13" font-weight="bold" lengthAdjust="spacing" textLength="7" x="169" y="95.5859">1</text><text fill="#000000" font-family="sans-serif" font-size="13" lengthAdjust="spacing" textLength="156" x="180" y="86.9404">P&#345;&#237;choz&#237; spojen&#237; od klienta,</text><text fill="#000000" font-family="sans-serif" font-size="13" lengthAdjust="spacing" textLength="189" x="184" y="104.2314">vytvo&#345;en&#237; instance ClientManager</text><path d="M5,53.6211 L5,132.6211 L147,132.6211 L147,63.6211 L137,53.6211 L5,53.6211 " fill="#FEFFDD" style="stroke:#181818;stroke-width:0.5;"/><path d="M137,53.6211 L137,63.6211 L147,63.6211 L137,53.6211 " fill="#FEFFDD" style="stroke:#181818;stroke-width:0.5;"/><text fill="#000000" font-family="sans-serif" font-size="13" lengthAdjust="spacing" textLength="99" x="11" y="72.6494">Server naslouch&#225;</text><text fill="#000000" font-family="sans-serif" font-size="13" lengthAdjust="spacing" textLength="95" x="15" y="89.9404">na TCP 2404 a v</text><text fill="#000000" font-family="sans-serif" font-size="13" lengthAdjust="spacing" textLength="113" x="15" y="107.2314">nekone&#269;n&#233; smy&#269;ce</text><text fill="#000000" font-family="sans-serif" font-size="13" lengthAdjust="spacing" textLength="121" x="11" y="124.5225">&#269;ek&#225; na nov&#233; spojen&#237;</text><polygon fill="#181818" points="638,186.0127,648,190.0127,638,194.0127,642,190.0127" style="stroke:#181818;stroke-width:1.0;"/><line style="stroke:#181818;stroke-width:1.0;" x1="393" x2="644" y1="190.0127" y2="190.0127"/><text fill="#000000" font-family="sans-serif" font-size="13" font-weight="bold" lengthAdjust="spacing" textLength="7" x="400" y="184.75">2</text><text fill="#000000" font-family="sans-serif" font-size="13" lengthAdjust="spacing" textLength="151" x="411" y="184.75">Vytvo&#345;en&#237; instance spojen&#237;</text><path d="M665,142.7852 L665,221.7852 L808,221.7852 L808,152.7852 L798,142.7852 L665,142.7852 " fill="#FEFFDD" style="stroke:#181818;stroke-width:0.5;"/><path d="M798,142.7852 L798,152.7852 L808,152.7852 L798,142.7852 " fill="#FEFFDD" style="stroke:#181818;stroke-width:0.5;"/><text fill="#000000" font-family="sans-serif" font-size="13" lengthAdjust="spacing" textLength="113" x="671" y="161.8135">handle_messages()</text><text fill="#000000" font-family="sans-serif" font-size="13" lengthAdjust="spacing" textLength="102" x="671" y="179.1045">s metodou read(),</text><text fill="#000000" font-family="sans-serif" font-size="13" lengthAdjust="spacing" textLength="71" x="671" y="196.3955">metoda b&#283;&#382;&#237;</text><text fill="#000000" font-family="sans-serif" font-size="13" lengthAdjust="spacing" textLength="122" x="671" y="213.6865">v nekone&#269;n&#233; smy&#269;ce</text><polygon fill="#181818" points="409,269.5313,399,273.5313,409,277.5313,405,273.5313" style="stroke:#181818;stroke-width:1.0;"/><line style="stroke:#181818;stroke-width:1.0;" x1="403" x2="649" y1="273.5313" y2="273.5313"/><text fill="#000000" font-family="sans-serif" font-size="13" font-weight="bold" lengthAdjust="spacing" textLength="7" x="415" y="268.2686">3</text><text fill="#000000" font-family="sans-serif" font-size="13" lengthAdjust="spacing" textLength="218" x="426" y="268.2686">callback - p&#345;ijat r&#225;mec STARTDT ACT</text><path d="M665,240.5947 L665,267.5947 L803,267.5947 L803,250.5947 L793,240.5947 L665,240.5947 " fill="#FEFFDD" style="stroke:#181818;stroke-width:0.5;"/><path d="M793,240.5947 L793,250.5947 L803,250.5947 L793,240.5947 " fill="#FEFFDD" style="stroke:#181818;stroke-width:0.5;"/><text fill="#000000" font-family="sans-serif" font-size="13" lengthAdjust="spacing" textLength="117" x="671" y="259.623">Klient zah&#225;jil p&#345;enos</text><path d="M20,231.9492 L20,275.9492 L383,275.9492 L383,241.9492 L373,231.9492 L20,231.9492 " fill="#FEFFDD" style="stroke:#181818;stroke-width:0.5;"/><path d="M373,231.9492 L373,241.9492 L383,241.9492 L373,231.9492 " fill="#FEFFDD" style="stroke:#181818;stroke-width:0.5;"/><text fill="#000000" font-family="sans-serif" font-size="13" lengthAdjust="spacing" textLength="342" x="26" y="250.9775">Zpracov&#225;n&#237; r&#225;mce, aktualizace stavu spojen&#237; na "p&#345;ipojeno",</text><text fill="#000000" font-family="sans-serif" font-size="13" lengthAdjust="spacing" textLength="107" x="26" y="268.2686">generace odpov&#283;di</text><polygon fill="#181818" points="643,303.8223,653,307.8223,643,311.8223,647,307.8223" style="stroke:#181818;stroke-width:1.0;"/><line style="stroke:#181818;stroke-width:1.0;" x1="393" x2="649" y1="307.8223" y2="307.8223"/><text fill="#000000" font-family="sans-serif" font-size="13" font-weight="bold" lengthAdjust="spacing" textLength="7" x="400" y="302.5596">4</text><text fill="#000000" font-family="sans-serif" font-size="13" lengthAdjust="spacing" textLength="144" x="411" y="302.5596">Odpov&#283;&#271; STARTDT CON</text><path d="M670,286.5313 L670,313.5313 L836,313.5313 L836,296.5313 L826,286.5313 L670,286.5313 " fill="#FEFFDD" style="stroke:#181818;stroke-width:0.5;"/><path d="M826,286.5313 L826,296.5313 L836,296.5313 L826,286.5313 " fill="#FEFFDD" style="stroke:#181818;stroke-width:0.5;"/><text fill="#000000" font-family="sans-serif" font-size="13" lengthAdjust="spacing" textLength="145" x="676" y="305.5596">Odesl&#225;n&#237; metodou send()</text><polygon fill="#181818" points="404,338.1133,394,342.1133,404,346.1133,400,342.1133" style="stroke:#181818;stroke-width:1.0;"/><line style="stroke:#181818;stroke-width:1.0;stroke-dasharray:2.0,2.0;" x1="398" x2="649" y1="342.1133" y2="342.1133"/><text fill="#000000" font-family="sans-serif" font-size="13" font-weight="bold" lengthAdjust="spacing" textLength="7" x="410" y="336.8506">5</text><text fill="#000000" font-family="sans-serif" font-size="13" lengthAdjust="spacing" textLength="52" x="421" y="336.8506">odesl&#225;no</text><polygon fill="#181818" points="409,409.9863,399,413.9863,409,417.9863,405,413.9863" style="stroke:#181818;stroke-width:1.0;"/><line style="stroke:#181818;stroke-width:1.0;" x1="403" x2="649" y1="413.9863" y2="413.9863"/><text fill="#000000" font-family="sans-serif" font-size="13" font-weight="bold" lengthAdjust="spacing" textLength="7" x="415" y="408.7236">6</text><text fill="#000000" font-family="sans-serif" font-size="13" lengthAdjust="spacing" textLength="193" x="426" y="408.7236">callback p&#345;ijat r&#225;mec s daty I(0,0)</text><path d="M665,363.7588 L665,407.7588 L791,407.7588 L791,373.7588 L781,363.7588 L665,363.7588 " fill="#FEFFDD" style="stroke:#181818;stroke-width:0.5;"/><path d="M781,363.7588 L781,373.7588 L791,373.7588 L781,363.7588 " fill="#FEFFDD" style="stroke:#181818;stroke-width:0.5;"/><text fill="#000000" font-family="sans-serif" font-size="13" lengthAdjust="spacing" textLength="64" x="671" y="382.7871">p&#345;i&#353;el povel</text><text fill="#000000" font-family="sans-serif" font-size="13" lengthAdjust="spacing" textLength="105" x="671" y="400.0781">pro vy&#269;ten&#237; teploty</text><path d="M104,355.1133 L104,416.1133 L383,416.1133 L383,365.1133 L373,355.1133 L104,355.1133 " fill="#FEFFDD" style="stroke:#181818;stroke-width:0.5;"/><path d="M373,355.1133 L373,365.1133 L383,365.1133 L373,355.1133 " fill="#FEFFDD" style="stroke:#181818;stroke-width:0.5;"/><text fill="#000000" font-family="sans-serif" font-size="13" lengthAdjust="spacing" textLength="258" x="110" y="374.1416">Zpracov&#225;n&#237; r&#225;mce, data ulo&#382;ena do datab&#225;ze</text><text fill="#000000" font-family="sans-serif" font-size="13" lengthAdjust="spacing" textLength="186" x="114" y="391.4326">a p&#345;ed&#225;na do modulu zpracov&#225;n&#237;</text><text fill="#000000" font-family="sans-serif" font-size="13" lengthAdjust="spacing" textLength="4" x="110" y="408.7236">&#160;</text><polygon fill="#181818" points="643,452.9229,653,456.9229,643,460.9229,647,456.9229" style="stroke:#181818;stroke-width:1.0;"/><line style="stroke:#181818;stroke-width:1.0;" x1="393" x2="649" y1="456.9229" y2="456.9229"/><text fill="#000000" font-family="sans-serif" font-size="13" font-weight="bold" lengthAdjust="spacing" textLength="7" x="400" y="451.6602">7</text><text fill="#000000" font-family="sans-serif" font-size="13" lengthAdjust="spacing" textLength="217" x="411" y="451.6602">Odpov&#283;d I(0,1), data: m&#283;&#345;en&#225; hodnota</text><path d="M75,426.9863 L75,470.9863 L383,470.9863 L383,436.9863 L373,426.9863 L75,426.9863 " fill="#FEFFDD" style="stroke:#181818;stroke-width:0.5;"/><path d="M373,426.9863 L373,436.9863 L383,436.9863 L373,426.9863 " fill="#FEFFDD" style="stroke:#181818;stroke-width:0.5;"/><text fill="#000000" font-family="sans-serif" font-size="13" lengthAdjust="spacing" textLength="287" x="81" y="446.0146">vygenerovan&#225; odpov&#283;&#271; s hodnotou m&#283;&#345;en&#233; teploty</text><text fill="#000000" font-family="sans-serif" font-size="13" lengthAdjust="spacing" textLength="173" x="85" y="463.3057">vr&#225;cena od modulu zpracov&#225;n&#237;</text><polygon fill="#181818" points="404,495.8594,394,499.8594,404,503.8594,400,499.8594" style="stroke:#181818;stroke-width:1.0;"/><line style="stroke:#181818;stroke-width:1.0;stroke-dasharray:2.0,2.0;" x1="398" x2="649" y1="499.8594" y2="499.8594"/><text fill="#000000" font-family="sans-serif" font-size="13" font-weight="bold" lengthAdjust="spacing" textLength="7" x="410" y="494.5967">8</text><text fill="#000000" font-family="sans-serif" font-size="13" lengthAdjust="spacing" textLength="52" x="421" y="494.5967">odesl&#225;no</text><polygon fill="#181818" points="409,550.4414,399,554.4414,409,558.4414,405,554.4414" style="stroke:#181818;stroke-width:1.0;"/><line style="stroke:#181818;stroke-width:1.0;" x1="403" x2="649" y1="554.4414" y2="554.4414"/><text fill="#000000" font-family="sans-serif" font-size="13" font-weight="bold" lengthAdjust="spacing" textLength="7" x="415" y="549.1787">9</text><text fill="#000000" font-family="sans-serif" font-size="13" lengthAdjust="spacing" textLength="193" x="426" y="549.1787">callback p&#345;ijat r&#225;mec s daty I(1,1)</text><path d="M665,512.8594 L665,556.8594 L814,556.8594 L814,522.8594 L804,512.8594 L665,512.8594 " fill="#FEFFDD" style="stroke:#181818;stroke-width:0.5;"/><path d="M804,512.8594 L804,522.8594 L814,522.8594 L804,512.8594 " fill="#FEFFDD" style="stroke:#181818;stroke-width:0.5;"/><text fill="#000000" font-family="sans-serif" font-size="13" lengthAdjust="spacing" textLength="89" x="671" y="531.8877">zde p&#345;i&#353;el povel</text><text fill="#000000" font-family="sans-serif" font-size="13" lengthAdjust="spacing" textLength="128" x="671" y="549.1787">pro sepnut&#237; LED diody</text><path d="M43,521.5049 L43,548.5049 L388,548.5049 L388,531.5049 L378,521.5049 L43,521.5049 " fill="#FEFFDD" style="stroke:#181818;stroke-width:0.5;"/><path d="M378,521.5049 L378,531.5049 L388,531.5049 L378,521.5049 " fill="#FEFFDD" style="stroke:#181818;stroke-width:0.5;"/><text fill="#000000" font-family="sans-serif" font-size="13" lengthAdjust="spacing" textLength="324" x="49" y="540.5332">Op&#283;t p&#345;ed&#225;no modulu zpracov&#225;n&#237; a ulo&#382;eno do datab&#225;ze</text><polygon fill="#181818" points="643,593.3779,653,597.3779,643,601.3779,647,597.3779" style="stroke:#181818;stroke-width:1.0;"/><line style="stroke:#181818;stroke-width:1.0;" x1="393" x2="649" y1="597.3779" y2="597.3779"/><text fill="#000000" font-family="sans-serif" font-size="13" font-weight="bold" lengthAdjust="spacing" textLength="14" x="400" y="592.1152">10</text><text fill="#000000" font-family="sans-serif" font-size="13" lengthAdjust="spacing" textLength="175" x="418" y="592.1152">Odpov&#283;d I(1,2), data: potvrzen&#237;</text><path d="M81,567.4414 L81,611.4414 L383,611.4414 L383,577.4414 L373,567.4414 L81,567.4414 " fill="#FEFFDD" style="stroke:#181818;stroke-width:0.5;"/><path d="M373,567.4414 L373,577.4414 L383,577.4414 L373,567.4414 " fill="#FEFFDD" style="stroke:#181818;stroke-width:0.5;"/><text fill="#000000" font-family="sans-serif" font-size="13" lengthAdjust="spacing" textLength="281" x="87" y="586.4697">vygenerovan&#225; odpov&#283;&#271; s potvrzen&#237;m sepnut&#237; LED</text><text fill="#000000" font-family="sans-serif" font-size="13" lengthAdjust="spacing" textLength="173" x="91" y="603.7607">vr&#225;cena od modulu zpracov&#225;n&#237;</text><polygon fill="#181818" points="404,636.3145,394,640.3145,404,644.3145,400,640.3145" style="stroke:#181818;stroke-width:1.0;"/><line style="stroke:#181818;stroke-width:1.0;stroke-dasharray:2.0,2.0;" x1="398" x2="649" y1="640.3145" y2="640.3145"/><text fill="#000000" font-family="sans-serif" font-size="13" font-weight="bold" lengthAdjust="spacing" textLength="14" x="410" y="635.0518">11</text><text fill="#000000" font-family="sans-serif" font-size="13" lengthAdjust="spacing" textLength="52" x="428" y="635.0518">odesl&#225;no</text><polygon fill="#181818" points="409,690.8965,399,694.8965,409,698.8965,405,694.8965" style="stroke:#181818;stroke-width:1.0;"/><line style="stroke:#181818;stroke-width:1.0;" x1="403" x2="649" y1="694.8965" y2="694.8965"/><text fill="#000000" font-family="sans-serif" font-size="13" font-weight="bold" lengthAdjust="spacing" textLength="14" x="415" y="689.6338">12</text><text fill="#000000" font-family="sans-serif" font-size="13" lengthAdjust="spacing" textLength="204" x="433" y="689.6338">callback p&#345;ijat r&#225;mec STOPDT ACT</text><path d="M665,653.3145 L665,697.3145 L822,697.3145 L822,663.3145 L812,653.3145 L665,653.3145 " fill="#FEFFDD" style="stroke:#181818;stroke-width:0.5;"/><path d="M812,653.3145 L812,663.3145 L822,663.3145 L812,653.3145 " fill="#FEFFDD" style="stroke:#181818;stroke-width:0.5;"/><text fill="#000000" font-family="sans-serif" font-size="13" lengthAdjust="spacing" textLength="132" x="671" y="672.3428">Klient ukon&#269;il p&#345;enos a</text><text fill="#000000" font-family="sans-serif" font-size="13" lengthAdjust="spacing" textLength="86" x="671" y="689.6338">ukon&#269;il spojen&#237;</text><path d="M14,653.3145 L14,697.3145 L383,697.3145 L383,663.3145 L373,653.3145 L14,653.3145 " fill="#FEFFDD" style="stroke:#181818;stroke-width:0.5;"/><path d="M373,653.3145 L373,663.3145 L383,663.3145 L373,653.3145 " fill="#FEFFDD" style="stroke:#181818;stroke-width:0.5;"/><text fill="#000000" font-family="sans-serif" font-size="13" lengthAdjust="spacing" textLength="348" x="20" y="672.3428">Zpracov&#225;n&#237; r&#225;mce, aktualizace stavu spojen&#237; na "zastaveno",</text><text fill="#000000" font-family="sans-serif" font-size="13" lengthAdjust="spacing" textLength="107" x="20" y="689.6338">generace odpov&#283;di</text><polygon fill="#181818" points="643,725.1875,653,729.1875,643,733.1875,647,729.1875" style="stroke:#181818;stroke-width:1.0;"/><line style="stroke:#181818;stroke-width:1.0;" x1="393" x2="649" y1="729.1875" y2="729.1875"/><text fill="#000000" font-family="sans-serif" font-size="13" font-weight="bold" lengthAdjust="spacing" textLength="14" x="400" y="723.9248">13</text><text fill="#000000" font-family="sans-serif" font-size="13" lengthAdjust="spacing" textLength="138" x="418" y="723.9248">Odpov&#283;&#271; STOPDT CON</text><path d="M670,707.8965 L670,734.8965 L836,734.8965 L836,717.8965 L826,707.8965 L670,707.8965 " fill="#FEFFDD" style="stroke:#181818;stroke-width:0.5;"/><path d="M826,707.8965 L826,717.8965 L836,717.8965 L826,707.8965 " fill="#FEFFDD" style="stroke:#181818;stroke-width:0.5;"/><text fill="#000000" font-family="sans-serif" font-size="13" lengthAdjust="spacing" textLength="145" x="676" y="726.9248">Odesl&#225;n&#237; metodou send()</text><polygon fill="#181818" points="404,759.4785,394,763.4785,404,767.4785,400,763.4785" style="stroke:#181818;stroke-width:1.0;"/><line style="stroke:#181818;stroke-width:1.0;stroke-dasharray:2.0,2.0;" x1="398" x2="654" y1="763.4785" y2="763.4785"/><text fill="#000000" font-family="sans-serif" font-size="13" font-weight="bold" lengthAdjust="spacing" textLength="14" x="410" y="758.2158">14</text><text fill="#000000" font-family="sans-serif" font-size="13" lengthAdjust="spacing" textLength="147" x="428" y="758.2158">smaz&#225;n&#237; instance spojen&#237;</text><line style="stroke:#A80036;stroke-width:2.0;" x1="646" x2="664" y1="754.4785" y2="772.4785"/><line style="stroke:#A80036;stroke-width:2.0;" x1="646" x2="664" y1="772.4785" y2="754.4785"/><polygon fill="#181818" points="173,793.7695,163,797.7695,173,801.7695,169,797.7695" style="stroke:#181818;stroke-width:1.0;"/><line style="stroke:#181818;stroke-width:1.0;stroke-dasharray:2.0,2.0;" x1="167" x2="392" y1="797.7695" y2="797.7695"/><text fill="#000000" font-family="sans-serif" font-size="13" font-weight="bold" lengthAdjust="spacing" textLength="14" x="179" y="792.5068">15</text><text fill="#000000" font-family="sans-serif" font-size="13" lengthAdjust="spacing" textLength="189" x="197" y="792.5068">smaz&#225;n&#237; instance ClientManager</text><path d="M5,776.4785 L5,803.4785 L147,803.4785 L147,786.4785 L137,776.4785 L5,776.4785 " fill="#FEFFDD" style="stroke:#181818;stroke-width:0.5;"/><path d="M137,776.4785 L137,786.4785 L147,786.4785 L137,776.4785 " fill="#FEFFDD" style="stroke:#181818;stroke-width:0.5;"/><text fill="#000000" font-family="sans-serif" font-size="13" lengthAdjust="spacing" textLength="121" x="11" y="795.5068">&#269;ek&#225; na nov&#233; spojen&#237;</text><line style="stroke:#A80036;stroke-width:2.0;" x1="384" x2="402" y1="788.7695" y2="806.7695"/><line style="stroke:#A80036;stroke-width:2.0;" x1="384" x2="402" y1="806.7695" y2="788.7695"/><!--SRC=[pPRFJjj04CRlVeeH74eaa194fIe799g0X4eRr4GzjAcgZNSW9lQkvLrRZTyXwXbnof43hy0bpdjrTfr_3WwaefNgaxqxdftl-td7os8jHHpqC7BKm1CXYrW0JRnYiQyx-5EtlHIXzjPnQ4PxhXSoeQ6DKOBH-McZLZq2fa3Pvq98m_TGw8zCi6kCJ8nh1u9yO2sRKfuKUI9xwpWESxMNC8sptB1xTlQUBiUPFHyS5pFMuN9wEtbm-pATF80AvGqAkf4S1ZQCxNS594EToEcjdV64qaouMApK4PBMzF5AGtqc4mHJlepT_cHCAGI3JkCI3e-CSaZC20wam6ma9lUWWc4sSh4hiX4E9cCJBMHY9cO5BNKLgeVTvadJoYiEaygP9NNuKbRy8Y_7yiohHkOsxxxBHKRUTT-ex3F1VVmHq3IzeFOgNQ4WG2svZ252nlSgv9qTOD3BxgQFL41N96N27SCdN-Of89VvVe-v0pY0S7hhtJ0DqMGSe0ljpiddJhC39urEiROFDWEaZCo_yNpp7WgfDhfOhPxGLO3uDOoOImp6nZUpdelxm0OwPhwNCcEXPacy_688sOufppxB7P9-ZG8Z4obvA9FiZdlFOMhbGTclXQf6wzDcF2LyBhm0LsmmAL7vkO0v5uM2k3WHwZWIL5WU89tj0ApPhu0pFOJplUf-jL84O2AdOoJdPO9-LuIHf5sKZRJrIcFeIptSWEDb3BGiWzYNqqSasxcq0xt9EAKTHBlBqERqXfqA98_z6DALF5sn1GXkTTKg-Mfr2EWBDfje37t9gK9MA3CPMjeoOIP2BbYgMJHPFqzmFvTl6WifSeq6wZSbXVx9xhJqIxY-0ckDv1UnfXnBqIeCHQo9qCLf4xWd-LPiMs5sfnUqIb71WhCiSDuIO6t_S04mb3g9KjlqjaItV2CeAFnVmRKxhSjdkc5CRJSRBRiXUTiLYy4N_pH_gKUcp0o-kaLQfV- -Gwg0fVdyqr-dkLPMdvz1AAMEv73nlARd6vTQ8_z-F3kXrClMs7oss7X0c2-xPeBZl2av4ZNicM6ZTxy1]--></g></svg>