<?xml version="1.0" encoding="us-ascii" standalone="no"?><svg xmlns="http://www.w3.org/2000/svg" xmlns:xlink="http://www.w3.org/1999/xlink" contentStyleType="text/css" height="1040px" preserveAspectRatio="none" style="width:1075px;height:1040px;background:#FFFFFF;" version="1.1" viewBox="0 0 1075 1040" width="1075.2px" zoomAndPan="magnify"><defs/><g><g id="zastavene"><rect fill="#F1F1F1" height="95.8047" rx="10" ry="10" style="stroke:#181818;stroke-width:0.4000000000000001;" width="135.2" x="364.4" y="96.8"/><line style="stroke:#181818;stroke-width:0.4000000000000001;" x1="364.4" x2="499.6" y1="158.0031" y2="158.0031"/><text fill="#000000" font-family="sans-serif" font-size="20" lengthAdjust="spacing" textLength="119.2" x="372.4" y="122.382">ZASTAVEN&#201;</text><text fill="#000000" font-family="sans-serif" font-size="20" lengthAdjust="spacing" textLength="64.8" x="399.6" y="148.9836">spojen&#237;</text><text fill="#000000" font-family="sans-serif" font-size="20" lengthAdjust="spacing" textLength="5.6" x="368.4" y="183.5852">&#160;</text></g><g id="spustene"><rect fill="#F1F1F1" height="95.8047" rx="10" ry="10" style="stroke:#181818;stroke-width:0.4000000000000001;" width="124" x="370.8" y="365.6"/><line style="stroke:#181818;stroke-width:0.4000000000000001;" x1="370.8" x2="494.8" y1="426.8031" y2="426.8031"/><text fill="#000000" font-family="sans-serif" font-size="20" lengthAdjust="spacing" textLength="108" x="378.8" y="391.182">SPU&#352;T&#282;N&#201;</text><text fill="#000000" font-family="sans-serif" font-size="20" lengthAdjust="spacing" textLength="64.8" x="400.4" y="417.7836">spojen&#237;</text><text fill="#000000" font-family="sans-serif" font-size="20" lengthAdjust="spacing" textLength="5.6" x="374.8" y="452.3852">&#160;</text></g><g id="cekajici"><rect fill="#F1F1F1" height="149.0078" rx="10" ry="10" style="stroke:#181818;stroke-width:0.4000000000000001;" width="165.6" x="473.2" y="715.2"/><line style="stroke:#181818;stroke-width:0.4000000000000001;" x1="473.2" x2="638.8" y1="829.6063" y2="829.6063"/><text fill="#000000" font-family="sans-serif" font-size="20" lengthAdjust="spacing" textLength="72" x="520" y="740.782">&#268;ekaj&#237;c&#237;</text><text fill="#000000" font-family="sans-serif" font-size="20" lengthAdjust="spacing" textLength="149.6" x="481.2" y="767.3836">NEPOTVRZEN&#201;</text><text fill="#000000" font-family="sans-serif" font-size="20" lengthAdjust="spacing" textLength="119.2" x="496.4" y="793.9852">ZASTAVEN&#201;</text><text fill="#000000" font-family="sans-serif" font-size="20" lengthAdjust="spacing" textLength="64.8" x="523.6" y="820.5867">spojen&#237;</text><text fill="#000000" font-family="sans-serif" font-size="20" lengthAdjust="spacing" textLength="5.6" x="477.2" y="855.1883">&#160;</text></g><g id="start"><rect fill="#F1F1F1" height="42.6016" rx="10" ry="10" style="stroke:#181818;stroke-width:0.4000000000000001;" width="58.4" x="402.8" y="5.6"/><line style="stroke:#181818;stroke-width:0.4000000000000001;" x1="402.8" x2="461.2" y1="40.2016" y2="40.2016"/><text fill="#000000" font-family="sans-serif" font-size="20" lengthAdjust="spacing" textLength="42.4" x="410.8" y="31.182">Start</text></g><g id="elem_GMN6"><path d="M194.4,9.6 L194.4,44.2016 A0,0 0 0 0 194.4,44.2016 L370.4,44.2016 A0,0 0 0 0 370.4,44.2016 L370.4,30 L402.76,26.8 L370.4,23.6 L370.4,17.6 L362.4,9.6 L194.4,9.6 A0,0 0 0 0 194.4,9.6 " fill="#FEFFDD" style="stroke:#181818;stroke-width:0.4000000000000001;"/><path d="M362.4,9.6 L362.4,17.6 L370.4,17.6 L362.4,9.6 " fill="#FEFFDD" style="stroke:#181818;stroke-width:0.4000000000000001;"/><text fill="#000000" font-family="sans-serif" font-size="20" lengthAdjust="spacing" textLength="159.2" x="199.2" y="35.182">Spojen&#237; nav&#225;z&#225;no</text></g><g id="stop"><rect fill="#F1F1F1" height="42.6016" rx="10" ry="10" style="stroke:#181818;stroke-width:0.4000000000000001;" width="57.6" x="316.8" y="992.8"/><line style="stroke:#181818;stroke-width:0.4000000000000001;" x1="316.8" x2="374.4" y1="1027.4016" y2="1027.4016"/><text fill="#000000" font-family="sans-serif" font-size="20" lengthAdjust="spacing" textLength="41.6" x="324.8" y="1018.382">Stop</text></g><g id="elem_GMN10"><path d="M107.2,996.8 L107.2,1031.4016 A0,0 0 0 0 107.2,1031.4016 L284.8,1031.4016 A0,0 0 0 0 284.8,1031.4016 L284.8,1017.2 L316.64,1014 L284.8,1010.8 L284.8,1004.8 L276.8,996.8 L107.2,996.8 A0,0 0 0 0 107.2,996.8 " fill="#FEFFDD" style="stroke:#181818;stroke-width:0.4000000000000001;"/><path d="M276.8,996.8 L276.8,1004.8 L284.8,1004.8 L276.8,996.8 " fill="#FEFFDD" style="stroke:#181818;stroke-width:0.4000000000000001;"/><text fill="#000000" font-family="sans-serif" font-size="20" lengthAdjust="spacing" textLength="160.8" x="112" y="1022.382">Spojen&#237; skon&#269;eno</text></g><!--link start to zastavene--><g id="link_start_zastavene"><path d="M432,48.144 C432,61.584 432,74.928 432,91.816 " fill="none" id="start-to-zastavene" style="stroke:#181818;stroke-width:0.8000000000000002;"/><polygon fill="#181818" points="432,96.616,435.2,89.416,432,92.616,428.8,89.416,432,96.616" style="stroke:#181818;stroke-width:0.8000000000000002;"/></g><!--link zastavene to zastavene--><g id="link_zastavene_zastavene"><path d="M499.736,131.408 C517.848,132.144 531.6,136.608 531.6,144.8 C531.6,152.992 522.644,157.2611 504.532,157.9971 " fill="none" id="zastavene-to-zastavene" style="stroke:#181818;stroke-width:0.8000000000000002;"/><polygon fill="#181818" points="499.736,158.192,507.06,161.097,503.7327,158.0296,506.8001,154.7023,499.736,158.192" style="stroke:#181818;stroke-width:0.8000000000000002;"/><text fill="#000000" font-family="sans-serif" font-size="20" lengthAdjust="spacing" textLength="94.4" x="536.4" y="153.182">U-r&#225;mec[]/</text></g><!--link zastavene to stop--><g id="link_zastavene_stop"><path d="M364.312,158.864 C243.848,184.416 4.8,244.792 4.8,321.6 C4.8,321.6 4.8,321.6 4.8,790.4 C4.8,827.512 229.8966,951.398 312.3126,995.534 " fill="none" id="zastavene-to-stop" style="stroke:#181818;stroke-width:0.8000000000000002;"/><polygon fill="#181818" points="316.544,997.8,311.7075,991.58,313.0178,995.9116,308.6862,997.2219,316.544,997.8" style="stroke:#181818;stroke-width:0.8000000000000002;"/><text fill="#000000" font-family="sans-serif" font-size="20" lengthAdjust="spacing" textLength="188" x="56.8" y="527.182">&#268;asov&#225; prodleva t1[]/</text><text fill="#000000" font-family="sans-serif" font-size="20" lengthAdjust="spacing" textLength="146.4" x="77.6" y="553.7836">Aktivn&#237; ukon&#269;en&#237;</text><text fill="#000000" font-family="sans-serif" font-size="20" lengthAdjust="spacing" textLength="290.4" x="5.6" y="580.3852">nebo S-r&#225;mec[]/Aktivn&#237; ukon&#269;en&#237;</text><text fill="#000000" font-family="sans-serif" font-size="20" lengthAdjust="spacing" textLength="281.6" x="10" y="606.9867">nebo I-r&#225;mec[]/Aktivn&#237; ukon&#269;en&#237;</text></g><!--link zastavene to spustene--><g id="link_zastavene_spustene"><path d="M364.304,167.912 C341.824,178.92 319.272,194.712 306.4,216.8 C288.32,247.832 291.896,264.752 306.4,297.6 C319.832,328.016 341.9242,350.9134 366.7802,370.3694 " fill="none" id="zastavene-to-spustene" style="stroke:#181818;stroke-width:0.8000000000000002;"/><polygon fill="#181818" points="370.56,373.328,366.8628,366.3702,367.4102,370.8625,362.9179,371.4099,370.56,373.328" style="stroke:#181818;stroke-width:0.8000000000000002;"/><text fill="#000000" font-family="sans-serif" font-size="20" lengthAdjust="spacing" textLength="133.6" x="340.4" y="252.382">STARTDT act[]</text><text fill="#000000" font-family="sans-serif" font-size="20" lengthAdjust="spacing" textLength="200" x="307.2" y="278.9836">/Vysl&#225;n STARTDT con</text></g><!--link spustene to zastavene--><g id="link_spustene_zastavene"><path d="M477.176,365.568 C492.6,346.056 508.032,322.248 516,297.6 C527.048,263.432 531.096,249.384 516,216.8 C511.944,208.04 509.4238,203.5387 502.8478,196.2187 " fill="none" id="spustene-to-zastavene" style="stroke:#181818;stroke-width:0.8000000000000002;"/><polygon fill="#181818" points="499.64,192.648,502.0712,200.1426,502.3132,195.6236,506.8322,195.8656,499.64,192.648" style="stroke:#181818;stroke-width:0.8000000000000002;"/><text fill="#000000" font-family="sans-serif" font-size="20" lengthAdjust="spacing" textLength="112" x="596" y="239.182">STOPDT act</text><text fill="#000000" font-family="sans-serif" font-size="20" lengthAdjust="spacing" textLength="251.2" x="526.4" y="265.7836">[bez nepotvrzen&#253;ch I-r&#225;mc&#367;]</text><text fill="#000000" font-family="sans-serif" font-size="20" lengthAdjust="spacing" textLength="189.6" x="557.2" y="292.3852">/Vysl&#225;n STOPDT con</text></g><!--link spustene to spustene--><g id="link_spustene_spustene"><path d="M494.952,396.56 C512.912,397.184 526.8,402.864 526.8,413.6 C526.8,424.336 517.7091,429.8493 499.7491,430.4733 " fill="none" id="spustene-to-spustene" style="stroke:#181818;stroke-width:0.8000000000000002;"/><polygon fill="#181818" points="494.952,430.64,502.2588,433.5881,498.9496,430.5011,502.0365,427.1919,494.952,430.64" style="stroke:#181818;stroke-width:0.8000000000000002;"/><text fill="#000000" font-family="sans-serif" font-size="20" lengthAdjust="spacing" textLength="94.4" x="556.4" y="395.582">U-r&#225;mec[]/</text><text fill="#000000" font-family="sans-serif" font-size="20" lengthAdjust="spacing" textLength="144" x="531.6" y="422.1836">nebo S-r&#225;mec[]/</text><text fill="#000000" font-family="sans-serif" font-size="20" lengthAdjust="spacing" textLength="135.2" x="536" y="448.7852">nebo I-r&#225;mec[]/</text></g><!--link spustene to stop--><g id="link_spustene_stop"><path d="M406.144,461.608 C383.032,505.44 351.32,573.296 338.4,636.8 C311.264,770.176 332.2866,930.8995 341.3586,987.9795 " fill="none" id="spustene-to-stop" style="stroke:#181818;stroke-width:0.8000000000000002;"/><polygon fill="#181818" points="342.112,992.72,344.1422,985.107,341.4841,988.7696,337.8215,986.1115,342.112,992.72" style="stroke:#181818;stroke-width:0.8000000000000002;"/><text fill="#000000" font-family="sans-serif" font-size="20" lengthAdjust="spacing" textLength="188" x="339.2" y="659.182">&#268;asov&#225; prodleva t1[]/</text><text fill="#000000" font-family="sans-serif" font-size="20" lengthAdjust="spacing" textLength="146.4" x="360" y="685.7836">Aktivn&#237; ukon&#269;en&#237;</text></g><!--link spustene to cekajici--><g id="link_spustene_cekajici"><path d="M459.952,461.776 C483.864,505.712 517.656,573.648 536,636.8 C543.272,661.848 547.3535,685.2246 550.3055,710.4246 " fill="none" id="spustene-to-cekajici" style="stroke:#181818;stroke-width:0.8000000000000002;"/><polygon fill="#181818" points="550.864,715.192,553.2046,707.6686,550.3986,711.2192,546.848,708.4132,550.864,715.192" style="stroke:#181818;stroke-width:0.8000000000000002;"/><text fill="#000000" font-family="sans-serif" font-size="20" lengthAdjust="spacing" textLength="305.6" x="528" y="567.182">STOPDT act[nepotvrzen&#233; I-r&#225;mce]</text></g><!--link cekajici to stop--><g id="link_cekajici_stop"><path d="M486.232,864.28 C443.648,909.376 395.5918,960.2704 368.2478,989.2224 " fill="none" id="cekajici-to-stop" style="stroke:#181818;stroke-width:0.8000000000000002;"/><polygon fill="#181818" points="364.952,992.712,372.2222,989.6748,367.6985,989.804,367.5693,985.2803,364.952,992.712" style="stroke:#181818;stroke-width:0.8000000000000002;"/><text fill="#000000" font-family="sans-serif" font-size="20" lengthAdjust="spacing" textLength="188" x="511.6" y="910.382">&#268;asov&#225; prodleva t1[]/</text><text fill="#000000" font-family="sans-serif" font-size="20" lengthAdjust="spacing" textLength="146.4" x="532.4" y="936.9836">Aktivn&#237; ukon&#269;en&#237;</text><text fill="#000000" font-family="sans-serif" font-size="20" lengthAdjust="spacing" textLength="281.6" x="464.8" y="963.5852">nebo I-r&#225;mec[]/Aktivn&#237; ukon&#269;en&#237;</text></g><!--link cekajici to cekajici--><g id="link_cekajici_cekajici"><path d="M638.816,766.8 C657.304,768.896 670.8,776.496 670.8,789.6 C670.8,802.704 662.0734,809.7633 643.5854,811.8593 " fill="none" id="cekajici-to-cekajici" style="stroke:#181818;stroke-width:0.8000000000000002;"/><polygon fill="#181818" points="638.816,812.4,646.3306,814.7686,642.7905,811.9494,645.6097,808.4093,638.816,812.4" style="stroke:#181818;stroke-width:0.8000000000000002;"/><text fill="#000000" font-family="sans-serif" font-size="20" lengthAdjust="spacing" textLength="94.4" x="700.4" y="784.782">U-r&#225;mec[]/</text><text fill="#000000" font-family="sans-serif" font-size="20" lengthAdjust="spacing" textLength="144" x="675.6" y="811.3836">nebo S-r&#225;mec[]/</text></g><!--link cekajici to zastavene--><g id="link_cekajici_zastavene"><path d="M638.976,763.208 C707.168,737.288 799.32,689.84 842.4,612.8 C929.152,457.656 911.696,342.88 786.4,216.8 C747.032,177.184 595.8543,158.6435 504.4703,150.7795 " fill="none" id="cekajici-to-zastavene" style="stroke:#181818;stroke-width:0.8000000000000002;"/><polygon fill="#181818" points="499.688,150.368,506.5871,154.1735,503.6733,150.711,507.1358,147.7971,499.688,150.368" style="stroke:#181818;stroke-width:0.8000000000000002;"/><text fill="#000000" font-family="sans-serif" font-size="20" lengthAdjust="spacing" textLength="76.8" x="944.4" y="368.782">S-r&#225;mec</text><text fill="#000000" font-family="sans-serif" font-size="20" lengthAdjust="spacing" textLength="172" x="896.8" y="395.3836">[bez nepotvrzen&#253;ch</text><text fill="#000000" font-family="sans-serif" font-size="20" lengthAdjust="spacing" textLength="73.6" x="946" y="421.9852">I-r&#225;mc&#367;]</text><text fill="#000000" font-family="sans-serif" font-size="20" lengthAdjust="spacing" textLength="66.4" x="949.6" y="448.5867">/Vysl&#225;n</text><text fill="#000000" font-family="sans-serif" font-size="20" lengthAdjust="spacing" textLength="117.6" x="924" y="475.1883">STOPDT con</text></g><!--SRC=[fPAzRjim4CTtFSKXIoSZQO5sy130G5AWIs94YeTO7cYQhXdBF48ygx3Ue43w0ftgiOFH9-WavxrAslgWPIT5qUruz__T9mar4C8OYN014vaAJX9Ly2OHKtAHL7wUaHymSwaqIza24gb4jD82CAKPjYFa8XgJbNlO86U9W0yN5_15JcWMDE8hCMNBX3wYeb3c0jwz3m93Z0ISFVJ2g3UulYc-nifeV1Igs9m1Cv0pgyY4JLnRqAsei7___2FQVZ_6Z5uQSbHbrCpsISpPOx7XnIPMDzVzssXmzx0l_68Jt26Iow0ol1Q8fRGlwQn0eVNkLehJlGkw49R9GB6iMEV5Mc73eovnr6tQdio3pHpLzfkmRB1FtEbSdjoFx-x2VISjrWl1XwDpNsD5ha0Nja_Ce6qBT8gJH6GCwAtLnget9vcvmikoiDkO4cE4i4dvikZJgw9sAzMPm9xWBhgAW74QZc9rFbYPn2wizdFxDUkhjbXlrEDEZzjgfVddRNZyPVr7t0It_N809JHIbkPM_REipCNeWFCkrO2n6ev53Xx-cy-g1C-_3lUoWtPhgR_dVrttBuSxhDAC_UhoVQZJchfKdPmvLgU6ZfKtzHy0]--></g></svg>