<?xml version="1.0" encoding="us-ascii" standalone="no"?><svg xmlns="http://www.w3.org/2000/svg" xmlns:xlink="http://www.w3.org/1999/xlink" contentStyleType="text/css" height="13572px" preserveAspectRatio="none" style="width:11883px;height:13572px;background:#FFFFFF;" version="1.1" viewBox="0 0 11883 13572" width="11883.6px" zoomAndPan="magnify"><defs/><g><!--class ClientManager.ClientManager--><g id="elem_ClientManager.ClientManager"><rect codeLine="9" fill="#F1F1F1" height="5456.475" id="ClientManager.ClientManager" rx="9" ry="9" style="stroke:#181818;stroke-width:1.8;" width="4366.8" x="6984" y="2745.1406"/><ellipse cx="8687.7" cy="2858.9063" fill="#ADD1B2" rx="68.4" ry="68.4" style="stroke:#181818;stroke-width:3.6;"/><path d="M8708.5125,2816.9438 Q8709.8625,2815.0875 8711.4375,2814.1875 Q8713.0125,2813.2875 8714.8688,2813.2875 Q8718.0188,2813.2875 8719.9875,2815.4813 Q8722.0125,2817.6188 8722.0125,2822.85 L8722.0125,2835.0563 Q8722.0125,2840.2875 8719.9875,2842.5375 Q8718.0188,2844.7313 8714.8688,2844.7313 Q8711.9438,2844.7313 8710.2,2843.1 Q8708.4563,2841.4688 8707.6125,2837.025 Q8707.1063,2834.1 8705.6438,2832.4688 Q8702.775,2829.3188 8697.6,2827.4063 Q8692.425,2825.4938 8687.1938,2825.4938 Q8680.725,2825.4938 8675.325,2828.3063 Q8669.925,2831.1188 8665.7625,2837.475 Q8661.6,2843.775 8661.6,2852.4938 L8661.6,2861.8875 Q8661.6,2872.2938 8669.1375,2879.2688 Q8676.7313,2886.1875 8690.175,2886.1875 Q8698.1625,2886.1875 8703.7313,2883.9938 Q8706.9938,2882.7563 8710.65,2879.0438 Q8712.9,2876.7938 8714.1375,2876.1188 Q8715.4313,2875.4438 8717.0063,2875.4438 Q8719.9313,2875.4438 8722.0688,2877.6375 Q8724.2625,2879.775 8724.2625,2882.7563 Q8724.2625,2885.6813 8721.3375,2889.0563 Q8717.0063,2894.0063 8710.2563,2896.8188 Q8701.2,2900.6438 8690.2313,2900.6438 Q8677.4625,2900.6438 8667.1688,2895.3563 Q8658.9,2891.1375 8653.05,2882.025 Q8647.2,2872.9125 8647.2,2862.1688 L8647.2,2852.3813 Q8647.2,2841.1313 8652.4313,2831.4 Q8657.6625,2821.6688 8666.9438,2816.3813 Q8676.225,2811.0938 8686.6313,2811.0938 Q8692.9313,2811.0938 8698.3313,2812.5563 Q8703.7875,2813.9625 8708.5125,2816.9438 Z " fill="#000000"/><text fill="#000000" font-family="sans-serif" font-size="144" lengthAdjust="spacing" textLength="914.4" x="8804.7" y="2918.5313">ClientManager</text><line style="stroke:#181818;stroke-width:1.8;" x1="6987.6" x2="11347.2" y1="2972.6719" y2="2972.6719"/><rect fill="none" height="21.6" style="stroke:#C82930;stroke-width:3.6;" width="21.6" x="7012.8" y="3077.4375"/><text fill="#000000" font-family="sans-serif" font-size="144" lengthAdjust="spacing" textLength="464.4" x="7084.8" y="3142.4625">VR : int</text><rect fill="none" height="21.6" style="stroke:#C82930;stroke-width:3.6;" width="21.6" x="7012.8" y="3268.9688"/><text fill="#000000" font-family="sans-serif" font-size="144" lengthAdjust="spacing" textLength="457.2" x="7084.8" y="3333.9938">VS : int</text><rect fill="none" height="21.6" style="stroke:#C82930;stroke-width:3.6;" width="21.6" x="7012.8" y="3460.5"/><text fill="#000000" font-family="sans-serif" font-size="144" lengthAdjust="spacing" textLength="486" x="7084.8" y="3525.525">ack : int</text><rect fill="none" height="21.6" style="stroke:#C82930;stroke-width:3.6;" width="21.6" x="7012.8" y="3652.0313"/><text fill="#000000" font-family="sans-serif" font-size="144" lengthAdjust="spacing" textLength="370.8" x="7084.8" y="3717.0563">id : int</text><rect fill="none" height="21.6" style="stroke:#C82930;stroke-width:3.6;" width="21.6" x="7012.8" y="3843.5625"/><text fill="#000000" font-family="sans-serif" font-size="144" lengthAdjust="spacing" textLength="381.6" x="7084.8" y="3908.5875">ip : str</text><rect fill="none" height="21.6" style="stroke:#C82930;stroke-width:3.6;" width="21.6" x="7012.8" y="4035.0938"/><text fill="#000000" font-family="sans-serif" font-size="144" lengthAdjust="spacing" textLength="1656" x="7084.8" y="4100.1188">recv_buffer : PacketBuffer</text><rect fill="none" height="21.6" style="stroke:#C82930;stroke-width:3.6;" width="21.6" x="7012.8" y="4226.625"/><text fill="#000000" font-family="sans-serif" font-size="144" lengthAdjust="spacing" textLength="1692" x="7084.8" y="4291.65">send_buffer : PacketBuffer</text><rect fill="none" height="21.6" style="stroke:#C82930;stroke-width:3.6;" width="21.6" x="7012.8" y="4418.1563"/><text fill="#000000" font-family="sans-serif" font-size="144" lengthAdjust="spacing" textLength="1396.8" x="7084.8" y="4483.1813">sessions : list[Session]</text><line style="stroke:#181818;stroke-width:1.8;" x1="6987.6" x2="11347.2" y1="4533.7219" y2="4533.7219"/><ellipse cx="7023.6" cy="4649.2875" fill="#84BE84" rx="10.8" ry="10.8" style="stroke:#038048;stroke-width:3.6;"/><text fill="#000000" font-family="sans-serif" font-size="144" lengthAdjust="spacing" textLength="1584" x="7084.8" y="4703.5125">add_session() -&gt; Session</text><ellipse cx="7023.6" cy="4840.8188" fill="#84BE84" rx="10.8" ry="10.8" style="stroke:#038048;stroke-width:3.6;"/><text fill="#000000" font-family="sans-serif" font-size="144" lengthAdjust="spacing" textLength="2163.6" x="7084.8" y="4895.0438">del_session(sess: Session) -&gt; bool</text><ellipse cx="7023.6" cy="5032.35" fill="#84BE84" rx="10.8" ry="10.8" style="stroke:#038048;stroke-width:3.6;"/><text fill="#000000" font-family="sans-serif" font-size="144" lengthAdjust="spacing" textLength="3722.4" x="7084.8" y="5086.575">generate_i_frame(data: bytes, session: Session) -&gt; IFormat</text><ellipse cx="7023.6" cy="5223.8813" fill="#84BE84" rx="10.8" ry="10.8" style="stroke:#038048;stroke-width:3.6;"/><text fill="#000000" font-family="sans-serif" font-size="144" lengthAdjust="spacing" textLength="3052.8" x="7084.8" y="5278.1063">generate_s_frame(session: Session) -&gt; SFormat</text><ellipse cx="7023.6" cy="5415.4125" fill="#84BE84" rx="10.8" ry="10.8" style="stroke:#038048;stroke-width:3.6;"/><text fill="#000000" font-family="sans-serif" font-size="144" lengthAdjust="spacing" textLength="2160" x="7084.8" y="5469.6375">generate_startdt_act() -&gt; UFormat</text><ellipse cx="7023.6" cy="5606.9438" fill="#84BE84" rx="10.8" ry="10.8" style="stroke:#038048;stroke-width:3.6;"/><text fill="#000000" font-family="sans-serif" font-size="144" lengthAdjust="spacing" textLength="2196" x="7084.8" y="5661.1688">generate_startdt_con() -&gt; UFormat</text><ellipse cx="7023.6" cy="5798.475" fill="#84BE84" rx="10.8" ry="10.8" style="stroke:#038048;stroke-width:3.6;"/><text fill="#000000" font-family="sans-serif" font-size="144" lengthAdjust="spacing" textLength="2152.8" x="7084.8" y="5852.7">generate_stopdt_act() -&gt; UFormat</text><ellipse cx="7023.6" cy="5990.0063" fill="#84BE84" rx="10.8" ry="10.8" style="stroke:#038048;stroke-width:3.6;"/><text fill="#000000" font-family="sans-serif" font-size="144" lengthAdjust="spacing" textLength="2188.8" x="7084.8" y="6044.2313">generate_stopdt_con() -&gt; UFormat</text><ellipse cx="7023.6" cy="6181.5375" fill="#84BE84" rx="10.8" ry="10.8" style="stroke:#038048;stroke-width:3.6;"/><text fill="#000000" font-family="sans-serif" font-size="144" lengthAdjust="spacing" textLength="2113.2" x="7084.8" y="6235.7625">generate_testdt_act() -&gt; UFormat</text><ellipse cx="7023.6" cy="6373.0688" fill="#84BE84" rx="10.8" ry="10.8" style="stroke:#038048;stroke-width:3.6;"/><text fill="#000000" font-family="sans-serif" font-size="144" lengthAdjust="spacing" textLength="2149.2" x="7084.8" y="6427.2938">generate_testdt_con() -&gt; UFormat</text><ellipse cx="7023.6" cy="6564.6" fill="#84BE84" rx="10.8" ry="10.8" style="stroke:#038048;stroke-width:3.6;"/><text fill="#000000" font-family="sans-serif" font-size="144" lengthAdjust="spacing" textLength="3380.4" x="7084.8" y="6618.825">handle_apdu(session: Session, apdu: Frame) -&gt; None</text><ellipse cx="7023.6" cy="6756.1313" fill="#84BE84" rx="10.8" ry="10.8" style="stroke:#038048;stroke-width:3.6;"/><text fill="#000000" font-family="sans-serif" font-size="144" lengthAdjust="spacing" textLength="2844" x="7084.8" y="6810.3563">handle_timeout_t0(session: Session) -&gt; None</text><ellipse cx="7023.6" cy="6947.6625" fill="#84BE84" rx="10.8" ry="10.8" style="stroke:#038048;stroke-width:3.6;"/><text fill="#000000" font-family="sans-serif" font-size="144" lengthAdjust="spacing" textLength="2844" x="7084.8" y="7001.8875">handle_timeout_t1(session: Session) -&gt; None</text><ellipse cx="7023.6" cy="7139.1938" fill="#84BE84" rx="10.8" ry="10.8" style="stroke:#038048;stroke-width:3.6;"/><text fill="#000000" font-family="sans-serif" font-size="144" lengthAdjust="spacing" textLength="2844" x="7084.8" y="7193.4188">handle_timeout_t2(session: Session) -&gt; None</text><ellipse cx="7023.6" cy="7330.725" fill="#84BE84" rx="10.8" ry="10.8" style="stroke:#038048;stroke-width:3.6;"/><text fill="#000000" font-family="sans-serif" font-size="144" lengthAdjust="spacing" textLength="2844" x="7084.8" y="7384.95">handle_timeout_t3(session: Session) -&gt; None</text><ellipse cx="7023.6" cy="7522.2563" fill="#84BE84" rx="10.8" ry="10.8" style="stroke:#038048;stroke-width:3.6;"/><text fill="#000000" font-family="sans-serif" font-size="144" lengthAdjust="spacing" textLength="1461.6" x="7084.8" y="7576.4813">incrementVR() -&gt; None</text><ellipse cx="7023.6" cy="7713.7875" fill="#84BE84" rx="10.8" ry="10.8" style="stroke:#038048;stroke-width:3.6;"/><text fill="#000000" font-family="sans-serif" font-size="144" lengthAdjust="spacing" textLength="1454.4" x="7084.8" y="7768.0125">incrementVS() -&gt; None</text><ellipse cx="7023.6" cy="7905.3188" fill="#84BE84" rx="10.8" ry="10.8" style="stroke:#038048;stroke-width:3.6;"/><text fill="#000000" font-family="sans-serif" font-size="144" lengthAdjust="spacing" textLength="3913.2" x="7084.8" y="7959.5438">on_message_receive(session: Session, apdu: Frame) -&gt; None</text><ellipse cx="7023.6" cy="8096.85" fill="#84BE84" rx="10.8" ry="10.8" style="stroke:#038048;stroke-width:3.6;"/><text fill="#000000" font-family="sans-serif" font-size="144" lengthAdjust="spacing" textLength="4244.4" x="7084.8" y="8151.075">update_state_machine_server(session: Session, fr: Frame) -&gt; None</text></g><!--class config_loader.ConfigLoader--><g id="elem_config_loader.ConfigLoader"><rect codeLine="38" fill="#F1F1F1" height="859.725" id="config_loader.ConfigLoader" rx="9" ry="9" style="stroke:#181818;stroke-width:1.8;" width="1846.8" x="55.8" y="896.5406"/><ellipse cx="530.1" cy="1010.3063" fill="#ADD1B2" rx="68.4" ry="68.4" style="stroke:#181818;stroke-width:3.6;"/><path d="M550.9125,968.3438 Q552.2625,966.4875 553.8375,965.5875 Q555.4125,964.6875 557.2688,964.6875 Q560.4188,964.6875 562.3875,966.8813 Q564.4125,969.0188 564.4125,974.25 L564.4125,986.4563 Q564.4125,991.6875 562.3875,993.9375 Q560.4188,996.1313 557.2688,996.1313 Q554.3438,996.1313 552.6,994.5 Q550.8563,992.8688 550.0125,988.425 Q549.5063,985.5 548.0438,983.8688 Q545.175,980.7188 540,978.8063 Q534.825,976.8938 529.5938,976.8938 Q523.125,976.8938 517.725,979.7063 Q512.325,982.5188 508.1625,988.875 Q504,995.175 504,1003.8938 L504,1013.2875 Q504,1023.6938 511.5375,1030.6688 Q519.1313,1037.5875 532.575,1037.5875 Q540.5625,1037.5875 546.1313,1035.3938 Q549.3938,1034.1563 553.05,1030.4438 Q555.3,1028.1938 556.5375,1027.5188 Q557.8313,1026.8438 559.4063,1026.8438 Q562.3313,1026.8438 564.4688,1029.0375 Q566.6625,1031.175 566.6625,1034.1563 Q566.6625,1037.0813 563.7375,1040.4563 Q559.4063,1045.4063 552.6563,1048.2188 Q543.6,1052.0438 532.6313,1052.0438 Q519.8625,1052.0438 509.5688,1046.7563 Q501.3,1042.5375 495.45,1033.425 Q489.6,1024.3125 489.6,1013.5688 L489.6,1003.7813 Q489.6,992.5313 494.8313,982.8 Q500.0625,973.0688 509.3438,967.7813 Q518.625,962.4938 529.0313,962.4938 Q535.3313,962.4938 540.7313,963.9563 Q546.1875,965.3625 550.9125,968.3438 Z " fill="#000000"/><text fill="#000000" font-family="sans-serif" font-size="144" lengthAdjust="spacing" textLength="853.2" x="647.1" y="1069.9313">ConfigLoader</text><line style="stroke:#181818;stroke-width:1.8;" x1="59.4" x2="1899" y1="1124.0719" y2="1124.0719"/><ellipse cx="95.4" cy="1239.6375" fill="none" rx="10.8" ry="10.8" style="stroke:#038048;stroke-width:3.6;"/><text fill="#000000" font-family="sans-serif" font-size="144" lengthAdjust="spacing" textLength="738" x="156.6" y="1293.8625">config : Any</text><ellipse cx="95.4" cy="1431.1688" fill="none" rx="10.8" ry="10.8" style="stroke:#038048;stroke-width:3.6;"/><text fill="#000000" font-family="sans-serif" font-size="144" lengthAdjust="spacing" textLength="806.4" x="156.6" y="1485.3938">file_path : str</text><line style="stroke:#181818;stroke-width:1.8;" x1="59.4" x2="1899" y1="1535.9344" y2="1535.9344"/><ellipse cx="95.4" cy="1651.5" fill="#84BE84" rx="10.8" ry="10.8" style="stroke:#038048;stroke-width:3.6;"/><text fill="#000000" font-family="sans-serif" font-size="144" lengthAdjust="spacing" textLength="1724.4" x="156.6" y="1705.725">load_config() -&gt; Any | None</text></g><!--class State.ConnectionState--><g id="elem_State.ConnectionState"><rect codeLine="43" fill="#F1F1F1" height="1051.2563" id="State.ConnectionState" rx="9" ry="9" style="stroke:#181818;stroke-width:1.8;" width="1908" x="25.2" y="6064.3406"/><ellipse cx="434.7" cy="6273.8719" fill="#ADD1B2" rx="68.4" ry="68.4" style="stroke:#181818;stroke-width:3.6;"/><path d="M455.5125,6231.9094 Q456.8625,6230.0531 458.4375,6229.1531 Q460.0125,6228.2531 461.8688,6228.2531 Q465.0188,6228.2531 466.9875,6230.4469 Q469.0125,6232.5844 469.0125,6237.8156 L469.0125,6250.0219 Q469.0125,6255.2531 466.9875,6257.5031 Q465.0188,6259.6969 461.8688,6259.6969 Q458.9438,6259.6969 457.2,6258.0656 Q455.4563,6256.4344 454.6125,6251.9906 Q454.1063,6249.0656 452.6438,6247.4344 Q449.775,6244.2844 444.6,6242.3719 Q439.425,6240.4594 434.1938,6240.4594 Q427.725,6240.4594 422.325,6243.2719 Q416.925,6246.0844 412.7625,6252.4406 Q408.6,6258.7406 408.6,6267.4594 L408.6,6276.8531 Q408.6,6287.2594 416.1375,6294.2344 Q423.7313,6301.1531 437.175,6301.1531 Q445.1625,6301.1531 450.7313,6298.9594 Q453.9938,6297.7219 457.65,6294.0094 Q459.9,6291.7594 461.1375,6291.0844 Q462.4313,6290.4094 464.0063,6290.4094 Q466.9313,6290.4094 469.0688,6292.6031 Q471.2625,6294.7406 471.2625,6297.7219 Q471.2625,6300.6469 468.3375,6304.0219 Q464.0063,6308.9719 457.2563,6311.7844 Q448.2,6315.6094 437.2313,6315.6094 Q424.4625,6315.6094 414.1688,6310.3219 Q405.9,6306.1031 400.05,6296.9906 Q394.2,6287.8781 394.2,6277.1344 L394.2,6267.3469 Q394.2,6256.0969 399.4313,6246.3656 Q404.6625,6236.6344 413.9438,6231.3469 Q423.225,6226.0594 433.6313,6226.0594 Q439.9313,6226.0594 445.3313,6227.5219 Q450.7875,6228.9281 455.5125,6231.9094 Z " fill="#000000"/><text fill="#000000" font-family="sans-serif" font-size="144" font-style="italic" lengthAdjust="spacing" textLength="514.8" x="816.3" y="6237.7313">&#171;enum&#187;</text><text fill="#000000" font-family="sans-serif" font-size="144" lengthAdjust="spacing" textLength="1044" x="551.7" y="6429.2625">ConnectionState</text><line style="stroke:#181818;stroke-width:1.8;" x1="28.8" x2="1929.6" y1="6483.4031" y2="6483.4031"/><rect fill="none" height="21.6" style="stroke:#C82930;stroke-width:3.6;" width="21.6" x="54" y="6588.1688"/><text fill="#000000" font-family="sans-serif" font-size="144" lengthAdjust="spacing" textLength="356.4" x="126" y="6653.1938">name</text><line style="stroke:#181818;stroke-width:1.8;" x1="28.8" x2="1929.6" y1="6703.7344" y2="6703.7344"/><ellipse cx="64.8" cy="6819.3" fill="#84BE84" rx="10.8" ry="10.8" style="stroke:#038048;stroke-width:3.6;"/><text fill="#000000" font-family="sans-serif" font-size="144" lengthAdjust="spacing" textLength="1040.4" x="126" y="6873.525">get_state() -&gt; str</text><ellipse cx="64.8" cy="7010.8313" fill="#84BE84" rx="10.8" ry="10.8" style="stroke:#038048;stroke-width:3.6;"/><text fill="#000000" font-family="sans-serif" font-size="144" lengthAdjust="spacing" textLength="1785.6" x="126" y="7065.0563">set_state(state: str) -&gt; Enum</text></g><!--class Frame.Frame--><g id="elem_Frame.Frame"><rect codeLine="48" fill="#F1F1F1" height="1434.3188" id="Frame.Frame" rx="9" ry="9" style="stroke:#181818;stroke-width:1.8;" width="1630.8" x="3389.4" y="10938.7406"/><ellipse cx="3975.3" cy="11052.5063" fill="#ADD1B2" rx="68.4" ry="68.4" style="stroke:#181818;stroke-width:3.6;"/><path d="M3996.1125,11010.5438 Q3997.4625,11008.6875 3999.0375,11007.7875 Q4000.6125,11006.8875 4002.4688,11006.8875 Q4005.6188,11006.8875 4007.5875,11009.0813 Q4009.6125,11011.2188 4009.6125,11016.45 L4009.6125,11028.6563 Q4009.6125,11033.8875 4007.5875,11036.1375 Q4005.6188,11038.3313 4002.4688,11038.3313 Q3999.5438,11038.3313 3997.8,11036.7 Q3996.0563,11035.0688 3995.2125,11030.625 Q3994.7063,11027.7 3993.2438,11026.0688 Q3990.375,11022.9188 3985.2,11021.0063 Q3980.025,11019.0938 3974.7938,11019.0938 Q3968.325,11019.0938 3962.925,11021.9063 Q3957.525,11024.7188 3953.3625,11031.075 Q3949.2,11037.375 3949.2,11046.0938 L3949.2,11055.4875 Q3949.2,11065.8938 3956.7375,11072.8688 Q3964.3313,11079.7875 3977.775,11079.7875 Q3985.7625,11079.7875 3991.3313,11077.5938 Q3994.5938,11076.3563 3998.25,11072.6438 Q4000.5,11070.3938 4001.7375,11069.7188 Q4003.0313,11069.0438 4004.6063,11069.0438 Q4007.5313,11069.0438 4009.6688,11071.2375 Q4011.8625,11073.375 4011.8625,11076.3563 Q4011.8625,11079.2813 4008.9375,11082.6563 Q4004.6063,11087.6063 3997.8563,11090.4188 Q3988.8,11094.2438 3977.8313,11094.2438 Q3965.0625,11094.2438 3954.7688,11088.9563 Q3946.5,11084.7375 3940.65,11075.625 Q3934.8,11066.5125 3934.8,11055.7688 L3934.8,11045.9813 Q3934.8,11034.7313 3940.0313,11025 Q3945.2625,11015.2688 3954.5438,11009.9813 Q3963.825,11004.6938 3974.2313,11004.6938 Q3980.5313,11004.6938 3985.9313,11006.1563 Q3991.3875,11007.5625 3996.1125,11010.5438 Z " fill="#000000"/><text fill="#000000" font-family="sans-serif" font-size="144" lengthAdjust="spacing" textLength="414" x="4092.3" y="11112.1313">Frame</text><line style="stroke:#181818;stroke-width:1.8;" x1="3393" x2="5016.6" y1="11166.2719" y2="11166.2719"/><rect fill="none" height="21.6" style="stroke:#C82930;stroke-width:3.6;" width="21.6" x="3418.2" y="11271.0375"/><text fill="#000000" font-family="sans-serif" font-size="144" lengthAdjust="spacing" textLength="108" x="3490.2" y="11336.0625">id</text><rect fill="none" height="21.6" style="stroke:#C82930;stroke-width:3.6;" width="21.6" x="3418.2" y="11462.5688"/><text fill="#000000" font-family="sans-serif" font-size="144" lengthAdjust="spacing" textLength="378" x="3490.2" y="11527.5938">length</text><rect fill="none" height="21.6" style="stroke:#C82930;stroke-width:3.6;" width="21.6" x="3418.2" y="11654.1"/><text fill="#000000" font-family="sans-serif" font-size="144" lengthAdjust="spacing" textLength="838.8" x="3490.2" y="11719.125">type_in_word</text><line style="stroke:#181818;stroke-width:1.8;" x1="3393" x2="5016.6" y1="11769.6656" y2="11769.6656"/><ellipse cx="3429" cy="11885.2313" fill="#84BE84" rx="10.8" ry="10.8" style="stroke:#038048;stroke-width:3.6;"/><text fill="#000000" font-family="sans-serif" font-size="144" lengthAdjust="spacing" textLength="554.4" x="3490.2" y="11939.4563">id() -&gt; int</text><ellipse cx="3429" cy="12076.7625" fill="#84BE84" rx="10.8" ry="10.8" style="stroke:#038048;stroke-width:3.6;"/><text fill="#000000" font-family="sans-serif" font-size="144" lengthAdjust="spacing" textLength="1508.4" x="3490.2" y="12130.9875">serialize() -&gt; bytes | Any</text><ellipse cx="3429" cy="12268.2938" fill="#84BE84" rx="10.8" ry="10.8" style="stroke:#038048;stroke-width:3.6;"/><text fill="#000000" font-family="sans-serif" font-size="144" lengthAdjust="spacing" textLength="1065.6" x="3490.2" y="12322.5188">start_byte() -&gt; int</text></g><!--class IDataSharing.IDataSharing--><g id="elem_IDataSharing.IDataSharing"><rect codeLine="56" fill="#F1F1F1" height="1434.3188" id="IDataSharing.IDataSharing" rx="9" ry="9" style="stroke:#181818;stroke-width:1.8;" width="2631.6" x="2889" y="9379.9406"/><ellipse cx="3771.9" cy="9493.7063" fill="#ADD1B2" rx="68.4" ry="68.4" style="stroke:#181818;stroke-width:3.6;"/><path d="M3792.7125,9451.7438 Q3794.0625,9449.8875 3795.6375,9448.9875 Q3797.2125,9448.0875 3799.0688,9448.0875 Q3802.2188,9448.0875 3804.1875,9450.2813 Q3806.2125,9452.4188 3806.2125,9457.65 L3806.2125,9469.8563 Q3806.2125,9475.0875 3804.1875,9477.3375 Q3802.2188,9479.5313 3799.0688,9479.5313 Q3796.1438,9479.5313 3794.4,9477.9 Q3792.6563,9476.2688 3791.8125,9471.825 Q3791.3063,9468.9 3789.8438,9467.2688 Q3786.975,9464.1188 3781.8,9462.2063 Q3776.625,9460.2938 3771.3938,9460.2938 Q3764.925,9460.2938 3759.525,9463.1063 Q3754.125,9465.9188 3749.9625,9472.275 Q3745.8,9478.575 3745.8,9487.2938 L3745.8,9496.6875 Q3745.8,9507.0938 3753.3375,9514.0688 Q3760.9313,9520.9875 3774.375,9520.9875 Q3782.3625,9520.9875 3787.9313,9518.7938 Q3791.1938,9517.5563 3794.85,9513.8438 Q3797.1,9511.5938 3798.3375,9510.9188 Q3799.6313,9510.2438 3801.2063,9510.2438 Q3804.1313,9510.2438 3806.2688,9512.4375 Q3808.4625,9514.575 3808.4625,9517.5563 Q3808.4625,9520.4813 3805.5375,9523.8563 Q3801.2063,9528.8063 3794.4563,9531.6188 Q3785.4,9535.4438 3774.4313,9535.4438 Q3761.6625,9535.4438 3751.3688,9530.1563 Q3743.1,9525.9375 3737.25,9516.825 Q3731.4,9507.7125 3731.4,9496.9688 L3731.4,9487.1813 Q3731.4,9475.9313 3736.6313,9466.2 Q3741.8625,9456.4688 3751.1438,9451.1813 Q3760.425,9445.8938 3770.8313,9445.8938 Q3777.1313,9445.8938 3782.5313,9447.3563 Q3787.9875,9448.7625 3792.7125,9451.7438 Z " fill="#000000"/><text fill="#000000" font-family="sans-serif" font-size="144" lengthAdjust="spacing" textLength="820.8" x="3888.9" y="9553.3313">IDataSharing</text><line style="stroke:#181818;stroke-width:1.8;" x1="2892.6" x2="5517" y1="9607.4719" y2="9607.4719"/><line style="stroke:#181818;stroke-width:1.8;" x1="2892.6" x2="5517" y1="9636.2719" y2="9636.2719"/><text fill="#000000" font-family="sans-serif" font-size="144" font-style="italic" lengthAdjust="spacing" textLength="2588.4" x="2910.6" y="9806.0625">connect(host, port, username, password)</text><text fill="#000000" font-family="sans-serif" font-size="144" font-style="italic" lengthAdjust="spacing" textLength="777.6" x="2910.6" y="9997.5938">disconnect()</text><text fill="#000000" font-family="sans-serif" font-size="144" font-style="italic" lengthAdjust="spacing" textLength="1508.4" x="2910.6" y="10189.125">publish(topic, message)</text><text fill="#000000" font-family="sans-serif" font-size="144" font-style="italic" lengthAdjust="spacing" textLength="2008.8" x="2910.6" y="10380.6563">save_data(topic, data, callback)</text><text fill="#000000" font-family="sans-serif" font-size="144" font-style="italic" lengthAdjust="spacing" textLength="1278" x="2910.6" y="10572.1875">send_data(callback)</text><text fill="#000000" font-family="sans-serif" font-size="144" font-style="italic" lengthAdjust="spacing" textLength="1605.6" x="2910.6" y="10763.7188">subscribe(topic, callback)</text></g><!--class IFormat.IFormat--><g id="elem_IFormat.IFormat"><rect codeLine="64" fill="#F1F1F1" height="1051.2563" id="IFormat.IFormat" rx="9" ry="9" style="stroke:#181818;stroke-width:1.8;" width="1782" x="3313.8" y="12497.5406"/><ellipse cx="3937.5" cy="12611.3063" fill="#ADD1B2" rx="68.4" ry="68.4" style="stroke:#181818;stroke-width:3.6;"/><path d="M3958.3125,12569.3438 Q3959.6625,12567.4875 3961.2375,12566.5875 Q3962.8125,12565.6875 3964.6688,12565.6875 Q3967.8188,12565.6875 3969.7875,12567.8813 Q3971.8125,12570.0188 3971.8125,12575.25 L3971.8125,12587.4563 Q3971.8125,12592.6875 3969.7875,12594.9375 Q3967.8188,12597.1313 3964.6688,12597.1313 Q3961.7438,12597.1313 3960,12595.5 Q3958.2563,12593.8688 3957.4125,12589.425 Q3956.9063,12586.5 3955.4438,12584.8688 Q3952.575,12581.7188 3947.4,12579.8063 Q3942.225,12577.8938 3936.9938,12577.8938 Q3930.525,12577.8938 3925.125,12580.7063 Q3919.725,12583.5188 3915.5625,12589.875 Q3911.4,12596.175 3911.4,12604.8938 L3911.4,12614.2875 Q3911.4,12624.6938 3918.9375,12631.6688 Q3926.5313,12638.5875 3939.975,12638.5875 Q3947.9625,12638.5875 3953.5313,12636.3938 Q3956.7938,12635.1563 3960.45,12631.4438 Q3962.7,12629.1938 3963.9375,12628.5188 Q3965.2313,12627.8438 3966.8063,12627.8438 Q3969.7313,12627.8438 3971.8688,12630.0375 Q3974.0625,12632.175 3974.0625,12635.1563 Q3974.0625,12638.0813 3971.1375,12641.4563 Q3966.8063,12646.4063 3960.0563,12649.2188 Q3951,12653.0438 3940.0313,12653.0438 Q3927.2625,12653.0438 3916.9688,12647.7563 Q3908.7,12643.5375 3902.85,12634.425 Q3897,12625.3125 3897,12614.5688 L3897,12604.7813 Q3897,12593.5313 3902.2313,12583.8 Q3907.4625,12574.0688 3916.7438,12568.7813 Q3926.025,12563.4938 3936.4313,12563.4938 Q3942.7313,12563.4938 3948.1313,12564.9563 Q3953.5875,12566.3625 3958.3125,12569.3438 Z " fill="#000000"/><text fill="#000000" font-family="sans-serif" font-size="144" lengthAdjust="spacing" textLength="489.6" x="4054.5" y="12670.9313">IFormat</text><line style="stroke:#181818;stroke-width:1.8;" x1="3317.4" x2="5092.2" y1="12725.0719" y2="12725.0719"/><rect fill="none" height="21.6" style="stroke:#C82930;stroke-width:3.6;" width="21.6" x="3342.6" y="12829.8375"/><text fill="#000000" font-family="sans-serif" font-size="144" lengthAdjust="spacing" textLength="277.2" x="3414.6" y="12894.8625">data</text><rect fill="none" height="21.6" style="stroke:#C82930;stroke-width:3.6;" width="21.6" x="3342.6" y="13021.3688"/><text fill="#000000" font-family="sans-serif" font-size="144" lengthAdjust="spacing" textLength="190.8" x="3414.6" y="13086.3938">rsn</text><rect fill="none" height="21.6" style="stroke:#C82930;stroke-width:3.6;" width="21.6" x="3342.6" y="13212.9"/><text fill="#000000" font-family="sans-serif" font-size="144" lengthAdjust="spacing" textLength="212.4" x="3414.6" y="13277.925">ssn</text><line style="stroke:#181818;stroke-width:1.8;" x1="3317.4" x2="5092.2" y1="13328.4656" y2="13328.4656"/><ellipse cx="3353.4" cy="13444.0313" fill="#84BE84" rx="10.8" ry="10.8" style="stroke:#038048;stroke-width:3.6;"/><text fill="#000000" font-family="sans-serif" font-size="144" lengthAdjust="spacing" textLength="1659.6" x="3414.6" y="13498.2563">get_length_of_data() -&gt; int</text></g><!--class MQTTProtocol.MQTTProtocol--><g id="elem_MQTTProtocol.MQTTProtocol"><rect codeLine="70" fill="#F1F1F1" height="1625.85" id="MQTTProtocol.MQTTProtocol" rx="9" ry="9" style="stroke:#181818;stroke-width:1.8;" width="4849.2" x="6742.8" y="8965.9406"/><ellipse cx="8682.3" cy="9079.7063" fill="#ADD1B2" rx="68.4" ry="68.4" style="stroke:#181818;stroke-width:3.6;"/><path d="M8703.1125,9037.7438 Q8704.4625,9035.8875 8706.0375,9034.9875 Q8707.6125,9034.0875 8709.4688,9034.0875 Q8712.6188,9034.0875 8714.5875,9036.2813 Q8716.6125,9038.4188 8716.6125,9043.65 L8716.6125,9055.8563 Q8716.6125,9061.0875 8714.5875,9063.3375 Q8712.6188,9065.5313 8709.4688,9065.5313 Q8706.5438,9065.5313 8704.8,9063.9 Q8703.0563,9062.2688 8702.2125,9057.825 Q8701.7063,9054.9 8700.2438,9053.2688 Q8697.375,9050.1188 8692.2,9048.2063 Q8687.025,9046.2938 8681.7938,9046.2938 Q8675.325,9046.2938 8669.925,9049.1063 Q8664.525,9051.9188 8660.3625,9058.275 Q8656.2,9064.575 8656.2,9073.2938 L8656.2,9082.6875 Q8656.2,9093.0938 8663.7375,9100.0688 Q8671.3313,9106.9875 8684.775,9106.9875 Q8692.7625,9106.9875 8698.3313,9104.7938 Q8701.5938,9103.5563 8705.25,9099.8438 Q8707.5,9097.5938 8708.7375,9096.9188 Q8710.0313,9096.2438 8711.6063,9096.2438 Q8714.5313,9096.2438 8716.6688,9098.4375 Q8718.8625,9100.575 8718.8625,9103.5563 Q8718.8625,9106.4813 8715.9375,9109.8563 Q8711.6063,9114.8063 8704.8563,9117.6188 Q8695.8,9121.4438 8684.8313,9121.4438 Q8672.0625,9121.4438 8661.7688,9116.1563 Q8653.5,9111.9375 8647.65,9102.825 Q8641.8,9093.7125 8641.8,9082.9688 L8641.8,9073.1813 Q8641.8,9061.9313 8647.0313,9052.2 Q8652.2625,9042.4688 8661.5438,9037.1813 Q8670.825,9031.8938 8681.2313,9031.8938 Q8687.5313,9031.8938 8692.9313,9033.3563 Q8698.3875,9034.7625 8703.1125,9037.7438 Z " fill="#000000"/><text fill="#000000" font-family="sans-serif" font-size="144" lengthAdjust="spacing" textLength="925.2" x="8799.3" y="9139.3313">MQTTProtocol</text><line style="stroke:#181818;stroke-width:1.8;" x1="6746.4" x2="11588.4" y1="9193.4719" y2="9193.4719"/><line style="stroke:#181818;stroke-width:1.8;" x1="6746.4" x2="11588.4" y1="9222.2719" y2="9222.2719"/><ellipse cx="6782.4" cy="9337.8375" fill="#84BE84" rx="10.8" ry="10.8" style="stroke:#038048;stroke-width:3.6;"/><text fill="#000000" font-family="sans-serif" font-size="144" lengthAdjust="spacing" textLength="586.8" x="6843.6" y="9392.0625">connect()</text><ellipse cx="6782.4" cy="9529.3688" fill="#84BE84" rx="10.8" ry="10.8" style="stroke:#038048;stroke-width:3.6;"/><text fill="#000000" font-family="sans-serif" font-size="144" lengthAdjust="spacing" textLength="763.2" x="6843.6" y="9583.5938">disconnect()</text><ellipse cx="6782.4" cy="9720.9" fill="#84BE84" rx="10.8" ry="10.8" style="stroke:#038048;stroke-width:3.6;"/><text fill="#000000" font-family="sans-serif" font-size="144" lengthAdjust="spacing" textLength="3006" x="6843.6" y="9775.125">publish(topic: str, payload: bytes, qos: int, retain)</text><ellipse cx="6782.4" cy="9912.4313" fill="#84BE84" rx="10.8" ry="10.8" style="stroke:#038048;stroke-width:3.6;"/><text fill="#000000" font-family="sans-serif" font-size="144" lengthAdjust="spacing" textLength="4726.8" x="6843.6" y="9966.6563">save_data(topic: str, data: bytes | bytearray | int | float | str | None, callback)</text><text fill="#000000" font-family="sans-serif" font-size="144" font-style="italic" lengthAdjust="spacing" textLength="1278" x="6843.6" y="10158.1875">send_data(callback)</text><ellipse cx="6782.4" cy="10295.4938" fill="#84BE84" rx="10.8" ry="10.8" style="stroke:#038048;stroke-width:3.6;"/><text fill="#000000" font-family="sans-serif" font-size="144" lengthAdjust="spacing" textLength="1814.4" x="6843.6" y="10349.7188">subscribe(topic: str, callback)</text><ellipse cx="6782.4" cy="10487.025" fill="#84BE84" rx="10.8" ry="10.8" style="stroke:#038048;stroke-width:3.6;"/><text fill="#000000" font-family="sans-serif" font-size="144" lengthAdjust="spacing" textLength="1375.2" x="6843.6" y="10541.25">unsubscribe(topic: str)</text></g><!--class Packet_buffer.PacketBuffer--><g id="elem_Packet_buffer.PacketBuffer"><rect codeLine="79" fill="#F1F1F1" height="1625.85" id="Packet_buffer.PacketBuffer" rx="9" ry="9" style="stroke:#181818;stroke-width:1.8;" width="3175.2" x="2617.2" y="4339.9406"/><ellipse cx="3770.1" cy="4453.7063" fill="#ADD1B2" rx="68.4" ry="68.4" style="stroke:#181818;stroke-width:3.6;"/><path d="M3790.9125,4411.7438 Q3792.2625,4409.8875 3793.8375,4408.9875 Q3795.4125,4408.0875 3797.2688,4408.0875 Q3800.4188,4408.0875 3802.3875,4410.2813 Q3804.4125,4412.4188 3804.4125,4417.65 L3804.4125,4429.8563 Q3804.4125,4435.0875 3802.3875,4437.3375 Q3800.4188,4439.5313 3797.2688,4439.5313 Q3794.3438,4439.5313 3792.6,4437.9 Q3790.8563,4436.2688 3790.0125,4431.825 Q3789.5063,4428.9 3788.0438,4427.2688 Q3785.175,4424.1188 3780,4422.2063 Q3774.825,4420.2938 3769.5938,4420.2938 Q3763.125,4420.2938 3757.725,4423.1063 Q3752.325,4425.9188 3748.1625,4432.275 Q3744,4438.575 3744,4447.2938 L3744,4456.6875 Q3744,4467.0938 3751.5375,4474.0688 Q3759.1313,4480.9875 3772.575,4480.9875 Q3780.5625,4480.9875 3786.1313,4478.7938 Q3789.3938,4477.5563 3793.05,4473.8438 Q3795.3,4471.5938 3796.5375,4470.9188 Q3797.8313,4470.2438 3799.4063,4470.2438 Q3802.3313,4470.2438 3804.4688,4472.4375 Q3806.6625,4474.575 3806.6625,4477.5563 Q3806.6625,4480.4813 3803.7375,4483.8563 Q3799.4063,4488.8063 3792.6563,4491.6188 Q3783.6,4495.4438 3772.6313,4495.4438 Q3759.8625,4495.4438 3749.5688,4490.1563 Q3741.3,4485.9375 3735.45,4476.825 Q3729.6,4467.7125 3729.6,4456.9688 L3729.6,4447.1813 Q3729.6,4435.9313 3734.8313,4426.2 Q3740.0625,4416.4688 3749.3438,4411.1813 Q3758.625,4405.8938 3769.0313,4405.8938 Q3775.3313,4405.8938 3780.7313,4407.3563 Q3786.1875,4408.7625 3790.9125,4411.7438 Z " fill="#000000"/><text fill="#000000" font-family="sans-serif" font-size="144" lengthAdjust="spacing" textLength="824.4" x="3887.1" y="4513.3313">PacketBuffer</text><line style="stroke:#181818;stroke-width:1.8;" x1="2620.8" x2="5788.8" y1="4567.4719" y2="4567.4719"/><line style="stroke:#181818;stroke-width:1.8;" x1="2620.8" x2="5788.8" y1="4596.2719" y2="4596.2719"/><ellipse cx="2656.8" cy="4711.8375" fill="#84BE84" rx="10.8" ry="10.8" style="stroke:#038048;stroke-width:3.6;"/><text fill="#000000" font-family="sans-serif" font-size="144" lengthAdjust="spacing" textLength="3052.8" x="2718" y="4766.0625">add_frame(frame_id: int, frame: Frame) -&gt; None</text><ellipse cx="2656.8" cy="4903.3688" fill="#84BE84" rx="10.8" ry="10.8" style="stroke:#038048;stroke-width:3.6;"/><text fill="#000000" font-family="sans-serif" font-size="144" lengthAdjust="spacing" textLength="2919.6" x="2718" y="4957.5938">clear_frames_less_than(frame_id: int) -&gt; None</text><ellipse cx="2656.8" cy="5094.9" fill="#84BE84" rx="10.8" ry="10.8" style="stroke:#038048;stroke-width:3.6;"/><text fill="#000000" font-family="sans-serif" font-size="144" lengthAdjust="spacing" textLength="2145.6" x="2718" y="5149.125">get_frame(frame_id: int) -&gt; Frame</text><ellipse cx="2656.8" cy="5286.4313" fill="#84BE84" rx="10.8" ry="10.8" style="stroke:#038048;stroke-width:3.6;"/><text fill="#000000" font-family="sans-serif" font-size="144" lengthAdjust="spacing" textLength="1728" x="2718" y="5340.6563">get_list_from_buffer() -&gt; list</text><ellipse cx="2656.8" cy="5477.9625" fill="#84BE84" rx="10.8" ry="10.8" style="stroke:#038048;stroke-width:3.6;"/><text fill="#000000" font-family="sans-serif" font-size="144" lengthAdjust="spacing" textLength="2023.2" x="2718" y="5532.1875">has_frame(frame_id: int) -&gt; bool</text><ellipse cx="2656.8" cy="5669.4938" fill="#84BE84" rx="10.8" ry="10.8" style="stroke:#038048;stroke-width:3.6;"/><text fill="#000000" font-family="sans-serif" font-size="144" lengthAdjust="spacing" textLength="1011.6" x="2718" y="5723.7188">is_empty() -&gt; int</text><ellipse cx="2656.8" cy="5861.025" fill="#84BE84" rx="10.8" ry="10.8" style="stroke:#038048;stroke-width:3.6;"/><text fill="#000000" font-family="sans-serif" font-size="144" lengthAdjust="spacing" textLength="2347.2" x="2718" y="5915.25">remove_frame(frame_id: int) -&gt; None</text></g><!--class Parser.Parser--><g id="elem_Parser.Parser"><rect codeLine="88" fill="#F1F1F1" height="476.6625" id="Parser.Parser" rx="9" ry="9" style="stroke:#181818;stroke-width:1.8;" width="4111.2" x="2149.2" y="3738.7406"/><ellipse cx="3973.5" cy="3852.5063" fill="#ADD1B2" rx="68.4" ry="68.4" style="stroke:#181818;stroke-width:3.6;"/><path d="M3994.3125,3810.5438 Q3995.6625,3808.6875 3997.2375,3807.7875 Q3998.8125,3806.8875 4000.6688,3806.8875 Q4003.8188,3806.8875 4005.7875,3809.0813 Q4007.8125,3811.2188 4007.8125,3816.45 L4007.8125,3828.6563 Q4007.8125,3833.8875 4005.7875,3836.1375 Q4003.8188,3838.3313 4000.6688,3838.3313 Q3997.7438,3838.3313 3996,3836.7 Q3994.2563,3835.0688 3993.4125,3830.625 Q3992.9063,3827.7 3991.4438,3826.0688 Q3988.575,3822.9188 3983.4,3821.0063 Q3978.225,3819.0938 3972.9938,3819.0938 Q3966.525,3819.0938 3961.125,3821.9063 Q3955.725,3824.7188 3951.5625,3831.075 Q3947.4,3837.375 3947.4,3846.0938 L3947.4,3855.4875 Q3947.4,3865.8938 3954.9375,3872.8688 Q3962.5313,3879.7875 3975.975,3879.7875 Q3983.9625,3879.7875 3989.5313,3877.5938 Q3992.7938,3876.3563 3996.45,3872.6438 Q3998.7,3870.3938 3999.9375,3869.7188 Q4001.2313,3869.0438 4002.8063,3869.0438 Q4005.7313,3869.0438 4007.8688,3871.2375 Q4010.0625,3873.375 4010.0625,3876.3563 Q4010.0625,3879.2813 4007.1375,3882.6563 Q4002.8063,3887.6063 3996.0563,3890.4188 Q3987,3894.2438 3976.0313,3894.2438 Q3963.2625,3894.2438 3952.9688,3888.9563 Q3944.7,3884.7375 3938.85,3875.625 Q3933,3866.5125 3933,3855.7688 L3933,3845.9813 Q3933,3834.7313 3938.2313,3825 Q3943.4625,3815.2688 3952.7438,3809.9813 Q3962.025,3804.6938 3972.4313,3804.6938 Q3978.7313,3804.6938 3984.1313,3806.1563 Q3989.5875,3807.5625 3994.3125,3810.5438 Z " fill="#000000"/><text fill="#000000" font-family="sans-serif" font-size="144" lengthAdjust="spacing" textLength="417.6" x="4090.5" y="3912.1313">Parser</text><line style="stroke:#181818;stroke-width:1.8;" x1="2152.8" x2="6256.8" y1="3966.2719" y2="3966.2719"/><line style="stroke:#181818;stroke-width:1.8;" x1="2152.8" x2="6256.8" y1="3995.0719" y2="3995.0719"/><ellipse cx="2188.8" cy="4110.6375" fill="#84BE84" rx="10.8" ry="10.8" style="stroke:#038048;stroke-width:3.6;"/><text fill="#000000" font-family="sans-serif" font-size="144" lengthAdjust="spacing" textLength="3988.8" x="2250" y="4164.8625">parser(apdu, length: int) -&gt; IFormat | SFormat | UFormat | None</text></g><!--class SFormat.SFormat--><g id="elem_SFormat.SFormat"><rect codeLine="91" fill="#F1F1F1" height="668.1938" id="SFormat.SFormat" rx="9" ry="9" style="stroke:#181818;stroke-width:1.8;" width="1652.4" x="8341.2" y="11320.3406"/><ellipse cx="8869.5" cy="11434.1063" fill="#ADD1B2" rx="68.4" ry="68.4" style="stroke:#181818;stroke-width:3.6;"/><path d="M8890.3125,11392.1438 Q8891.6625,11390.2875 8893.2375,11389.3875 Q8894.8125,11388.4875 8896.6688,11388.4875 Q8899.8188,11388.4875 8901.7875,11390.6813 Q8903.8125,11392.8188 8903.8125,11398.05 L8903.8125,11410.2563 Q8903.8125,11415.4875 8901.7875,11417.7375 Q8899.8188,11419.9313 8896.6688,11419.9313 Q8893.7438,11419.9313 8892,11418.3 Q8890.2563,11416.6688 8889.4125,11412.225 Q8888.9063,11409.3 8887.4438,11407.6688 Q8884.575,11404.5188 8879.4,11402.6063 Q8874.225,11400.6938 8868.9938,11400.6938 Q8862.525,11400.6938 8857.125,11403.5063 Q8851.725,11406.3188 8847.5625,11412.675 Q8843.4,11418.975 8843.4,11427.6938 L8843.4,11437.0875 Q8843.4,11447.4938 8850.9375,11454.4688 Q8858.5313,11461.3875 8871.975,11461.3875 Q8879.9625,11461.3875 8885.5313,11459.1938 Q8888.7938,11457.9563 8892.45,11454.2438 Q8894.7,11451.9938 8895.9375,11451.3188 Q8897.2313,11450.6438 8898.8063,11450.6438 Q8901.7313,11450.6438 8903.8688,11452.8375 Q8906.0625,11454.975 8906.0625,11457.9563 Q8906.0625,11460.8813 8903.1375,11464.2563 Q8898.8063,11469.2063 8892.0563,11472.0188 Q8883,11475.8438 8872.0313,11475.8438 Q8859.2625,11475.8438 8848.9688,11470.5563 Q8840.7,11466.3375 8834.85,11457.225 Q8829,11448.1125 8829,11437.3688 L8829,11427.5813 Q8829,11416.3313 8834.2313,11406.6 Q8839.4625,11396.8688 8848.7438,11391.5813 Q8858.025,11386.2938 8868.4313,11386.2938 Q8874.7313,11386.2938 8880.1313,11387.7563 Q8885.5875,11389.1625 8890.3125,11392.1438 Z " fill="#000000"/><text fill="#000000" font-family="sans-serif" font-size="144" lengthAdjust="spacing" textLength="550.8" x="8986.5" y="11493.7313">SFormat</text><line style="stroke:#181818;stroke-width:1.8;" x1="8344.8" x2="9990" y1="11547.8719" y2="11547.8719"/><rect fill="none" height="21.6" style="stroke:#C82930;stroke-width:3.6;" width="21.6" x="8370" y="11652.6375"/><text fill="#000000" font-family="sans-serif" font-size="144" lengthAdjust="spacing" textLength="190.8" x="8442" y="11717.6625">rsn</text><line style="stroke:#181818;stroke-width:1.8;" x1="8344.8" x2="9990" y1="11768.2031" y2="11768.2031"/><ellipse cx="8380.8" cy="11883.7688" fill="#84BE84" rx="10.8" ry="10.8" style="stroke:#038048;stroke-width:3.6;"/><text fill="#000000" font-family="sans-serif" font-size="144" lengthAdjust="spacing" textLength="1530" x="8442" y="11937.9938">increment_rsn() -&gt; None</text></g><!--class server_async.ServerIEC104--><g id="elem_server_async.ServerIEC104"><rect codeLine="95" fill="#F1F1F1" height="2583.5063" id="server_async.ServerIEC104" rx="9" ry="9" style="stroke:#181818;stroke-width:1.8;" width="5382" x="6476.4" y="34.3406"/><ellipse cx="8698.5" cy="148.1063" fill="#ADD1B2" rx="68.4" ry="68.4" style="stroke:#181818;stroke-width:3.6;"/><path d="M8719.3125,106.1438 Q8720.6625,104.2875 8722.2375,103.3875 Q8723.8125,102.4875 8725.6688,102.4875 Q8728.8188,102.4875 8730.7875,104.6813 Q8732.8125,106.8188 8732.8125,112.05 L8732.8125,124.2563 Q8732.8125,129.4875 8730.7875,131.7375 Q8728.8188,133.9313 8725.6688,133.9313 Q8722.7438,133.9313 8721,132.3 Q8719.2563,130.6688 8718.4125,126.225 Q8717.9063,123.3 8716.4438,121.6688 Q8713.575,118.5188 8708.4,116.6063 Q8703.225,114.6938 8697.9938,114.6938 Q8691.525,114.6938 8686.125,117.5063 Q8680.725,120.3188 8676.5625,126.675 Q8672.4,132.975 8672.4,141.6938 L8672.4,151.0875 Q8672.4,161.4938 8679.9375,168.4688 Q8687.5313,175.3875 8700.975,175.3875 Q8708.9625,175.3875 8714.5313,173.1938 Q8717.7938,171.9563 8721.45,168.2438 Q8723.7,165.9938 8724.9375,165.3188 Q8726.2313,164.6438 8727.8063,164.6438 Q8730.7313,164.6438 8732.8688,166.8375 Q8735.0625,168.975 8735.0625,171.9563 Q8735.0625,174.8813 8732.1375,178.2563 Q8727.8063,183.2063 8721.0563,186.0188 Q8712,189.8438 8701.0313,189.8438 Q8688.2625,189.8438 8677.9688,184.5563 Q8669.7,180.3375 8663.85,171.225 Q8658,162.1125 8658,151.3688 L8658,141.5813 Q8658,130.3313 8663.2313,120.6 Q8668.4625,110.8688 8677.7438,105.5813 Q8687.025,100.2938 8697.4313,100.2938 Q8703.7313,100.2938 8709.1313,101.7563 Q8714.5875,103.1625 8719.3125,106.1438 Z " fill="#000000"/><text fill="#000000" font-family="sans-serif" font-size="144" lengthAdjust="spacing" textLength="892.8" x="8815.5" y="207.7313">ServerIEC104</text><line style="stroke:#181818;stroke-width:1.8;" x1="6480" x2="11854.8" y1="261.8719" y2="261.8719"/><rect fill="none" height="21.6" style="stroke:#C82930;stroke-width:3.6;" width="21.6" x="6505.2" y="366.6375"/><text fill="#000000" font-family="sans-serif" font-size="144" lengthAdjust="spacing" textLength="1958.4" x="6577.2" y="431.6625">clients : dict[str, ClientManager]</text><rect fill="none" height="21.6" style="stroke:#C82930;stroke-width:3.6;" width="21.6" x="6505.2" y="558.1688"/><text fill="#000000" font-family="sans-serif" font-size="144" lengthAdjust="spacing" textLength="1821.6" x="6577.2" y="623.1938">config_loader : ConfigLoader</text><rect fill="none" height="21.6" style="stroke:#C82930;stroke-width:3.6;" width="21.6" x="6505.2" y="749.7"/><text fill="#000000" font-family="sans-serif" font-size="144" lengthAdjust="spacing" textLength="381.6" x="6577.2" y="814.725">ip : str</text><rect fill="none" height="21.6" style="stroke:#C82930;stroke-width:3.6;" width="21.6" x="6505.2" y="941.2313"/><text fill="#000000" font-family="sans-serif" font-size="144" lengthAdjust="spacing" textLength="630" x="6577.2" y="1006.2563">name : str</text><rect fill="none" height="21.6" style="stroke:#C82930;stroke-width:3.6;" width="21.6" x="6505.2" y="1132.7625"/><text fill="#000000" font-family="sans-serif" font-size="144" lengthAdjust="spacing" textLength="507.6" x="6577.2" y="1197.7875">port : int</text><line style="stroke:#181818;stroke-width:1.8;" x1="6480" x2="11854.8" y1="1248.3281" y2="1248.3281"/><ellipse cx="6516" cy="1363.8938" fill="#84BE84" rx="10.8" ry="10.8" style="stroke:#038048;stroke-width:3.6;"/><text fill="#000000" font-family="sans-serif" font-size="144" lengthAdjust="spacing" textLength="1774.8" x="6577.2" y="1418.1188">check_alive_clients() -&gt; bool</text><ellipse cx="6516" cy="1555.425" fill="#84BE84" rx="10.8" ry="10.8" style="stroke:#038048;stroke-width:3.6;"/><text fill="#000000" font-family="sans-serif" font-size="144" lengthAdjust="spacing" textLength="968.4" x="6577.2" y="1609.65">close() -&gt; None</text><ellipse cx="6516" cy="1746.9563" fill="#84BE84" rx="10.8" ry="10.8" style="stroke:#038048;stroke-width:3.6;"/><text fill="#000000" font-family="sans-serif" font-size="144" lengthAdjust="spacing" textLength="5259.6" x="6577.2" y="1801.1813">handle_client(reader: asyncio.StreamReader, writer: asyncio.StreamWriter) -&gt; None</text><ellipse cx="6516" cy="1938.4875" fill="#84BE84" rx="10.8" ry="10.8" style="stroke:#038048;stroke-width:3.6;"/><text fill="#000000" font-family="sans-serif" font-size="144" lengthAdjust="spacing" textLength="961.2" x="6577.2" y="1992.7125">listen() -&gt; None</text><ellipse cx="6516" cy="2130.0188" fill="#84BE84" rx="10.8" ry="10.8" style="stroke:#038048;stroke-width:3.6;"/><text fill="#000000" font-family="sans-serif" font-size="144" lengthAdjust="spacing" textLength="3207.6" x="6577.2" y="2184.2438">load_params(config_loader: ConfigLoader) -&gt; tuple</text><ellipse cx="6516" cy="2321.55" fill="#84BE84" rx="10.8" ry="10.8" style="stroke:#038048;stroke-width:3.6;"/><text fill="#000000" font-family="sans-serif" font-size="144" lengthAdjust="spacing" textLength="838.8" x="6577.2" y="2375.775">run() -&gt; None</text><text fill="#000000" font-family="sans-serif" font-size="144" font-style="italic" lengthAdjust="spacing" textLength="954" x="6577.2" y="2567.3063">send() -&gt; None</text></g><!--class Session.Session--><g id="elem_Session.Session"><rect codeLine="109" fill="#F1F1F1" height="3158.1" id="Session.Session" rx="9" ry="9" style="stroke:#181818;stroke-width:1.8;" width="2602.8" x="2903.4" y="6094.9406"/><ellipse cx="3933.9" cy="6208.7063" fill="#ADD1B2" rx="68.4" ry="68.4" style="stroke:#181818;stroke-width:3.6;"/><path d="M3954.7125,6166.7438 Q3956.0625,6164.8875 3957.6375,6163.9875 Q3959.2125,6163.0875 3961.0688,6163.0875 Q3964.2188,6163.0875 3966.1875,6165.2813 Q3968.2125,6167.4188 3968.2125,6172.65 L3968.2125,6184.8563 Q3968.2125,6190.0875 3966.1875,6192.3375 Q3964.2188,6194.5313 3961.0688,6194.5313 Q3958.1438,6194.5313 3956.4,6192.9 Q3954.6563,6191.2688 3953.8125,6186.825 Q3953.3063,6183.9 3951.8438,6182.2688 Q3948.975,6179.1188 3943.8,6177.2063 Q3938.625,6175.2938 3933.3938,6175.2938 Q3926.925,6175.2938 3921.525,6178.1063 Q3916.125,6180.9188 3911.9625,6187.275 Q3907.8,6193.575 3907.8,6202.2938 L3907.8,6211.6875 Q3907.8,6222.0938 3915.3375,6229.0688 Q3922.9313,6235.9875 3936.375,6235.9875 Q3944.3625,6235.9875 3949.9313,6233.7938 Q3953.1938,6232.5563 3956.85,6228.8438 Q3959.1,6226.5938 3960.3375,6225.9188 Q3961.6313,6225.2438 3963.2063,6225.2438 Q3966.1313,6225.2438 3968.2688,6227.4375 Q3970.4625,6229.575 3970.4625,6232.5563 Q3970.4625,6235.4813 3967.5375,6238.8563 Q3963.2063,6243.8063 3956.4563,6246.6188 Q3947.4,6250.4438 3936.4313,6250.4438 Q3923.6625,6250.4438 3913.3688,6245.1563 Q3905.1,6240.9375 3899.25,6231.825 Q3893.4,6222.7125 3893.4,6211.9688 L3893.4,6202.1813 Q3893.4,6190.9313 3898.6313,6181.2 Q3903.8625,6171.4688 3913.1438,6166.1813 Q3922.425,6160.8938 3932.8313,6160.8938 Q3939.1313,6160.8938 3944.5313,6162.3563 Q3949.9875,6163.7625 3954.7125,6166.7438 Z " fill="#000000"/><text fill="#000000" font-family="sans-serif" font-size="144" lengthAdjust="spacing" textLength="496.8" x="4050.9" y="6268.3313">Session</text><line style="stroke:#181818;stroke-width:1.8;" x1="2907" x2="5502.6" y1="6322.4719" y2="6322.4719"/><rect fill="none" height="21.6" style="stroke:#C82930;stroke-width:3.6;" width="21.6" x="2932.2" y="6427.2375"/><text fill="#000000" font-family="sans-serif" font-size="144" lengthAdjust="spacing" textLength="2224.8" x="3004.2" y="6492.2625">connection_state : ConnectionState</text><rect fill="none" height="21.6" style="stroke:#C82930;stroke-width:3.6;" width="21.6" x="2932.2" y="6618.7688"/><text fill="#000000" font-family="sans-serif" font-size="144" lengthAdjust="spacing" textLength="370.8" x="3004.2" y="6683.7938">id : int</text><rect fill="none" height="21.6" style="stroke:#C82930;stroke-width:3.6;" width="21.6" x="2932.2" y="6810.3"/><text fill="#000000" font-family="sans-serif" font-size="144" lengthAdjust="spacing" textLength="381.6" x="3004.2" y="6875.325">ip : str</text><rect fill="none" height="21.6" style="stroke:#C82930;stroke-width:3.6;" width="21.6" x="2932.2" y="7001.8313"/><text fill="#000000" font-family="sans-serif" font-size="144" lengthAdjust="spacing" textLength="334.8" x="3004.2" y="7066.8563">k : int</text><rect fill="none" height="21.6" style="stroke:#C82930;stroke-width:3.6;" width="21.6" x="2932.2" y="7193.3625"/><text fill="#000000" font-family="sans-serif" font-size="144" lengthAdjust="spacing" textLength="630" x="3004.2" y="7258.3875">name : str</text><rect fill="none" height="21.6" style="stroke:#C82930;stroke-width:3.6;" width="21.6" x="2932.2" y="7384.8938"/><text fill="#000000" font-family="sans-serif" font-size="144" lengthAdjust="spacing" textLength="507.6" x="3004.2" y="7449.9188">port : int</text><rect fill="none" height="21.6" style="stroke:#C82930;stroke-width:3.6;" width="21.6" x="2932.2" y="7576.425"/><text fill="#000000" font-family="sans-serif" font-size="144" lengthAdjust="spacing" textLength="2448" x="3004.2" y="7641.45">transmission_state : TransmissionState</text><rect fill="none" height="21.6" style="stroke:#C82930;stroke-width:3.6;" width="21.6" x="2932.2" y="7767.9563"/><text fill="#000000" font-family="sans-serif" font-size="144" lengthAdjust="spacing" textLength="867.6" x="3004.2" y="7832.9813">timers : Timer</text><rect fill="none" height="21.6" style="stroke:#C82930;stroke-width:3.6;" width="21.6" x="2932.2" y="7959.4875"/><text fill="#000000" font-family="sans-serif" font-size="144" lengthAdjust="spacing" textLength="367.2" x="3004.2" y="8024.5125">w : int</text><line style="stroke:#181818;stroke-width:1.8;" x1="2907" x2="5502.6" y1="8075.0531" y2="8075.0531"/><ellipse cx="2943" cy="8190.6188" fill="#84BE84" rx="10.8" ry="10.8" style="stroke:#038048;stroke-width:3.6;"/><text fill="#000000" font-family="sans-serif" font-size="144" lengthAdjust="spacing" textLength="1324.8" x="3004.2" y="8244.8438">delete_self() -&gt; None</text><ellipse cx="2943" cy="8382.15" fill="#84BE84" rx="10.8" ry="10.8" style="stroke:#038048;stroke-width:3.6;"/><text fill="#000000" font-family="sans-serif" font-size="144" lengthAdjust="spacing" textLength="1548" x="3004.2" y="8436.375">get_all_instances() -&gt; list</text><ellipse cx="2943" cy="8573.6813" fill="#84BE84" rx="10.8" ry="10.8" style="stroke:#038048;stroke-width:3.6;"/><text fill="#000000" font-family="sans-serif" font-size="144" lengthAdjust="spacing" textLength="2480.4" x="3004.2" y="8627.9063">get_instance(id_num: int) -&gt; Any | None</text><ellipse cx="2943" cy="8765.2125" fill="#84BE84" rx="10.8" ry="10.8" style="stroke:#038048;stroke-width:3.6;"/><text fill="#000000" font-family="sans-serif" font-size="144" lengthAdjust="spacing" textLength="1782" x="3004.2" y="8819.4375">handle_messages() -&gt; None</text><ellipse cx="2943" cy="8956.7438" fill="#84BE84" rx="10.8" ry="10.8" style="stroke:#038048;stroke-width:3.6;"/><text fill="#000000" font-family="sans-serif" font-size="144" lengthAdjust="spacing" textLength="2257.2" x="3004.2" y="9010.9688">send_frame(frame: Frame) -&gt; None</text><ellipse cx="2943" cy="9148.275" fill="#84BE84" rx="10.8" ry="10.8" style="stroke:#038048;stroke-width:3.6;"/><text fill="#000000" font-family="sans-serif" font-size="144" lengthAdjust="spacing" textLength="2008.8" x="3004.2" y="9202.5">update_timestamp_t2() -&gt; None</text></g><!--class Timer.Timer--><g id="elem_Timer.Timer"><rect codeLine="126" fill="#F1F1F1" height="859.725" id="Timer.Timer" rx="9" ry="9" style="stroke:#181818;stroke-width:1.8;" width="1170" x="394.2" y="7243.3406"/><ellipse cx="774.9" cy="7357.1063" fill="#ADD1B2" rx="68.4" ry="68.4" style="stroke:#181818;stroke-width:3.6;"/><path d="M795.7125,7315.1438 Q797.0625,7313.2875 798.6375,7312.3875 Q800.2125,7311.4875 802.0688,7311.4875 Q805.2188,7311.4875 807.1875,7313.6813 Q809.2125,7315.8188 809.2125,7321.05 L809.2125,7333.2563 Q809.2125,7338.4875 807.1875,7340.7375 Q805.2188,7342.9313 802.0688,7342.9313 Q799.1438,7342.9313 797.4,7341.3 Q795.6563,7339.6688 794.8125,7335.225 Q794.3063,7332.3 792.8438,7330.6688 Q789.975,7327.5188 784.8,7325.6063 Q779.625,7323.6938 774.3938,7323.6938 Q767.925,7323.6938 762.525,7326.5063 Q757.125,7329.3188 752.9625,7335.675 Q748.8,7341.975 748.8,7350.6938 L748.8,7360.0875 Q748.8,7370.4938 756.3375,7377.4688 Q763.9313,7384.3875 777.375,7384.3875 Q785.3625,7384.3875 790.9313,7382.1938 Q794.1938,7380.9563 797.85,7377.2438 Q800.1,7374.9938 801.3375,7374.3188 Q802.6313,7373.6438 804.2063,7373.6438 Q807.1313,7373.6438 809.2688,7375.8375 Q811.4625,7377.975 811.4625,7380.9563 Q811.4625,7383.8813 808.5375,7387.2563 Q804.2063,7392.2063 797.4563,7395.0188 Q788.4,7398.8438 777.4313,7398.8438 Q764.6625,7398.8438 754.3688,7393.5563 Q746.1,7389.3375 740.25,7380.225 Q734.4,7371.1125 734.4,7360.3688 L734.4,7350.5813 Q734.4,7339.3313 739.6313,7329.6 Q744.8625,7319.8688 754.1438,7314.5813 Q763.425,7309.2938 773.8313,7309.2938 Q780.1313,7309.2938 785.5313,7310.7563 Q790.9875,7312.1625 795.7125,7315.1438 Z " fill="#000000"/><text fill="#000000" font-family="sans-serif" font-size="144" lengthAdjust="spacing" textLength="363.6" x="891.9" y="7416.7313">Timer</text><line style="stroke:#181818;stroke-width:1.8;" x1="397.8" x2="1560.6" y1="7470.8719" y2="7470.8719"/><rect fill="none" height="21.6" style="stroke:#C82930;stroke-width:3.6;" width="21.6" x="423" y="7575.6375"/><text fill="#000000" font-family="sans-serif" font-size="144" lengthAdjust="spacing" textLength="727.2" x="495" y="7640.6625">timeout : int</text><line style="stroke:#181818;stroke-width:1.8;" x1="397.8" x2="1560.6" y1="7691.2031" y2="7691.2031"/><ellipse cx="433.8" cy="7806.7688" fill="#84BE84" rx="10.8" ry="10.8" style="stroke:#038048;stroke-width:3.6;"/><text fill="#000000" font-family="sans-serif" font-size="144" lengthAdjust="spacing" textLength="1047.6" x="495" y="7860.9938">cancel() -&gt; None</text><ellipse cx="433.8" cy="7998.3" fill="#84BE84" rx="10.8" ry="10.8" style="stroke:#038048;stroke-width:3.6;"/><text fill="#000000" font-family="sans-serif" font-size="144" lengthAdjust="spacing" textLength="914.4" x="495" y="8052.525">start() -&gt; None</text></g><!--class State.TransmissionState--><g id="elem_State.TransmissionState"><rect codeLine="131" fill="#F1F1F1" height="1051.2563" id="State.TransmissionState" rx="9" ry="9" style="stroke:#181818;stroke-width:1.8;" width="1908" x="25.2" y="8231.5406"/><ellipse cx="375.3" cy="8441.0719" fill="#ADD1B2" rx="68.4" ry="68.4" style="stroke:#181818;stroke-width:3.6;"/><path d="M396.1125,8399.1094 Q397.4625,8397.2531 399.0375,8396.3531 Q400.6125,8395.4531 402.4688,8395.4531 Q405.6188,8395.4531 407.5875,8397.6469 Q409.6125,8399.7844 409.6125,8405.0156 L409.6125,8417.2219 Q409.6125,8422.4531 407.5875,8424.7031 Q405.6188,8426.8969 402.4688,8426.8969 Q399.5438,8426.8969 397.8,8425.2656 Q396.0563,8423.6344 395.2125,8419.1906 Q394.7063,8416.2656 393.2438,8414.6344 Q390.375,8411.4844 385.2,8409.5719 Q380.025,8407.6594 374.7938,8407.6594 Q368.325,8407.6594 362.925,8410.4719 Q357.525,8413.2844 353.3625,8419.6406 Q349.2,8425.9406 349.2,8434.6594 L349.2,8444.0531 Q349.2,8454.4594 356.7375,8461.4344 Q364.3313,8468.3531 377.775,8468.3531 Q385.7625,8468.3531 391.3313,8466.1594 Q394.5938,8464.9219 398.25,8461.2094 Q400.5,8458.9594 401.7375,8458.2844 Q403.0313,8457.6094 404.6063,8457.6094 Q407.5313,8457.6094 409.6688,8459.8031 Q411.8625,8461.9406 411.8625,8464.9219 Q411.8625,8467.8469 408.9375,8471.2219 Q404.6063,8476.1719 397.8563,8478.9844 Q388.8,8482.8094 377.8313,8482.8094 Q365.0625,8482.8094 354.7688,8477.5219 Q346.5,8473.3031 340.65,8464.1906 Q334.8,8455.0781 334.8,8444.3344 L334.8,8434.5469 Q334.8,8423.2969 340.0313,8413.5656 Q345.2625,8403.8344 354.5438,8398.5469 Q363.825,8393.2594 374.2313,8393.2594 Q380.5313,8393.2594 385.9313,8394.7219 Q391.3875,8396.1281 396.1125,8399.1094 Z " fill="#000000"/><text fill="#000000" font-family="sans-serif" font-size="144" font-style="italic" lengthAdjust="spacing" textLength="514.8" x="816.3" y="8404.9313">&#171;enum&#187;</text><text fill="#000000" font-family="sans-serif" font-size="144" lengthAdjust="spacing" textLength="1162.8" x="492.3" y="8596.4625">TransmissionState</text><line style="stroke:#181818;stroke-width:1.8;" x1="28.8" x2="1929.6" y1="8650.6031" y2="8650.6031"/><rect fill="none" height="21.6" style="stroke:#C82930;stroke-width:3.6;" width="21.6" x="54" y="8755.3688"/><text fill="#000000" font-family="sans-serif" font-size="144" lengthAdjust="spacing" textLength="590.4" x="126" y="8820.3938">name: str</text><line style="stroke:#181818;stroke-width:1.8;" x1="28.8" x2="1929.6" y1="8870.9344" y2="8870.9344"/><ellipse cx="64.8" cy="8986.5" fill="#84BE84" rx="10.8" ry="10.8" style="stroke:#038048;stroke-width:3.6;"/><text fill="#000000" font-family="sans-serif" font-size="144" lengthAdjust="spacing" textLength="1040.4" x="126" y="9040.725">get_state() -&gt; str</text><ellipse cx="64.8" cy="9178.0313" fill="#84BE84" rx="10.8" ry="10.8" style="stroke:#038048;stroke-width:3.6;"/><text fill="#000000" font-family="sans-serif" font-size="144" lengthAdjust="spacing" textLength="1785.6" x="126" y="9232.2563">set_state(state: str) -&gt; Enum</text></g><!--class UFormat.UFormat--><g id="elem_UFormat.UFormat"><rect codeLine="136" fill="#F1F1F1" height="668.1938" id="UFormat.UFormat" rx="9" ry="9" style="stroke:#181818;stroke-width:1.8;" width="1101.6" x="428.4" y="11320.3406"/><ellipse cx="678.06" cy="11434.1063" fill="#ADD1B2" rx="68.4" ry="68.4" style="stroke:#181818;stroke-width:3.6;"/><path d="M698.8725,11392.1438 Q700.2225,11390.2875 701.7975,11389.3875 Q703.3725,11388.4875 705.2288,11388.4875 Q708.3788,11388.4875 710.3475,11390.6813 Q712.3725,11392.8188 712.3725,11398.05 L712.3725,11410.2563 Q712.3725,11415.4875 710.3475,11417.7375 Q708.3788,11419.9313 705.2288,11419.9313 Q702.3038,11419.9313 700.56,11418.3 Q698.8163,11416.6688 697.9725,11412.225 Q697.4663,11409.3 696.0038,11407.6688 Q693.135,11404.5188 687.96,11402.6063 Q682.785,11400.6938 677.5538,11400.6938 Q671.085,11400.6938 665.685,11403.5063 Q660.285,11406.3188 656.1225,11412.675 Q651.96,11418.975 651.96,11427.6938 L651.96,11437.0875 Q651.96,11447.4938 659.4975,11454.4688 Q667.0913,11461.3875 680.535,11461.3875 Q688.5225,11461.3875 694.0913,11459.1938 Q697.3538,11457.9563 701.01,11454.2438 Q703.26,11451.9938 704.4975,11451.3188 Q705.7913,11450.6438 707.3663,11450.6438 Q710.2913,11450.6438 712.4288,11452.8375 Q714.6225,11454.975 714.6225,11457.9563 Q714.6225,11460.8813 711.6975,11464.2563 Q707.3663,11469.2063 700.6163,11472.0188 Q691.56,11475.8438 680.5913,11475.8438 Q667.8225,11475.8438 657.5288,11470.5563 Q649.26,11466.3375 643.41,11457.225 Q637.56,11448.1125 637.56,11437.3688 L637.56,11427.5813 Q637.56,11416.3313 642.7913,11406.6 Q648.0225,11396.8688 657.3038,11391.5813 Q666.585,11386.2938 676.9913,11386.2938 Q683.2913,11386.2938 688.6913,11387.7563 Q694.1475,11389.1625 698.8725,11392.1438 Z " fill="#000000"/><text fill="#000000" font-family="sans-serif" font-size="144" lengthAdjust="spacing" textLength="558" x="794.34" y="11493.7313">UFormat</text><line style="stroke:#181818;stroke-width:1.8;" x1="432" x2="1526.4" y1="11547.8719" y2="11547.8719"/><rect fill="none" height="21.6" style="stroke:#C82930;stroke-width:3.6;" width="21.6" x="457.2" y="11652.6375"/><text fill="#000000" font-family="sans-serif" font-size="144" lengthAdjust="spacing" textLength="979.2" x="529.2" y="11717.6625">type_frame : int</text><line style="stroke:#181818;stroke-width:1.8;" x1="432" x2="1526.4" y1="11768.2031" y2="11768.2031"/><ellipse cx="468" cy="11883.7688" fill="#84BE84" rx="10.8" ry="10.8" style="stroke:#038048;stroke-width:3.6;"/><text fill="#000000" font-family="sans-serif" font-size="144" lengthAdjust="spacing" textLength="712.8" x="529.2" y="11937.9938">type() -&gt; int</text></g><!--reverse link config_loader.ConfigLoader to server_async.ServerIEC104--><g id="link_config_loader.ConfigLoader_server_async.ServerIEC104"><path codeLine="142" d="M1946.772,1326.7406 C3049.668,1326.7406 4899.384,1326.7406 6476.328,1326.7406 " fill="none" id="config_loader.ConfigLoader-backto-server_async.ServerIEC104" style="stroke:#181818;stroke-width:3.6;"/><polygon fill="#181818" points="1903.572,1326.7406,1925.172,1341.1406,1946.772,1326.7406,1925.172,1312.3406,1903.572,1326.7406" style="stroke:#181818;stroke-width:3.6;"/><text fill="#000000" font-family="sans-serif" font-size="144" lengthAdjust="spacing" textLength="79.2" x="1932.1899" y="1484.9843">1</text><text fill="#000000" font-family="sans-serif" font-size="144" lengthAdjust="spacing" textLength="79.2" x="6367.2613" y="1483.1858">1</text></g><!--reverse link ClientManager.ClientManager to MQTTProtocol.MQTTProtocol--><g id="link_ClientManager.ClientManager_MQTTProtocol.MQTTProtocol"><path codeLine="144" d="M9169.2,8246.9846 C9169.2,8520.6926 9169.2,8737.7366 9169.2,8965.0046 " fill="none" id="ClientManager.ClientManager-backto-MQTTProtocol.MQTTProtocol" style="stroke:#181818;stroke-width:3.6;"/><polygon fill="#181818" points="9169.2,8203.7846,9154.8,8225.3846,9169.2,8246.9846,9183.6,8225.3846,9169.2,8203.7846" style="stroke:#181818;stroke-width:3.6;"/></g><!--link Packet_buffer.PacketBuffer to ClientManager.ClientManager--><g id="link_Packet_buffer.PacketBuffer_ClientManager.ClientManager"><path codeLine="145" d="M5793.768,4882.3526 C6172.668,4882.3526 6540.372,4882.3526 6940.764,4882.3526 " fill="none" id="Packet_buffer.PacketBuffer-to-ClientManager.ClientManager" style="stroke:#181818;stroke-width:3.6;"/><polygon fill="#181818" points="6983.964,4882.3526,6962.364,4867.9526,6940.764,4882.3526,6962.364,4896.7526,6983.964,4882.3526" style="stroke:#181818;stroke-width:3.6;"/></g><!--link Packet_buffer.PacketBuffer to ClientManager.ClientManager--><g id="link_Packet_buffer.PacketBuffer_ClientManager.ClientManager"><path codeLine="146" d="M5793.768,5424.7286 C6172.668,5424.7286 6540.372,5424.7286 6940.764,5424.7286 " fill="none" id="Packet_buffer.PacketBuffer-to-ClientManager.ClientManager-1" style="stroke:#181818;stroke-width:3.6;"/><polygon fill="#181818" points="6983.964,5424.7286,6962.364,5410.3286,6940.764,5424.7286,6962.364,5439.1286,6983.964,5424.7286" style="stroke:#181818;stroke-width:3.6;"/></g><!--link State.ConnectionState to Session.Session--><g id="link_State.ConnectionState_Session.Session"><path codeLine="147" d="M1933.884,6775.3406 C2237.616,6775.3406 2557.368,6775.3406 2881.296,6775.3406 " fill="none" id="State.ConnectionState-to-Session.Session" style="stroke:#181818;stroke-width:3.6;stroke-dasharray:1.0,3.0;"/><polygon fill="#181818" points="2902.896,6775.3406,2870.496,6760.9406,2884.896,6775.3406,2870.496,6789.7406,2902.896,6775.3406" style="stroke:#181818;stroke-width:3.6;"/></g><!--link State.TransmissionState to Session.Session--><g id="link_State.TransmissionState_Session.Session"><path codeLine="148" d="M1933.884,8741.8406 C2237.616,8741.8406 2557.368,8741.8406 2881.296,8741.8406 " fill="none" id="State.TransmissionState-to-Session.Session" style="stroke:#181818;stroke-width:3.6;stroke-dasharray:1.0,3.0;"/><polygon fill="#181818" points="2902.896,8741.8406,2870.496,8727.4406,2884.896,8741.8406,2870.496,8756.2406,2902.896,8741.8406" style="stroke:#181818;stroke-width:3.6;"/></g><!--link Timer.Timer to Session.Session--><g id="link_Timer.Timer_Session.Session"><path codeLine="149" d="M1564.272,7673.5406 C1937.88,7673.5406 2394.432,7673.5406 2858.616,7673.5406 " fill="none" id="Timer.Timer-to-Session.Session" style="stroke:#181818;stroke-width:3.6;"/><polygon fill="#181818" points="2901.816,7673.5406,2880.216,7659.1406,2858.616,7673.5406,2880.216,7687.9406,2901.816,7673.5406" style="stroke:#181818;stroke-width:3.6;"/></g><!--reverse link IDataSharing.IDataSharing to MQTTProtocol.MQTTProtocol--><g id="link_IDataSharing.IDataSharing_MQTTProtocol.MQTTProtocol"><path codeLine="152" d="M5586.444,9986.5406 C5962.968,9986.5406 6320.952,9986.5406 6741.612,9986.5406 " fill="none" id="IDataSharing.IDataSharing-backto-MQTTProtocol.MQTTProtocol" style="stroke:#181818;stroke-width:3.6;"/><polygon fill="none" points="5521.644,9986.5406,5586.444,10008.1406,5586.444,9964.9406,5521.644,9986.5406" style="stroke:#181818;stroke-width:3.6;"/></g><!--reverse link server_async.ServerIEC104 to ClientManager.ClientManager--><g id="link_server_async.ServerIEC104_ClientManager.ClientManager"><path codeLine="154" d="M9169.2,2663.6726 C9169.2,2704.6766 9169.2,2702.9486 9169.2,2744.8166 " fill="none" id="server_async.ServerIEC104-backto-ClientManager.ClientManager" style="stroke:#181818;stroke-width:3.6;"/><polygon fill="#181818" points="9169.2,2620.4726,9154.8,2642.0726,9169.2,2663.6726,9183.6,2642.0726,9169.2,2620.4726" style="stroke:#181818;stroke-width:3.6;"/></g><!--link Session.Session to ClientManager.ClientManager--><g id="link_Session.Session_ClientManager.ClientManager"><path codeLine="155" d="M5507.028,7148.8406 C5959.332,7148.8406 6436.548,7148.8406 6940.368,7148.8406 " fill="none" id="Session.Session-to-ClientManager.ClientManager" style="stroke:#181818;stroke-width:3.6;"/><polygon fill="#181818" points="6983.568,7148.8406,6961.968,7134.4406,6940.368,7148.8406,6961.968,7163.2406,6983.568,7148.8406" style="stroke:#181818;stroke-width:3.6;"/></g><!--link Parser.Parser to Session.Session--><g id="link_Parser.Parser_Session.Session"><path codeLine="156" d="M2383.2,4214.3366 C2383.2,4831.4126 2383.2,6435.1406 2383.2,6435.1406 C2383.2,6435.1406 2609.604,6435.1406 2902.752,6435.1406 " fill="none" id="Parser.Parser-Session.Session" style="stroke:#181818;stroke-width:3.6;"/></g><!--reverse link Frame.Frame to IFormat.IFormat--><g id="link_Frame.Frame_IFormat.IFormat"><path codeLine="158" d="M4204.8,12436.9886 C4204.8,12478.9646 4204.8,12455.9606 4204.8,12497.0006 " fill="none" id="Frame.Frame-backto-IFormat.IFormat" style="stroke:#181818;stroke-width:3.6;"/><polygon fill="none" points="4204.8,12372.1886,4183.2,12436.9886,4226.4,12436.9886,4204.8,12372.1886" style="stroke:#181818;stroke-width:3.6;"/></g><!--reverse link Frame.Frame to SFormat.SFormat--><g id="link_Frame.Frame_SFormat.SFormat"><path codeLine="159" d="M5086.296,11655.1406 C6003.54,11655.1406 7419.204,11655.1406 8340.552,11655.1406 " fill="none" id="Frame.Frame-backto-SFormat.SFormat" style="stroke:#181818;stroke-width:3.6;"/><polygon fill="none" points="5021.496,11655.1406,5086.296,11676.7406,5086.296,11633.5406,5021.496,11655.1406" style="stroke:#181818;stroke-width:3.6;"/></g><!--link UFormat.UFormat to Frame.Frame--><g id="link_UFormat.UFormat_Frame.Frame"><path codeLine="160" d="M1530.036,11655.1406 C2040.588,11655.1406 2741.976,11655.1406 3323.628,11655.1406 " fill="none" id="UFormat.UFormat-to-Frame.Frame" style="stroke:#181818;stroke-width:3.6;"/><polygon fill="none" points="3388.428,11655.1406,3323.628,11633.5406,3323.628,11676.7406,3388.428,11655.1406" style="stroke:#181818;stroke-width:3.6;"/></g><!--SRC=[jHXDRziszAvVGUIaBhQGTDt5A09iRGC4M8SkJhf340YqHDj4958ZgGHkq_- -nqTA9cN9MJ3i8fBlatpVjcQ625eptT22BLb35JLI4I45IogsDiH8elXcQqZ95IiCboBH1QqOUVlB6NdYfTac-e4BorYJYWjsisiOaSfiPO0eAghrfHHcoRynykuiG7raQzfM9aGc2TAJamyLPy9yfe9kc3eXL9C8aaKdyZqXP4w-NfC5uSAump8uqE8XEF4oF3Hmq4RX0TxvcA_QzHfaBiWNO6FcDpmYMZDH7aLh3LRIWAkuDdTBTxu7v2cXPPbxWlGDcLyGZqLaoQeUQTT5XqNAbPGLacsOOE0bblDy3GPaQKaDNP3LpZ0zwzJ7l5UNKjNKnEpQiuzoB4Sv35McD3ajZBlzxJ6gedlZ19Li_eKe93ek2PxzygKyqQYaBHLbnNBQbEs1CMR4WXVaqfeAEV-mgH6m6LupsPhSd8rRSfB-_9NqRrz9__CBz5mKYjMGFr-lqodCSe2H8eTQeI7TSiWInX_PQopMDgKF4FZMjDX2kO28LuzCZOXPgmCXF_h28CMQRtwNjFHreK10NY4a2z5O5auz0IJbhsA7W3K7OpNKRFlCFoMMFNUKxk50J9uFTGjN2PVs8QWUTza0Gzw_PwAjBovyPR9rraUbSKPmIZhjkWVZ5w-519z0obu_sWIruYx3hrV1Irmg9ZPGcEtMG3dEkSYVf2gTSqkdrPK-grLnMa7bTM0i8_3cpaoOpRc5xjdwgrnzXDApt5B5nGPl50Aoy83t-qvNy2H8r1-5irIwbThCI0FjOaPQk8ar4Pn1kBtlcuYdvBfZYn5Dku9AkqsXMF1YHdo0nZIQFhBS5igEokvd13fPjO8AFY2s5Hw99_3jIXUAhrWdR4-sDuqhCCugRf_vrVlAAd3zHWlNERJemyDvC9ThTuz3qt_-y-RcYv965h929I4W2m_x1EXj1xqcDkOfYOo8eMVziBCPqVUMlwN6bZc35cae5uvpO5hF6pGbY2QxKgMepIOG0DyrIBOh4FiCUvqtG6_i1Qytfcd565NWfh1zenaTmFVtB4HxEzeMxXedVdDUUflWSRJk5HKytZ5fyApMkO5Y7VF773O4HfGW4IhO1mhC640gQtzb5oeMwfk2dXJKJnHSvwnkp2uk3D0297XsYZikYb-eqhq5xJPpYpTQWuVKTeQPhqvxILrQF7TJ1-nk-rsiPncabTzdooYjbC-Yledb04b7hhp4ndFrwSFvsJkKvpfHJlLE55c8zP8Bd3RjO5VomjnXk4KJwBqZ2riH48VDw73Oj1KlEDfIsC-b43bRLZpaK9x14Lvz6lkkgAHcwUWau1XInQpc1S5tSPaj3K3gQuJEo9FYvX3x5q9ZgJQcc1Yemew9WxnEeuV7xqOcqpQLur9jB2TEzd5duLJW_ExscLyxx_JDrpLHP_cm7xymzeS_3evv1NggeaBN7BNtocu2u5wTdSQK3PaRkq7GK-1V6FcPdOXOjKuFAm2KCcZTe40KJ0yIs-8xNChB74Q4VKO5OqiG3xunwe4chAz1bXyRtUnpG6VTs75qn4tuIdGIxZByUWVvmJICRdlvQdWTEt2CoXuQE9Yy3d1ZizT-pljl0zXjK8FyFhkDQX0ENMZCuBKM63Ro99akEEJa_8JCssO-_mctq-Djaamt_hdz1Mz57FdLd1nfUFyZw_Z0FByhfJ6ilD__CkwoF9boz36UC0ZjZORueyO3wpzVJ4-qINBiluZUz9C-JePbx4MJ3UcTYhZV9ibms7HapnVXhuLas3hzOqEIOMJF1mJ_0000]--></g></svg>