<?xml version="1.0" encoding="us-ascii" standalone="no"?><svg xmlns="http://www.w3.org/2000/svg" xmlns:xlink="http://www.w3.org/1999/xlink" contentStyleType="text/css" height="1410px" preserveAspectRatio="none" style="width:484px;height:1410px;background:#FFFFFF;" version="1.1" viewBox="0 0 484 1410" width="484px" zoomAndPan="magnify"><defs/><g><ellipse cx="202" cy="20" fill="#222222" rx="10" ry="10" style="stroke:#222222;stroke-width:1.0;"/><polygon fill="#F1F1F1" points="150.5,157.0781,253.5,157.0781,265.5,169.0781,253.5,181.0781,150.5,181.0781,138.5,169.0781,150.5,157.0781" style="stroke:#181818;stroke-width:0.5;"/><text fill="#000000" font-family="sans-serif" font-size="16" lengthAdjust="spacing" textLength="103" x="150.5" y="175.7031">SSN - VR &gt; 1?</text><text fill="#000000" font-family="sans-serif" font-size="16" lengthAdjust="spacing" textLength="26" x="112.5" y="165.0625">ano</text><text fill="#000000" font-family="sans-serif" font-size="16" lengthAdjust="spacing" textLength="17" x="265.5" y="165.0625">ne</text><rect fill="#F1F1F1" height="62.5625" rx="12.5" ry="12.5" style="stroke:#181818;stroke-width:0.5;" width="118" x="38.5" y="191.0781"/><text fill="#000000" font-family="sans-serif" font-size="16" lengthAdjust="spacing" textLength="98" x="48.5" y="218.3438">Nastala chyba</text><text fill="#000000" font-family="sans-serif" font-size="16" lengthAdjust="spacing" textLength="66" x="60.5" y="239.625">sekvence</text><rect fill="#F1F1F1" height="41.2813" rx="12.5" ry="12.5" style="stroke:#181818;stroke-width:0.5;" width="173" x="11" y="288.6406"/><text fill="#000000" font-family="sans-serif" font-size="16" lengthAdjust="spacing" textLength="153" x="21" y="315.9063">po&#353;li posledn&#237; stav VR</text><rect fill="#F1F1F1" height="62.5625" rx="12.5" ry="12.5" style="stroke:#181818;stroke-width:0.5;" width="126" x="34.5" y="364.9219"/><text fill="#000000" font-family="sans-serif" font-size="16" lengthAdjust="spacing" textLength="106" x="44.5" y="392.1875">ode&#353;li S-form&#225;t</text><text fill="#000000" font-family="sans-serif" font-size="16" lengthAdjust="spacing" textLength="102" x="44.5" y="413.4688">session.send()</text><rect fill="#F1F1F1" height="41.2813" rx="12.5" ry="12.5" style="stroke:#181818;stroke-width:0.5;" width="118" x="38.5" y="462.4844"/><text fill="#000000" font-family="sans-serif" font-size="16" lengthAdjust="spacing" textLength="98" x="48.5" y="489.75">ukon&#269;i spojen&#237;</text><rect fill="#F1F1F1" height="41.2813" rx="12.5" ry="12.5" style="stroke:#181818;stroke-width:0.5;" width="60" x="276.5" y="191.0781"/><text fill="#000000" font-family="sans-serif" font-size="16" lengthAdjust="spacing" textLength="40" x="286.5" y="218.3438">VR++</text><rect fill="#F1F1F1" height="83.8438" rx="12.5" ry="12.5" style="stroke:#181818;stroke-width:0.5;" width="155" x="229" y="267.3594"/><text fill="#000000" font-family="sans-serif" font-size="16" lengthAdjust="spacing" textLength="111" x="239" y="294.625">odstra&#328; v&#353;echny</text><text fill="#000000" font-family="sans-serif" font-size="16" lengthAdjust="spacing" textLength="115" x="239" y="315.9063">potvrzen&#233; r&#225;mce</text><text fill="#000000" font-family="sans-serif" font-size="16" lengthAdjust="spacing" textLength="135" x="239" y="337.1875">s hodnotou &lt;= RSN</text><rect fill="#F1F1F1" height="62.5625" rx="12.5" ry="12.5" style="stroke:#181818;stroke-width:0.5;" width="156" x="228.5" y="386.2031"/><text fill="#000000" font-family="sans-serif" font-size="16" lengthAdjust="spacing" textLength="136" x="238.5" y="413.4688">ode&#353;li data z r&#225;mce</text><text fill="#000000" font-family="sans-serif" font-size="16" lengthAdjust="spacing" textLength="122" x="242.5" y="434.75">do MQTT brokeru</text><rect fill="#F1F1F1" height="62.5625" rx="12.5" ry="12.5" style="stroke:#181818;stroke-width:0.5;" width="126" x="243.5" y="554.9688"/><text fill="#000000" font-family="sans-serif" font-size="16" lengthAdjust="spacing" textLength="106" x="253.5" y="582.2344">ode&#353;li S-form&#225;t</text><text fill="#000000" font-family="sans-serif" font-size="16" lengthAdjust="spacing" textLength="102" x="253.5" y="603.5156">session.send()</text><polygon fill="#F1F1F1" points="216,483.7656,397,483.7656,409,505.0469,397,526.3281,216,526.3281,204,505.0469,216,483.7656" style="stroke:#181818;stroke-width:0.5;"/><text fill="#000000" font-family="sans-serif" font-size="16" lengthAdjust="spacing" textLength="26" x="310.5" y="543.5938">ano</text><text fill="#000000" font-family="sans-serif" font-size="16" lengthAdjust="spacing" textLength="167" x="216" y="501.0313">po&#269;et p&#345;ijat&#253;ch r&#225;mc&#367; ve</text><text fill="#000000" font-family="sans-serif" font-size="16" lengthAdjust="spacing" textLength="177" x="220" y="522.3125">vyrovn&#225;vac&#237; pam&#283;ti &gt;= w?</text><text fill="#000000" font-family="sans-serif" font-size="16" lengthAdjust="spacing" textLength="17" x="409" y="501.0313">ne</text><polygon fill="#F1F1F1" points="306.5,637.5313,318.5,649.5313,306.5,661.5313,294.5,649.5313,306.5,637.5313" style="stroke:#181818;stroke-width:0.5;"/><polygon fill="#F1F1F1" points="202,667.5313,214,679.5313,202,691.5313,190,679.5313,202,667.5313" style="stroke:#181818;stroke-width:0.5;"/><polygon fill="#F1F1F1" points="145.5,104.4375,258.5,104.4375,270.5,116.4375,258.5,128.4375,145.5,128.4375,133.5,116.4375,145.5,104.4375" style="stroke:#181818;stroke-width:0.5;"/><text fill="#000000" font-family="sans-serif" font-size="16" lengthAdjust="spacing" textLength="26" x="206" y="145.7031">ano</text><text fill="#000000" font-family="sans-serif" font-size="16" lengthAdjust="spacing" textLength="113" x="145.5" y="123.0625">apdu = I-form&#225;t?</text><text fill="#000000" font-family="sans-serif" font-size="16" lengthAdjust="spacing" textLength="17" x="270.5" y="112.4219">ne</text><polygon fill="#F1F1F1" points="202,711.5313,214,723.5313,202,735.5313,190,723.5313,202,711.5313" style="stroke:#181818;stroke-width:0.5;"/><rect fill="#F1F1F1" height="83.8438" rx="12.5" ry="12.5" style="stroke:#181818;stroke-width:0.5;" width="155" x="124.5" y="809.9688"/><text fill="#000000" font-family="sans-serif" font-size="16" lengthAdjust="spacing" textLength="111" x="134.5" y="837.2344">odstra&#328; v&#353;echny</text><text fill="#000000" font-family="sans-serif" font-size="16" lengthAdjust="spacing" textLength="115" x="134.5" y="858.5156">potvrzen&#233; r&#225;mce</text><text fill="#000000" font-family="sans-serif" font-size="16" lengthAdjust="spacing" textLength="135" x="134.5" y="879.7969">s hodnotou &lt;= RSN</text><polygon fill="#F1F1F1" points="141.5,757.3281,262.5,757.3281,274.5,769.3281,262.5,781.3281,141.5,781.3281,129.5,769.3281,141.5,757.3281" style="stroke:#181818;stroke-width:0.5;"/><text fill="#000000" font-family="sans-serif" font-size="16" lengthAdjust="spacing" textLength="26" x="206" y="798.5938">ano</text><text fill="#000000" font-family="sans-serif" font-size="16" lengthAdjust="spacing" textLength="121" x="141.5" y="775.9531">apdu = S-form&#225;t?</text><text fill="#000000" font-family="sans-serif" font-size="16" lengthAdjust="spacing" textLength="17" x="274.5" y="765.3125">ne</text><polygon fill="#F1F1F1" points="202,913.8125,214,925.8125,202,937.8125,190,925.8125,202,913.8125" style="stroke:#181818;stroke-width:0.5;"/><rect fill="#F1F1F1" height="62.5625" rx="12.5" ry="12.5" style="stroke:#181818;stroke-width:0.5;" width="125" x="139.5" y="1064.8906"/><text fill="#000000" font-family="sans-serif" font-size="16" lengthAdjust="spacing" textLength="105" x="149.5" y="1092.1563">vytvo&#345; odpove&#271;</text><text fill="#000000" font-family="sans-serif" font-size="16" lengthAdjust="spacing" textLength="90" x="153.5" y="1113.4375">TESTFR con</text><rect fill="#F1F1F1" height="62.5625" rx="12.5" ry="12.5" style="stroke:#181818;stroke-width:0.5;" width="128" x="138" y="1162.4531"/><text fill="#000000" font-family="sans-serif" font-size="16" lengthAdjust="spacing" textLength="108" x="148" y="1189.7188">ode&#353;li odpov&#283;&#271;</text><text fill="#000000" font-family="sans-serif" font-size="16" lengthAdjust="spacing" textLength="102" x="148" y="1211">session.send()</text><polygon fill="#F1F1F1" points="128.5,1012.25,275.5,1012.25,287.5,1024.25,275.5,1036.25,128.5,1036.25,116.5,1024.25,128.5,1012.25" style="stroke:#181818;stroke-width:0.5;"/><text fill="#000000" font-family="sans-serif" font-size="16" lengthAdjust="spacing" textLength="26" x="206" y="1053.5156">ano</text><text fill="#000000" font-family="sans-serif" font-size="16" lengthAdjust="spacing" textLength="147" x="128.5" y="1030.875">apdu = TESTFR act?</text><text fill="#000000" font-family="sans-serif" font-size="16" lengthAdjust="spacing" textLength="17" x="287.5" y="1020.2344">ne</text><polygon fill="#F1F1F1" points="202,1245.0156,214,1257.0156,202,1269.0156,190,1257.0156,202,1245.0156" style="stroke:#181818;stroke-width:0.5;"/><polygon fill="#F1F1F1" points="141.5,959.6094,262.5,959.6094,274.5,971.6094,262.5,983.6094,141.5,983.6094,129.5,971.6094,141.5,959.6094" style="stroke:#181818;stroke-width:0.5;"/><text fill="#000000" font-family="sans-serif" font-size="16" lengthAdjust="spacing" textLength="26" x="206" y="1000.875">ano</text><text fill="#000000" font-family="sans-serif" font-size="16" lengthAdjust="spacing" textLength="121" x="141.5" y="978.2344">apdu = U-form&#225;t?</text><text fill="#000000" font-family="sans-serif" font-size="16" lengthAdjust="spacing" textLength="17" x="274.5" y="967.5938">ne</text><polygon fill="#F1F1F1" points="202,1289.0156,214,1301.0156,202,1313.0156,190,1301.0156,202,1289.0156" style="stroke:#181818;stroke-width:0.5;"/><polygon fill="#F1F1F1" points="115,51.7969,289,51.7969,301,63.7969,289,75.7969,115,75.7969,103,63.7969,115,51.7969" style="stroke:#181818;stroke-width:0.5;"/><text fill="#000000" font-family="sans-serif" font-size="16" lengthAdjust="spacing" textLength="26" x="206" y="93.0625">ano</text><text fill="#000000" font-family="sans-serif" font-size="16" lengthAdjust="spacing" textLength="174" x="115" y="70.4219">stav spojeni = Spustene?</text><text fill="#000000" font-family="sans-serif" font-size="16" lengthAdjust="spacing" textLength="17" x="301" y="59.7813">ne</text><polygon fill="#F1F1F1" points="202,1333.0156,214,1345.0156,202,1357.0156,190,1345.0156,202,1333.0156" style="stroke:#181818;stroke-width:0.5;"/><ellipse cx="202" cy="1388.0156" fill="none" rx="11" ry="11" style="stroke:#222222;stroke-width:1.0;"/><ellipse cx="202" cy="1388.0156" fill="#222222" rx="6" ry="6" style="stroke:#222222;stroke-width:1.0;"/><line style="stroke:#181818;stroke-width:1.0;" x1="97.5" x2="97.5" y1="253.6406" y2="288.6406"/><polygon fill="#181818" points="93.5,278.6406,97.5,288.6406,101.5,278.6406,97.5,282.6406" style="stroke:#181818;stroke-width:1.0;"/><line style="stroke:#181818;stroke-width:1.0;" x1="97.5" x2="97.5" y1="329.9219" y2="364.9219"/><polygon fill="#181818" points="93.5,354.9219,97.5,364.9219,101.5,354.9219,97.5,358.9219" style="stroke:#181818;stroke-width:1.0;"/><line style="stroke:#181818;stroke-width:1.0;" x1="97.5" x2="97.5" y1="427.4844" y2="462.4844"/><polygon fill="#181818" points="93.5,452.4844,97.5,462.4844,101.5,452.4844,97.5,456.4844" style="stroke:#181818;stroke-width:1.0;"/><line style="stroke:#181818;stroke-width:1.0;" x1="306.5" x2="306.5" y1="232.3594" y2="267.3594"/><polygon fill="#181818" points="302.5,257.3594,306.5,267.3594,310.5,257.3594,306.5,261.3594" style="stroke:#181818;stroke-width:1.0;"/><line style="stroke:#181818;stroke-width:1.0;" x1="306.5" x2="306.5" y1="351.2031" y2="386.2031"/><polygon fill="#181818" points="302.5,376.2031,306.5,386.2031,310.5,376.2031,306.5,380.2031" style="stroke:#181818;stroke-width:1.0;"/><line style="stroke:#181818;stroke-width:1.0;" x1="306.5" x2="306.5" y1="526.3281" y2="554.9688"/><polygon fill="#181818" points="302.5,544.9688,306.5,554.9688,310.5,544.9688,306.5,548.9688" style="stroke:#181818;stroke-width:1.0;"/><line style="stroke:#181818;stroke-width:1.0;" x1="409" x2="421" y1="505.0469" y2="505.0469"/><polygon fill="#181818" points="417,571.6094,421,581.6094,425,571.6094,421,575.6094" style="stroke:#181818;stroke-width:1.0;"/><line style="stroke:#181818;stroke-width:1.0;" x1="421" x2="421" y1="505.0469" y2="649.5313"/><line style="stroke:#181818;stroke-width:1.0;" x1="421" x2="318.5" y1="649.5313" y2="649.5313"/><polygon fill="#181818" points="328.5,645.5313,318.5,649.5313,328.5,653.5313,324.5,649.5313" style="stroke:#181818;stroke-width:1.0;"/><line style="stroke:#181818;stroke-width:1.0;" x1="306.5" x2="306.5" y1="617.5313" y2="637.5313"/><polygon fill="#181818" points="302.5,627.5313,306.5,637.5313,310.5,627.5313,306.5,631.5313" style="stroke:#181818;stroke-width:1.0;"/><line style="stroke:#181818;stroke-width:1.0;" x1="306.5" x2="306.5" y1="448.7656" y2="483.7656"/><polygon fill="#181818" points="302.5,473.7656,306.5,483.7656,310.5,473.7656,306.5,477.7656" style="stroke:#181818;stroke-width:1.0;"/><line style="stroke:#181818;stroke-width:1.0;" x1="138.5" x2="97.5" y1="169.0781" y2="169.0781"/><line style="stroke:#181818;stroke-width:1.0;" x1="97.5" x2="97.5" y1="169.0781" y2="191.0781"/><polygon fill="#181818" points="93.5,181.0781,97.5,191.0781,101.5,181.0781,97.5,185.0781" style="stroke:#181818;stroke-width:1.0;"/><line style="stroke:#181818;stroke-width:1.0;" x1="265.5" x2="306.5" y1="169.0781" y2="169.0781"/><line style="stroke:#181818;stroke-width:1.0;" x1="306.5" x2="306.5" y1="169.0781" y2="191.0781"/><polygon fill="#181818" points="302.5,181.0781,306.5,191.0781,310.5,181.0781,306.5,185.0781" style="stroke:#181818;stroke-width:1.0;"/><line style="stroke:#181818;stroke-width:1.0;" x1="97.5" x2="97.5" y1="503.7656" y2="679.5313"/><line style="stroke:#181818;stroke-width:1.0;" x1="97.5" x2="190" y1="679.5313" y2="679.5313"/><polygon fill="#181818" points="180,675.5313,190,679.5313,180,683.5313,184,679.5313" style="stroke:#181818;stroke-width:1.0;"/><line style="stroke:#181818;stroke-width:1.0;" x1="306.5" x2="306.5" y1="661.5313" y2="679.5313"/><line style="stroke:#181818;stroke-width:1.0;" x1="306.5" x2="214" y1="679.5313" y2="679.5313"/><polygon fill="#181818" points="224,675.5313,214,679.5313,224,683.5313,220,679.5313" style="stroke:#181818;stroke-width:1.0;"/><line style="stroke:#181818;stroke-width:1.0;" x1="202" x2="202" y1="128.4375" y2="157.0781"/><polygon fill="#181818" points="198,147.0781,202,157.0781,206,147.0781,202,151.0781" style="stroke:#181818;stroke-width:1.0;"/><line style="stroke:#181818;stroke-width:1.0;" x1="270.5" x2="440" y1="116.4375" y2="116.4375"/><polygon fill="#181818" points="436,418.625,440,428.625,444,418.625,440,422.625" style="stroke:#181818;stroke-width:1.0;"/><line style="stroke:#181818;stroke-width:1.0;" x1="440" x2="440" y1="116.4375" y2="723.5313"/><line style="stroke:#181818;stroke-width:1.0;" x1="440" x2="214" y1="723.5313" y2="723.5313"/><polygon fill="#181818" points="224,719.5313,214,723.5313,224,727.5313,220,723.5313" style="stroke:#181818;stroke-width:1.0;"/><line style="stroke:#181818;stroke-width:1.0;" x1="202" x2="202" y1="691.5313" y2="711.5313"/><polygon fill="#181818" points="198,701.5313,202,711.5313,206,701.5313,202,705.5313" style="stroke:#181818;stroke-width:1.0;"/><line style="stroke:#181818;stroke-width:1.0;" x1="202" x2="202" y1="781.3281" y2="809.9688"/><polygon fill="#181818" points="198,799.9688,202,809.9688,206,799.9688,202,803.9688" style="stroke:#181818;stroke-width:1.0;"/><line style="stroke:#181818;stroke-width:1.0;" x1="274.5" x2="289.5" y1="769.3281" y2="769.3281"/><polygon fill="#181818" points="285.5,841.8906,289.5,851.8906,293.5,841.8906,289.5,845.8906" style="stroke:#181818;stroke-width:1.0;"/><line style="stroke:#181818;stroke-width:1.0;" x1="289.5" x2="289.5" y1="769.3281" y2="925.8125"/><line style="stroke:#181818;stroke-width:1.0;" x1="289.5" x2="214" y1="925.8125" y2="925.8125"/><polygon fill="#181818" points="224,921.8125,214,925.8125,224,929.8125,220,925.8125" style="stroke:#181818;stroke-width:1.0;"/><line style="stroke:#181818;stroke-width:1.0;" x1="202" x2="202" y1="893.8125" y2="913.8125"/><polygon fill="#181818" points="198,903.8125,202,913.8125,206,903.8125,202,907.8125" style="stroke:#181818;stroke-width:1.0;"/><line style="stroke:#181818;stroke-width:1.0;" x1="202" x2="202" y1="735.5313" y2="757.3281"/><polygon fill="#181818" points="198,747.3281,202,757.3281,206,747.3281,202,751.3281" style="stroke:#181818;stroke-width:1.0;"/><line style="stroke:#181818;stroke-width:1.0;" x1="202" x2="202" y1="1127.4531" y2="1162.4531"/><polygon fill="#181818" points="198,1152.4531,202,1162.4531,206,1152.4531,202,1156.4531" style="stroke:#181818;stroke-width:1.0;"/><line style="stroke:#181818;stroke-width:1.0;" x1="202" x2="202" y1="1036.25" y2="1064.8906"/><polygon fill="#181818" points="198,1054.8906,202,1064.8906,206,1054.8906,202,1058.8906" style="stroke:#181818;stroke-width:1.0;"/><line style="stroke:#181818;stroke-width:1.0;" x1="287.5" x2="299.5" y1="1024.25" y2="1024.25"/><polygon fill="#181818" points="295.5,1134.9531,299.5,1144.9531,303.5,1134.9531,299.5,1138.9531" style="stroke:#181818;stroke-width:1.0;"/><line style="stroke:#181818;stroke-width:1.0;" x1="299.5" x2="299.5" y1="1024.25" y2="1257.0156"/><line style="stroke:#181818;stroke-width:1.0;" x1="299.5" x2="214" y1="1257.0156" y2="1257.0156"/><polygon fill="#181818" points="224,1253.0156,214,1257.0156,224,1261.0156,220,1257.0156" style="stroke:#181818;stroke-width:1.0;"/><line style="stroke:#181818;stroke-width:1.0;" x1="202" x2="202" y1="1225.0156" y2="1245.0156"/><polygon fill="#181818" points="198,1235.0156,202,1245.0156,206,1235.0156,202,1239.0156" style="stroke:#181818;stroke-width:1.0;"/><line style="stroke:#181818;stroke-width:1.0;" x1="202" x2="202" y1="983.6094" y2="1012.25"/><polygon fill="#181818" points="198,1002.25,202,1012.25,206,1002.25,202,1006.25" style="stroke:#181818;stroke-width:1.0;"/><line style="stroke:#181818;stroke-width:1.0;" x1="274.5" x2="309.5" y1="971.6094" y2="971.6094"/><polygon fill="#181818" points="305.5,1134.9531,309.5,1144.9531,313.5,1134.9531,309.5,1138.9531" style="stroke:#181818;stroke-width:1.0;"/><line style="stroke:#181818;stroke-width:1.0;" x1="309.5" x2="309.5" y1="971.6094" y2="1301.0156"/><line style="stroke:#181818;stroke-width:1.0;" x1="309.5" x2="214" y1="1301.0156" y2="1301.0156"/><polygon fill="#181818" points="224,1297.0156,214,1301.0156,224,1305.0156,220,1301.0156" style="stroke:#181818;stroke-width:1.0;"/><line style="stroke:#181818;stroke-width:1.0;" x1="202" x2="202" y1="1269.0156" y2="1289.0156"/><polygon fill="#181818" points="198,1279.0156,202,1289.0156,206,1279.0156,202,1283.0156" style="stroke:#181818;stroke-width:1.0;"/><line style="stroke:#181818;stroke-width:1.0;" x1="202" x2="202" y1="937.8125" y2="959.6094"/><polygon fill="#181818" points="198,949.6094,202,959.6094,206,949.6094,202,953.6094" style="stroke:#181818;stroke-width:1.0;"/><line style="stroke:#181818;stroke-width:1.0;" x1="202" x2="202" y1="75.7969" y2="104.4375"/><polygon fill="#181818" points="198,94.4375,202,104.4375,206,94.4375,202,98.4375" style="stroke:#181818;stroke-width:1.0;"/><line style="stroke:#181818;stroke-width:1.0;" x1="301" x2="458" y1="63.7969" y2="63.7969"/><polygon fill="#181818" points="454,716.25,458,726.25,462,716.25,458,720.25" style="stroke:#181818;stroke-width:1.0;"/><line style="stroke:#181818;stroke-width:1.0;" x1="458" x2="458" y1="63.7969" y2="1345.0156"/><line style="stroke:#181818;stroke-width:1.0;" x1="458" x2="214" y1="1345.0156" y2="1345.0156"/><polygon fill="#181818" points="224,1341.0156,214,1345.0156,224,1349.0156,220,1345.0156" style="stroke:#181818;stroke-width:1.0;"/><line style="stroke:#181818;stroke-width:1.0;" x1="202" x2="202" y1="1313.0156" y2="1333.0156"/><polygon fill="#181818" points="198,1323.0156,202,1333.0156,206,1323.0156,202,1327.0156" style="stroke:#181818;stroke-width:1.0;"/><line style="stroke:#181818;stroke-width:1.0;" x1="202" x2="202" y1="30" y2="51.7969"/><polygon fill="#181818" points="198,41.7969,202,51.7969,206,41.7969,202,45.7969" style="stroke:#181818;stroke-width:1.0;"/><line style="stroke:#181818;stroke-width:1.0;" x1="202" x2="202" y1="1357.0156" y2="1377.0156"/><polygon fill="#181818" points="198,1367.0156,202,1377.0156,206,1367.0156,202,1371.0156" style="stroke:#181818;stroke-width:1.0;"/><!--SRC=[hPA_Rjim4CPtFSLjjH6aG3fqQEfqQG9qg86AhYSlZ7I66Cjt14cni9-WIz0voAInGz0dw2JflKhv3op7Tee2rKGTVn_vtNTy9Pnq26yYErEafP5p-8XJMUJkXia9jKIuU1jP9usBr1HwOUN1Qhv3KZ00eGlhaF137ro613r9t8-W9QLEYq1yEf-ocLUbUuQilfOJOWZdC8xX2YwECG3lXZ9Scqj8iiMjd50eMPnvf0GlTv3cfimLQBOvfbGzmShgEEuWdEAA4LjF4x9ehM9wRP7INh_35ZEc-bvjUgsUjbkOMuGUOSVUE3uxsxl5EYERx-2R4fEC5Z0XpSwRPJZd9vYgd2SOQXOoJeaT5_1-0B4O7d6QIYTXkT64pbE6prz68xWrF4DJx1HjafhhUtIWcmTr9rtrEydMmkON-FP2y0l3dghIooJae-MyVdGAhWRmxNZm_nhQOJO1KDDeVxsZedMfyrh4Iw_bV-NRCN3eicFcwz_DxF6ZQp6wYK4cBmf21txXF3SFmAbcZ_MFC9gDDc6wFEIt8rZnzMChE3M2KuCuRFGKjsPsE-j_wrZ_0G00]--></g></svg>