<?xml version="1.0" encoding="us-ascii" standalone="no"?><svg xmlns="http://www.w3.org/2000/svg" xmlns:xlink="http://www.w3.org/1999/xlink" contentStyleType="text/css" height="779px" preserveAspectRatio="none" style="width:1000px;height:779px;background:#FFFFFF;" version="1.1" viewBox="0 0 1000 779" width="1000px" zoomAndPan="magnify"><defs/><g><rect fill="#FFBBBB" height="684.1113" style="stroke:#181818;stroke-width:1.0;" width="10" x="246" y="48.6211"/><rect fill="#DADBBB" height="45.9365" style="stroke:#181818;stroke-width:1.0;" width="10" x="482" y="92.2031"/><rect fill="#FFFFFF" height="34.291" style="stroke:#181818;stroke-width:1.0;" width="10" x="482" y="204.3672"/><rect fill="#FFFFFF" height="30" style="stroke:#181818;stroke-width:1.0;" width="10" x="482" y="315.8857"/><rect fill="#FFFFFF" height="30" style="stroke:#181818;stroke-width:1.0;" width="10" x="482" y="388.8223"/><rect fill="#FFFFFF" height="30" style="stroke:#181818;stroke-width:1.0;" width="10" x="482" y="450.1133"/><rect fill="#EEEEEE" height="496.7197" style="stroke:#181818;stroke-width:1.0;" width="10" x="760" y="138.1396"/><rect fill="#00FF00" height="34.291" style="stroke:#181818;stroke-width:1.0;" width="10" x="765" y="238.6582"/><rect fill="#00FF00" height="31.291" style="stroke:#181818;stroke-width:1.0;" width="10" x="765" y="551.9863"/><line style="stroke:#181818;stroke-width:0.5;stroke-dasharray:5.0,5.0;" x1="251" x2="251" y1="38.6211" y2="741.7324"/><line style="stroke:#181818;stroke-width:0.5;stroke-dasharray:5.0,5.0;" x1="487" x2="487" y1="38.6211" y2="741.7324"/><line style="stroke:#181818;stroke-width:0.5;stroke-dasharray:5.0,5.0;" x1="765" x2="765" y1="38.6211" y2="741.7324"/><rect fill="#E2E2F0" height="32.6211" rx="2.5" ry="2.5" style="stroke:#181818;stroke-width:0.5;" width="102" x="200" y="5"/><text fill="#000000" font-family="sans-serif" font-size="14" lengthAdjust="spacing" textLength="88" x="207" y="27.1074">ServerIEC104</text><rect fill="#E2E2F0" height="32.6211" rx="2.5" ry="2.5" style="stroke:#181818;stroke-width:0.5;" width="102" x="200" y="740.7324"/><text fill="#000000" font-family="sans-serif" font-size="14" lengthAdjust="spacing" textLength="88" x="207" y="762.8398">ServerIEC104</text><rect fill="#E2E2F0" height="32.6211" rx="2.5" ry="2.5" style="stroke:#181818;stroke-width:0.5;" width="106" x="434" y="5"/><text fill="#000000" font-family="sans-serif" font-size="14" lengthAdjust="spacing" textLength="92" x="441" y="27.1074">ClientManager</text><rect fill="#E2E2F0" height="32.6211" rx="2.5" ry="2.5" style="stroke:#181818;stroke-width:0.5;" width="106" x="434" y="740.7324"/><text fill="#000000" font-family="sans-serif" font-size="14" lengthAdjust="spacing" textLength="92" x="441" y="762.8398">ClientManager</text><rect fill="#E2E2F0" height="32.6211" rx="2.5" ry="2.5" style="stroke:#181818;stroke-width:0.5;" width="64" x="733" y="5"/><text fill="#000000" font-family="sans-serif" font-size="14" lengthAdjust="spacing" textLength="50" x="740" y="27.1074">Session</text><rect fill="#E2E2F0" height="32.6211" rx="2.5" ry="2.5" style="stroke:#181818;stroke-width:0.5;" width="64" x="733" y="740.7324"/><text fill="#000000" font-family="sans-serif" font-size="14" lengthAdjust="spacing" textLength="50" x="740" y="762.8398">Session</text><rect fill="#FFBBBB" height="684.1113" style="stroke:#181818;stroke-width:1.0;" width="10" x="246" y="48.6211"/><rect fill="#DADBBB" height="45.9365" style="stroke:#181818;stroke-width:1.0;" width="10" x="482" y="92.2031"/><rect fill="#FFFFFF" height="34.291" style="stroke:#181818;stroke-width:1.0;" width="10" x="482" y="204.3672"/><rect fill="#FFFFFF" height="30" style="stroke:#181818;stroke-width:1.0;" width="10" x="482" y="315.8857"/><rect fill="#FFFFFF" height="30" style="stroke:#181818;stroke-width:1.0;" width="10" x="482" y="388.8223"/><rect fill="#FFFFFF" height="30" style="stroke:#181818;stroke-width:1.0;" width="10" x="482" y="450.1133"/><rect fill="#EEEEEE" height="496.7197" style="stroke:#181818;stroke-width:1.0;" width="10" x="760" y="138.1396"/><rect fill="#00FF00" height="34.291" style="stroke:#181818;stroke-width:1.0;" width="10" x="765" y="238.6582"/><rect fill="#00FF00" height="31.291" style="stroke:#181818;stroke-width:1.0;" width="10" x="765" y="551.9863"/><polygon fill="#181818" points="470,88.2031,480,92.2031,470,96.2031,474,92.2031" style="stroke:#181818;stroke-width:1.0;"/><line style="stroke:#181818;stroke-width:1.0;" x1="256" x2="476" y1="92.2031" y2="92.2031"/><text fill="#000000" font-family="sans-serif" font-size="13" font-weight="bold" lengthAdjust="spacing" textLength="7" x="263" y="78.2949">1</text><text fill="#000000" font-family="sans-serif" font-size="13" lengthAdjust="spacing" textLength="156" x="274" y="69.6494">P&#345;&#237;choz&#237; spojen&#237; od klienta,</text><text fill="#000000" font-family="sans-serif" font-size="13" lengthAdjust="spacing" textLength="189" x="278" y="86.9404">vytvo&#345;en&#237; instance ClientManager</text><path d="M5,53.6211 L5,97.6211 L241,97.6211 L241,63.6211 L231,53.6211 L5,53.6211 " fill="#FEFFDD" style="stroke:#181818;stroke-width:0.5;"/><path d="M231,53.6211 L231,63.6211 L241,63.6211 L231,53.6211 " fill="#FEFFDD" style="stroke:#181818;stroke-width:0.5;"/><text fill="#000000" font-family="sans-serif" font-size="13" lengthAdjust="spacing" textLength="211" x="11" y="72.6494">Server naslouch&#225; na TCP portu 2404</text><text fill="#000000" font-family="sans-serif" font-size="13" lengthAdjust="spacing" textLength="205" x="15" y="89.9404">Po p&#345;&#237;choz&#237;m spojen&#237; naslouch&#225; d&#225;l</text><polygon fill="#181818" points="748,134.1396,758,138.1396,748,142.1396,752,138.1396" style="stroke:#181818;stroke-width:1.0;"/><line style="stroke:#181818;stroke-width:1.0;" x1="487" x2="754" y1="138.1396" y2="138.1396"/><text fill="#000000" font-family="sans-serif" font-size="13" font-weight="bold" lengthAdjust="spacing" textLength="7" x="494" y="132.877">2</text><text fill="#000000" font-family="sans-serif" font-size="13" lengthAdjust="spacing" textLength="151" x="505" y="132.877">Vytvo&#345;en&#237; instance spojen&#237;</text><path d="M775,108.2031 L775,152.2031 L993,152.2031 L993,118.2031 L983,108.2031 L775,108.2031 " fill="#FEFFDD" style="stroke:#181818;stroke-width:0.5;"/><path d="M983,108.2031 L983,118.2031 L993,118.2031 L983,108.2031 " fill="#FEFFDD" style="stroke:#181818;stroke-width:0.5;"/><text fill="#000000" font-family="sans-serif" font-size="13" lengthAdjust="spacing" textLength="135" x="781" y="127.2314">Spu&#353;t&#283;n&#237; metody read()</text><text fill="#000000" font-family="sans-serif" font-size="13" lengthAdjust="spacing" textLength="197" x="781" y="144.5225">metoda b&#283;&#382;&#237; v nekone&#269;n&#233; smy&#269;ce</text><polygon fill="#181818" points="503,200.3672,493,204.3672,503,208.3672,499,204.3672" style="stroke:#181818;stroke-width:1.0;"/><line style="stroke:#181818;stroke-width:1.0;" x1="497" x2="759" y1="204.3672" y2="204.3672"/><text fill="#000000" font-family="sans-serif" font-size="13" font-weight="bold" lengthAdjust="spacing" textLength="7" x="509" y="199.1045">3</text><text fill="#000000" font-family="sans-serif" font-size="13" lengthAdjust="spacing" textLength="210" x="520" y="199.1045">callback p&#345;ijat r&#225;mec STARTDT ACT</text><path d="M775,171.4307 L775,198.4307 L922,198.4307 L922,181.4307 L912,171.4307 L775,171.4307 " fill="#FEFFDD" style="stroke:#181818;stroke-width:0.5;"/><path d="M912,171.4307 L912,181.4307 L922,181.4307 L912,171.4307 " fill="#FEFFDD" style="stroke:#181818;stroke-width:0.5;"/><text fill="#000000" font-family="sans-serif" font-size="13" lengthAdjust="spacing" textLength="126" x="781" y="190.459">Aktualizace &#269;asova&#269;&#367;</text><path d="M124,162.7852 L124,206.7852 L477,206.7852 L477,172.7852 L467,162.7852 L124,162.7852 " fill="#FEFFDD" style="stroke:#181818;stroke-width:0.5;"/><path d="M467,162.7852 L467,172.7852 L477,172.7852 L467,162.7852 " fill="#FEFFDD" style="stroke:#181818;stroke-width:0.5;"/><text fill="#000000" font-family="sans-serif" font-size="13" lengthAdjust="spacing" textLength="332" x="130" y="181.8135">Zpracov&#225;n&#237; r&#225;mce, aktualizace stavu spojen&#237; na p&#345;ipojeno,</text><text fill="#000000" font-family="sans-serif" font-size="13" lengthAdjust="spacing" textLength="107" x="134" y="199.1045">generace odpov&#283;di</text><polygon fill="#181818" points="753,234.6582,763,238.6582,753,242.6582,757,238.6582" style="stroke:#181818;stroke-width:1.0;"/><line style="stroke:#181818;stroke-width:1.0;" x1="487" x2="759" y1="238.6582" y2="238.6582"/><text fill="#000000" font-family="sans-serif" font-size="13" font-weight="bold" lengthAdjust="spacing" textLength="7" x="494" y="233.3955">4</text><text fill="#000000" font-family="sans-serif" font-size="13" lengthAdjust="spacing" textLength="144" x="505" y="233.3955">Odpov&#283;&#271; STARTDT CON</text><path d="M780,217.3672 L780,244.3672 L946,244.3672 L946,227.3672 L936,217.3672 L780,217.3672 " fill="#FEFFDD" style="stroke:#181818;stroke-width:0.5;"/><path d="M936,217.3672 L936,227.3672 L946,227.3672 L936,217.3672 " fill="#FEFFDD" style="stroke:#181818;stroke-width:0.5;"/><text fill="#000000" font-family="sans-serif" font-size="13" lengthAdjust="spacing" textLength="145" x="786" y="236.3955">Odesl&#225;n&#237; metodou send()</text><polygon fill="#181818" points="498,268.9492,488,272.9492,498,276.9492,494,272.9492" style="stroke:#181818;stroke-width:1.0;"/><line style="stroke:#181818;stroke-width:1.0;stroke-dasharray:2.0,2.0;" x1="492" x2="759" y1="272.9492" y2="272.9492"/><text fill="#000000" font-family="sans-serif" font-size="13" font-weight="bold" lengthAdjust="spacing" textLength="7" x="504" y="267.6865">5</text><text fill="#000000" font-family="sans-serif" font-size="13" lengthAdjust="spacing" textLength="52" x="515" y="267.6865">odesl&#225;no</text><polygon fill="#181818" points="503,311.8857,493,315.8857,503,319.8857,499,315.8857" style="stroke:#181818;stroke-width:1.0;"/><line style="stroke:#181818;stroke-width:1.0;" x1="497" x2="759" y1="315.8857" y2="315.8857"/><text fill="#000000" font-family="sans-serif" font-size="13" font-weight="bold" lengthAdjust="spacing" textLength="7" x="509" y="310.623">6</text><text fill="#000000" font-family="sans-serif" font-size="13" lengthAdjust="spacing" textLength="193" x="520" y="310.623">callback p&#345;ijat r&#225;mec s daty I(0,0)</text><path d="M141,285.9492 L141,329.9492 L477,329.9492 L477,295.9492 L467,285.9492 L141,285.9492 " fill="#FEFFDD" style="stroke:#181818;stroke-width:0.5;"/><path d="M467,285.9492 L467,295.9492 L477,295.9492 L467,285.9492 " fill="#FEFFDD" style="stroke:#181818;stroke-width:0.5;"/><text fill="#000000" font-family="sans-serif" font-size="13" lengthAdjust="spacing" textLength="315" x="147" y="304.9775">Zpracov&#225;n&#237; r&#225;mce, u&#382;ite&#269;n&#225; data ulo&#382;ena do datab&#225;ze,</text><text fill="#000000" font-family="sans-serif" font-size="13" lengthAdjust="spacing" textLength="4" x="147" y="322.2686">&#160;</text><polygon fill="#181818" points="503,384.8223,493,388.8223,503,392.8223,499,388.8223" style="stroke:#181818;stroke-width:1.0;"/><line style="stroke:#181818;stroke-width:1.0;" x1="497" x2="759" y1="388.8223" y2="388.8223"/><text fill="#000000" font-family="sans-serif" font-size="13" font-weight="bold" lengthAdjust="spacing" textLength="7" x="509" y="383.5596">7</text><text fill="#000000" font-family="sans-serif" font-size="13" lengthAdjust="spacing" textLength="193" x="520" y="383.5596">callback p&#345;ijat r&#225;mec s daty I(1,0)</text><polygon fill="#181818" points="503,446.1133,493,450.1133,503,454.1133,499,450.1133" style="stroke:#181818;stroke-width:1.0;"/><line style="stroke:#181818;stroke-width:1.0;" x1="497" x2="759" y1="450.1133" y2="450.1133"/><text fill="#000000" font-family="sans-serif" font-size="13" font-weight="bold" lengthAdjust="spacing" textLength="7" x="509" y="444.8506">8</text><text fill="#000000" font-family="sans-serif" font-size="13" lengthAdjust="spacing" textLength="193" x="520" y="444.8506">callback p&#345;ijat r&#225;mec s daty I(2,0)</text><polygon fill="#181818" points="753,547.9863,763,551.9863,753,555.9863,757,551.9863" style="stroke:#181818;stroke-width:1.0;"/><line style="stroke:#181818;stroke-width:1.0;" x1="487" x2="759" y1="551.9863" y2="551.9863"/><text fill="#000000" font-family="sans-serif" font-size="13" font-weight="bold" lengthAdjust="spacing" textLength="7" x="494" y="546.7236">9</text><text fill="#000000" font-family="sans-serif" font-size="13" lengthAdjust="spacing" textLength="238" x="505" y="546.7236">Vypr&#353;el timeout t2, zasl&#225;n&#237; potvrzen&#237; S(2)</text><path d="M775,510.4043 L775,537.4043 L941,537.4043 L941,520.4043 L931,510.4043 L775,510.4043 " fill="#FEFFDD" style="stroke:#181818;stroke-width:0.5;"/><path d="M931,510.4043 L931,520.4043 L941,520.4043 L931,510.4043 " fill="#FEFFDD" style="stroke:#181818;stroke-width:0.5;"/><text fill="#000000" font-family="sans-serif" font-size="13" lengthAdjust="spacing" textLength="145" x="781" y="529.4326">Odesl&#225;n&#237; metodou send()</text><path d="M313,493.1133 L313,554.1133 L482,554.1133 L482,503.1133 L472,493.1133 L313,493.1133 " fill="#FEFFDD" style="stroke:#181818;stroke-width:0.5;"/><path d="M472,493.1133 L472,503.1133 L482,503.1133 L472,493.1133 " fill="#FEFFDD" style="stroke:#181818;stroke-width:0.5;"/><text fill="#000000" font-family="sans-serif" font-size="13" lengthAdjust="spacing" textLength="4" x="319" y="512.1416">&#160;</text><text fill="#000000" font-family="sans-serif" font-size="13" lengthAdjust="spacing" textLength="140" x="323" y="529.4326">nepos&#237;laj&#237; se &#382;&#225;dn&#225; data</text><text fill="#000000" font-family="sans-serif" font-size="13" lengthAdjust="spacing" textLength="4" x="319" y="546.7236">&#160;</text><polygon fill="#181818" points="498,579.2773,488,583.2773,498,587.2773,494,583.2773" style="stroke:#181818;stroke-width:1.0;"/><line style="stroke:#181818;stroke-width:1.0;stroke-dasharray:2.0,2.0;" x1="492" x2="759" y1="583.2773" y2="583.2773"/><text fill="#000000" font-family="sans-serif" font-size="13" font-weight="bold" lengthAdjust="spacing" textLength="14" x="504" y="578.0146">10</text><text fill="#000000" font-family="sans-serif" font-size="13" lengthAdjust="spacing" textLength="52" x="522" y="578.0146">odesl&#225;no</text><polygon fill="#181818" points="753,630.8594,763,634.8594,753,638.8594,757,634.8594" style="stroke:#181818;stroke-width:1.0;"/><line style="stroke:#181818;stroke-width:1.0;" x1="487" x2="759" y1="634.8594" y2="634.8594"/><text fill="#000000" font-family="sans-serif" font-size="13" font-weight="bold" lengthAdjust="spacing" textLength="14" x="494" y="629.5967">11</text><text fill="#000000" font-family="sans-serif" font-size="13" lengthAdjust="spacing" textLength="211" x="512" y="629.5967">Vypr&#353;el timeout t1, ukon&#269;en&#237; spojen&#237;</text><path d="M313,596.2773 L313,657.2773 L482,657.2773 L482,606.2773 L472,596.2773 L313,596.2773 " fill="#FEFFDD" style="stroke:#181818;stroke-width:0.5;"/><path d="M472,596.2773 L472,606.2773 L482,606.2773 L472,596.2773 " fill="#FEFFDD" style="stroke:#181818;stroke-width:0.5;"/><text fill="#000000" font-family="sans-serif" font-size="13" lengthAdjust="spacing" textLength="4" x="319" y="615.3057">&#160;</text><text fill="#000000" font-family="sans-serif" font-size="13" lengthAdjust="spacing" textLength="140" x="323" y="632.5967">nepos&#237;laj&#237; se &#382;&#225;dn&#225; data</text><text fill="#000000" font-family="sans-serif" font-size="13" lengthAdjust="spacing" textLength="4" x="319" y="649.8877">&#160;</text><polygon fill="#181818" points="498,682.4414,488,686.4414,498,690.4414,494,686.4414" style="stroke:#181818;stroke-width:1.0;"/><line style="stroke:#181818;stroke-width:1.0;stroke-dasharray:2.0,2.0;" x1="492" x2="764" y1="686.4414" y2="686.4414"/><text fill="#000000" font-family="sans-serif" font-size="13" font-weight="bold" lengthAdjust="spacing" textLength="14" x="504" y="681.1787">12</text><text fill="#000000" font-family="sans-serif" font-size="13" lengthAdjust="spacing" textLength="147" x="522" y="681.1787">smaz&#225;n&#237; instance spojen&#237;</text><line style="stroke:#A80036;stroke-width:2.0;" x1="756" x2="774" y1="677.4414" y2="695.4414"/><line style="stroke:#A80036;stroke-width:2.0;" x1="756" x2="774" y1="695.4414" y2="677.4414"/><polygon fill="#181818" points="267,716.7324,257,720.7324,267,724.7324,263,720.7324" style="stroke:#181818;stroke-width:1.0;"/><line style="stroke:#181818;stroke-width:1.0;stroke-dasharray:2.0,2.0;" x1="261" x2="486" y1="720.7324" y2="720.7324"/><text fill="#000000" font-family="sans-serif" font-size="13" font-weight="bold" lengthAdjust="spacing" textLength="14" x="273" y="715.4697">13</text><text fill="#000000" font-family="sans-serif" font-size="13" lengthAdjust="spacing" textLength="189" x="291" y="715.4697">smaz&#225;n&#237; instance ClientManager</text><path d="M99,699.4414 L99,726.4414 L241,726.4414 L241,709.4414 L231,699.4414 L99,699.4414 " fill="#FEFFDD" style="stroke:#181818;stroke-width:0.5;"/><path d="M231,699.4414 L231,709.4414 L241,709.4414 L231,699.4414 " fill="#FEFFDD" style="stroke:#181818;stroke-width:0.5;"/><text fill="#000000" font-family="sans-serif" font-size="13" lengthAdjust="spacing" textLength="121" x="105" y="718.4697">&#269;ek&#225; na nov&#233; spojen&#237;</text><line style="stroke:#A80036;stroke-width:2.0;" x1="478" x2="496" y1="711.7324" y2="729.7324"/><line style="stroke:#A80036;stroke-width:2.0;" x1="478" x2="496" y1="729.7324" y2="711.7324"/><!--SRC=[fLNDJjj04BxxAKRYK91I2I9EEI2b0IIajg0IzT2VmyIUWeczO-skBINl4FMCEFdO0-eRSB7zNXslGn934XNmQNSzE_FzpEvYQbcbyOYqbw2seHycg2nSaiv8dvqC3lOF0GqODs-53AAGbFs42gz8rp6-MuYRXIVPZ0bPDOdSqFCyz6sOeQLvRjWvFVqWd-VDv- -FsXbxS57T5lV-DK-BUp09tv2I0GSmTc7O-Q4WczYCgrlt9rJ6elAfZTHJB3KZ-cMXDwS92at4gNzTv3A4uU024jOsXUwXi9Ui5mp9idQyBBwoCIZoQCcfXHnsZll7ZbfxMHZEvUZ1rtN07-ju0QtFl2fY8_7EIKDGXrVNZc6ILhajx-gyCLaE9g09WzqzuUNc2AFohdgGtnae6hEYSgQAFs3YIJdpgRQZoVpS3n-ZQ8J-k1Odl44BkiXZyk5osFyoF1v2Vp3Se4WROtziKup2AGhbSeQ6CondrT-MKzyIZJvdHLuJgUlur05SsIYIPUcgCmwLctBT6LUaIDU172ISbNT1w6tpuxo9Adyls0pEFx_4XuzXBE8jUTOfoKGD0QSy2rnIOeMdoQPQ2R8cW5yZke40xGJETlSx-tjRPT-cQ5ezXDPrG5xdGqWZhXv8r0pOBOoAV4gYvsOftWJ-O0luZHNVKA_xcdhRpt6YgvmYiE8_fnPijmDJV3G-OPlfgUlGoztktd_snwfjqigA4ZR5VOGtzKL88ASt3nQEYJSRkl5vcxs4nu5qXrmFvSoXNrnDByMsekhZMp37PMASDlJNNO36QfuijZm1_ZrWQoduUJH_J7hhacr-1eJJkBdxbHo8Fy_BFlNVUxVczHguAtvZs_m3]--></g></svg>