<?xml version="1.0" encoding="us-ascii" standalone="no"?><svg xmlns="http://www.w3.org/2000/svg" xmlns:xlink="http://www.w3.org/1999/xlink" contentStyleType="text/css" height="3315px" preserveAspectRatio="none" style="width:2238px;height:3315px;background:#FFFFFF;" version="1.1" viewBox="0 0 2238 3315" width="2238.6px" zoomAndPan="magnify"><defs/><g><!--class ClientManager.ClientManager--><g id="elem_ClientManager.ClientManager"><rect codeLine="8" fill="#F1F1F1" height="1093.0969" id="ClientManager.ClientManager" rx="6.5" ry="6.5" style="stroke:#181818;stroke-width:1.3;" width="1180.4" x="18.2" y="815.1"/><ellipse cx="477.75" cy="856.7" fill="#ADD1B2" rx="28.6" ry="28.6" style="stroke:#181818;stroke-width:2.6;"/><path d="M484.9406,845.975 Q485.3469,845.4063 485.8344,845.1219 Q486.3219,844.8375 486.8906,844.8375 Q487.8656,844.8375 488.475,845.5281 Q489.0844,846.1781 489.0844,847.7625 L489.0844,851.5406 Q489.0844,853.125 488.475,853.8156 Q487.8656,854.5063 486.8906,854.5063 Q485.9969,854.5063 485.4688,853.9781 Q484.9406,853.4906 484.6563,852.15 Q484.5344,851.2156 484.0469,850.7281 Q483.1938,849.7531 481.6094,849.1844 Q480.025,848.6156 478.4,848.6156 Q476.4094,848.6156 474.7438,849.4688 Q473.1188,850.3219 471.8188,852.2719 Q470.5594,854.2219 470.5594,856.9031 L470.5594,859.7469 Q470.5594,862.9563 472.875,865.1094 Q475.1906,867.2219 479.3344,867.2219 Q481.7719,867.2219 483.4781,866.5719 Q484.4938,866.1656 485.5906,865.0281 Q486.2813,864.3375 486.6469,864.1344 Q487.0531,863.9313 487.5813,863.9313 Q488.4344,863.9313 489.0844,864.6219 Q489.775,865.2719 489.775,866.1656 Q489.775,867.0594 488.8813,868.1156 Q487.5813,869.6188 485.5094,870.4719 Q482.7063,871.65 479.3344,871.65 Q475.3938,871.65 472.2656,870.025 Q469.7063,868.725 467.9188,865.9625 Q466.1313,863.1594 466.1313,859.8281 L466.1313,856.8219 Q466.1313,853.3688 467.7156,850.4031 Q469.3406,847.3969 472.1844,845.8125 Q475.0281,844.1875 478.2375,844.1875 Q480.1469,844.1875 481.8125,844.6344 Q483.5188,845.0406 484.9406,845.975 Z " fill="#000000"/><text fill="#000000" font-family="sans-serif" font-size="36.4" lengthAdjust="spacing" textLength="239.2" x="531.05" y="871.7719">ClientManager</text><line style="stroke:#181818;stroke-width:1.3;" x1="20.8" x2="1196" y1="898.3" y2="898.3"/><rect fill="none" height="15.6" style="stroke:#C82930;stroke-width:2.6;" width="15.6" x="39" y="929.0074"/><text fill="#000000" font-family="sans-serif" font-size="36.4" lengthAdjust="spacing" textLength="119.6" x="70.2" y="947.9793">VR : int</text><rect fill="none" height="15.6" style="stroke:#C82930;stroke-width:2.6;" width="15.6" x="39" y="977.4223"/><text fill="#000000" font-family="sans-serif" font-size="36.4" lengthAdjust="spacing" textLength="117" x="70.2" y="996.3941">VS : int</text><rect fill="none" height="15.6" style="stroke:#C82930;stroke-width:2.6;" width="15.6" x="39" y="1025.8371"/><text fill="#000000" font-family="sans-serif" font-size="36.4" lengthAdjust="spacing" textLength="127.4" x="70.2" y="1044.809">ack : int</text><rect fill="none" height="15.6" style="stroke:#C82930;stroke-width:2.6;" width="15.6" x="39" y="1074.252"/><text fill="#000000" font-family="sans-serif" font-size="36.4" lengthAdjust="spacing" textLength="98.8" x="70.2" y="1093.2238">id : int</text><rect fill="none" height="15.6" style="stroke:#C82930;stroke-width:2.6;" width="15.6" x="39" y="1122.6668"/><text fill="#000000" font-family="sans-serif" font-size="36.4" lengthAdjust="spacing" textLength="101.4" x="70.2" y="1141.6387">ip : str</text><rect fill="none" height="15.6" style="stroke:#C82930;stroke-width:2.6;" width="15.6" x="39" y="1171.0816"/><text fill="#000000" font-family="sans-serif" font-size="36.4" lengthAdjust="spacing" textLength="163.8" x="70.2" y="1190.0535">name : str</text><rect fill="none" height="15.6" style="stroke:#C82930;stroke-width:2.6;" width="15.6" x="39" y="1219.4965"/><text fill="#000000" font-family="sans-serif" font-size="36.4" lengthAdjust="spacing" textLength="429" x="70.2" y="1238.4684">recv_buffer : PacketBuffer</text><rect fill="none" height="15.6" style="stroke:#C82930;stroke-width:2.6;" width="15.6" x="39" y="1267.9113"/><text fill="#000000" font-family="sans-serif" font-size="36.4" lengthAdjust="spacing" textLength="439.4" x="70.2" y="1286.8832">send_buffer : PacketBuffer</text><rect fill="none" height="15.6" style="stroke:#C82930;stroke-width:2.6;" width="15.6" x="39" y="1316.3262"/><text fill="#000000" font-family="sans-serif" font-size="36.4" lengthAdjust="spacing" textLength="369.2" x="70.2" y="1335.298">sessions : list[Session]</text><line style="stroke:#181818;stroke-width:1.3;" x1="20.8" x2="1196" y1="1354.8336" y2="1354.8336"/><ellipse cx="46.8" cy="1393.341" fill="#84BE84" rx="7.8" ry="7.8" style="stroke:#038048;stroke-width:2.6;"/><text fill="#000000" font-family="sans-serif" font-size="36.4" lengthAdjust="spacing" textLength="418.6" x="70.2" y="1404.5129">add_session() -&gt; Session</text><ellipse cx="46.8" cy="1441.7559" fill="#84BE84" rx="7.8" ry="7.8" style="stroke:#038048;stroke-width:2.6;"/><text fill="#000000" font-family="sans-serif" font-size="36.4" lengthAdjust="spacing" textLength="572" x="70.2" y="1452.9277">del_session(sess: Session) -&gt; bool</text><ellipse cx="46.8" cy="1490.1707" fill="#84BE84" rx="7.8" ry="7.8" style="stroke:#038048;stroke-width:2.6;"/><text fill="#000000" font-family="sans-serif" font-size="36.4" lengthAdjust="spacing" textLength="975" x="70.2" y="1501.3426">generate_i_frame(data: bytes, session: Session) -&gt; IFormat</text><ellipse cx="46.8" cy="1538.5855" fill="#84BE84" rx="7.8" ry="7.8" style="stroke:#038048;stroke-width:2.6;"/><text fill="#000000" font-family="sans-serif" font-size="36.4" lengthAdjust="spacing" textLength="798.2" x="70.2" y="1549.7574">generate_s_frame(session: Session) -&gt; SFormat</text><ellipse cx="46.8" cy="1587.0004" fill="#84BE84" rx="7.8" ry="7.8" style="stroke:#038048;stroke-width:2.6;"/><text fill="#000000" font-family="sans-serif" font-size="36.4" lengthAdjust="spacing" textLength="564.2" x="70.2" y="1598.1723">generate_startdt_act() -&gt; UFormat</text><ellipse cx="46.8" cy="1635.4152" fill="#84BE84" rx="7.8" ry="7.8" style="stroke:#038048;stroke-width:2.6;"/><text fill="#000000" font-family="sans-serif" font-size="36.4" lengthAdjust="spacing" textLength="574.6" x="70.2" y="1646.5871">generate_startdt_con() -&gt; UFormat</text><ellipse cx="46.8" cy="1683.8301" fill="#84BE84" rx="7.8" ry="7.8" style="stroke:#038048;stroke-width:2.6;"/><text fill="#000000" font-family="sans-serif" font-size="36.4" lengthAdjust="spacing" textLength="889.2" x="70.2" y="1695.002">handle_apdu(session: Session, apdu: Frame) -&gt; None</text><ellipse cx="46.8" cy="1732.2449" fill="#84BE84" rx="7.8" ry="7.8" style="stroke:#038048;stroke-width:2.6;"/><text fill="#000000" font-family="sans-serif" font-size="36.4" lengthAdjust="spacing" textLength="746.2" x="70.2" y="1743.4168">handle_timeout_t0(session: Session) -&gt; None</text><ellipse cx="46.8" cy="1780.6598" fill="#84BE84" rx="7.8" ry="7.8" style="stroke:#038048;stroke-width:2.6;"/><text fill="#000000" font-family="sans-serif" font-size="36.4" lengthAdjust="spacing" textLength="377" x="70.2" y="1791.8316">incrementVR() -&gt; None</text><ellipse cx="46.8" cy="1829.0746" fill="#84BE84" rx="7.8" ry="7.8" style="stroke:#038048;stroke-width:2.6;"/><text fill="#000000" font-family="sans-serif" font-size="36.4" lengthAdjust="spacing" textLength="374.4" x="70.2" y="1840.2465">incrementVS() -&gt; None</text><ellipse cx="46.8" cy="1877.4895" fill="#84BE84" rx="7.8" ry="7.8" style="stroke:#038048;stroke-width:2.6;"/><text fill="#000000" font-family="sans-serif" font-size="36.4" lengthAdjust="spacing" textLength="1112.8" x="70.2" y="1888.6613">update_state_machine_server(session: Session, fr: Frame) -&gt; None</text></g><!--class config_loader.ConfigLoader--><g id="elem_config_loader.ConfigLoader"><rect codeLine="30" fill="#F1F1F1" height="270.0445" id="config_loader.ConfigLoader" rx="6.5" ry="6.5" style="stroke:#181818;stroke-width:1.3;" width="514.8" x="1530.1" y="235.3"/><ellipse cx="1664.65" cy="276.9" fill="#ADD1B2" rx="28.6" ry="28.6" style="stroke:#181818;stroke-width:2.6;"/><path d="M1671.8406,266.175 Q1672.2469,265.6063 1672.7344,265.3219 Q1673.2219,265.0375 1673.7906,265.0375 Q1674.7656,265.0375 1675.375,265.7281 Q1675.9844,266.3781 1675.9844,267.9625 L1675.9844,271.7406 Q1675.9844,273.325 1675.375,274.0156 Q1674.7656,274.7063 1673.7906,274.7063 Q1672.8969,274.7063 1672.3688,274.1781 Q1671.8406,273.6906 1671.5563,272.35 Q1671.4344,271.4156 1670.9469,270.9281 Q1670.0938,269.9531 1668.5094,269.3844 Q1666.925,268.8156 1665.3,268.8156 Q1663.3094,268.8156 1661.6438,269.6688 Q1660.0188,270.5219 1658.7188,272.4719 Q1657.4594,274.4219 1657.4594,277.1031 L1657.4594,279.9469 Q1657.4594,283.1563 1659.775,285.3094 Q1662.0906,287.4219 1666.2344,287.4219 Q1668.6719,287.4219 1670.3781,286.7719 Q1671.3938,286.3656 1672.4906,285.2281 Q1673.1813,284.5375 1673.5469,284.3344 Q1673.9531,284.1313 1674.4813,284.1313 Q1675.3344,284.1313 1675.9844,284.8219 Q1676.675,285.4719 1676.675,286.3656 Q1676.675,287.2594 1675.7813,288.3156 Q1674.4813,289.8188 1672.4094,290.6719 Q1669.6063,291.85 1666.2344,291.85 Q1662.2938,291.85 1659.1656,290.225 Q1656.6063,288.925 1654.8188,286.1625 Q1653.0313,283.3594 1653.0313,280.0281 L1653.0313,277.0219 Q1653.0313,273.5688 1654.6156,270.6031 Q1656.2406,267.5969 1659.0844,266.0125 Q1661.9281,264.3875 1665.1375,264.3875 Q1667.0469,264.3875 1668.7125,264.8344 Q1670.4188,265.2406 1671.8406,266.175 Z " fill="#000000"/><text fill="#000000" font-family="sans-serif" font-size="36.4" lengthAdjust="spacing" textLength="223.6" x="1717.95" y="291.9719">ConfigLoader</text><line style="stroke:#181818;stroke-width:1.3;" x1="1532.7" x2="2042.3" y1="318.5" y2="318.5"/><ellipse cx="1558.7" cy="357.0074" fill="none" rx="7.8" ry="7.8" style="stroke:#038048;stroke-width:2.6;"/><text fill="#000000" font-family="sans-serif" font-size="36.4" lengthAdjust="spacing" textLength="192.4" x="1582.1" y="368.1793">config : Any</text><ellipse cx="1558.7" cy="405.4223" fill="none" rx="7.8" ry="7.8" style="stroke:#038048;stroke-width:2.6;"/><text fill="#000000" font-family="sans-serif" font-size="36.4" lengthAdjust="spacing" textLength="213.2" x="1582.1" y="416.5941">file_path : str</text><line style="stroke:#181818;stroke-width:1.3;" x1="1532.7" x2="2042.3" y1="436.1297" y2="436.1297"/><ellipse cx="1558.7" cy="474.6371" fill="#84BE84" rx="7.8" ry="7.8" style="stroke:#038048;stroke-width:2.6;"/><text fill="#000000" font-family="sans-serif" font-size="36.4" lengthAdjust="spacing" textLength="447.2" x="1582.1" y="485.809">load_config() -&gt; Any | None</text></g><!--class State.ConnectionState--><g id="elem_State.ConnectionState"><rect codeLine="35" fill="#F1F1F1" height="302.7578" id="State.ConnectionState" rx="6.5" ry="6.5" style="stroke:#181818;stroke-width:1.3;" width="535.6" x="1519.7" y="2242.5"/><ellipse cx="1639.95" cy="2300.4566" fill="#ADD1B2" rx="28.6" ry="28.6" style="stroke:#181818;stroke-width:2.6;"/><path d="M1647.1406,2289.7316 Q1647.5469,2289.1629 1648.0344,2288.8785 Q1648.5219,2288.5941 1649.0906,2288.5941 Q1650.0656,2288.5941 1650.675,2289.2848 Q1651.2844,2289.9348 1651.2844,2291.5191 L1651.2844,2295.2973 Q1651.2844,2296.8816 1650.675,2297.5723 Q1650.0656,2298.2629 1649.0906,2298.2629 Q1648.1969,2298.2629 1647.6688,2297.7348 Q1647.1406,2297.2473 1646.8563,2295.9066 Q1646.7344,2294.9723 1646.2469,2294.4848 Q1645.3938,2293.5098 1643.8094,2292.941 Q1642.225,2292.3723 1640.6,2292.3723 Q1638.6094,2292.3723 1636.9438,2293.2254 Q1635.3188,2294.0785 1634.0188,2296.0285 Q1632.7594,2297.9785 1632.7594,2300.6598 L1632.7594,2303.5035 Q1632.7594,2306.7129 1635.075,2308.866 Q1637.3906,2310.9785 1641.5344,2310.9785 Q1643.9719,2310.9785 1645.6781,2310.3285 Q1646.6938,2309.9223 1647.7906,2308.7848 Q1648.4813,2308.0941 1648.8469,2307.891 Q1649.2531,2307.6879 1649.7813,2307.6879 Q1650.6344,2307.6879 1651.2844,2308.3785 Q1651.975,2309.0285 1651.975,2309.9223 Q1651.975,2310.816 1651.0813,2311.8723 Q1649.7813,2313.3754 1647.7094,2314.2285 Q1644.9063,2315.4066 1641.5344,2315.4066 Q1637.5938,2315.4066 1634.4656,2313.7816 Q1631.9063,2312.4816 1630.1188,2309.7191 Q1628.3313,2306.916 1628.3313,2303.5848 L1628.3313,2300.5785 Q1628.3313,2297.1254 1629.9156,2294.1598 Q1631.5406,2291.1535 1634.3844,2289.5691 Q1637.2281,2287.9441 1640.4375,2287.9441 Q1642.3469,2287.9441 1644.0125,2288.391 Q1645.7188,2288.7973 1647.1406,2289.7316 Z " fill="#000000"/><text fill="#000000" font-family="sans-serif" font-size="31.2" font-style="italic" lengthAdjust="spacing" textLength="119.6" x="1769.95" y="2289.168">&#171;enum&#187;</text><text fill="#000000" font-family="sans-serif" font-size="36.4" lengthAdjust="spacing" textLength="273" x="1693.25" y="2336.2777">ConnectionState</text><line style="stroke:#181818;stroke-width:1.3;" x1="1522.3" x2="2052.7" y1="2358.4133" y2="2358.4133"/><rect fill="none" height="15.6" style="stroke:#C82930;stroke-width:2.6;" width="15.6" x="1540.5" y="2389.1207"/><text fill="#000000" font-family="sans-serif" font-size="36.4" lengthAdjust="spacing" textLength="91" x="1571.7" y="2408.0926">name</text><line style="stroke:#181818;stroke-width:1.3;" x1="1522.3" x2="2052.7" y1="2427.6281" y2="2427.6281"/><ellipse cx="1548.3" cy="2466.1355" fill="#84BE84" rx="7.8" ry="7.8" style="stroke:#038048;stroke-width:2.6;"/><text fill="#000000" font-family="sans-serif" font-size="36.4" lengthAdjust="spacing" textLength="275.6" x="1571.7" y="2477.3074">get_state() -&gt; str</text><ellipse cx="1548.3" cy="2514.5504" fill="#84BE84" rx="7.8" ry="7.8" style="stroke:#038048;stroke-width:2.6;"/><text fill="#000000" font-family="sans-serif" font-size="36.4" lengthAdjust="spacing" textLength="468" x="1571.7" y="2525.7223">set_state(state: str) -&gt; Enum</text></g><!--class IDataSharing.IDataSharing--><g id="elem_IDataSharing.IDataSharing"><rect codeLine="40" fill="#F1F1F1" height="415.2891" id="IDataSharing.IDataSharing" rx="6.5" ry="6.5" style="stroke:#181818;stroke-width:1.3;" width="704.6" x="1435.2" y="1181.7"/><ellipse cx="1669.85" cy="1223.3" fill="#ADD1B2" rx="28.6" ry="28.6" style="stroke:#181818;stroke-width:2.6;"/><path d="M1677.0406,1212.575 Q1677.4469,1212.0063 1677.9344,1211.7219 Q1678.4219,1211.4375 1678.9906,1211.4375 Q1679.9656,1211.4375 1680.575,1212.1281 Q1681.1844,1212.7781 1681.1844,1214.3625 L1681.1844,1218.1406 Q1681.1844,1219.725 1680.575,1220.4156 Q1679.9656,1221.1063 1678.9906,1221.1063 Q1678.0969,1221.1063 1677.5688,1220.5781 Q1677.0406,1220.0906 1676.7563,1218.75 Q1676.6344,1217.8156 1676.1469,1217.3281 Q1675.2938,1216.3531 1673.7094,1215.7844 Q1672.125,1215.2156 1670.5,1215.2156 Q1668.5094,1215.2156 1666.8438,1216.0688 Q1665.2188,1216.9219 1663.9188,1218.8719 Q1662.6594,1220.8219 1662.6594,1223.5031 L1662.6594,1226.3469 Q1662.6594,1229.5563 1664.975,1231.7094 Q1667.2906,1233.8219 1671.4344,1233.8219 Q1673.8719,1233.8219 1675.5781,1233.1719 Q1676.5938,1232.7656 1677.6906,1231.6281 Q1678.3813,1230.9375 1678.7469,1230.7344 Q1679.1531,1230.5313 1679.6813,1230.5313 Q1680.5344,1230.5313 1681.1844,1231.2219 Q1681.875,1231.8719 1681.875,1232.7656 Q1681.875,1233.6594 1680.9813,1234.7156 Q1679.6813,1236.2188 1677.6094,1237.0719 Q1674.8063,1238.25 1671.4344,1238.25 Q1667.4938,1238.25 1664.3656,1236.625 Q1661.8063,1235.325 1660.0188,1232.5625 Q1658.2313,1229.7594 1658.2313,1226.4281 L1658.2313,1223.4219 Q1658.2313,1219.9688 1659.8156,1217.0031 Q1661.4406,1213.9969 1664.2844,1212.4125 Q1667.1281,1210.7875 1670.3375,1210.7875 Q1672.2469,1210.7875 1673.9125,1211.2344 Q1675.6188,1211.6406 1677.0406,1212.575 Z " fill="#000000"/><text fill="#000000" font-family="sans-serif" font-size="36.4" lengthAdjust="spacing" textLength="213.2" x="1723.15" y="1238.3719">IDataSharing</text><line style="stroke:#181818;stroke-width:1.3;" x1="1437.8" x2="2137.2" y1="1264.9" y2="1264.9"/><line style="stroke:#181818;stroke-width:1.3;" x1="1437.8" x2="2137.2" y1="1285.7" y2="1285.7"/><text fill="#000000" font-family="sans-serif" font-size="36.4" font-style="italic" lengthAdjust="spacing" textLength="673.4" x="1450.8" y="1335.3793">connect(host, port, username, password)</text><text fill="#000000" font-family="sans-serif" font-size="36.4" font-style="italic" lengthAdjust="spacing" textLength="202.8" x="1450.8" y="1383.7941">disconnect()</text><text fill="#000000" font-family="sans-serif" font-size="36.4" font-style="italic" lengthAdjust="spacing" textLength="390" x="1450.8" y="1432.209">publish(topic, message)</text><text fill="#000000" font-family="sans-serif" font-size="36.4" font-style="italic" lengthAdjust="spacing" textLength="522.6" x="1450.8" y="1480.6238">save_data(topic, data, callback)</text><text fill="#000000" font-family="sans-serif" font-size="36.4" font-style="italic" lengthAdjust="spacing" textLength="335.4" x="1450.8" y="1529.0387">send_data(callback)</text><text fill="#000000" font-family="sans-serif" font-size="36.4" font-style="italic" lengthAdjust="spacing" textLength="418.6" x="1450.8" y="1577.4535">subscribe(topic, callback)</text></g><!--class MQTTProtocol.MQTTProtocol--><g id="elem_MQTTProtocol.MQTTProtocol"><rect codeLine="48" fill="#F1F1F1" height="463.7039" id="MQTTProtocol.MQTTProtocol" rx="6.5" ry="6.5" style="stroke:#181818;stroke-width:1.3;" width="865.8" x="1354.6" y="1688.7"/><ellipse cx="1656.85" cy="1730.3" fill="#ADD1B2" rx="28.6" ry="28.6" style="stroke:#181818;stroke-width:2.6;"/><path d="M1664.0406,1719.575 Q1664.4469,1719.0063 1664.9344,1718.7219 Q1665.4219,1718.4375 1665.9906,1718.4375 Q1666.9656,1718.4375 1667.575,1719.1281 Q1668.1844,1719.7781 1668.1844,1721.3625 L1668.1844,1725.1406 Q1668.1844,1726.725 1667.575,1727.4156 Q1666.9656,1728.1063 1665.9906,1728.1063 Q1665.0969,1728.1063 1664.5688,1727.5781 Q1664.0406,1727.0906 1663.7563,1725.75 Q1663.6344,1724.8156 1663.1469,1724.3281 Q1662.2938,1723.3531 1660.7094,1722.7844 Q1659.125,1722.2156 1657.5,1722.2156 Q1655.5094,1722.2156 1653.8438,1723.0688 Q1652.2188,1723.9219 1650.9188,1725.8719 Q1649.6594,1727.8219 1649.6594,1730.5031 L1649.6594,1733.3469 Q1649.6594,1736.5563 1651.975,1738.7094 Q1654.2906,1740.8219 1658.4344,1740.8219 Q1660.8719,1740.8219 1662.5781,1740.1719 Q1663.5938,1739.7656 1664.6906,1738.6281 Q1665.3813,1737.9375 1665.7469,1737.7344 Q1666.1531,1737.5313 1666.6813,1737.5313 Q1667.5344,1737.5313 1668.1844,1738.2219 Q1668.875,1738.8719 1668.875,1739.7656 Q1668.875,1740.6594 1667.9813,1741.7156 Q1666.6813,1743.2188 1664.6094,1744.0719 Q1661.8063,1745.25 1658.4344,1745.25 Q1654.4938,1745.25 1651.3656,1743.625 Q1648.8063,1742.325 1647.0188,1739.5625 Q1645.2313,1736.7594 1645.2313,1733.4281 L1645.2313,1730.4219 Q1645.2313,1726.9688 1646.8156,1724.0031 Q1648.4406,1720.9969 1651.2844,1719.4125 Q1654.1281,1717.7875 1657.3375,1717.7875 Q1659.2469,1717.7875 1660.9125,1718.2344 Q1662.6188,1718.6406 1664.0406,1719.575 Z " fill="#000000"/><text fill="#000000" font-family="sans-serif" font-size="36.4" lengthAdjust="spacing" textLength="239.2" x="1710.15" y="1745.3719">MQTTProtocol</text><line style="stroke:#181818;stroke-width:1.3;" x1="1357.2" x2="2217.8" y1="1771.9" y2="1771.9"/><line style="stroke:#181818;stroke-width:1.3;" x1="1357.2" x2="2217.8" y1="1792.7" y2="1792.7"/><ellipse cx="1383.2" cy="1831.2074" fill="#84BE84" rx="7.8" ry="7.8" style="stroke:#038048;stroke-width:2.6;"/><text fill="#000000" font-family="sans-serif" font-size="36.4" lengthAdjust="spacing" textLength="156" x="1406.6" y="1842.3793">connect()</text><ellipse cx="1383.2" cy="1879.6223" fill="#84BE84" rx="7.8" ry="7.8" style="stroke:#038048;stroke-width:2.6;"/><text fill="#000000" font-family="sans-serif" font-size="36.4" lengthAdjust="spacing" textLength="202.8" x="1406.6" y="1890.7941">disconnect()</text><ellipse cx="1383.2" cy="1928.0371" fill="#84BE84" rx="7.8" ry="7.8" style="stroke:#038048;stroke-width:2.6;"/><text fill="#000000" font-family="sans-serif" font-size="36.4" lengthAdjust="spacing" textLength="798.2" x="1406.6" y="1939.209">publish(topic: str, payload: bytes, qos: int, retain)</text><ellipse cx="1383.2" cy="1976.452" fill="#84BE84" rx="7.8" ry="7.8" style="stroke:#038048;stroke-width:2.6;"/><text fill="#000000" font-family="sans-serif" font-size="36.4" lengthAdjust="spacing" textLength="694.2" x="1406.6" y="1987.6238">save_data(topic: str, data: bytes, callback)</text><text fill="#000000" font-family="sans-serif" font-size="36.4" font-style="italic" lengthAdjust="spacing" textLength="335.4" x="1406.6" y="2036.0387">send_data(callback)</text><ellipse cx="1383.2" cy="2073.2816" fill="#84BE84" rx="7.8" ry="7.8" style="stroke:#038048;stroke-width:2.6;"/><text fill="#000000" font-family="sans-serif" font-size="36.4" lengthAdjust="spacing" textLength="478.4" x="1406.6" y="2084.4535">subscribe(topic: str, callback)</text><ellipse cx="1383.2" cy="2121.6965" fill="#84BE84" rx="7.8" ry="7.8" style="stroke:#038048;stroke-width:2.6;"/><text fill="#000000" font-family="sans-serif" font-size="36.4" lengthAdjust="spacing" textLength="366.6" x="1406.6" y="2132.8684">unsubscribe(topic: str)</text></g><!--class Packet_buffer.PacketBuffer--><g id="elem_Packet_buffer.PacketBuffer"><rect codeLine="57" fill="#F1F1F1" height="463.7039" id="Packet_buffer.PacketBuffer" rx="6.5" ry="6.5" style="stroke:#181818;stroke-width:1.3;" width="855.4" x="1359.8" y="627.9"/><ellipse cx="1671.15" cy="669.5" fill="#ADD1B2" rx="28.6" ry="28.6" style="stroke:#181818;stroke-width:2.6;"/><path d="M1678.3406,658.775 Q1678.7469,658.2063 1679.2344,657.9219 Q1679.7219,657.6375 1680.2906,657.6375 Q1681.2656,657.6375 1681.875,658.3281 Q1682.4844,658.9781 1682.4844,660.5625 L1682.4844,664.3406 Q1682.4844,665.925 1681.875,666.6156 Q1681.2656,667.3063 1680.2906,667.3063 Q1679.3969,667.3063 1678.8688,666.7781 Q1678.3406,666.2906 1678.0563,664.95 Q1677.9344,664.0156 1677.4469,663.5281 Q1676.5938,662.5531 1675.0094,661.9844 Q1673.425,661.4156 1671.8,661.4156 Q1669.8094,661.4156 1668.1438,662.2688 Q1666.5188,663.1219 1665.2188,665.0719 Q1663.9594,667.0219 1663.9594,669.7031 L1663.9594,672.5469 Q1663.9594,675.7563 1666.275,677.9094 Q1668.5906,680.0219 1672.7344,680.0219 Q1675.1719,680.0219 1676.8781,679.3719 Q1677.8938,678.9656 1678.9906,677.8281 Q1679.6813,677.1375 1680.0469,676.9344 Q1680.4531,676.7313 1680.9813,676.7313 Q1681.8344,676.7313 1682.4844,677.4219 Q1683.175,678.0719 1683.175,678.9656 Q1683.175,679.8594 1682.2813,680.9156 Q1680.9813,682.4188 1678.9094,683.2719 Q1676.1063,684.45 1672.7344,684.45 Q1668.7938,684.45 1665.6656,682.825 Q1663.1063,681.525 1661.3188,678.7625 Q1659.5313,675.9594 1659.5313,672.6281 L1659.5313,669.6219 Q1659.5313,666.1688 1661.1156,663.2031 Q1662.7406,660.1969 1665.5844,658.6125 Q1668.4281,656.9875 1671.6375,656.9875 Q1673.5469,656.9875 1675.2125,657.4344 Q1676.9188,657.8406 1678.3406,658.775 Z " fill="#000000"/><text fill="#000000" font-family="sans-serif" font-size="36.4" lengthAdjust="spacing" textLength="210.6" x="1724.45" y="684.5719">PacketBuffer</text><line style="stroke:#181818;stroke-width:1.3;" x1="1362.4" x2="2212.6" y1="711.1" y2="711.1"/><line style="stroke:#181818;stroke-width:1.3;" x1="1362.4" x2="2212.6" y1="731.9" y2="731.9"/><ellipse cx="1388.4" cy="770.4074" fill="#84BE84" rx="7.8" ry="7.8" style="stroke:#038048;stroke-width:2.6;"/><text fill="#000000" font-family="sans-serif" font-size="36.4" lengthAdjust="spacing" textLength="787.8" x="1411.8" y="781.5793">add_frame(frame_id: int, frame: Frame) -&gt; None</text><ellipse cx="1388.4" cy="818.8223" fill="#84BE84" rx="7.8" ry="7.8" style="stroke:#038048;stroke-width:2.6;"/><text fill="#000000" font-family="sans-serif" font-size="36.4" lengthAdjust="spacing" textLength="761.8" x="1411.8" y="829.9941">clear_frames_less_than(frame_id: int) -&gt; None</text><ellipse cx="1388.4" cy="867.2371" fill="#84BE84" rx="7.8" ry="7.8" style="stroke:#038048;stroke-width:2.6;"/><text fill="#000000" font-family="sans-serif" font-size="36.4" lengthAdjust="spacing" textLength="556.4" x="1411.8" y="878.409">get_frame(frame_id: int) -&gt; Frame</text><ellipse cx="1388.4" cy="915.652" fill="#84BE84" rx="7.8" ry="7.8" style="stroke:#038048;stroke-width:2.6;"/><text fill="#000000" font-family="sans-serif" font-size="36.4" lengthAdjust="spacing" textLength="452.4" x="1411.8" y="926.8238">get_list_from_buffer() -&gt; list</text><ellipse cx="1388.4" cy="964.0668" fill="#84BE84" rx="7.8" ry="7.8" style="stroke:#038048;stroke-width:2.6;"/><text fill="#000000" font-family="sans-serif" font-size="36.4" lengthAdjust="spacing" textLength="527.8" x="1411.8" y="975.2387">has_frame(frame_id: int) -&gt; bool</text><ellipse cx="1388.4" cy="1012.4816" fill="#84BE84" rx="7.8" ry="7.8" style="stroke:#038048;stroke-width:2.6;"/><text fill="#000000" font-family="sans-serif" font-size="36.4" lengthAdjust="spacing" textLength="265.2" x="1411.8" y="1023.6535">is_empty() -&gt; int</text><ellipse cx="1388.4" cy="1060.8965" fill="#84BE84" rx="7.8" ry="7.8" style="stroke:#038048;stroke-width:2.6;"/><text fill="#000000" font-family="sans-serif" font-size="36.4" lengthAdjust="spacing" textLength="605.8" x="1411.8" y="1072.0684">remove_frame(frame_id: int) -&gt; None</text></g><!--class Parser.Parser--><g id="elem_Parser.Parser"><rect codeLine="66" fill="#F1F1F1" height="173.2148" id="Parser.Parser" rx="6.5" ry="6.5" style="stroke:#181818;stroke-width:1.3;" width="1097.2" x="59.8" y="3112.2"/><ellipse cx="542.75" cy="3153.8" fill="#ADD1B2" rx="28.6" ry="28.6" style="stroke:#181818;stroke-width:2.6;"/><path d="M549.9406,3143.075 Q550.3469,3142.5063 550.8344,3142.2219 Q551.3219,3141.9375 551.8906,3141.9375 Q552.8656,3141.9375 553.475,3142.6281 Q554.0844,3143.2781 554.0844,3144.8625 L554.0844,3148.6406 Q554.0844,3150.225 553.475,3150.9156 Q552.8656,3151.6063 551.8906,3151.6063 Q550.9969,3151.6063 550.4688,3151.0781 Q549.9406,3150.5906 549.6563,3149.25 Q549.5344,3148.3156 549.0469,3147.8281 Q548.1938,3146.8531 546.6094,3146.2844 Q545.025,3145.7156 543.4,3145.7156 Q541.4094,3145.7156 539.7438,3146.5688 Q538.1188,3147.4219 536.8188,3149.3719 Q535.5594,3151.3219 535.5594,3154.0031 L535.5594,3156.8469 Q535.5594,3160.0563 537.875,3162.2094 Q540.1906,3164.3219 544.3344,3164.3219 Q546.7719,3164.3219 548.4781,3163.6719 Q549.4938,3163.2656 550.5906,3162.1281 Q551.2813,3161.4375 551.6469,3161.2344 Q552.0531,3161.0313 552.5813,3161.0313 Q553.4344,3161.0313 554.0844,3161.7219 Q554.775,3162.3719 554.775,3163.2656 Q554.775,3164.1594 553.8813,3165.2156 Q552.5813,3166.7188 550.5094,3167.5719 Q547.7063,3168.75 544.3344,3168.75 Q540.3938,3168.75 537.2656,3167.125 Q534.7063,3165.825 532.9188,3163.0625 Q531.1313,3160.2594 531.1313,3156.9281 L531.1313,3153.9219 Q531.1313,3150.4688 532.7156,3147.5031 Q534.3406,3144.4969 537.1844,3142.9125 Q540.0281,3141.2875 543.2375,3141.2875 Q545.1469,3141.2875 546.8125,3141.7344 Q548.5188,3142.1406 549.9406,3143.075 Z " fill="#000000"/><text fill="#000000" font-family="sans-serif" font-size="36.4" lengthAdjust="spacing" textLength="109.2" x="596.05" y="3168.8719">Parser</text><line style="stroke:#181818;stroke-width:1.3;" x1="62.4" x2="1154.4" y1="3195.4" y2="3195.4"/><line style="stroke:#181818;stroke-width:1.3;" x1="62.4" x2="1154.4" y1="3216.2" y2="3216.2"/><ellipse cx="88.4" cy="3254.7074" fill="#84BE84" rx="7.8" ry="7.8" style="stroke:#038048;stroke-width:2.6;"/><text fill="#000000" font-family="sans-serif" font-size="36.4" lengthAdjust="spacing" textLength="1029.6" x="111.8" y="3265.8793">parser(apdu, length: int) -&gt; IFormat | SFormat | UFormat | None</text></g><!--class server_async.ServerIEC104--><g id="elem_server_async.ServerIEC104"><rect codeLine="69" fill="#F1F1F1" height="705.7781" id="server_async.ServerIEC104" rx="6.5" ry="6.5" style="stroke:#181818;stroke-width:1.3;" width="910" x="153.4" y="18.2"/><ellipse cx="482.95" cy="59.8" fill="#ADD1B2" rx="28.6" ry="28.6" style="stroke:#181818;stroke-width:2.6;"/><path d="M490.1406,49.075 Q490.5469,48.5063 491.0344,48.2219 Q491.5219,47.9375 492.0906,47.9375 Q493.0656,47.9375 493.675,48.6281 Q494.2844,49.2781 494.2844,50.8625 L494.2844,54.6406 Q494.2844,56.225 493.675,56.9156 Q493.0656,57.6063 492.0906,57.6063 Q491.1969,57.6063 490.6688,57.0781 Q490.1406,56.5906 489.8563,55.25 Q489.7344,54.3156 489.2469,53.8281 Q488.3938,52.8531 486.8094,52.2844 Q485.225,51.7156 483.6,51.7156 Q481.6094,51.7156 479.9438,52.5688 Q478.3188,53.4219 477.0188,55.3719 Q475.7594,57.3219 475.7594,60.0031 L475.7594,62.8469 Q475.7594,66.0563 478.075,68.2094 Q480.3906,70.3219 484.5344,70.3219 Q486.9719,70.3219 488.6781,69.6719 Q489.6938,69.2656 490.7906,68.1281 Q491.4813,67.4375 491.8469,67.2344 Q492.2531,67.0313 492.7813,67.0313 Q493.6344,67.0313 494.2844,67.7219 Q494.975,68.3719 494.975,69.2656 Q494.975,70.1594 494.0813,71.2156 Q492.7813,72.7188 490.7094,73.5719 Q487.9063,74.75 484.5344,74.75 Q480.5938,74.75 477.4656,73.125 Q474.9063,71.825 473.1188,69.0625 Q471.3313,66.2594 471.3313,62.9281 L471.3313,59.9219 Q471.3313,56.4688 472.9156,53.5031 Q474.5406,50.4969 477.3844,48.9125 Q480.2281,47.2875 483.4375,47.2875 Q485.3469,47.2875 487.0125,47.7344 Q488.7188,48.1406 490.1406,49.075 Z " fill="#000000"/><text fill="#000000" font-family="sans-serif" font-size="36.4" lengthAdjust="spacing" textLength="228.8" x="536.25" y="74.8719">ServerIEC104</text><line style="stroke:#181818;stroke-width:1.3;" x1="156" x2="1060.8" y1="101.4" y2="101.4"/><rect fill="none" height="15.6" style="stroke:#C82930;stroke-width:2.6;" width="15.6" x="174.2" y="132.1074"/><text fill="#000000" font-family="sans-serif" font-size="36.4" lengthAdjust="spacing" textLength="514.8" x="205.4" y="151.0793">clients : dict[str, ClientManager]</text><rect fill="none" height="15.6" style="stroke:#C82930;stroke-width:2.6;" width="15.6" x="174.2" y="180.5223"/><text fill="#000000" font-family="sans-serif" font-size="36.4" lengthAdjust="spacing" textLength="478.4" x="205.4" y="199.4941">config_loader : ConfigLoader</text><rect fill="none" height="15.6" style="stroke:#C82930;stroke-width:2.6;" width="15.6" x="174.2" y="228.9371"/><text fill="#000000" font-family="sans-serif" font-size="36.4" lengthAdjust="spacing" textLength="101.4" x="205.4" y="247.909">ip : str</text><rect fill="none" height="15.6" style="stroke:#C82930;stroke-width:2.6;" width="15.6" x="174.2" y="277.352"/><text fill="#000000" font-family="sans-serif" font-size="36.4" lengthAdjust="spacing" textLength="163.8" x="205.4" y="296.3238">name : str</text><rect fill="none" height="15.6" style="stroke:#C82930;stroke-width:2.6;" width="15.6" x="174.2" y="325.7668"/><text fill="#000000" font-family="sans-serif" font-size="36.4" lengthAdjust="spacing" textLength="135.2" x="205.4" y="344.7387">port : int</text><line style="stroke:#181818;stroke-width:1.3;" x1="156" x2="1060.8" y1="364.2742" y2="364.2742"/><ellipse cx="182" cy="402.7816" fill="#84BE84" rx="7.8" ry="7.8" style="stroke:#038048;stroke-width:2.6;"/><text fill="#000000" font-family="sans-serif" font-size="36.4" lengthAdjust="spacing" textLength="468" x="205.4" y="413.9535">check_alive_clients() -&gt; bool</text><ellipse cx="182" cy="451.1965" fill="#84BE84" rx="7.8" ry="7.8" style="stroke:#038048;stroke-width:2.6;"/><text fill="#000000" font-family="sans-serif" font-size="36.4" lengthAdjust="spacing" textLength="252.2" x="205.4" y="462.3684">close() -&gt; None</text><ellipse cx="182" cy="499.6113" fill="#84BE84" rx="7.8" ry="7.8" style="stroke:#038048;stroke-width:2.6;"/><text fill="#000000" font-family="sans-serif" font-size="36.4" lengthAdjust="spacing" textLength="603.2" x="205.4" y="510.7832">handle_client(reader, writer) -&gt; None</text><ellipse cx="182" cy="548.0262" fill="#84BE84" rx="7.8" ry="7.8" style="stroke:#038048;stroke-width:2.6;"/><text fill="#000000" font-family="sans-serif" font-size="36.4" lengthAdjust="spacing" textLength="252.2" x="205.4" y="559.198">listen() -&gt; None</text><ellipse cx="182" cy="596.441" fill="#84BE84" rx="7.8" ry="7.8" style="stroke:#038048;stroke-width:2.6;"/><text fill="#000000" font-family="sans-serif" font-size="36.4" lengthAdjust="spacing" textLength="842.4" x="205.4" y="607.6129">load_params(config_loader: ConfigLoader) -&gt; tuple</text><ellipse cx="182" cy="644.8559" fill="#84BE84" rx="7.8" ry="7.8" style="stroke:#038048;stroke-width:2.6;"/><text fill="#000000" font-family="sans-serif" font-size="36.4" lengthAdjust="spacing" textLength="221" x="205.4" y="656.0277">run() -&gt; None</text><text fill="#000000" font-family="sans-serif" font-size="36.4" font-style="italic" lengthAdjust="spacing" textLength="249.6" x="205.4" y="704.4426">send() -&gt; None</text></g><!--class Session.Session--><g id="elem_Session.Session"><rect codeLine="83" fill="#F1F1F1" height="851.0227" id="Session.Session" rx="6.5" ry="6.5" style="stroke:#181818;stroke-width:1.3;" width="715" x="250.9" y="2171"/><ellipse cx="532.35" cy="2212.6" fill="#ADD1B2" rx="28.6" ry="28.6" style="stroke:#181818;stroke-width:2.6;"/><path d="M539.5406,2201.875 Q539.9469,2201.3063 540.4344,2201.0219 Q540.9219,2200.7375 541.4906,2200.7375 Q542.4656,2200.7375 543.075,2201.4281 Q543.6844,2202.0781 543.6844,2203.6625 L543.6844,2207.4406 Q543.6844,2209.025 543.075,2209.7156 Q542.4656,2210.4063 541.4906,2210.4063 Q540.5969,2210.4063 540.0688,2209.8781 Q539.5406,2209.3906 539.2563,2208.05 Q539.1344,2207.1156 538.6469,2206.6281 Q537.7938,2205.6531 536.2094,2205.0844 Q534.625,2204.5156 533,2204.5156 Q531.0094,2204.5156 529.3438,2205.3688 Q527.7188,2206.2219 526.4188,2208.1719 Q525.1594,2210.1219 525.1594,2212.8031 L525.1594,2215.6469 Q525.1594,2218.8563 527.475,2221.0094 Q529.7906,2223.1219 533.9344,2223.1219 Q536.3719,2223.1219 538.0781,2222.4719 Q539.0938,2222.0656 540.1906,2220.9281 Q540.8813,2220.2375 541.2469,2220.0344 Q541.6531,2219.8313 542.1813,2219.8313 Q543.0344,2219.8313 543.6844,2220.5219 Q544.375,2221.1719 544.375,2222.0656 Q544.375,2222.9594 543.4813,2224.0156 Q542.1813,2225.5188 540.1094,2226.3719 Q537.3063,2227.55 533.9344,2227.55 Q529.9938,2227.55 526.8656,2225.925 Q524.3063,2224.625 522.5188,2221.8625 Q520.7313,2219.0594 520.7313,2215.7281 L520.7313,2212.7219 Q520.7313,2209.2688 522.3156,2206.3031 Q523.9406,2203.2969 526.7844,2201.7125 Q529.6281,2200.0875 532.8375,2200.0875 Q534.7469,2200.0875 536.4125,2200.5344 Q538.1188,2200.9406 539.5406,2201.875 Z " fill="#000000"/><text fill="#000000" font-family="sans-serif" font-size="36.4" lengthAdjust="spacing" textLength="130" x="585.65" y="2227.6719">Session</text><line style="stroke:#181818;stroke-width:1.3;" x1="253.5" x2="963.3" y1="2254.2" y2="2254.2"/><rect fill="none" height="15.6" style="stroke:#C82930;stroke-width:2.6;" width="15.6" x="271.7" y="2284.9074"/><text fill="#000000" font-family="sans-serif" font-size="36.4" lengthAdjust="spacing" textLength="585" x="302.9" y="2303.8793">connection_state : ConnectionState</text><rect fill="none" height="15.6" style="stroke:#C82930;stroke-width:2.6;" width="15.6" x="271.7" y="2333.3223"/><text fill="#000000" font-family="sans-serif" font-size="36.4" lengthAdjust="spacing" textLength="98.8" x="302.9" y="2352.2941">id : int</text><rect fill="none" height="15.6" style="stroke:#C82930;stroke-width:2.6;" width="15.6" x="271.7" y="2381.7371"/><text fill="#000000" font-family="sans-serif" font-size="36.4" lengthAdjust="spacing" textLength="101.4" x="302.9" y="2400.709">ip : str</text><rect fill="none" height="15.6" style="stroke:#C82930;stroke-width:2.6;" width="15.6" x="271.7" y="2430.152"/><text fill="#000000" font-family="sans-serif" font-size="36.4" lengthAdjust="spacing" textLength="88.4" x="302.9" y="2449.1238">k : int</text><rect fill="none" height="15.6" style="stroke:#C82930;stroke-width:2.6;" width="15.6" x="271.7" y="2478.5668"/><text fill="#000000" font-family="sans-serif" font-size="36.4" lengthAdjust="spacing" textLength="163.8" x="302.9" y="2497.5387">name : str</text><rect fill="none" height="15.6" style="stroke:#C82930;stroke-width:2.6;" width="15.6" x="271.7" y="2526.9816"/><text fill="#000000" font-family="sans-serif" font-size="36.4" lengthAdjust="spacing" textLength="135.2" x="302.9" y="2545.9535">port : int</text><rect fill="none" height="15.6" style="stroke:#C82930;stroke-width:2.6;" width="15.6" x="271.7" y="2575.3965"/><text fill="#000000" font-family="sans-serif" font-size="36.4" lengthAdjust="spacing" textLength="642.2" x="302.9" y="2594.3684">transmission_state : TransmissionState</text><rect fill="none" height="15.6" style="stroke:#C82930;stroke-width:2.6;" width="15.6" x="271.7" y="2623.8113"/><text fill="#000000" font-family="sans-serif" font-size="36.4" lengthAdjust="spacing" textLength="223.6" x="302.9" y="2642.7832">timers : Timer</text><rect fill="none" height="15.6" style="stroke:#C82930;stroke-width:2.6;" width="15.6" x="271.7" y="2672.2262"/><text fill="#000000" font-family="sans-serif" font-size="36.4" lengthAdjust="spacing" textLength="93.6" x="302.9" y="2691.198">w : int</text><line style="stroke:#181818;stroke-width:1.3;" x1="253.5" x2="963.3" y1="2710.7336" y2="2710.7336"/><ellipse cx="279.5" cy="2749.241" fill="#84BE84" rx="7.8" ry="7.8" style="stroke:#038048;stroke-width:2.6;"/><text fill="#000000" font-family="sans-serif" font-size="36.4" lengthAdjust="spacing" textLength="345.8" x="302.9" y="2760.4129">delete_self() -&gt; None</text><ellipse cx="279.5" cy="2797.6559" fill="#84BE84" rx="7.8" ry="7.8" style="stroke:#038048;stroke-width:2.6;"/><text fill="#000000" font-family="sans-serif" font-size="36.4" lengthAdjust="spacing" textLength="410.8" x="302.9" y="2808.8277">get_all_instances() -&gt; list</text><ellipse cx="279.5" cy="2846.0707" fill="#84BE84" rx="7.8" ry="7.8" style="stroke:#038048;stroke-width:2.6;"/><text fill="#000000" font-family="sans-serif" font-size="36.4" lengthAdjust="spacing" textLength="647.4" x="302.9" y="2857.2426">get_instance(id_num: int) -&gt; Any | None</text><ellipse cx="279.5" cy="2894.4855" fill="#84BE84" rx="7.8" ry="7.8" style="stroke:#038048;stroke-width:2.6;"/><text fill="#000000" font-family="sans-serif" font-size="36.4" lengthAdjust="spacing" textLength="465.4" x="302.9" y="2905.6574">handle_messages() -&gt; None</text><ellipse cx="279.5" cy="2942.9004" fill="#84BE84" rx="7.8" ry="7.8" style="stroke:#038048;stroke-width:2.6;"/><text fill="#000000" font-family="sans-serif" font-size="36.4" lengthAdjust="spacing" textLength="582.4" x="302.9" y="2954.0723">send_frame(frame: Frame) -&gt; None</text><ellipse cx="279.5" cy="2991.3152" fill="#84BE84" rx="7.8" ry="7.8" style="stroke:#038048;stroke-width:2.6;"/><text fill="#000000" font-family="sans-serif" font-size="36.4" lengthAdjust="spacing" textLength="520" x="302.9" y="3002.4871">update_timestamp_t2() -&gt; None</text></g><!--class Timer.Timer--><g id="elem_Timer.Timer"><rect codeLine="100" fill="#F1F1F1" height="270.0445" id="Timer.Timer" rx="6.5" ry="6.5" style="stroke:#181818;stroke-width:1.3;" width="340.6" x="1617.2" y="2635.1"/><ellipse cx="1729.91" cy="2676.7" fill="#ADD1B2" rx="28.6" ry="28.6" style="stroke:#181818;stroke-width:2.6;"/><path d="M1737.1006,2665.975 Q1737.5069,2665.4063 1737.9944,2665.1219 Q1738.4819,2664.8375 1739.0506,2664.8375 Q1740.0256,2664.8375 1740.635,2665.5281 Q1741.2444,2666.1781 1741.2444,2667.7625 L1741.2444,2671.5406 Q1741.2444,2673.125 1740.635,2673.8156 Q1740.0256,2674.5063 1739.0506,2674.5063 Q1738.1569,2674.5063 1737.6288,2673.9781 Q1737.1006,2673.4906 1736.8163,2672.15 Q1736.6944,2671.2156 1736.2069,2670.7281 Q1735.3538,2669.7531 1733.7694,2669.1844 Q1732.185,2668.6156 1730.56,2668.6156 Q1728.5694,2668.6156 1726.9038,2669.4688 Q1725.2788,2670.3219 1723.9788,2672.2719 Q1722.7194,2674.2219 1722.7194,2676.9031 L1722.7194,2679.7469 Q1722.7194,2682.9563 1725.035,2685.1094 Q1727.3506,2687.2219 1731.4944,2687.2219 Q1733.9319,2687.2219 1735.6381,2686.5719 Q1736.6538,2686.1656 1737.7506,2685.0281 Q1738.4413,2684.3375 1738.8069,2684.1344 Q1739.2131,2683.9313 1739.7413,2683.9313 Q1740.5944,2683.9313 1741.2444,2684.6219 Q1741.935,2685.2719 1741.935,2686.1656 Q1741.935,2687.0594 1741.0413,2688.1156 Q1739.7413,2689.6188 1737.6694,2690.4719 Q1734.8663,2691.65 1731.4944,2691.65 Q1727.5538,2691.65 1724.4256,2690.025 Q1721.8663,2688.725 1720.0788,2685.9625 Q1718.2913,2683.1594 1718.2913,2679.8281 L1718.2913,2676.8219 Q1718.2913,2673.3688 1719.8756,2670.4031 Q1721.5006,2667.3969 1724.3444,2665.8125 Q1727.1881,2664.1875 1730.3975,2664.1875 Q1732.3069,2664.1875 1733.9725,2664.6344 Q1735.6788,2665.0406 1737.1006,2665.975 Z " fill="#000000"/><text fill="#000000" font-family="sans-serif" font-size="36.4" lengthAdjust="spacing" textLength="93.6" x="1782.69" y="2691.7719">Timer</text><line style="stroke:#181818;stroke-width:1.3;" x1="1619.8" x2="1955.2" y1="2718.3" y2="2718.3"/><rect fill="none" height="15.6" style="stroke:#C82930;stroke-width:2.6;" width="15.6" x="1638" y="2749.0074"/><text fill="#000000" font-family="sans-serif" font-size="36.4" lengthAdjust="spacing" textLength="189.8" x="1669.2" y="2767.9793">timeout : int</text><line style="stroke:#181818;stroke-width:1.3;" x1="1619.8" x2="1955.2" y1="2787.5148" y2="2787.5148"/><ellipse cx="1645.8" cy="2826.0223" fill="#84BE84" rx="7.8" ry="7.8" style="stroke:#038048;stroke-width:2.6;"/><text fill="#000000" font-family="sans-serif" font-size="36.4" lengthAdjust="spacing" textLength="273" x="1669.2" y="2837.1941">cancel() -&gt; None</text><ellipse cx="1645.8" cy="2874.4371" fill="#84BE84" rx="7.8" ry="7.8" style="stroke:#038048;stroke-width:2.6;"/><text fill="#000000" font-family="sans-serif" font-size="36.4" lengthAdjust="spacing" textLength="239.2" x="1669.2" y="2885.609">start() -&gt; None</text></g><!--class State.TransmissionState--><g id="elem_State.TransmissionState"><rect codeLine="105" fill="#F1F1F1" height="302.7578" id="State.TransmissionState" rx="6.5" ry="6.5" style="stroke:#181818;stroke-width:1.3;" width="535.6" x="1519.7" y="2996.5"/><ellipse cx="1625.39" cy="3054.4566" fill="#ADD1B2" rx="28.6" ry="28.6" style="stroke:#181818;stroke-width:2.6;"/><path d="M1632.5806,3043.7316 Q1632.9869,3043.1629 1633.4744,3042.8785 Q1633.9619,3042.5941 1634.5306,3042.5941 Q1635.5056,3042.5941 1636.115,3043.2848 Q1636.7244,3043.9348 1636.7244,3045.5191 L1636.7244,3049.2973 Q1636.7244,3050.8816 1636.115,3051.5723 Q1635.5056,3052.2629 1634.5306,3052.2629 Q1633.6369,3052.2629 1633.1088,3051.7348 Q1632.5806,3051.2473 1632.2963,3049.9066 Q1632.1744,3048.9723 1631.6869,3048.4848 Q1630.8338,3047.5098 1629.2494,3046.941 Q1627.665,3046.3723 1626.04,3046.3723 Q1624.0494,3046.3723 1622.3838,3047.2254 Q1620.7588,3048.0785 1619.4588,3050.0285 Q1618.1994,3051.9785 1618.1994,3054.6598 L1618.1994,3057.5035 Q1618.1994,3060.7129 1620.515,3062.866 Q1622.8306,3064.9785 1626.9744,3064.9785 Q1629.4119,3064.9785 1631.1181,3064.3285 Q1632.1338,3063.9223 1633.2306,3062.7848 Q1633.9213,3062.0941 1634.2869,3061.891 Q1634.6931,3061.6879 1635.2213,3061.6879 Q1636.0744,3061.6879 1636.7244,3062.3785 Q1637.415,3063.0285 1637.415,3063.9223 Q1637.415,3064.816 1636.5213,3065.8723 Q1635.2213,3067.3754 1633.1494,3068.2285 Q1630.3463,3069.4066 1626.9744,3069.4066 Q1623.0338,3069.4066 1619.9056,3067.7816 Q1617.3463,3066.4816 1615.5588,3063.7191 Q1613.7713,3060.916 1613.7713,3057.5848 L1613.7713,3054.5785 Q1613.7713,3051.1254 1615.3556,3048.1598 Q1616.9806,3045.1535 1619.8244,3043.5691 Q1622.6681,3041.9441 1625.8775,3041.9441 Q1627.7869,3041.9441 1629.4525,3042.391 Q1631.1588,3042.7973 1632.5806,3043.7316 Z " fill="#000000"/><text fill="#000000" font-family="sans-serif" font-size="31.2" font-style="italic" lengthAdjust="spacing" textLength="119.6" x="1768.91" y="3043.168">&#171;enum&#187;</text><text fill="#000000" font-family="sans-serif" font-size="36.4" lengthAdjust="spacing" textLength="304.2" x="1676.61" y="3090.2777">TransmissionState</text><line style="stroke:#181818;stroke-width:1.3;" x1="1522.3" x2="2052.7" y1="3112.4133" y2="3112.4133"/><rect fill="none" height="15.6" style="stroke:#C82930;stroke-width:2.6;" width="15.6" x="1540.5" y="3143.1207"/><text fill="#000000" font-family="sans-serif" font-size="36.4" lengthAdjust="spacing" textLength="153.4" x="1571.7" y="3162.0926">name: str</text><line style="stroke:#181818;stroke-width:1.3;" x1="1522.3" x2="2052.7" y1="3181.6281" y2="3181.6281"/><ellipse cx="1548.3" cy="3220.1355" fill="#84BE84" rx="7.8" ry="7.8" style="stroke:#038048;stroke-width:2.6;"/><text fill="#000000" font-family="sans-serif" font-size="36.4" lengthAdjust="spacing" textLength="275.6" x="1571.7" y="3231.3074">get_state() -&gt; str</text><ellipse cx="1548.3" cy="3268.5504" fill="#84BE84" rx="7.8" ry="7.8" style="stroke:#038048;stroke-width:2.6;"/><text fill="#000000" font-family="sans-serif" font-size="36.4" lengthAdjust="spacing" textLength="468" x="1571.7" y="3279.7223">set_state(state: str) -&gt; Enum</text></g><!--reverse link server_async.ServerIEC104 to config_loader.ConfigLoader--><g id="link_server_async.ServerIEC104_config_loader.ConfigLoader"><path codeLine="112" d="M1094.626,370.5 C1252.836,370.5 1393.496,370.5 1530.074,370.5 " fill="none" id="server_async.ServerIEC104-backto-config_loader.ConfigLoader" style="stroke:#181818;stroke-width:2.6;"/><polygon fill="#181818" points="1063.426,370.5,1079.026,380.9,1094.626,370.5,1079.026,360.1,1063.426,370.5" style="stroke:#181818;stroke-width:2.6;"/><text fill="#000000" font-family="sans-serif" font-size="33.8" lengthAdjust="spacing" textLength="18.2" x="1084.4567" y="407.9655">1</text><text fill="#000000" font-family="sans-serif" font-size="33.8" lengthAdjust="spacing" textLength="18.2" x="1491.4681" y="408.7082">1</text></g><!--reverse link ClientManager.ClientManager to MQTTProtocol.MQTTProtocol--><g id="link_ClientManager.ClientManager_MQTTProtocol.MQTTProtocol"><path codeLine="114" d="M1230.008,1797.9 C1282.346,1797.9 1303.484,1797.9 1354.158,1797.9 " fill="none" id="ClientManager.ClientManager-backto-MQTTProtocol.MQTTProtocol" style="stroke:#181818;stroke-width:2.6;"/><polygon fill="#181818" points="1198.808,1797.9,1214.408,1808.3,1230.008,1797.9,1214.408,1787.5,1198.808,1797.9" style="stroke:#181818;stroke-width:2.6;"/></g><!--link Packet_buffer.PacketBuffer to ClientManager.ClientManager--><g id="link_Packet_buffer.PacketBuffer_ClientManager.ClientManager"><path codeLine="115" d="M1359.306,998.842 C1307.28,998.842 1284.608,998.842 1230.736,998.842 " fill="none" id="Packet_buffer.PacketBuffer-to-ClientManager.ClientManager" style="stroke:#181818;stroke-width:2.6;"/><polygon fill="#181818" points="1199.536,998.842,1215.136,1009.242,1230.736,998.842,1215.136,988.442,1199.536,998.842" style="stroke:#181818;stroke-width:2.6;"/></g><!--reverse link ClientManager.ClientManager to Packet_buffer.PacketBuffer--><g id="link_ClientManager.ClientManager_Packet_buffer.PacketBuffer"><path codeLine="116" d="M1230.008,906.958 C1284.088,906.958 1306.942,906.958 1359.176,906.958 " fill="none" id="ClientManager.ClientManager-backto-Packet_buffer.PacketBuffer" style="stroke:#181818;stroke-width:2.6;"/><polygon fill="#181818" points="1198.808,906.958,1214.408,917.358,1230.008,906.958,1214.408,896.558,1198.808,906.958" style="stroke:#181818;stroke-width:2.6;"/></g><!--reverse link Session.Session to State.ConnectionState--><g id="link_Session.Session_State.ConnectionState"><path codeLine="117" d="M981.76,2393.3 C1159.652,2393.3 1355.432,2393.3 1519.206,2393.3 " fill="none" id="Session.Session-backto-State.ConnectionState" style="stroke:#181818;stroke-width:2.6;stroke-dasharray:1.0,3.0;"/><polygon fill="#181818" points="966.16,2393.3,989.56,2403.7,979.16,2393.3,989.56,2382.9,966.16,2393.3" style="stroke:#181818;stroke-width:2.6;"/></g><!--reverse link Session.Session to State.TransmissionState--><g id="link_Session.Session_State.TransmissionState"><path codeLine="118" d="M981.76,3008.85 C1159.652,3008.85 1355.432,3008.85 1519.206,3008.85 " fill="none" id="Session.Session-backto-State.TransmissionState" style="stroke:#181818;stroke-width:2.6;stroke-dasharray:1.0,3.0;"/><polygon fill="#181818" points="966.16,3008.85,989.56,3019.25,979.16,3008.85,989.56,2998.45,966.16,3008.85" style="stroke:#181818;stroke-width:2.6;"/></g><!--reverse link Session.Session to Timer.Timer--><g id="link_Session.Session_Timer.Timer"><path codeLine="119" d="M997.36,2770.3 C1213.212,2770.3 1447.134,2770.3 1616.732,2770.3 " fill="none" id="Session.Session-backto-Timer.Timer" style="stroke:#181818;stroke-width:2.6;"/><polygon fill="#181818" points="966.16,2770.3,981.76,2780.7,997.36,2770.3,981.76,2759.9,966.16,2770.3" style="stroke:#181818;stroke-width:2.6;"/></g><!--reverse link IDataSharing.IDataSharing to MQTTProtocol.MQTTProtocol--><g id="link_IDataSharing.IDataSharing_MQTTProtocol.MQTTProtocol"><path codeLine="122" d="M1788.8,1644.604 C1788.8,1674.218 1788.8,1658.02 1788.8,1688.024 " fill="none" id="IDataSharing.IDataSharing-backto-MQTTProtocol.MQTTProtocol" style="stroke:#181818;stroke-width:2.6;"/><polygon fill="none" points="1788.8,1597.804,1773.2,1644.604,1804.4,1644.604,1788.8,1597.804" style="stroke:#181818;stroke-width:2.6;"/></g><!--reverse link server_async.ServerIEC104 to ClientManager.ClientManager--><g id="link_server_async.ServerIEC104_ClientManager.ClientManager"><path codeLine="124" d="M608.4,754.442 C608.4,784.446 608.4,784.03 608.4,815.074 " fill="none" id="server_async.ServerIEC104-backto-ClientManager.ClientManager" style="stroke:#181818;stroke-width:2.6;"/><polygon fill="#181818" points="608.4,723.242,598,738.842,608.4,754.442,618.8,738.842,608.4,723.242" style="stroke:#181818;stroke-width:2.6;"/></g><!--reverse link ClientManager.ClientManager to Session.Session--><g id="link_ClientManager.ClientManager_Session.Session"><path codeLine="125" d="M608.4,1938.482 C608.4,2026.622 608.4,2085.512 608.4,2170.272 " fill="none" id="ClientManager.ClientManager-backto-Session.Session" style="stroke:#181818;stroke-width:2.6;"/><polygon fill="#181818" points="608.4,1907.282,598,1922.882,608.4,1938.482,618.8,1922.882,608.4,1907.282" style="stroke:#181818;stroke-width:2.6;"/></g><!--link Session.Session to Parser.Parser--><g id="link_Session.Session_Parser.Parser"><path codeLine="126" d="M608.4,3021.59 C608.4,3054.714 608.4,3085.446 608.4,3111.706 " fill="none" id="Session.Session-Parser.Parser" style="stroke:#181818;stroke-width:2.6;"/></g><!--SRC=[fLVTRzis47_NNq7afMfZ6sctlGH5WArjW03haDLfNu90e4NQ8aAH6aabS3_-znsFj4mgieDkBpAFTySxtiVlQCiTKRJbjgCrN_AE6kgq8KehNaY-TiHfOiIcSOG9msidj2fiJIKdRtux8u-2kQQmzq9vnPP8eVZDjkD46zVeuiMUyvwlQI_TfLPkARvoyijPKHIrfDQIatTISEK-KaKtt9mGQacsiyWeygqWP4w-V2BdH2WNY6L2qFe-eGHBYGu8wmmI_jO92PTxg5RzUWqcpiardCBT7qWYstB5ZhAjXT1Ou4bXtUqoq7V0F2MKiIeAb2_9_894BZ8PbmFJ_vxlk2YvqbgYs8Oh3gdXbQZM44zUCkheELbj7RUpdVbSz-fIcvQwNDr6zKcDvQI6eyOnLz7Q1Uy_7vEgTtTCfHggcEGLxLZ_nF2C-ErpSkdTGis_VEqbQawqNFUkScVJNW_oGjM6jr0gNpwLXpZB4QVlM7GVlYsj6wXWo8Tvu6R2rRLvukYFeOgrMelDdvgoMCGrRbGITnOf6sluD0f0oVokjhYn5d3TZhfcgCjJujMh81bS1s7o_Qbj5PfpwI-2vd6r6778sxTSzUt5HMmZtmGnaIu48HZPMRV3DdxHBHJu0AVixL-zXsfSDjG8jK7ZwSOY9T3kDxg2Sw2WVjJ1lRBHrir81x0n8ps4t_i5D1p-g0rxcUamONTgEQFhLz1yJUbq9-eP0L2pW1YvZAKFlFAzivFowna1H9ChQEgHi6zw53x0xrUsDcB5TuVjnORGVFpxvkRQQAThBJ4qwSOY9VPLCTmDu26_x2d9Bedvy77Q-Z8PuE0VRH7qPe1gZWeLD4TNZxePZlnC6E30_Fhnm5ocLrDIINnIACNuX8s8jOkK7GFauJI067uhmU9baPn4abfoQeAIhIJKHUK0N7BzNCFtmuGH5483WvJ7Un3LRNGvD93VZI1c3nuqeBkm5MyxjmswOLoTGl9Q3Iaxf9r3m3KrTeYWNox2JmnQXqJfiNP695SRr-nFYfC2O6Kvh3uFgzpE4h7nwiExrsU_ehK0bXMrMrKlKcw4c1gdjv-CJDJk5ciac-XtGIn5In1EyVBPuUs1OvZpaEw6r_SLbGAY5ysNUS1hgIql9yTDK2WDzvPdvD48nqqkwPFBrKWTWHeVExRCBfFV1PLStycWPVhydBphoeb4ns4KC3wi5_5t5_41ymDsXsYcO-2Pfr7wW3eMwJa1LvLj1LeVZDqactjpVemRNmOtVe5RZqdEu1t4_I3cSbq-RKN0b4eeCA1gRaSTvlaxNYbO1PDfNzh9j4no74U37Lb2e4lQRH9Buel1NmTijbtbtaob2M-9ISBL0hynGV55arQiTrwEtV5lgicpnm5E1luJtjJ8tpyl_kFSBuh3RKzENf-GLtEc7zKSruSVGaLnU1hE-sx-wjW_WUB8f9Z_3zLdxKw_h43lbcddEBlRF_5tdLaSIivnhRHqWbzZYQCHz7_Wvjyl3h_6YkBOFwsW3qOFvheO0r1GUIPyOvryO1N_0W00]--></g></svg>