<?xml version="1.0" encoding="us-ascii" standalone="no"?><svg xmlns="http://www.w3.org/2000/svg" xmlns:xlink="http://www.w3.org/1999/xlink" contentStyleType="text/css" height="603px" preserveAspectRatio="none" style="width:888px;height:603px;background:#FFFFFF;" version="1.1" viewBox="0 0 888 603" width="888px" zoomAndPan="magnify"><defs/><g><rect fill="none" height="23.9414" style="stroke:none;stroke-width:1.0;" width="855.5" x="15" y="13.0176"/><rect fill="#F5F5F5" height="578.2676" style="stroke:#F5F5F5;stroke-width:1.0;" width="262" x="15" y="13.0176"/><rect fill="#F1F1F1" height="43.9414" rx="12.5" ry="12.5" style="stroke:#181818;stroke-width:0.5;" width="132" x="21" y="389.5781"/><text fill="#000000" font-family="sans-serif" font-size="18" lengthAdjust="spacing" textLength="112" x="31" y="419.002">odeslat r&#225;mec</text><path d="M118,443.5195 L118,468.4609 L98,472.4609 L118,476.4609 L118,501.4023 A0,0 0 0 0 118,501.4023 L272,501.4023 A0,0 0 0 0 272,501.4023 L272,453.5195 L262,443.5195 L118,443.5195 A0,0 0 0 0 118,443.5195 " fill="#FEFFDD" style="stroke:#181818;stroke-width:0.5;"/><path d="M262,443.5195 L262,453.5195 L272,453.5195 L262,443.5195 " fill="#FEFFDD" style="stroke:#181818;stroke-width:0.5;"/><text fill="#000000" font-family="sans-serif" font-size="18" lengthAdjust="spacing" textLength="133" x="124" y="467.9434">zde nen&#237; spojen&#237;</text><text fill="#000000" font-family="sans-serif" font-size="18" lengthAdjust="spacing" textLength="78" x="129" y="491.8848">ukon&#269;eno</text><ellipse cx="87" cy="472.4609" fill="none" rx="11" ry="11" style="stroke:#222222;stroke-width:1.0;"/><ellipse cx="87" cy="472.4609" fill="#222222" rx="6" ry="6" style="stroke:#222222;stroke-width:1.0;"/><line style="stroke:#000000;stroke-width:1.5;" x1="15" x2="15" y1="13.0176" y2="591.2852"/><rect fill="#D3D3D3" height="578.2676" style="stroke:#D3D3D3;stroke-width:1.0;" width="374" x="277" y="13.0176"/><rect fill="#F1F1F1" height="43.9414" rx="12.5" ry="12.5" style="stroke:#181818;stroke-width:0.5;" width="223" x="325.5" y="183.7832"/><text fill="#000000" font-family="sans-serif" font-size="18" lengthAdjust="spacing" textLength="203" x="335.5" y="213.207">callback odeslat odpov&#283;&#271;</text><rect fill="#F1F1F1" height="67.8828" rx="12.5" ry="12.5" style="stroke:#181818;stroke-width:0.5;" width="308" x="283" y="301.6953"/><text fill="#000000" font-family="sans-serif" font-size="18" lengthAdjust="spacing" textLength="245" x="293" y="331.1191">vytvo&#345;en&#237; nov&#233;ho r&#225;mce s daty</text><text fill="#000000" font-family="sans-serif" font-size="18" lengthAdjust="spacing" textLength="288" x="293" y="355.0605">new_apdu = generate-I-format(data)</text><polygon fill="#F1F1F1" points="344.5,247.7246,529.5,247.7246,541.5,259.7246,529.5,271.7246,344.5,271.7246,332.5,259.7246,344.5,247.7246" style="stroke:#181818;stroke-width:0.5;"/><text fill="#000000" font-family="sans-serif" font-size="18" lengthAdjust="spacing" textLength="30" x="441" y="291.1484">ano</text><text fill="#000000" font-family="sans-serif" font-size="18" lengthAdjust="spacing" textLength="185" x="344.5" y="267.1777">stav spojen&#237; spu&#353;t&#283;no?</text><path d="M468,533.4023 L468,558.3438 L448,562.3438 L468,566.3438 L468,591.2852 A0,0 0 0 0 468,591.2852 L622,591.2852 A0,0 0 0 0 622,591.2852 L622,543.4023 L612,533.4023 L468,533.4023 A0,0 0 0 0 468,533.4023 " fill="#FEFFDD" style="stroke:#181818;stroke-width:0.5;"/><path d="M612,533.4023 L612,543.4023 L622,543.4023 L612,533.4023 " fill="#FEFFDD" style="stroke:#181818;stroke-width:0.5;"/><text fill="#000000" font-family="sans-serif" font-size="18" lengthAdjust="spacing" textLength="133" x="474" y="557.8262">zde nen&#237; spojen&#237;</text><text fill="#000000" font-family="sans-serif" font-size="18" lengthAdjust="spacing" textLength="78" x="479" y="581.7676">ukon&#269;eno</text><ellipse cx="437" cy="562.3438" fill="none" rx="11" ry="11" style="stroke:#222222;stroke-width:1.0;"/><ellipse cx="437" cy="562.3438" fill="#222222" rx="6" ry="6" style="stroke:#222222;stroke-width:1.0;"/><line style="stroke:#000000;stroke-width:1.5;" x1="277" x2="277" y1="13.0176" y2="591.2852"/><path d="M675,41.959 L675,75.9004 A0,0 0 0 0 675,75.9004 L731,75.9004 A0,0 0 0 0 731,75.9004 L731,62.9297 L751,58.9297 L731,54.9297 L731,51.959 L721,41.959 L675,41.959 A0,0 0 0 0 675,41.959 " fill="#FEFFDD" style="stroke:#181818;stroke-width:0.5;"/><path d="M721,41.959 L721,51.959 L731,51.959 L721,41.959 " fill="#FEFFDD" style="stroke:#181818;stroke-width:0.5;"/><text fill="#000000" font-family="sans-serif" font-size="18" lengthAdjust="spacing" textLength="35" x="681" y="66.3828">start</text><ellipse cx="761" cy="58.9297" fill="#222222" rx="10" ry="10" style="stroke:#222222;stroke-width:1.0;"/><rect fill="#F1F1F1" height="67.8828" rx="12.5" ry="12.5" style="stroke:#181818;stroke-width:0.5;" width="208" x="657" y="95.9004"/><text fill="#000000" font-family="sans-serif" font-size="18" lengthAdjust="spacing" textLength="188" x="667" y="125.3242">vygenerovan&#225; odpov&#283;&#271;</text><text fill="#000000" font-family="sans-serif" font-size="18" lengthAdjust="spacing" textLength="78" x="717" y="149.2656">po bytech</text><line style="stroke:#000000;stroke-width:1.5;" x1="651" x2="651" y1="13.0176" y2="591.2852"/><line style="stroke:#000000;stroke-width:1.5;" x1="869" x2="869" y1="13.0176" y2="591.2852"/><line style="stroke:#181818;stroke-width:1.0;" x1="87" x2="87" y1="433.5195" y2="461.4609"/><polygon fill="#181818" points="83,451.4609,87,461.4609,91,451.4609,87,455.4609" style="stroke:#181818;stroke-width:1.0;"/><line style="stroke:#181818;stroke-width:1.0;" x1="437" x2="437" y1="271.7246" y2="301.6953"/><polygon fill="#181818" points="433,291.6953,437,301.6953,441,291.6953,437,295.6953" style="stroke:#181818;stroke-width:1.0;"/><line style="stroke:#181818;stroke-width:1.0;" x1="541.5" x2="632" y1="259.7246" y2="259.7246"/><polygon fill="#181818" points="628,393.5488,632,403.5488,636,393.5488,632,397.5488" style="stroke:#181818;stroke-width:1.0;"/><line style="stroke:#181818;stroke-width:1.0;" x1="632" x2="632" y1="259.7246" y2="523.4023"/><line style="stroke:#181818;stroke-width:1.0;" x1="632" x2="437" y1="523.4023" y2="523.4023"/><line style="stroke:#181818;stroke-width:1.0;" x1="437" x2="437" y1="523.4023" y2="551.3438"/><polygon fill="#181818" points="433,541.3438,437,551.3438,441,541.3438,437,545.3438" style="stroke:#181818;stroke-width:1.0;"/><line style="stroke:#181818;stroke-width:1.0;" x1="437" x2="437" y1="227.7246" y2="247.7246"/><polygon fill="#181818" points="433,237.7246,437,247.7246,441,237.7246,437,241.7246" style="stroke:#181818;stroke-width:1.0;"/><line style="stroke:#181818;stroke-width:1.0;" x1="761" x2="761" y1="68.9297" y2="95.9004"/><polygon fill="#181818" points="757,85.9004,761,95.9004,765,85.9004,761,89.9004" style="stroke:#181818;stroke-width:1.0;"/><line style="stroke:#181818;stroke-width:1.0;" x1="761" x2="761" y1="163.7832" y2="168.7832"/><line style="stroke:#181818;stroke-width:1.0;" x1="761" x2="437" y1="168.7832" y2="168.7832"/><line style="stroke:#181818;stroke-width:1.0;" x1="437" x2="437" y1="168.7832" y2="183.7832"/><polygon fill="#181818" points="433,173.7832,437,183.7832,441,173.7832,437,177.7832" style="stroke:#181818;stroke-width:1.0;"/><line style="stroke:#181818;stroke-width:1.0;" x1="437" x2="437" y1="369.5781" y2="374.5781"/><line style="stroke:#181818;stroke-width:1.0;" x1="437" x2="87" y1="374.5781" y2="374.5781"/><line style="stroke:#181818;stroke-width:1.0;" x1="87" x2="87" y1="374.5781" y2="389.5781"/><polygon fill="#181818" points="83,379.5781,87,389.5781,91,379.5781,87,383.5781" style="stroke:#181818;stroke-width:1.0;"/><text fill="#000000" font-family="sans-serif" font-size="18" lengthAdjust="spacing" textLength="64" x="114" y="32.4414">Session</text><text fill="#000000" font-family="sans-serif" font-size="18" lengthAdjust="spacing" textLength="117" x="405.5" y="32.4414">ClientManager</text><text fill="#000000" font-family="sans-serif" font-size="18" lengthAdjust="spacing" textLength="142" x="689" y="32.4414">Modul zpracov&#225;n&#237;</text><!--SRC=[ZL0xJiD04Ett52FH94KAEfG8KO2GA5AbZOGczjXUifcnTiUE7FaAY1gbIad1AHpknThXqw28hPvsdjulh2sNw743TvHXvVHUM1TsHt1vPKnxiIsiKjZ8cje5XM25s_ZhR5vexh5fRvqbrZaovkJZQIvfvM1NUaoaxWxSlRScA7erB4fJEE5ftUJ4vAL6xWuWQIdrSNzyMJByl59WrIWbnSoSSvmcwDmAatLKeU1GVzLcncOmYeurX5AUA8Q9eFeuw77FSZC66s24B6FGWjZqfZ6OrlBnEd0vDdWh17nts2G40LBKPibCsqSiqmgkOIY1IfE7IIP-WpgA51pF1gs_nnjSlgFsofISw46b740_5FY-xnHsAG5_1JyrY1DLQ-7ZCx4OSe4CSMgpSnCDolzN_GG0]--></g></svg>