<?xml version="1.0" encoding="us-ascii" standalone="no"?><svg xmlns="http://www.w3.org/2000/svg" xmlns:xlink="http://www.w3.org/1999/xlink" contentStyleType="text/css" height="1577px" preserveAspectRatio="none" style="width:1098px;height:1577px;background:#FFFFFF;" version="1.1" viewBox="0 0 1098 1577" width="1098px" zoomAndPan="magnify"><defs/><g><rect fill="none" height="47.8828" style="stroke:none;stroke-width:1.0;" width="1065.25" x="15" y="13.0176"/><rect fill="#F5F5F5" height="1552.8535" style="stroke:#F5F5F5;stroke-width:1.0;" width="557" x="15" y="13.0176"/><path d="M94.25,65.9004 L94.25,99.8418 A0,0 0 0 0 94.25,99.8418 L257.25,99.8418 A0,0 0 0 0 257.25,99.8418 L257.25,86.8711 L277.25,82.8711 L257.25,78.8711 L257.25,75.9004 L247.25,65.9004 L94.25,65.9004 A0,0 0 0 0 94.25,65.9004 " fill="#FEFFDD" style="stroke:#181818;stroke-width:0.5;"/><path d="M247.25,65.9004 L247.25,75.9004 L257.25,75.9004 L247.25,65.9004 " fill="#FEFFDD" style="stroke:#181818;stroke-width:0.5;"/><text fill="#000000" font-family="sans-serif" font-size="18" lengthAdjust="spacing" textLength="142" x="100.25" y="90.3242">spojen&#237; vytvo&#345;eno</text><ellipse cx="287.25" cy="82.8711" fill="#222222" rx="10" ry="10" style="stroke:#222222;stroke-width:1.0;"/><polygon fill="#F1F1F1" points="216.75,194.6836,357.75,194.6836,369.75,206.6836,357.75,218.6836,216.75,218.6836,204.75,206.6836,216.75,194.6836" style="stroke:#181818;stroke-width:0.5;"/><text fill="#000000" font-family="sans-serif" font-size="18" lengthAdjust="spacing" textLength="131" x="221.75" y="214.1367">apdu = read(2B)</text><text fill="#000000" font-family="sans-serif" font-size="18" lengthAdjust="spacing" textLength="20" x="184.75" y="202.166">ne</text><text fill="#000000" font-family="sans-serif" font-size="18" lengthAdjust="spacing" textLength="30" x="369.75" y="202.166">ano</text><rect fill="#F1F1F1" height="43.9414" rx="12.5" ry="12.5" style="stroke:#181818;stroke-width:0.5;" width="204" x="48" y="238.6836"/><text fill="#000000" font-family="sans-serif" font-size="18" lengthAdjust="spacing" textLength="184" x="58" y="268.1074">TCP spojen&#237; ukon&#269;eno</text><path d="M181,317.625 L181,342.5664 L161,346.5664 L181,350.5664 L181,375.5078 A0,0 0 0 0 181,375.5078 L280,375.5078 A0,0 0 0 0 280,375.5078 L280,327.625 L270,317.625 L181,317.625 A0,0 0 0 0 181,317.625 " fill="#FEFFDD" style="stroke:#181818;stroke-width:0.5;"/><path d="M270,317.625 L270,327.625 L280,327.625 L270,317.625 " fill="#FEFFDD" style="stroke:#181818;stroke-width:0.5;"/><text fill="#000000" font-family="sans-serif" font-size="18" lengthAdjust="spacing" textLength="59" x="187" y="342.0488">spojen&#237;</text><text fill="#000000" font-family="sans-serif" font-size="18" lengthAdjust="spacing" textLength="78" x="187" y="365.9902">ukon&#269;eno</text><ellipse cx="150" cy="346.5664" fill="none" rx="11" ry="11" style="stroke:#222222;stroke-width:1.0;"/><ellipse cx="150" cy="346.5664" fill="#222222" rx="6" ry="6" style="stroke:#222222;stroke-width:1.0;"/><rect fill="#F1F1F1" height="43.9414" rx="12.5" ry="12.5" style="stroke:#181818;stroke-width:0.5;" width="138" x="355.5" y="292.6543"/><text fill="#000000" font-family="sans-serif" font-size="18" lengthAdjust="spacing" textLength="118" x="365.5" y="322.0781">delka = 2. byte</text><rect fill="#F1F1F1" height="67.8828" rx="12.5" ry="12.5" style="stroke:#181818;stroke-width:0.5;" width="224" x="312.5" y="371.5957"/><text fill="#000000" font-family="sans-serif" font-size="18" lengthAdjust="spacing" textLength="204" x="322.5" y="401.0195">&#269;ti zbytek r&#225;mce dle d&#233;lky</text><text fill="#000000" font-family="sans-serif" font-size="18" lengthAdjust="spacing" textLength="152" x="347.5" y="424.9609">apdu = read(delka)</text><rect fill="#F1F1F1" height="67.8828" rx="12.5" ry="12.5" style="stroke:#181818;stroke-width:0.5;" width="229" x="310" y="459.4785"/><text fill="#000000" font-family="sans-serif" font-size="18" lengthAdjust="spacing" textLength="196" x="320" y="488.9023">ziskani objektu na r&#225;mec</text><text fill="#000000" font-family="sans-serif" font-size="18" lengthAdjust="spacing" textLength="209" x="320" y="512.8438">new_apdu = Parser(apdu)</text><rect fill="#F1F1F1" height="67.8828" rx="12.5" ry="12.5" style="stroke:#181818;stroke-width:0.5;" width="190" x="329.5" y="547.3613"/><text fill="#000000" font-family="sans-serif" font-size="18" lengthAdjust="spacing" textLength="170" x="339.5" y="576.7852">aktualizace &#269;asova&#269;&#367;</text><text fill="#000000" font-family="sans-serif" font-size="18" lengthAdjust="spacing" textLength="90" x="389.5" y="600.7266">t0, t1, t2, t3</text><polygon fill="#F1F1F1" points="367,238.6836,482,238.6836,494,250.6836,482,262.6836,367,262.6836,355,250.6836,367,238.6836" style="stroke:#181818;stroke-width:0.5;"/><text fill="#000000" font-family="sans-serif" font-size="18" lengthAdjust="spacing" textLength="30" x="428.5" y="282.1074">ano</text><text fill="#000000" font-family="sans-serif" font-size="18" lengthAdjust="spacing" textLength="115" x="367" y="258.1367">1. Byte = 0x68</text><text fill="#000000" font-family="sans-serif" font-size="18" lengthAdjust="spacing" textLength="20" x="335" y="246.166">ne</text><polygon fill="#F1F1F1" points="424.5,1326.0469,436.5,1338.0469,424.5,1350.0469,412.5,1338.0469,424.5,1326.0469" style="stroke:#181818;stroke-width:0.5;"/><polygon fill="#F1F1F1" points="220.25,124.8008,354.25,124.8008,366.25,136.8008,354.25,148.8008,220.25,148.8008,208.25,136.8008,220.25,124.8008" style="stroke:#181818;stroke-width:0.5;"/><text fill="#000000" font-family="sans-serif" font-size="18" lengthAdjust="spacing" textLength="20" x="291.25" y="168.2246">ne</text><text fill="#000000" font-family="sans-serif" font-size="18" lengthAdjust="spacing" textLength="134" x="220.25" y="144.2539">P&#345;&#237;znak timeout?</text><text fill="#000000" font-family="sans-serif" font-size="18" lengthAdjust="spacing" textLength="30" x="178.25" y="132.2832">ano</text><line style="stroke:#000000;stroke-width:1.5;" x1="15" x2="15" y1="13.0176" y2="1565.8711"/><rect fill="#D3D3D3" height="1552.8535" style="stroke:#D3D3D3;stroke-width:1.0;" width="354.75" x="572" y="13.0176"/><ellipse cx="837.75" cy="645.2441" fill="#F1F1F1" rx="10" ry="10" style="stroke:#181818;stroke-width:0.5;"/><path d="M832.2188,650.7441 L837.1719,637.8535 L839.0156,637.8535 L844.2813,650.7441 L842.3438,650.7441 L840.8438,646.8379 L835.4531,646.8379 L834.0313,650.7441 L832.2188,650.7441 Z M835.9375,645.4473 L840.3125,645.4473 L838.9688,641.8848 Q838.3438,640.2598 838.0469,639.2129 Q837.8125,640.4473 837.3594,641.666 L835.9375,645.4473 Z " fill="#000000"/><rect fill="#F1F1F1" height="67.8828" rx="12.5" ry="12.5" style="stroke:#181818;stroke-width:0.5;" width="170" x="752.75" y="675.2441"/><text fill="#000000" font-family="sans-serif" font-size="18" lengthAdjust="spacing" textLength="150" x="762.75" y="704.668">callback pro r&#225;mec</text><text fill="#000000" font-family="sans-serif" font-size="18" lengthAdjust="spacing" textLength="103" x="777.75" y="728.6094">nebo timeout</text><rect fill="#F1F1F1" height="43.9414" rx="12.5" ry="12.5" style="stroke:#181818;stroke-width:0.5;" width="136" x="769.75" y="822.0566"/><text fill="#000000" font-family="sans-serif" font-size="18" lengthAdjust="spacing" textLength="111" x="784.75" y="851.4805">zpracuj r&#225;mec</text><polygon fill="#F1F1F1" points="815.25,890.957,860.25,890.957,872.25,902.957,860.25,914.957,815.25,914.957,803.25,902.957,815.25,890.957" style="stroke:#181818;stroke-width:0.5;"/><text fill="#000000" font-family="sans-serif" font-size="18" lengthAdjust="spacing" textLength="5" x="841.75" y="934.3809">&#160;</text><text fill="#000000" font-family="sans-serif" font-size="18" lengthAdjust="spacing" textLength="45" x="815.25" y="910.4102">data?</text><text fill="#000000" font-family="sans-serif" font-size="18" lengthAdjust="spacing" textLength="20" x="783.25" y="898.4395">ne</text><polygon fill="#F1F1F1" points="837.75,1150.1641,849.75,1162.1641,837.75,1174.1641,825.75,1162.1641,837.75,1150.1641" style="stroke:#181818;stroke-width:0.5;"/><polygon fill="#F1F1F1" points="808.25,768.0859,867.25,768.0859,879.25,780.0859,867.25,792.0859,808.25,792.0859,796.25,780.0859,808.25,768.0859" style="stroke:#181818;stroke-width:0.5;"/><text fill="#000000" font-family="sans-serif" font-size="18" lengthAdjust="spacing" textLength="30" x="841.75" y="811.5098">ano</text><text fill="#000000" font-family="sans-serif" font-size="18" lengthAdjust="spacing" textLength="59" x="808.25" y="787.5391">r&#225;mec?</text><text fill="#000000" font-family="sans-serif" font-size="18" lengthAdjust="spacing" textLength="20" x="776.25" y="775.5684">ne</text><polygon fill="#F1F1F1" points="837.75,1194.1641,849.75,1206.1641,837.75,1218.1641,825.75,1206.1641,837.75,1194.1641" style="stroke:#181818;stroke-width:0.5;"/><rect fill="#F1F1F1" height="67.8828" rx="12.5" ry="12.5" style="stroke:#181818;stroke-width:0.5;" width="127" x="774.25" y="1238.1641"/><text fill="#000000" font-family="sans-serif" font-size="18" lengthAdjust="spacing" textLength="89" x="794.25" y="1267.5879">aktualizace</text><text fill="#000000" font-family="sans-serif" font-size="18" lengthAdjust="spacing" textLength="107" x="784.25" y="1291.5293">stavu spojen&#237;</text><rect fill="#F1F1F1" height="43.9414" rx="12.5" ry="12.5" style="stroke:#181818;stroke-width:0.5;" width="142" x="629.5" y="1392.0469"/><text fill="#000000" font-family="sans-serif" font-size="18" lengthAdjust="spacing" textLength="122" x="639.5" y="1421.4707">handle_timeout</text><path d="M577,1445.9883 L577,1503.8711 L676,1503.8711 L676,1455.9883 L666,1445.9883 L577,1445.9883 " fill="#FEFFDD" style="stroke:#181818;stroke-width:0.5;"/><path d="M666,1445.9883 L666,1455.9883 L676,1455.9883 L666,1445.9883 " fill="#FEFFDD" style="stroke:#181818;stroke-width:0.5;"/><text fill="#000000" font-family="sans-serif" font-size="18" lengthAdjust="spacing" textLength="59" x="583" y="1470.4121">spojen&#237;</text><text fill="#000000" font-family="sans-serif" font-size="18" lengthAdjust="spacing" textLength="78" x="583" y="1494.3535">ukon&#269;eno</text><polygon fill="#F1F1F1" points="688,1503.8711,713,1503.8711,725,1515.8711,713,1527.8711,688,1527.8711,676,1515.8711,688,1503.8711" style="stroke:#181818;stroke-width:0.5;"/><text fill="#000000" font-family="sans-serif" font-size="18" lengthAdjust="spacing" textLength="25" x="688" y="1523.3242">t1?</text><text fill="#000000" font-family="sans-serif" font-size="18" lengthAdjust="spacing" textLength="30" x="646" y="1511.3535">ano</text><text fill="#000000" font-family="sans-serif" font-size="18" lengthAdjust="spacing" textLength="20" x="725" y="1511.3535">ne</text><ellipse cx="666" cy="1548.8711" fill="none" rx="11" ry="11" style="stroke:#222222;stroke-width:1.0;"/><ellipse cx="666" cy="1548.8711" fill="#222222" rx="6" ry="6" style="stroke:#222222;stroke-width:1.0;"/><ellipse cx="735" cy="1547.8711" fill="#F1F1F1" rx="10" ry="10" style="stroke:#181818;stroke-width:0.5;"/><path d="M729.4688,1553.3711 L734.4219,1540.4805 L736.2656,1540.4805 L741.5313,1553.3711 L739.5938,1553.3711 L738.0938,1549.4648 L732.7031,1549.4648 L731.2813,1553.3711 L729.4688,1553.3711 Z M733.1875,1548.0742 L737.5625,1548.0742 L736.2188,1544.5117 Q735.5938,1542.8867 735.2969,1541.8398 Q735.0625,1543.0742 734.6094,1544.293 L733.1875,1548.0742 Z " fill="#000000"/><line style="stroke:#000000;stroke-width:1.5;" x1="572" x2="572" y1="13.0176" y2="1565.8711"/><rect fill="#9ACD32" height="91.8242" rx="12.5" ry="12.5" style="stroke:#181818;stroke-width:0.5;" width="117" x="945.25" y="944.9277"/><text fill="#000000" font-family="sans-serif" font-size="18" lengthAdjust="spacing" textLength="92" x="960.25" y="974.3516">p&#345;ed&#225;n&#237; dat</text><text fill="#000000" font-family="sans-serif" font-size="18" lengthAdjust="spacing" textLength="83" x="960.25" y="998.293">do modulu</text><text fill="#000000" font-family="sans-serif" font-size="18" lengthAdjust="spacing" textLength="88" x="960.25" y="1022.2344">zpracov&#225;n&#237;</text><rect fill="#D2B48C" height="67.8828" rx="12.5" ry="12.5" style="stroke:#181818;stroke-width:0.5;" width="131" x="938.25" y="1062.2813"/><text fill="#000000" font-family="sans-serif" font-size="18" lengthAdjust="spacing" textLength="60" x="973.25" y="1091.7051">data do</text><text fill="#000000" font-family="sans-serif" font-size="18" lengthAdjust="spacing" textLength="111" x="948.25" y="1115.6465">MQTT Broker</text><line style="stroke:#000000;stroke-width:1.5;" x1="926.75" x2="926.75" y1="13.0176" y2="1565.8711"/><line style="stroke:#000000;stroke-width:1.5;" x1="1078.75" x2="1078.75" y1="13.0176" y2="1565.8711"/><line style="stroke:#181818;stroke-width:1.0;" x1="150" x2="150" y1="282.625" y2="335.5664"/><polygon fill="#181818" points="146,325.5664,150,335.5664,154,325.5664,150,329.5664" style="stroke:#181818;stroke-width:1.0;"/><line style="stroke:#181818;stroke-width:1.0;" x1="424.5" x2="424.5" y1="336.5957" y2="371.5957"/><polygon fill="#181818" points="420.5,361.5957,424.5,371.5957,428.5,361.5957,424.5,365.5957" style="stroke:#181818;stroke-width:1.0;"/><line style="stroke:#181818;stroke-width:1.0;" x1="424.5" x2="424.5" y1="439.4785" y2="459.4785"/><polygon fill="#181818" points="420.5,449.4785,424.5,459.4785,428.5,449.4785,424.5,453.4785" style="stroke:#181818;stroke-width:1.0;"/><line style="stroke:#181818;stroke-width:1.0;" x1="424.5" x2="424.5" y1="527.3613" y2="547.3613"/><polygon fill="#181818" points="420.5,537.3613,424.5,547.3613,428.5,537.3613,424.5,541.3613" style="stroke:#181818;stroke-width:1.0;"/><line style="stroke:#181818;stroke-width:1.0;" x1="424.5" x2="424.5" y1="262.6836" y2="292.6543"/><polygon fill="#181818" points="420.5,282.6543,424.5,292.6543,428.5,282.6543,424.5,286.6543" style="stroke:#181818;stroke-width:1.0;"/><line style="stroke:#181818;stroke-width:1.0;" x1="355" x2="300" y1="250.6836" y2="250.6836"/><polygon fill="#181818" points="296,781.5566,300,791.5566,304,781.5566,300,785.5566" style="stroke:#181818;stroke-width:1.0;"/><line style="stroke:#181818;stroke-width:1.0;" x1="300" x2="300" y1="250.6836" y2="1338.0469"/><line style="stroke:#181818;stroke-width:1.0;" x1="300" x2="412.5" y1="1338.0469" y2="1338.0469"/><polygon fill="#181818" points="402.5,1334.0469,412.5,1338.0469,402.5,1342.0469,406.5,1338.0469" style="stroke:#181818;stroke-width:1.0;"/><line style="stroke:#181818;stroke-width:1.0;" x1="204.75" x2="150" y1="206.6836" y2="206.6836"/><line style="stroke:#181818;stroke-width:1.0;" x1="150" x2="150" y1="206.6836" y2="238.6836"/><polygon fill="#181818" points="146,228.6836,150,238.6836,154,228.6836,150,232.6836" style="stroke:#181818;stroke-width:1.0;"/><line style="stroke:#181818;stroke-width:1.0;" x1="369.75" x2="424.5" y1="206.6836" y2="206.6836"/><line style="stroke:#181818;stroke-width:1.0;" x1="424.5" x2="424.5" y1="206.6836" y2="238.6836"/><polygon fill="#181818" points="420.5,228.6836,424.5,238.6836,428.5,228.6836,424.5,232.6836" style="stroke:#181818;stroke-width:1.0;"/><line style="stroke:#181818;stroke-width:1.0;" x1="424.5" x2="424.5" y1="1350.0469" y2="1360.0469"/><line style="stroke:#181818;stroke-width:1.0;" x1="424.5" x2="553" y1="1360.0469" y2="1360.0469"/><polygon fill="#181818" points="549,763.5859,553,753.5859,557,763.5859,553,759.5859" style="stroke:#181818;stroke-width:1.0;"/><line style="stroke:#181818;stroke-width:1.0;" x1="553" x2="553" y1="136.8008" y2="1360.0469"/><line style="stroke:#181818;stroke-width:1.0;" x1="553" x2="366.25" y1="136.8008" y2="136.8008"/><polygon fill="#181818" points="376.25,132.8008,366.25,136.8008,376.25,140.8008,372.25,136.8008" style="stroke:#181818;stroke-width:1.0;"/><line style="stroke:#181818;stroke-width:1.0;" x1="287.25" x2="287.25" y1="148.8008" y2="194.6836"/><polygon fill="#181818" points="283.25,184.6836,287.25,194.6836,291.25,184.6836,287.25,188.6836" style="stroke:#181818;stroke-width:1.0;"/><line style="stroke:#181818;stroke-width:1.0;" x1="208.25" x2="34" y1="136.8008" y2="136.8008"/><polygon fill="#181818" points="30,758.3359,34,768.3359,38,758.3359,34,762.3359" style="stroke:#181818;stroke-width:1.0;"/><line style="stroke:#181818;stroke-width:1.0;" x1="34" x2="34" y1="136.8008" y2="1377.0469"/><line style="stroke:#181818;stroke-width:1.0;" x1="34" x2="700.5" y1="1377.0469" y2="1377.0469"/><line style="stroke:#181818;stroke-width:1.0;" x1="700.5" x2="700.5" y1="1377.0469" y2="1392.0469"/><polygon fill="#181818" points="696.5,1382.0469,700.5,1392.0469,704.5,1382.0469,700.5,1386.0469" style="stroke:#181818;stroke-width:1.0;"/><line style="stroke:#181818;stroke-width:1.0;" x1="287.25" x2="287.25" y1="92.8711" y2="124.8008"/><polygon fill="#181818" points="283.25,114.8008,287.25,124.8008,291.25,114.8008,287.25,118.8008" style="stroke:#181818;stroke-width:1.0;"/><line style="stroke:#181818;stroke-width:1.0;" x1="837.75" x2="837.75" y1="655.2441" y2="675.2441"/><polygon fill="#181818" points="833.75,665.2441,837.75,675.2441,841.75,665.2441,837.75,669.2441" style="stroke:#181818;stroke-width:1.0;"/><line style="stroke:#181818;stroke-width:1.0;" x1="803.25" x2="762.25" y1="902.957" y2="902.957"/><polygon fill="#181818" points="758.25,1032.2813,762.25,1042.2813,766.25,1032.2813,762.25,1036.2813" style="stroke:#181818;stroke-width:1.0;"/><line style="stroke:#181818;stroke-width:1.0;" x1="762.25" x2="762.25" y1="902.957" y2="1162.1641"/><line style="stroke:#181818;stroke-width:1.0;" x1="762.25" x2="825.75" y1="1162.1641" y2="1162.1641"/><polygon fill="#181818" points="815.75,1158.1641,825.75,1162.1641,815.75,1166.1641,819.75,1162.1641" style="stroke:#181818;stroke-width:1.0;"/><line style="stroke:#181818;stroke-width:1.0;" x1="837.75" x2="837.75" y1="865.998" y2="890.957"/><polygon fill="#181818" points="833.75,880.957,837.75,890.957,841.75,880.957,837.75,884.957" style="stroke:#181818;stroke-width:1.0;"/><line style="stroke:#181818;stroke-width:1.0;" x1="837.75" x2="837.75" y1="792.0859" y2="822.0566"/><polygon fill="#181818" points="833.75,812.0566,837.75,822.0566,841.75,812.0566,837.75,816.0566" style="stroke:#181818;stroke-width:1.0;"/><line style="stroke:#181818;stroke-width:1.0;" x1="796.25" x2="752.25" y1="780.0859" y2="780.0859"/><polygon fill="#181818" points="748.25,992.8105,752.25,1002.8105,756.25,992.8105,752.25,996.8105" style="stroke:#181818;stroke-width:1.0;"/><line style="stroke:#181818;stroke-width:1.0;" x1="752.25" x2="752.25" y1="780.0859" y2="1206.1641"/><line style="stroke:#181818;stroke-width:1.0;" x1="752.25" x2="825.75" y1="1206.1641" y2="1206.1641"/><polygon fill="#181818" points="815.75,1202.1641,825.75,1206.1641,815.75,1210.1641,819.75,1206.1641" style="stroke:#181818;stroke-width:1.0;"/><line style="stroke:#181818;stroke-width:1.0;" x1="837.75" x2="837.75" y1="1174.1641" y2="1194.1641"/><polygon fill="#181818" points="833.75,1184.1641,837.75,1194.1641,841.75,1184.1641,837.75,1188.1641" style="stroke:#181818;stroke-width:1.0;"/><line style="stroke:#181818;stroke-width:1.0;" x1="837.75" x2="837.75" y1="743.127" y2="768.0859"/><polygon fill="#181818" points="833.75,758.0859,837.75,768.0859,841.75,758.0859,837.75,762.0859" style="stroke:#181818;stroke-width:1.0;"/><line style="stroke:#181818;stroke-width:1.0;" x1="837.75" x2="837.75" y1="1218.1641" y2="1238.1641"/><polygon fill="#181818" points="833.75,1228.1641,837.75,1238.1641,841.75,1228.1641,837.75,1232.1641" style="stroke:#181818;stroke-width:1.0;"/><line style="stroke:#181818;stroke-width:1.0;" x1="676" x2="666" y1="1515.8711" y2="1515.8711"/><line style="stroke:#181818;stroke-width:1.0;" x1="666" x2="666" y1="1515.8711" y2="1537.8711"/><polygon fill="#181818" points="662,1527.8711,666,1537.8711,670,1527.8711,666,1531.8711" style="stroke:#181818;stroke-width:1.0;"/><line style="stroke:#181818;stroke-width:1.0;" x1="725" x2="735" y1="1515.8711" y2="1515.8711"/><line style="stroke:#181818;stroke-width:1.0;" x1="735" x2="735" y1="1515.8711" y2="1537.8711"/><polygon fill="#181818" points="731,1527.8711,735,1537.8711,739,1527.8711,735,1531.8711" style="stroke:#181818;stroke-width:1.0;"/><line style="stroke:#181818;stroke-width:1.0;" x1="700.5" x2="700.5" y1="1435.9883" y2="1503.8711"/><polygon fill="#181818" points="696.5,1493.8711,700.5,1503.8711,704.5,1493.8711,700.5,1497.8711" style="stroke:#181818;stroke-width:1.0;"/><line style="stroke:#181818;stroke-width:1.0;" x1="1003.75" x2="1003.75" y1="1036.752" y2="1062.2813"/><polygon fill="#181818" points="999.75,1052.2813,1003.75,1062.2813,1007.75,1052.2813,1003.75,1056.2813" style="stroke:#181818;stroke-width:1.0;"/><line style="stroke:#181818;stroke-width:1.0;" x1="424.5" x2="424.5" y1="615.2441" y2="620.2441"/><line style="stroke:#181818;stroke-width:1.0;" x1="424.5" x2="837.75" y1="620.2441" y2="620.2441"/><line style="stroke:#181818;stroke-width:1.0;" x1="837.75" x2="837.75" y1="620.2441" y2="635.2441"/><polygon fill="#181818" points="833.75,625.2441,837.75,635.2441,841.75,625.2441,837.75,629.2441" style="stroke:#181818;stroke-width:1.0;"/><line style="stroke:#181818;stroke-width:1.0;" x1="837.75" x2="837.75" y1="914.957" y2="929.9424"/><line style="stroke:#181818;stroke-width:1.0;" x1="837.75" x2="1003.75" y1="929.9424" y2="929.9424"/><line style="stroke:#181818;stroke-width:1.0;" x1="1003.75" x2="1003.75" y1="929.9424" y2="944.9277"/><polygon fill="#181818" points="999.75,934.9277,1003.75,944.9277,1007.75,934.9277,1003.75,938.9277" style="stroke:#181818;stroke-width:1.0;"/><line style="stroke:#181818;stroke-width:1.0;" x1="1003.75" x2="1003.75" y1="1130.1641" y2="1135.1787"/><line style="stroke:#181818;stroke-width:1.0;" x1="1003.75" x2="837.75" y1="1135.1787" y2="1135.1787"/><line style="stroke:#181818;stroke-width:1.0;" x1="837.75" x2="837.75" y1="1135.1787" y2="1150.1641"/><polygon fill="#181818" points="833.75,1140.1641,837.75,1150.1641,841.75,1140.1641,837.75,1144.1641" style="stroke:#181818;stroke-width:1.0;"/><line style="stroke:#181818;stroke-width:1.0;" x1="837.75" x2="837.75" y1="1306.0469" y2="1311.0615"/><line style="stroke:#181818;stroke-width:1.0;" x1="837.75" x2="424.5" y1="1311.0615" y2="1311.0615"/><line style="stroke:#181818;stroke-width:1.0;" x1="424.5" x2="424.5" y1="1311.0615" y2="1326.0469"/><polygon fill="#181818" points="420.5,1316.0469,424.5,1326.0469,428.5,1316.0469,424.5,1320.0469" style="stroke:#181818;stroke-width:1.0;"/><text fill="#000000" font-family="sans-serif" font-size="18" lengthAdjust="spacing" textLength="64" x="261.5" y="32.4414">Session</text><text fill="#000000" font-family="sans-serif" font-size="18" lengthAdjust="spacing" textLength="117" x="690.875" y="32.4414">ClientManager</text><text fill="#000000" font-family="sans-serif" font-size="18" lengthAdjust="spacing" textLength="129" x="931.75" y="32.4414">MQTTProtocol /</text><text fill="#000000" font-family="sans-serif" font-size="18" lengthAdjust="spacing" textLength="142" x="931.75" y="56.3828">Modul zpracov&#225;n&#237;</text><!--SRC=[fLJTYjf05BxFKnpO6mDbkreeYxAKkgLtWcMz59PZSjGnuqoOJBHANi47sCkzxCNIXr3VgsT6ZKRj3tGWOKBEzvtl_6Q9K2aQdC8N6c8kxLUjx9DO4jJlWw2ucO-5fMog4ogUACk4LaMGMJGsKDfI4x9KJqYjts2si3EzVI6b0yP8Wbft-x9-MofCm8efwTn-2a5aK5CK1i173A46cCOvF80XZ6kDTWWX76p0ZabvGtUQlSVkqLcUQBLPiQzMQP1PdPOVJXiOCHhReyA-Ab7UZcJ68b7fi8GvHVLRQ2yO_G1ttp_UXzVLNC5waJ7911dQk8K1axIgVpShAs3fVYHWrg_JY23cHCNh7p9Pz9KtEis7PmlFI9OYIr09q8C99JO7XPwBehvID7_UuxjeCZ8rztLEW8n2APR8xZShpFGCDwljpxr_V-pTEx1rVXhyV6W5GOMXk94kioE3Y-9H2bAsWmf7P8gAMUtpMN8Yb7A0KGAfqQLcLomQw4EBLBMwUkmCzwtZCbwjHCaEozHWb4_spAtWmiInnMXnpmM_OV8XThxrUbsZhOwqXFTzrT5nBdSkz6pzokrKN0NUB4XAFHyP8jM4bESXzjR0ZZdOMCFKCULyFoMxejQpMMGMTvnkXsObh0pQXWVIj2v0kxuy3DX5LFzME4-aOZ6iYhhElJFy3qyStqb7zXKlbrbU3kqnnAEZtOtV-ptZnx0vHiN3z5psaQkshL_jcx-eyyj3ql0FkyClcw2QaKE_nsGn6WTUvIy0]--></g></svg>