<?xml version="1.0" encoding="us-ascii" standalone="no"?><svg xmlns="http://www.w3.org/2000/svg" xmlns:xlink="http://www.w3.org/1999/xlink" contentStyleType="text/css" height="511px" preserveAspectRatio="none" style="width:302px;height:511px;background:#FFFFFF;" version="1.1" viewBox="0 0 302 511" width="302px" zoomAndPan="magnify"><defs/><g><path d="M11,10 L11,37.291 A0,0 0 0 0 11,37.291 L115,37.291 A0,0 0 0 0 115,37.291 L115,28 L135,23.6455 L115,20 L115,20 L105,10 L11,10 A0,0 0 0 0 11,10 " fill="#FEFFDD" style="stroke:#181818;stroke-width:0.5;"/><path d="M105,10 L105,20 L115,20 L105,10 " fill="#FEFFDD" style="stroke:#181818;stroke-width:0.5;"/><text fill="#000000" font-family="sans-serif" font-size="13" lengthAdjust="spacing" textLength="83" x="17" y="29.0283">vstup do bloku</text><ellipse cx="145" cy="23.6455" fill="#222222" rx="10" ry="10" style="stroke:#222222;stroke-width:1.0;"/><rect fill="#F1F1F1" height="35.9609" rx="12.5" ry="12.5" style="stroke:#181818;stroke-width:0.5;" width="171" x="59.5" y="205.2373"/><text fill="#000000" font-family="sans-serif" font-size="12" lengthAdjust="spacing" textLength="151" x="69.5" y="228.1865">vytvo&#345; odpove&#271; TESTFR con</text><rect fill="#F1F1F1" height="51.9219" rx="12.5" ry="12.5" style="stroke:#181818;stroke-width:0.5;" width="104" x="93" y="270.7178"/><text fill="#000000" font-family="sans-serif" font-size="12" lengthAdjust="spacing" textLength="84" x="103" y="293.667">ode&#353;li odpov&#283;&#271;</text><text fill="#000000" font-family="sans-serif" font-size="12" lengthAdjust="spacing" textLength="75" x="109" y="309.6279">send_frame()</text><polygon fill="#F1F1F1" points="96,155.9219,194,155.9219,206,167.9219,194,179.9219,96,179.9219,84,167.9219,96,155.9219" style="stroke:#181818;stroke-width:0.5;"/><text fill="#000000" font-family="sans-serif" font-size="11" lengthAdjust="spacing" textLength="18" x="149" y="191.792">ano</text><text fill="#000000" font-family="sans-serif" font-size="11" lengthAdjust="spacing" textLength="98" x="96" y="172.4766">apdu = TESTFR act?</text><text fill="#000000" font-family="sans-serif" font-size="11" lengthAdjust="spacing" textLength="12" x="206" y="165.1611">ne</text><polygon fill="#F1F1F1" points="145,342.6396,157,354.6396,145,366.6396,133,354.6396,145,342.6396" style="stroke:#181818;stroke-width:0.5;"/><polygon fill="#F1F1F1" points="103,106.6064,187,106.6064,199,118.6064,187,130.6064,103,130.6064,91,118.6064,103,106.6064" style="stroke:#181818;stroke-width:0.5;"/><text fill="#000000" font-family="sans-serif" font-size="11" lengthAdjust="spacing" textLength="18" x="149" y="142.4766">ano</text><text fill="#000000" font-family="sans-serif" font-size="11" lengthAdjust="spacing" textLength="84" x="103" y="123.1611">apdu = U-form&#225;t?</text><text fill="#000000" font-family="sans-serif" font-size="11" lengthAdjust="spacing" textLength="12" x="199" y="115.8457">ne</text><polygon fill="#F1F1F1" points="145,386.6396,157,398.6396,145,410.6396,133,398.6396,145,386.6396" style="stroke:#181818;stroke-width:0.5;"/><polygon fill="#F1F1F1" points="81,57.291,209,57.291,221,69.291,209,81.291,81,81.291,69,69.291,81,57.291" style="stroke:#181818;stroke-width:0.5;"/><text fill="#000000" font-family="sans-serif" font-size="11" lengthAdjust="spacing" textLength="18" x="149" y="93.1611">ano</text><text fill="#000000" font-family="sans-serif" font-size="11" lengthAdjust="spacing" textLength="128" x="81" y="73.8457">stav spojeni = Zastavene?</text><text fill="#000000" font-family="sans-serif" font-size="11" lengthAdjust="spacing" textLength="12" x="221" y="66.5303">ne</text><polygon fill="#F1F1F1" points="145,430.6396,157,442.6396,145,454.6396,133,442.6396,145,430.6396" style="stroke:#181818;stroke-width:0.5;"/><path d="M10,471.9941 L10,499.2852 A0,0 0 0 0 10,499.2852 L114,499.2852 A0,0 0 0 0 114,499.2852 L114,489.9941 L134,485.6396 L114,481.9941 L114,481.9941 L104,471.9941 L10,471.9941 A0,0 0 0 0 10,471.9941 " fill="#FEFFDD" style="stroke:#181818;stroke-width:0.5;"/><path d="M104,471.9941 L104,481.9941 L114,481.9941 L104,471.9941 " fill="#FEFFDD" style="stroke:#181818;stroke-width:0.5;"/><text fill="#000000" font-family="sans-serif" font-size="13" lengthAdjust="spacing" textLength="83" x="16" y="491.0225">v&#253;stup z bloku</text><ellipse cx="145" cy="485.6396" fill="none" rx="11" ry="11" style="stroke:#222222;stroke-width:1.0;"/><ellipse cx="145" cy="485.6396" fill="#222222" rx="6" ry="6" style="stroke:#222222;stroke-width:1.0;"/><line style="stroke:#181818;stroke-width:1.0;" x1="145" x2="145" y1="241.1982" y2="270.7178"/><polygon fill="#181818" points="141,260.7178,145,270.7178,149,260.7178,145,264.7178" style="stroke:#181818;stroke-width:1.0;"/><line style="stroke:#181818;stroke-width:1.0;" x1="145" x2="145" y1="179.9219" y2="205.2373"/><polygon fill="#181818" points="141,195.2373,145,205.2373,149,195.2373,145,199.2373" style="stroke:#181818;stroke-width:1.0;"/><line style="stroke:#181818;stroke-width:1.0;" x1="206" x2="240.5" y1="167.9219" y2="167.9219"/><polygon fill="#181818" points="236.5,251.1982,240.5,261.1982,244.5,251.1982,240.5,255.1982" style="stroke:#181818;stroke-width:1.0;"/><line style="stroke:#181818;stroke-width:1.0;" x1="240.5" x2="240.5" y1="167.9219" y2="354.6396"/><line style="stroke:#181818;stroke-width:1.0;" x1="240.5" x2="157" y1="354.6396" y2="354.6396"/><polygon fill="#181818" points="167,350.6396,157,354.6396,167,358.6396,163,354.6396" style="stroke:#181818;stroke-width:1.0;"/><line style="stroke:#181818;stroke-width:1.0;" x1="145" x2="145" y1="322.6396" y2="342.6396"/><polygon fill="#181818" points="141,332.6396,145,342.6396,149,332.6396,145,336.6396" style="stroke:#181818;stroke-width:1.0;"/><line style="stroke:#181818;stroke-width:1.0;" x1="145" x2="145" y1="130.6064" y2="155.9219"/><polygon fill="#181818" points="141,145.9219,145,155.9219,149,145.9219,145,149.9219" style="stroke:#181818;stroke-width:1.0;"/><line style="stroke:#181818;stroke-width:1.0;" x1="199" x2="258.5" y1="118.6064" y2="118.6064"/><polygon fill="#181818" points="254.5,251.1982,258.5,261.1982,262.5,251.1982,258.5,255.1982" style="stroke:#181818;stroke-width:1.0;"/><line style="stroke:#181818;stroke-width:1.0;" x1="258.5" x2="258.5" y1="118.6064" y2="398.6396"/><line style="stroke:#181818;stroke-width:1.0;" x1="258.5" x2="157" y1="398.6396" y2="398.6396"/><polygon fill="#181818" points="167,394.6396,157,398.6396,167,402.6396,163,398.6396" style="stroke:#181818;stroke-width:1.0;"/><line style="stroke:#181818;stroke-width:1.0;" x1="145" x2="145" y1="366.6396" y2="386.6396"/><polygon fill="#181818" points="141,376.6396,145,386.6396,149,376.6396,145,380.6396" style="stroke:#181818;stroke-width:1.0;"/><line style="stroke:#181818;stroke-width:1.0;" x1="145" x2="145" y1="81.291" y2="106.6064"/><polygon fill="#181818" points="141,96.6064,145,106.6064,149,96.6064,145,100.6064" style="stroke:#181818;stroke-width:1.0;"/><line style="stroke:#181818;stroke-width:1.0;" x1="221" x2="276.5" y1="69.291" y2="69.291"/><polygon fill="#181818" points="272.5,251.1982,276.5,261.1982,280.5,251.1982,276.5,255.1982" style="stroke:#181818;stroke-width:1.0;"/><line style="stroke:#181818;stroke-width:1.0;" x1="276.5" x2="276.5" y1="69.291" y2="442.6396"/><line style="stroke:#181818;stroke-width:1.0;" x1="276.5" x2="157" y1="442.6396" y2="442.6396"/><polygon fill="#181818" points="167,438.6396,157,442.6396,167,446.6396,163,442.6396" style="stroke:#181818;stroke-width:1.0;"/><line style="stroke:#181818;stroke-width:1.0;" x1="145" x2="145" y1="410.6396" y2="430.6396"/><polygon fill="#181818" points="141,420.6396,145,430.6396,149,420.6396,145,424.6396" style="stroke:#181818;stroke-width:1.0;"/><line style="stroke:#181818;stroke-width:1.0;" x1="145" x2="145" y1="33.6455" y2="57.291"/><polygon fill="#181818" points="141,47.291,145,57.291,149,47.291,145,51.291" style="stroke:#181818;stroke-width:1.0;"/><line style="stroke:#181818;stroke-width:1.0;" x1="145" x2="145" y1="454.6396" y2="474.6396"/><polygon fill="#181818" points="141,464.6396,145,474.6396,149,464.6396,145,468.6396" style="stroke:#181818;stroke-width:1.0;"/><!--SRC=[RT0zRi9040NWVa_nEko2WXQ4Ki41-6cYID667GiJCxFoZbSYbw16gJX8AiozCBOi4Cfsy-ORhVG6IxLA69cWjbJ3eZH635fvEC5N8T-LoJCapJeYUDaHvvZYtTu3OdfBeLjY99ObDRXJwrtLaFKmat9_EUiBQT-JMysMg_a2TlCl1CRne56k9uZp4ga-zXSRuSb3YQFhkSWxLV_Mnmy60h7xp4gxfoJjBHM1a33rFpGapynptYMlSr3nRJze2hhyjHNzT0tT0000]--></g></svg>