<?xml version="1.0" encoding="us-ascii" standalone="no"?><svg xmlns="http://www.w3.org/2000/svg" xmlns:xlink="http://www.w3.org/1999/xlink" contentStyleType="text/css" height="706px" preserveAspectRatio="none" style="width:290px;height:706px;background:#FFFFFF;" version="1.1" viewBox="0 0 290 706" width="290px" zoomAndPan="magnify"><defs/><g><ellipse cx="157" cy="20" fill="#F1F1F1" rx="10" ry="10" style="stroke:#181818;stroke-width:0.5;"/><path d="M151.4688,25.25 L155.875,13.7969 L157.5156,13.7969 L162.2031,25.25 L160.4688,25.25 L159.1406,21.7813 L154.3438,21.7813 L153.0938,25.25 L151.4688,25.25 Z M154.7813,20.5469 L158.6719,20.5469 L157.4688,17.375 Q156.9219,15.9219 156.6563,15 Q156.4375,16.0938 156.0469,17.1875 L154.7813,20.5469 Z " fill="#000000"/><rect fill="#F1F1F1" height="83.8438" rx="12.5" ry="12.5" style="stroke:#181818;stroke-width:0.5;" width="155" x="79.5" y="104.4375"/><text fill="#000000" font-family="sans-serif" font-size="16" lengthAdjust="spacing" textLength="111" x="89.5" y="131.7031">odstra&#328; v&#353;echny</text><text fill="#000000" font-family="sans-serif" font-size="16" lengthAdjust="spacing" textLength="115" x="89.5" y="152.9844">potvrzen&#233; r&#225;mce</text><text fill="#000000" font-family="sans-serif" font-size="16" lengthAdjust="spacing" textLength="135" x="89.5" y="174.2656">s hodnotou &lt;= RSN</text><polygon fill="#F1F1F1" points="96.5,51.7969,217.5,51.7969,229.5,63.7969,217.5,75.7969,96.5,75.7969,84.5,63.7969,96.5,51.7969" style="stroke:#181818;stroke-width:0.5;"/><text fill="#000000" font-family="sans-serif" font-size="16" lengthAdjust="spacing" textLength="26" x="161" y="93.0625">ano</text><text fill="#000000" font-family="sans-serif" font-size="16" lengthAdjust="spacing" textLength="121" x="96.5" y="70.4219">apdu = S-form&#225;t?</text><text fill="#000000" font-family="sans-serif" font-size="16" lengthAdjust="spacing" textLength="17" x="229.5" y="59.7813">ne</text><polygon fill="#F1F1F1" points="157,208.2813,169,220.2813,157,232.2813,145,220.2813,157,208.2813" style="stroke:#181818;stroke-width:0.5;"/><rect fill="#F1F1F1" height="62.5625" rx="12.5" ry="12.5" style="stroke:#181818;stroke-width:0.5;" width="125" x="94.5" y="359.3594"/><text fill="#000000" font-family="sans-serif" font-size="16" lengthAdjust="spacing" textLength="105" x="104.5" y="386.625">vytvo&#345; odpove&#271;</text><text fill="#000000" font-family="sans-serif" font-size="16" lengthAdjust="spacing" textLength="90" x="108.5" y="407.9063">TESTFR con</text><rect fill="#F1F1F1" height="62.5625" rx="12.5" ry="12.5" style="stroke:#181818;stroke-width:0.5;" width="128" x="93" y="456.9219"/><text fill="#000000" font-family="sans-serif" font-size="16" lengthAdjust="spacing" textLength="108" x="103" y="484.1875">ode&#353;li odpov&#283;&#271;</text><text fill="#000000" font-family="sans-serif" font-size="16" lengthAdjust="spacing" textLength="93" x="111" y="505.4688">send_frame()</text><polygon fill="#F1F1F1" points="83.5,306.7188,230.5,306.7188,242.5,318.7188,230.5,330.7188,83.5,330.7188,71.5,318.7188,83.5,306.7188" style="stroke:#181818;stroke-width:0.5;"/><text fill="#000000" font-family="sans-serif" font-size="16" lengthAdjust="spacing" textLength="26" x="161" y="347.9844">ano</text><text fill="#000000" font-family="sans-serif" font-size="16" lengthAdjust="spacing" textLength="147" x="83.5" y="325.3438">apdu = TESTFR act?</text><text fill="#000000" font-family="sans-serif" font-size="16" lengthAdjust="spacing" textLength="17" x="242.5" y="314.7031">ne</text><polygon fill="#F1F1F1" points="157,539.4844,169,551.4844,157,563.4844,145,551.4844,157,539.4844" style="stroke:#181818;stroke-width:0.5;"/><polygon fill="#F1F1F1" points="96.5,254.0781,217.5,254.0781,229.5,266.0781,217.5,278.0781,96.5,278.0781,84.5,266.0781,96.5,254.0781" style="stroke:#181818;stroke-width:0.5;"/><text fill="#000000" font-family="sans-serif" font-size="16" lengthAdjust="spacing" textLength="26" x="161" y="295.3438">ano</text><text fill="#000000" font-family="sans-serif" font-size="16" lengthAdjust="spacing" textLength="121" x="96.5" y="272.7031">apdu = U-form&#225;t?</text><text fill="#000000" font-family="sans-serif" font-size="16" lengthAdjust="spacing" textLength="17" x="229.5" y="262.0625">ne</text><polygon fill="#F1F1F1" points="157,583.4844,169,595.4844,157,607.4844,145,595.4844,157,583.4844" style="stroke:#181818;stroke-width:0.5;"/><ellipse cx="157" cy="637.4844" fill="#F1F1F1" rx="10" ry="10" style="stroke:#181818;stroke-width:0.5;"/><path d="M153.6719,643.4844 L153.6719,632.0313 L157.9688,632.0313 Q159.2813,632.0313 160.0781,632.375 Q160.875,632.7188 161.3125,633.4531 Q161.7656,634.1719 161.7656,634.9531 Q161.7656,635.6875 161.3594,636.3438 Q160.9688,636.9844 160.1719,637.3906 Q161.2031,637.6875 161.7656,638.4219 Q162.3281,639.1563 162.3281,640.1563 Q162.3281,640.9688 161.9844,641.6563 Q161.6406,642.3438 161.1406,642.7188 Q160.6406,643.0938 159.8906,643.2969 Q159.1406,643.4844 158.0469,643.4844 L153.6719,643.4844 Z M155.1875,636.8438 L157.6719,636.8438 Q158.6719,636.8438 159.1094,636.7031 Q159.6875,636.5313 159.9844,636.1406 Q160.2813,635.7344 160.2813,635.1406 Q160.2813,634.5625 160,634.1406 Q159.7344,633.7031 159.2188,633.5469 Q158.7188,633.375 157.4844,633.375 L155.1875,633.375 L155.1875,636.8438 Z M155.1875,642.125 L158.0469,642.125 Q158.7813,642.125 159.0781,642.0781 Q159.5938,641.9844 159.9375,641.7656 Q160.2969,641.5469 160.5156,641.125 Q160.75,640.7031 160.75,640.1563 Q160.75,639.5156 160.4219,639.0469 Q160.0938,638.5781 159.5156,638.3906 Q158.9375,638.1875 157.8438,638.1875 L155.1875,638.1875 L155.1875,642.125 Z " fill="#000000"/><path d="M10,662.8438 L10,694.125 A0,0 0 0 0 10,694.125 L126,694.125 A0,0 0 0 0 126,694.125 L126,682.4844 L146,678.4844 L126,674.4844 L126,672.8438 L116,662.8438 L10,662.8438 A0,0 0 0 0 10,662.8438 " fill="#FEFFDD" style="stroke:#181818;stroke-width:0.5;"/><path d="M116,662.8438 L116,672.8438 L126,672.8438 L116,662.8438 " fill="#FEFFDD" style="stroke:#181818;stroke-width:0.5;"/><text fill="#000000" font-family="sans-serif" font-size="16" lengthAdjust="spacing" textLength="95" x="16" y="685.1094">v&#253;stup z bloku</text><ellipse cx="157" cy="678.4844" fill="none" rx="11" ry="11" style="stroke:#222222;stroke-width:1.0;"/><ellipse cx="157" cy="678.4844" fill="#222222" rx="6" ry="6" style="stroke:#222222;stroke-width:1.0;"/><line style="stroke:#181818;stroke-width:1.0;" x1="157" x2="157" y1="75.7969" y2="104.4375"/><polygon fill="#181818" points="153,94.4375,157,104.4375,161,94.4375,157,98.4375" style="stroke:#181818;stroke-width:1.0;"/><line style="stroke:#181818;stroke-width:1.0;" x1="229.5" x2="244.5" y1="63.7969" y2="63.7969"/><polygon fill="#181818" points="240.5,136.3594,244.5,146.3594,248.5,136.3594,244.5,140.3594" style="stroke:#181818;stroke-width:1.0;"/><line style="stroke:#181818;stroke-width:1.0;" x1="244.5" x2="244.5" y1="63.7969" y2="220.2813"/><line style="stroke:#181818;stroke-width:1.0;" x1="244.5" x2="169" y1="220.2813" y2="220.2813"/><polygon fill="#181818" points="179,216.2813,169,220.2813,179,224.2813,175,220.2813" style="stroke:#181818;stroke-width:1.0;"/><line style="stroke:#181818;stroke-width:1.0;" x1="157" x2="157" y1="188.2813" y2="208.2813"/><polygon fill="#181818" points="153,198.2813,157,208.2813,161,198.2813,157,202.2813" style="stroke:#181818;stroke-width:1.0;"/><line style="stroke:#181818;stroke-width:1.0;" x1="157" x2="157" y1="30" y2="51.7969"/><polygon fill="#181818" points="153,41.7969,157,51.7969,161,41.7969,157,45.7969" style="stroke:#181818;stroke-width:1.0;"/><line style="stroke:#181818;stroke-width:1.0;" x1="157" x2="157" y1="421.9219" y2="456.9219"/><polygon fill="#181818" points="153,446.9219,157,456.9219,161,446.9219,157,450.9219" style="stroke:#181818;stroke-width:1.0;"/><line style="stroke:#181818;stroke-width:1.0;" x1="157" x2="157" y1="330.7188" y2="359.3594"/><polygon fill="#181818" points="153,349.3594,157,359.3594,161,349.3594,157,353.3594" style="stroke:#181818;stroke-width:1.0;"/><line style="stroke:#181818;stroke-width:1.0;" x1="242.5" x2="254.5" y1="318.7188" y2="318.7188"/><polygon fill="#181818" points="250.5,429.4219,254.5,439.4219,258.5,429.4219,254.5,433.4219" style="stroke:#181818;stroke-width:1.0;"/><line style="stroke:#181818;stroke-width:1.0;" x1="254.5" x2="254.5" y1="318.7188" y2="551.4844"/><line style="stroke:#181818;stroke-width:1.0;" x1="254.5" x2="169" y1="551.4844" y2="551.4844"/><polygon fill="#181818" points="179,547.4844,169,551.4844,179,555.4844,175,551.4844" style="stroke:#181818;stroke-width:1.0;"/><line style="stroke:#181818;stroke-width:1.0;" x1="157" x2="157" y1="519.4844" y2="539.4844"/><polygon fill="#181818" points="153,529.4844,157,539.4844,161,529.4844,157,533.4844" style="stroke:#181818;stroke-width:1.0;"/><line style="stroke:#181818;stroke-width:1.0;" x1="157" x2="157" y1="278.0781" y2="306.7188"/><polygon fill="#181818" points="153,296.7188,157,306.7188,161,296.7188,157,300.7188" style="stroke:#181818;stroke-width:1.0;"/><line style="stroke:#181818;stroke-width:1.0;" x1="229.5" x2="264.5" y1="266.0781" y2="266.0781"/><polygon fill="#181818" points="260.5,429.4219,264.5,439.4219,268.5,429.4219,264.5,433.4219" style="stroke:#181818;stroke-width:1.0;"/><line style="stroke:#181818;stroke-width:1.0;" x1="264.5" x2="264.5" y1="266.0781" y2="595.4844"/><line style="stroke:#181818;stroke-width:1.0;" x1="264.5" x2="169" y1="595.4844" y2="595.4844"/><polygon fill="#181818" points="179,591.4844,169,595.4844,179,599.4844,175,595.4844" style="stroke:#181818;stroke-width:1.0;"/><line style="stroke:#181818;stroke-width:1.0;" x1="157" x2="157" y1="563.4844" y2="583.4844"/><polygon fill="#181818" points="153,573.4844,157,583.4844,161,573.4844,157,577.4844" style="stroke:#181818;stroke-width:1.0;"/><line style="stroke:#181818;stroke-width:1.0;" x1="157" x2="157" y1="232.2813" y2="254.0781"/><polygon fill="#181818" points="153,244.0781,157,254.0781,161,244.0781,157,248.0781" style="stroke:#181818;stroke-width:1.0;"/><line style="stroke:#181818;stroke-width:1.0;" x1="157" x2="157" y1="607.4844" y2="627.4844"/><polygon fill="#181818" points="153,617.4844,157,627.4844,161,617.4844,157,621.4844" style="stroke:#181818;stroke-width:1.0;"/><line style="stroke:#181818;stroke-width:1.0;" x1="157" x2="157" y1="647.4844" y2="667.4844"/><polygon fill="#181818" points="153,657.4844,157,667.4844,161,657.4844,157,661.4844" style="stroke:#181818;stroke-width:1.0;"/><!--SRC=[VP2nJiD038RtF8KtaW4aEZ2qL0W47HcQibL2HyvHeYRsAUUSr3m16pDYoiX3CALvBuwKjXG9FFx-RF-_Js9HWZ0w6mLsbPDHbIhX5bDL5p9ZaZXl4CulWl0w2WBmbQSGAgDhc49ycd9LTgrSHI0PacyGHmFrLMFMLYhLFuFhMqmoMiEI38kh6gJk7QgkBHFqceMCDR5m3PTJcCVtas475XOX9Fm-ZAJpzBU5X_yj_20NT_5YDWUL_84EZjrQ7FUlmDgmmytBadPp2TFac6MDVLlaMtRpDi1WlSl7rFyGm-Z07vBibNsOuzvM3s-Ym0gRm3y5OGok-x1I6sZWgU1L_Ga0]--></g></svg>